<?xml version="1.0" encoding="utf-8" standalone="no"?>
<!DOCTYPE svg PUBLIC "-//W3C//DTD SVG 1.1//EN"
  "http://www.w3.org/Graphics/SVG/1.1/DTD/svg11.dtd">
<!-- Created with matplotlib (https://matplotlib.org/) -->
<svg height="288pt" version="1.1" viewBox="0 0 432 288" width="432pt" xmlns="http://www.w3.org/2000/svg" xmlns:xlink="http://www.w3.org/1999/xlink">
 <defs>
  <style type="text/css">
*{stroke-linecap:butt;stroke-linejoin:round;}
  </style>
 </defs>
 <g id="figure_1">
  <g id="patch_1">
   <path d="M 0 288 
L 432 288 
L 432 0 
L 0 0 
z
" style="fill:#ffffff;"/>
  </g>
  <g id="axes_1">
   <g id="patch_2">
    <path d="M 54 252 
L 388.8 252 
L 388.8 34.56 
L 54 34.56 
z
" style="fill:#ffffff;"/>
   </g>
   <g id="matplotlib.axis_1">
    <g id="xtick_1">
     <g id="line2d_1">
      <defs>
       <path d="M 0 0 
L 0 3.5 
" id="m5fa1fa8a32" style="stroke:#000000;stroke-width:0.8;"/>
      </defs>
      <g>
       <use style="stroke:#000000;stroke-width:0.8;" x="69.218182" xlink:href="#m5fa1fa8a32" y="252"/>
      </g>
     </g>
     <g id="text_1">
      <!-- 0 -->
      <defs>
       <path d="M 31.78125 66.40625 
Q 24.171875 66.40625 20.328125 58.90625 
Q 16.5 51.421875 16.5 36.375 
Q 16.5 21.390625 20.328125 13.890625 
Q 24.171875 6.390625 31.78125 6.390625 
Q 39.453125 6.390625 43.28125 13.890625 
Q 47.125 21.390625 47.125 36.375 
Q 47.125 51.421875 43.28125 58.90625 
Q 39.453125 66.40625 31.78125 66.40625 
z
M 31.78125 74.21875 
Q 44.046875 74.21875 50.515625 64.515625 
Q 56.984375 54.828125 56.984375 36.375 
Q 56.984375 17.96875 50.515625 8.265625 
Q 44.046875 -1.421875 31.78125 -1.421875 
Q 19.53125 -1.421875 13.0625 8.265625 
Q 6.59375 17.96875 6.59375 36.375 
Q 6.59375 54.828125 13.0625 64.515625 
Q 19.53125 74.21875 31.78125 74.21875 
z
" id="DejaVuSans-48"/>
      </defs>
      <g transform="translate(66.036932 266.598437)scale(0.1 -0.1)">
       <use xlink:href="#DejaVuSans-48"/>
      </g>
     </g>
    </g>
    <g id="xtick_2">
     <g id="line2d_2">
      <g>
       <use style="stroke:#000000;stroke-width:0.8;" x="130.335378" xlink:href="#m5fa1fa8a32" y="252"/>
      </g>
     </g>
     <g id="text_2">
      <!-- 50 -->
      <defs>
       <path d="M 10.796875 72.90625 
L 49.515625 72.90625 
L 49.515625 64.59375 
L 19.828125 64.59375 
L 19.828125 46.734375 
Q 21.96875 47.46875 24.109375 47.828125 
Q 26.265625 48.1875 28.421875 48.1875 
Q 40.625 48.1875 47.75 41.5 
Q 54.890625 34.8125 54.890625 23.390625 
Q 54.890625 11.625 47.5625 5.09375 
Q 40.234375 -1.421875 26.90625 -1.421875 
Q 22.3125 -1.421875 17.546875 -0.640625 
Q 12.796875 0.140625 7.71875 1.703125 
L 7.71875 11.625 
Q 12.109375 9.234375 16.796875 8.0625 
Q 21.484375 6.890625 26.703125 6.890625 
Q 35.15625 6.890625 40.078125 11.328125 
Q 45.015625 15.765625 45.015625 23.390625 
Q 45.015625 31 40.078125 35.4375 
Q 35.15625 39.890625 26.703125 39.890625 
Q 22.75 39.890625 18.8125 39.015625 
Q 14.890625 38.140625 10.796875 36.28125 
z
" id="DejaVuSans-53"/>
      </defs>
      <g transform="translate(123.972878 266.598437)scale(0.1 -0.1)">
       <use xlink:href="#DejaVuSans-53"/>
       <use x="63.623047" xlink:href="#DejaVuSans-48"/>
      </g>
     </g>
    </g>
    <g id="xtick_3">
     <g id="line2d_3">
      <g>
       <use style="stroke:#000000;stroke-width:0.8;" x="191.452574" xlink:href="#m5fa1fa8a32" y="252"/>
      </g>
     </g>
     <g id="text_3">
      <!-- 100 -->
      <defs>
       <path d="M 12.40625 8.296875 
L 28.515625 8.296875 
L 28.515625 63.921875 
L 10.984375 60.40625 
L 10.984375 69.390625 
L 28.421875 72.90625 
L 38.28125 72.90625 
L 38.28125 8.296875 
L 54.390625 8.296875 
L 54.390625 0 
L 12.40625 0 
z
" id="DejaVuSans-49"/>
      </defs>
      <g transform="translate(181.908824 266.598437)scale(0.1 -0.1)">
       <use xlink:href="#DejaVuSans-49"/>
       <use x="63.623047" xlink:href="#DejaVuSans-48"/>
       <use x="127.246094" xlink:href="#DejaVuSans-48"/>
      </g>
     </g>
    </g>
    <g id="xtick_4">
     <g id="line2d_4">
      <g>
       <use style="stroke:#000000;stroke-width:0.8;" x="252.56977" xlink:href="#m5fa1fa8a32" y="252"/>
      </g>
     </g>
     <g id="text_4">
      <!-- 150 -->
      <g transform="translate(243.02602 266.598437)scale(0.1 -0.1)">
       <use xlink:href="#DejaVuSans-49"/>
       <use x="63.623047" xlink:href="#DejaVuSans-53"/>
       <use x="127.246094" xlink:href="#DejaVuSans-48"/>
      </g>
     </g>
    </g>
    <g id="xtick_5">
     <g id="line2d_5">
      <g>
       <use style="stroke:#000000;stroke-width:0.8;" x="313.686966" xlink:href="#m5fa1fa8a32" y="252"/>
      </g>
     </g>
     <g id="text_5">
      <!-- 200 -->
      <defs>
       <path d="M 19.1875 8.296875 
L 53.609375 8.296875 
L 53.609375 0 
L 7.328125 0 
L 7.328125 8.296875 
Q 12.9375 14.109375 22.625 23.890625 
Q 32.328125 33.6875 34.8125 36.53125 
Q 39.546875 41.84375 41.421875 45.53125 
Q 43.3125 49.21875 43.3125 52.78125 
Q 43.3125 58.59375 39.234375 62.25 
Q 35.15625 65.921875 28.609375 65.921875 
Q 23.96875 65.921875 18.8125 64.3125 
Q 13.671875 62.703125 7.8125 59.421875 
L 7.8125 69.390625 
Q 13.765625 71.78125 18.9375 73 
Q 24.125 74.21875 28.421875 74.21875 
Q 39.75 74.21875 46.484375 68.546875 
Q 53.21875 62.890625 53.21875 53.421875 
Q 53.21875 48.921875 51.53125 44.890625 
Q 49.859375 40.875 45.40625 35.40625 
Q 44.1875 33.984375 37.640625 27.21875 
Q 31.109375 20.453125 19.1875 8.296875 
z
" id="DejaVuSans-50"/>
      </defs>
      <g transform="translate(304.143216 266.598437)scale(0.1 -0.1)">
       <use xlink:href="#DejaVuSans-50"/>
       <use x="63.623047" xlink:href="#DejaVuSans-48"/>
       <use x="127.246094" xlink:href="#DejaVuSans-48"/>
      </g>
     </g>
    </g>
    <g id="xtick_6">
     <g id="line2d_6">
      <g>
       <use style="stroke:#000000;stroke-width:0.8;" x="374.804162" xlink:href="#m5fa1fa8a32" y="252"/>
      </g>
     </g>
     <g id="text_6">
      <!-- 250 -->
      <g transform="translate(365.260412 266.598437)scale(0.1 -0.1)">
       <use xlink:href="#DejaVuSans-50"/>
       <use x="63.623047" xlink:href="#DejaVuSans-53"/>
       <use x="127.246094" xlink:href="#DejaVuSans-48"/>
      </g>
     </g>
    </g>
    <g id="text_7">
     <!-- Simulation Time -->
     <defs>
      <path d="M 53.515625 70.515625 
L 53.515625 60.890625 
Q 47.90625 63.578125 42.921875 64.890625 
Q 37.9375 66.21875 33.296875 66.21875 
Q 25.25 66.21875 20.875 63.09375 
Q 16.5 59.96875 16.5 54.203125 
Q 16.5 49.359375 19.40625 46.890625 
Q 22.3125 44.4375 30.421875 42.921875 
L 36.375 41.703125 
Q 47.40625 39.59375 52.65625 34.296875 
Q 57.90625 29 57.90625 20.125 
Q 57.90625 9.515625 50.796875 4.046875 
Q 43.703125 -1.421875 29.984375 -1.421875 
Q 24.8125 -1.421875 18.96875 -0.25 
Q 13.140625 0.921875 6.890625 3.21875 
L 6.890625 13.375 
Q 12.890625 10.015625 18.65625 8.296875 
Q 24.421875 6.59375 29.984375 6.59375 
Q 38.421875 6.59375 43.015625 9.90625 
Q 47.609375 13.234375 47.609375 19.390625 
Q 47.609375 24.75 44.3125 27.78125 
Q 41.015625 30.8125 33.5 32.328125 
L 27.484375 33.5 
Q 16.453125 35.6875 11.515625 40.375 
Q 6.59375 45.0625 6.59375 53.421875 
Q 6.59375 63.09375 13.40625 68.65625 
Q 20.21875 74.21875 32.171875 74.21875 
Q 37.3125 74.21875 42.625 73.28125 
Q 47.953125 72.359375 53.515625 70.515625 
z
" id="DejaVuSans-83"/>
      <path d="M 9.421875 54.6875 
L 18.40625 54.6875 
L 18.40625 0 
L 9.421875 0 
z
M 9.421875 75.984375 
L 18.40625 75.984375 
L 18.40625 64.59375 
L 9.421875 64.59375 
z
" id="DejaVuSans-105"/>
      <path d="M 52 44.1875 
Q 55.375 50.25 60.0625 53.125 
Q 64.75 56 71.09375 56 
Q 79.640625 56 84.28125 50.015625 
Q 88.921875 44.046875 88.921875 33.015625 
L 88.921875 0 
L 79.890625 0 
L 79.890625 32.71875 
Q 79.890625 40.578125 77.09375 44.375 
Q 74.3125 48.1875 68.609375 48.1875 
Q 61.625 48.1875 57.5625 43.546875 
Q 53.515625 38.921875 53.515625 30.90625 
L 53.515625 0 
L 44.484375 0 
L 44.484375 32.71875 
Q 44.484375 40.625 41.703125 44.40625 
Q 38.921875 48.1875 33.109375 48.1875 
Q 26.21875 48.1875 22.15625 43.53125 
Q 18.109375 38.875 18.109375 30.90625 
L 18.109375 0 
L 9.078125 0 
L 9.078125 54.6875 
L 18.109375 54.6875 
L 18.109375 46.1875 
Q 21.1875 51.21875 25.484375 53.609375 
Q 29.78125 56 35.6875 56 
Q 41.65625 56 45.828125 52.96875 
Q 50 49.953125 52 44.1875 
z
" id="DejaVuSans-109"/>
      <path d="M 8.5 21.578125 
L 8.5 54.6875 
L 17.484375 54.6875 
L 17.484375 21.921875 
Q 17.484375 14.15625 20.5 10.265625 
Q 23.53125 6.390625 29.59375 6.390625 
Q 36.859375 6.390625 41.078125 11.03125 
Q 45.3125 15.671875 45.3125 23.6875 
L 45.3125 54.6875 
L 54.296875 54.6875 
L 54.296875 0 
L 45.3125 0 
L 45.3125 8.40625 
Q 42.046875 3.421875 37.71875 1 
Q 33.40625 -1.421875 27.6875 -1.421875 
Q 18.265625 -1.421875 13.375 4.4375 
Q 8.5 10.296875 8.5 21.578125 
z
M 31.109375 56 
z
" id="DejaVuSans-117"/>
      <path d="M 9.421875 75.984375 
L 18.40625 75.984375 
L 18.40625 0 
L 9.421875 0 
z
" id="DejaVuSans-108"/>
      <path d="M 34.28125 27.484375 
Q 23.390625 27.484375 19.1875 25 
Q 14.984375 22.515625 14.984375 16.5 
Q 14.984375 11.71875 18.140625 8.90625 
Q 21.296875 6.109375 26.703125 6.109375 
Q 34.1875 6.109375 38.703125 11.40625 
Q 43.21875 16.703125 43.21875 25.484375 
L 43.21875 27.484375 
z
M 52.203125 31.203125 
L 52.203125 0 
L 43.21875 0 
L 43.21875 8.296875 
Q 40.140625 3.328125 35.546875 0.953125 
Q 30.953125 -1.421875 24.3125 -1.421875 
Q 15.921875 -1.421875 10.953125 3.296875 
Q 6 8.015625 6 15.921875 
Q 6 25.140625 12.171875 29.828125 
Q 18.359375 34.515625 30.609375 34.515625 
L 43.21875 34.515625 
L 43.21875 35.40625 
Q 43.21875 41.609375 39.140625 45 
Q 35.0625 48.390625 27.6875 48.390625 
Q 23 48.390625 18.546875 47.265625 
Q 14.109375 46.140625 10.015625 43.890625 
L 10.015625 52.203125 
Q 14.9375 54.109375 19.578125 55.046875 
Q 24.21875 56 28.609375 56 
Q 40.484375 56 46.34375 49.84375 
Q 52.203125 43.703125 52.203125 31.203125 
z
" id="DejaVuSans-97"/>
      <path d="M 18.3125 70.21875 
L 18.3125 54.6875 
L 36.8125 54.6875 
L 36.8125 47.703125 
L 18.3125 47.703125 
L 18.3125 18.015625 
Q 18.3125 11.328125 20.140625 9.421875 
Q 21.96875 7.515625 27.59375 7.515625 
L 36.8125 7.515625 
L 36.8125 0 
L 27.59375 0 
Q 17.1875 0 13.234375 3.875 
Q 9.28125 7.765625 9.28125 18.015625 
L 9.28125 47.703125 
L 2.6875 47.703125 
L 2.6875 54.6875 
L 9.28125 54.6875 
L 9.28125 70.21875 
z
" id="DejaVuSans-116"/>
      <path d="M 30.609375 48.390625 
Q 23.390625 48.390625 19.1875 42.75 
Q 14.984375 37.109375 14.984375 27.296875 
Q 14.984375 17.484375 19.15625 11.84375 
Q 23.34375 6.203125 30.609375 6.203125 
Q 37.796875 6.203125 41.984375 11.859375 
Q 46.1875 17.53125 46.1875 27.296875 
Q 46.1875 37.015625 41.984375 42.703125 
Q 37.796875 48.390625 30.609375 48.390625 
z
M 30.609375 56 
Q 42.328125 56 49.015625 48.375 
Q 55.71875 40.765625 55.71875 27.296875 
Q 55.71875 13.875 49.015625 6.21875 
Q 42.328125 -1.421875 30.609375 -1.421875 
Q 18.84375 -1.421875 12.171875 6.21875 
Q 5.515625 13.875 5.515625 27.296875 
Q 5.515625 40.765625 12.171875 48.375 
Q 18.84375 56 30.609375 56 
z
" id="DejaVuSans-111"/>
      <path d="M 54.890625 33.015625 
L 54.890625 0 
L 45.90625 0 
L 45.90625 32.71875 
Q 45.90625 40.484375 42.875 44.328125 
Q 39.84375 48.1875 33.796875 48.1875 
Q 26.515625 48.1875 22.3125 43.546875 
Q 18.109375 38.921875 18.109375 30.90625 
L 18.109375 0 
L 9.078125 0 
L 9.078125 54.6875 
L 18.109375 54.6875 
L 18.109375 46.1875 
Q 21.34375 51.125 25.703125 53.5625 
Q 30.078125 56 35.796875 56 
Q 45.21875 56 50.046875 50.171875 
Q 54.890625 44.34375 54.890625 33.015625 
z
" id="DejaVuSans-110"/>
      <path id="DejaVuSans-32"/>
      <path d="M -0.296875 72.90625 
L 61.375 72.90625 
L 61.375 64.59375 
L 35.5 64.59375 
L 35.5 0 
L 25.59375 0 
L 25.59375 64.59375 
L -0.296875 64.59375 
z
" id="DejaVuSans-84"/>
      <path d="M 56.203125 29.59375 
L 56.203125 25.203125 
L 14.890625 25.203125 
Q 15.484375 15.921875 20.484375 11.0625 
Q 25.484375 6.203125 34.421875 6.203125 
Q 39.59375 6.203125 44.453125 7.46875 
Q 49.3125 8.734375 54.109375 11.28125 
L 54.109375 2.78125 
Q 49.265625 0.734375 44.1875 -0.34375 
Q 39.109375 -1.421875 33.890625 -1.421875 
Q 20.796875 -1.421875 13.15625 6.1875 
Q 5.515625 13.8125 5.515625 26.8125 
Q 5.515625 40.234375 12.765625 48.109375 
Q 20.015625 56 32.328125 56 
Q 43.359375 56 49.78125 48.890625 
Q 56.203125 41.796875 56.203125 29.59375 
z
M 47.21875 32.234375 
Q 47.125 39.59375 43.09375 43.984375 
Q 39.0625 48.390625 32.421875 48.390625 
Q 24.90625 48.390625 20.390625 44.140625 
Q 15.875 39.890625 15.1875 32.171875 
z
" id="DejaVuSans-101"/>
     </defs>
     <g transform="translate(180.944531 280.276563)scale(0.1 -0.1)">
      <use xlink:href="#DejaVuSans-83"/>
      <use x="63.476562" xlink:href="#DejaVuSans-105"/>
      <use x="91.259766" xlink:href="#DejaVuSans-109"/>
      <use x="188.671875" xlink:href="#DejaVuSans-117"/>
      <use x="252.050781" xlink:href="#DejaVuSans-108"/>
      <use x="279.833984" xlink:href="#DejaVuSans-97"/>
      <use x="341.113281" xlink:href="#DejaVuSans-116"/>
      <use x="380.322266" xlink:href="#DejaVuSans-105"/>
      <use x="408.105469" xlink:href="#DejaVuSans-111"/>
      <use x="469.287109" xlink:href="#DejaVuSans-110"/>
      <use x="532.666016" xlink:href="#DejaVuSans-32"/>
      <use x="564.453125" xlink:href="#DejaVuSans-84"/>
      <use x="622.412109" xlink:href="#DejaVuSans-105"/>
      <use x="650.195312" xlink:href="#DejaVuSans-109"/>
      <use x="747.607422" xlink:href="#DejaVuSans-101"/>
     </g>
    </g>
   </g>
   <g id="matplotlib.axis_2">
    <g id="ytick_1">
     <g id="line2d_7">
      <defs>
       <path d="M 0 0 
L -3.5 0 
" id="m97120c1b14" style="stroke:#000000;stroke-width:0.8;"/>
      </defs>
      <g>
       <use style="stroke:#000000;stroke-width:0.8;" x="54" xlink:href="#m97120c1b14" y="242.116364"/>
      </g>
     </g>
     <g id="text_8">
      <!-- 0% -->
      <defs>
       <path d="M 72.703125 32.078125 
Q 68.453125 32.078125 66.03125 28.46875 
Q 63.625 24.859375 63.625 18.40625 
Q 63.625 12.0625 66.03125 8.421875 
Q 68.453125 4.78125 72.703125 4.78125 
Q 76.859375 4.78125 79.265625 8.421875 
Q 81.6875 12.0625 81.6875 18.40625 
Q 81.6875 24.8125 79.265625 28.4375 
Q 76.859375 32.078125 72.703125 32.078125 
z
M 72.703125 38.28125 
Q 80.421875 38.28125 84.953125 32.90625 
Q 89.5 27.546875 89.5 18.40625 
Q 89.5 9.28125 84.9375 3.921875 
Q 80.375 -1.421875 72.703125 -1.421875 
Q 64.890625 -1.421875 60.34375 3.921875 
Q 55.8125 9.28125 55.8125 18.40625 
Q 55.8125 27.59375 60.375 32.9375 
Q 64.9375 38.28125 72.703125 38.28125 
z
M 22.3125 68.015625 
Q 18.109375 68.015625 15.6875 64.375 
Q 13.28125 60.75 13.28125 54.390625 
Q 13.28125 47.953125 15.671875 44.328125 
Q 18.0625 40.71875 22.3125 40.71875 
Q 26.5625 40.71875 28.96875 44.328125 
Q 31.390625 47.953125 31.390625 54.390625 
Q 31.390625 60.6875 28.953125 64.34375 
Q 26.515625 68.015625 22.3125 68.015625 
z
M 66.40625 74.21875 
L 74.21875 74.21875 
L 28.609375 -1.421875 
L 20.796875 -1.421875 
z
M 22.3125 74.21875 
Q 30.03125 74.21875 34.609375 68.875 
Q 39.203125 63.53125 39.203125 54.390625 
Q 39.203125 45.171875 34.640625 39.84375 
Q 30.078125 34.515625 22.3125 34.515625 
Q 14.546875 34.515625 10.03125 39.859375 
Q 5.515625 45.21875 5.515625 54.390625 
Q 5.515625 63.484375 10.046875 68.84375 
Q 14.59375 74.21875 22.3125 74.21875 
z
" id="DejaVuSans-37"/>
      </defs>
      <g transform="translate(31.135937 245.915582)scale(0.1 -0.1)">
       <use xlink:href="#DejaVuSans-48"/>
       <use x="63.623047" xlink:href="#DejaVuSans-37"/>
      </g>
     </g>
    </g>
    <g id="ytick_2">
     <g id="line2d_8">
      <g>
       <use style="stroke:#000000;stroke-width:0.8;" x="54" xlink:href="#m97120c1b14" y="202.581818"/>
      </g>
     </g>
     <g id="text_9">
      <!-- 20% -->
      <g transform="translate(24.773438 206.381037)scale(0.1 -0.1)">
       <use xlink:href="#DejaVuSans-50"/>
       <use x="63.623047" xlink:href="#DejaVuSans-48"/>
       <use x="127.246094" xlink:href="#DejaVuSans-37"/>
      </g>
     </g>
    </g>
    <g id="ytick_3">
     <g id="line2d_9">
      <g>
       <use style="stroke:#000000;stroke-width:0.8;" x="54" xlink:href="#m97120c1b14" y="163.047273"/>
      </g>
     </g>
     <g id="text_10">
      <!-- 40% -->
      <defs>
       <path d="M 37.796875 64.3125 
L 12.890625 25.390625 
L 37.796875 25.390625 
z
M 35.203125 72.90625 
L 47.609375 72.90625 
L 47.609375 25.390625 
L 58.015625 25.390625 
L 58.015625 17.1875 
L 47.609375 17.1875 
L 47.609375 0 
L 37.796875 0 
L 37.796875 17.1875 
L 4.890625 17.1875 
L 4.890625 26.703125 
z
" id="DejaVuSans-52"/>
      </defs>
      <g transform="translate(24.773438 166.846491)scale(0.1 -0.1)">
       <use xlink:href="#DejaVuSans-52"/>
       <use x="63.623047" xlink:href="#DejaVuSans-48"/>
       <use x="127.246094" xlink:href="#DejaVuSans-37"/>
      </g>
     </g>
    </g>
    <g id="ytick_4">
     <g id="line2d_10">
      <g>
       <use style="stroke:#000000;stroke-width:0.8;" x="54" xlink:href="#m97120c1b14" y="123.512727"/>
      </g>
     </g>
     <g id="text_11">
      <!-- 60% -->
      <defs>
       <path d="M 33.015625 40.375 
Q 26.375 40.375 22.484375 35.828125 
Q 18.609375 31.296875 18.609375 23.390625 
Q 18.609375 15.53125 22.484375 10.953125 
Q 26.375 6.390625 33.015625 6.390625 
Q 39.65625 6.390625 43.53125 10.953125 
Q 47.40625 15.53125 47.40625 23.390625 
Q 47.40625 31.296875 43.53125 35.828125 
Q 39.65625 40.375 33.015625 40.375 
z
M 52.59375 71.296875 
L 52.59375 62.3125 
Q 48.875 64.0625 45.09375 64.984375 
Q 41.3125 65.921875 37.59375 65.921875 
Q 27.828125 65.921875 22.671875 59.328125 
Q 17.53125 52.734375 16.796875 39.40625 
Q 19.671875 43.65625 24.015625 45.921875 
Q 28.375 48.1875 33.59375 48.1875 
Q 44.578125 48.1875 50.953125 41.515625 
Q 57.328125 34.859375 57.328125 23.390625 
Q 57.328125 12.15625 50.6875 5.359375 
Q 44.046875 -1.421875 33.015625 -1.421875 
Q 20.359375 -1.421875 13.671875 8.265625 
Q 6.984375 17.96875 6.984375 36.375 
Q 6.984375 53.65625 15.1875 63.9375 
Q 23.390625 74.21875 37.203125 74.21875 
Q 40.921875 74.21875 44.703125 73.484375 
Q 48.484375 72.75 52.59375 71.296875 
z
" id="DejaVuSans-54"/>
      </defs>
      <g transform="translate(24.773438 127.311946)scale(0.1 -0.1)">
       <use xlink:href="#DejaVuSans-54"/>
       <use x="63.623047" xlink:href="#DejaVuSans-48"/>
       <use x="127.246094" xlink:href="#DejaVuSans-37"/>
      </g>
     </g>
    </g>
    <g id="ytick_5">
     <g id="line2d_11">
      <g>
       <use style="stroke:#000000;stroke-width:0.8;" x="54" xlink:href="#m97120c1b14" y="83.978182"/>
      </g>
     </g>
     <g id="text_12">
      <!-- 80% -->
      <defs>
       <path d="M 31.78125 34.625 
Q 24.75 34.625 20.71875 30.859375 
Q 16.703125 27.09375 16.703125 20.515625 
Q 16.703125 13.921875 20.71875 10.15625 
Q 24.75 6.390625 31.78125 6.390625 
Q 38.8125 6.390625 42.859375 10.171875 
Q 46.921875 13.96875 46.921875 20.515625 
Q 46.921875 27.09375 42.890625 30.859375 
Q 38.875 34.625 31.78125 34.625 
z
M 21.921875 38.8125 
Q 15.578125 40.375 12.03125 44.71875 
Q 8.5 49.078125 8.5 55.328125 
Q 8.5 64.0625 14.71875 69.140625 
Q 20.953125 74.21875 31.78125 74.21875 
Q 42.671875 74.21875 48.875 69.140625 
Q 55.078125 64.0625 55.078125 55.328125 
Q 55.078125 49.078125 51.53125 44.71875 
Q 48 40.375 41.703125 38.8125 
Q 48.828125 37.15625 52.796875 32.3125 
Q 56.78125 27.484375 56.78125 20.515625 
Q 56.78125 9.90625 50.3125 4.234375 
Q 43.84375 -1.421875 31.78125 -1.421875 
Q 19.734375 -1.421875 13.25 4.234375 
Q 6.78125 9.90625 6.78125 20.515625 
Q 6.78125 27.484375 10.78125 32.3125 
Q 14.796875 37.15625 21.921875 38.8125 
z
M 18.3125 54.390625 
Q 18.3125 48.734375 21.84375 45.5625 
Q 25.390625 42.390625 31.78125 42.390625 
Q 38.140625 42.390625 41.71875 45.5625 
Q 45.3125 48.734375 45.3125 54.390625 
Q 45.3125 60.0625 41.71875 63.234375 
Q 38.140625 66.40625 31.78125 66.40625 
Q 25.390625 66.40625 21.84375 63.234375 
Q 18.3125 60.0625 18.3125 54.390625 
z
" id="DejaVuSans-56"/>
      </defs>
      <g transform="translate(24.773438 87.777401)scale(0.1 -0.1)">
       <use xlink:href="#DejaVuSans-56"/>
       <use x="63.623047" xlink:href="#DejaVuSans-48"/>
       <use x="127.246094" xlink:href="#DejaVuSans-37"/>
      </g>
     </g>
    </g>
    <g id="ytick_6">
     <g id="line2d_12">
      <g>
       <use style="stroke:#000000;stroke-width:0.8;" x="54" xlink:href="#m97120c1b14" y="44.443636"/>
      </g>
     </g>
     <g id="text_13">
      <!-- 100% -->
      <g transform="translate(18.410937 48.242855)scale(0.1 -0.1)">
       <use xlink:href="#DejaVuSans-49"/>
       <use x="63.623047" xlink:href="#DejaVuSans-48"/>
       <use x="127.246094" xlink:href="#DejaVuSans-48"/>
       <use x="190.869141" xlink:href="#DejaVuSans-37"/>
      </g>
     </g>
    </g>
    <g id="text_14">
     <!-- Strategy -->
     <defs>
      <path d="M 41.109375 46.296875 
Q 39.59375 47.171875 37.8125 47.578125 
Q 36.03125 48 33.890625 48 
Q 26.265625 48 22.1875 43.046875 
Q 18.109375 38.09375 18.109375 28.8125 
L 18.109375 0 
L 9.078125 0 
L 9.078125 54.6875 
L 18.109375 54.6875 
L 18.109375 46.1875 
Q 20.953125 51.171875 25.484375 53.578125 
Q 30.03125 56 36.53125 56 
Q 37.453125 56 38.578125 55.875 
Q 39.703125 55.765625 41.0625 55.515625 
z
" id="DejaVuSans-114"/>
      <path d="M 45.40625 27.984375 
Q 45.40625 37.75 41.375 43.109375 
Q 37.359375 48.484375 30.078125 48.484375 
Q 22.859375 48.484375 18.828125 43.109375 
Q 14.796875 37.75 14.796875 27.984375 
Q 14.796875 18.265625 18.828125 12.890625 
Q 22.859375 7.515625 30.078125 7.515625 
Q 37.359375 7.515625 41.375 12.890625 
Q 45.40625 18.265625 45.40625 27.984375 
z
M 54.390625 6.78125 
Q 54.390625 -7.171875 48.1875 -13.984375 
Q 42 -20.796875 29.203125 -20.796875 
Q 24.46875 -20.796875 20.265625 -20.09375 
Q 16.0625 -19.390625 12.109375 -17.921875 
L 12.109375 -9.1875 
Q 16.0625 -11.328125 19.921875 -12.34375 
Q 23.78125 -13.375 27.78125 -13.375 
Q 36.625 -13.375 41.015625 -8.765625 
Q 45.40625 -4.15625 45.40625 5.171875 
L 45.40625 9.625 
Q 42.625 4.78125 38.28125 2.390625 
Q 33.9375 0 27.875 0 
Q 17.828125 0 11.671875 7.65625 
Q 5.515625 15.328125 5.515625 27.984375 
Q 5.515625 40.671875 11.671875 48.328125 
Q 17.828125 56 27.875 56 
Q 33.9375 56 38.28125 53.609375 
Q 42.625 51.21875 45.40625 46.390625 
L 45.40625 54.6875 
L 54.390625 54.6875 
z
" id="DejaVuSans-103"/>
      <path d="M 32.171875 -5.078125 
Q 28.375 -14.84375 24.75 -17.8125 
Q 21.140625 -20.796875 15.09375 -20.796875 
L 7.90625 -20.796875 
L 7.90625 -13.28125 
L 13.1875 -13.28125 
Q 16.890625 -13.28125 18.9375 -11.515625 
Q 21 -9.765625 23.484375 -3.21875 
L 25.09375 0.875 
L 2.984375 54.6875 
L 12.5 54.6875 
L 29.59375 11.921875 
L 46.6875 54.6875 
L 56.203125 54.6875 
z
" id="DejaVuSans-121"/>
     </defs>
     <g transform="translate(12.33125 164.704219)rotate(-90)scale(0.1 -0.1)">
      <use xlink:href="#DejaVuSans-83"/>
      <use x="63.476562" xlink:href="#DejaVuSans-116"/>
      <use x="102.685547" xlink:href="#DejaVuSans-114"/>
      <use x="143.798828" xlink:href="#DejaVuSans-97"/>
      <use x="205.078125" xlink:href="#DejaVuSans-116"/>
      <use x="244.287109" xlink:href="#DejaVuSans-101"/>
      <use x="305.810547" xlink:href="#DejaVuSans-103"/>
      <use x="369.287109" xlink:href="#DejaVuSans-121"/>
     </g>
    </g>
   </g>
   <g id="line2d_13">
    <path clip-path="url(#p75381b8b34)" d="M 69.218182 242.116364 
L 70.440526 242.116364 
L 71.66287 192.698182 
L 72.885214 163.047273 
L 74.107558 202.581818 
L 75.329901 185.638442 
L 76.552245 192.698182 
L 77.774589 182.814545 
L 78.996933 192.698182 
L 80.219277 209.170909 
L 81.441621 199.757922 
L 82.663965 185.638442 
L 83.886309 188.896783 
L 85.108653 194.402257 
L 86.330997 205.702967 
L 87.553341 205.340042 
L 88.775685 203.357005 
L 91.220372 191.200661 
L 92.442716 194.674909 
L 93.66506 197.64 
L 96.109748 195.245511 
L 97.332092 192.23633 
L 98.554436 187.299557 
L 99.77678 186.951882 
L 100.999124 189.010258 
L 103.443812 187.585956 
L 104.666156 183.235126 
L 105.888499 182.721741 
L 107.110843 180.829186 
L 108.333187 175.685365 
L 109.555531 177.52252 
L 110.777875 175.277384 
L 112.000219 176.451108 
L 113.222563 176.653318 
L 114.444907 177.255 
L 115.667251 176.225455 
L 116.889595 174.591796 
L 118.111939 174.591796 
L 119.334283 174.13368 
L 120.556627 169.736198 
L 121.77897 170.896043 
L 123.001314 170.067426 
L 124.223658 173.517609 
L 125.446002 173.72513 
L 126.668346 172.143717 
L 129.113034 170.38702 
L 130.335378 172.542112 
L 131.557722 171.662744 
L 132.780066 171.325543 
L 134.00241 170.441138 
L 135.224754 171.654987 
L 136.447097 170.609752 
L 137.669441 172.821496 
L 138.891785 171.938871 
L 140.114129 171.313587 
L 141.336473 170.268527 
L 142.558817 168.809688 
L 143.781161 168.563721 
L 145.003505 169.252872 
L 146.225849 170.526781 
L 147.448193 168.555613 
L 148.670537 167.028667 
L 149.892881 167.945969 
L 151.115225 168.332273 
L 152.337568 167.606334 
L 153.559912 167.861943 
L 154.782256 165.727581 
L 156.0046 164.531505 
L 157.226944 166.166637 
L 158.449288 164.677563 
L 159.671632 165.427279 
L 160.893976 164.942765 
L 162.11632 162.507552 
L 163.338664 163.863821 
L 164.561008 162.848273 
L 165.783352 161.557958 
L 167.005696 162.365643 
L 168.228039 162.848273 
L 169.450383 161.11388 
L 170.672727 162.507552 
L 171.895071 160.780537 
L 173.117415 159.836345 
L 174.339759 159.17905 
L 175.562103 160.389488 
L 176.784447 159.724472 
L 178.006791 158.434909 
L 180.451479 157.399481 
L 181.673823 154.734545 
L 182.896166 157.739709 
L 184.11851 157.446545 
L 185.340854 155.423717 
L 186.563198 155.761043 
L 189.007886 152.080498 
L 190.23023 151.991002 
L 191.452574 150.26843 
L 192.674918 150.315809 
L 193.897262 148.499638 
L 195.119606 148.975655 
L 196.34195 150.292039 
L 197.564294 150.090573 
L 198.786637 148.695691 
L 200.008981 148.975655 
L 201.231325 147.795367 
L 202.453669 146.952973 
L 203.676013 146.596656 
L 204.898357 146.436119 
L 206.120701 145.771673 
L 207.343045 147.300462 
L 208.565389 146.132662 
L 209.787733 144.438885 
L 211.010077 142.943822 
L 212.232421 143.781707 
L 213.454765 143.778335 
L 214.677108 144.285116 
L 215.899452 143.781707 
L 217.121796 142.943822 
L 218.34414 141.13497 
L 219.566484 140.264653 
L 220.788828 142.113298 
L 222.011172 139.791658 
L 223.233516 140.771463 
L 224.45586 140.754369 
L 225.678204 142.117219 
L 226.900548 138.494934 
L 228.122892 138.130542 
L 229.345235 138.446518 
L 230.567579 138.008727 
L 231.789923 137.919384 
L 233.012267 138.605307 
L 234.234611 136.624353 
L 235.456955 136.713359 
L 236.679299 136.668305 
L 237.901643 137.426747 
L 239.123987 137.386861 
L 241.568675 136.329244 
L 242.791019 136.57923 
L 245.235706 134.685534 
L 246.45805 134.325027 
L 247.680394 133.80254 
L 248.902738 134.875547 
L 250.125082 134.750974 
L 251.347426 135.366356 
L 252.56977 134.808312 
L 253.792114 135.128547 
L 255.014458 133.670909 
L 256.236802 134.875547 
L 257.459146 133.811642 
L 258.68149 133.930614 
L 259.903834 132.744144 
L 261.126177 133.596708 
L 262.348521 130.737314 
L 263.570865 131.927174 
L 264.793209 132.59957 
L 266.015553 131.049413 
L 267.237897 129.207273 
L 268.460241 129.018377 
L 269.682585 130.003474 
L 270.904929 128.254201 
L 273.349617 130.270769 
L 274.571961 132.003368 
L 275.794304 129.396631 
L 277.016648 129.160519 
L 278.238992 129.11233 
L 279.461336 129.584811 
L 280.68368 129.207821 
L 281.906024 128.175439 
L 283.128368 128.061541 
L 284.350712 129.064956 
L 285.573056 130.591548 
L 286.7954 127.639229 
L 288.017744 127.446181 
L 289.240088 128.404962 
L 290.462432 126.274084 
L 291.684775 126.723655 
L 292.907119 125.522958 
L 294.129463 125.309752 
L 295.351807 125.916855 
L 296.574151 124.84162 
L 297.796495 127.604784 
L 299.018839 126.944775 
L 301.463527 124.706724 
L 302.685871 123.708443 
L 303.908215 124.375058 
L 305.130559 121.981928 
L 306.352903 121.608239 
L 307.575246 120.930069 
L 308.79759 120.014679 
L 310.019934 120.574349 
L 311.242278 119.572629 
L 312.464622 119.779279 
L 313.686966 120.471608 
L 314.90931 117.941645 
L 316.131654 118.321322 
L 317.353998 119.24787 
L 318.576342 119.948137 
L 319.798686 118.986887 
L 321.02103 118.48827 
L 322.243373 118.654105 
L 323.465717 117.358449 
L 324.688061 118.202117 
L 325.910405 114.364237 
L 327.132749 115.445813 
L 329.577437 113.629091 
L 330.799781 114.230123 
L 332.022125 112.445721 
L 333.244469 112.754579 
L 334.466813 109.996643 
L 335.689157 109.668981 
L 336.911501 108.902134 
L 338.133844 107.56602 
L 339.356188 106.901574 
L 340.578532 107.910465 
L 341.800876 108.219803 
L 343.02322 107.685665 
L 344.245564 106.300408 
L 345.467908 106.60694 
L 346.690252 104.852959 
L 347.912596 105.824483 
L 349.13494 103.846137 
L 350.357284 103.450421 
L 351.579628 104.533519 
L 352.801972 102.891719 
L 354.024315 102.112071 
L 355.246659 102.800943 
L 356.469003 101.586005 
L 357.691347 101.445384 
L 358.913691 101.586005 
L 360.136035 102.877297 
L 361.358379 101.308394 
L 362.580723 101.483528 
L 363.803067 100.060031 
L 365.025411 99.818849 
L 366.247755 100.11201 
L 367.470099 99.924889 
L 368.692442 98.505137 
L 371.13713 99.147634 
L 372.359474 98.443636 
L 373.581818 96.497455 
L 373.581818 96.497455 
" style="fill:none;stroke:#00008b;stroke-linecap:square;stroke-width:1.5;"/>
   </g>
   <g id="line2d_14">
    <path clip-path="url(#p75381b8b34)" d="M 69.218182 242.116364 
L 70.440526 176.225455 
L 71.66287 192.698182 
L 72.885214 202.581818 
L 74.107558 163.047273 
L 75.329901 185.638442 
L 76.552245 167.989091 
L 77.774589 182.814545 
L 78.996933 176.225455 
L 80.219277 192.698182 
L 81.441621 185.638442 
L 82.663965 176.225455 
L 83.886309 173.691189 
L 85.108653 180.769655 
L 86.330997 169.289569 
L 87.553341 168.563721 
L 88.775685 160.721711 
L 89.998028 158.885742 
L 91.220372 161.250248 
L 92.442716 155.140364 
L 93.66506 153.163636 
L 94.887404 144.366114 
L 96.109748 138.185342 
L 97.332092 133.119252 
L 98.554436 134.143866 
L 99.77678 133.319746 
L 100.999124 131.478643 
L 102.221468 132.020161 
L 103.443812 130.783448 
L 104.666156 136.971296 
L 105.888499 141.887939 
L 107.110843 142.8484 
L 108.333187 145.710402 
L 109.555531 144.058239 
L 110.777875 146.124212 
L 112.000219 145.987846 
L 113.222563 146.488973 
L 114.444907 145.133182 
L 115.667251 147.070185 
L 116.889595 148.453253 
L 119.334283 151.6471 
L 120.556627 154.760992 
L 121.77897 155.392299 
L 123.001314 156.211861 
L 124.223658 155.916613 
L 125.446002 155.193312 
L 126.668346 156.399871 
L 127.89069 156.135049 
L 129.113034 157.042025 
L 130.335378 155.353179 
L 131.557722 158.377204 
L 132.780066 157.012645 
L 134.00241 159.123997 
L 135.224754 158.324456 
L 136.447097 159.378347 
L 137.669441 157.503683 
L 138.891785 157.976857 
L 140.114129 159.453223 
L 141.336473 159.691942 
L 143.781161 161.137733 
L 145.003505 160.188514 
L 146.225849 159.485602 
L 147.448193 161.58303 
L 148.670537 163.186971 
L 149.892881 162.081333 
L 151.115225 160.095909 
L 152.337568 161.82245 
L 153.559912 160.402595 
L 154.782256 162.377196 
L 156.0046 163.182203 
L 157.226944 161.75884 
L 158.449288 160.941481 
L 159.671632 160.468933 
L 160.893976 160.880996 
L 162.11632 161.495576 
L 163.338664 160.121308 
L 164.561008 161.189945 
L 165.783352 161.896438 
L 168.228039 162.184942 
L 169.450383 162.447254 
L 170.672727 160.820925 
L 171.895071 163.113941 
L 173.117415 163.515533 
L 174.339759 164.096282 
L 175.562103 162.71505 
L 176.784447 163.454146 
L 178.006791 164.694545 
L 179.229135 165.388134 
L 180.451479 164.376165 
L 181.673823 165.861818 
L 182.896166 164.204049 
L 184.11851 163.047273 
L 185.340854 164.194179 
L 186.563198 164.531505 
L 187.785542 165.317838 
L 189.007886 165.619726 
L 190.23023 165.392542 
L 191.452574 167.240331 
L 192.674918 166.732696 
L 193.897262 168.031185 
L 196.34195 165.985651 
L 197.564294 166.369503 
L 198.786637 167.989091 
L 200.008981 167.737812 
L 202.453669 169.324717 
L 204.898357 168.362842 
L 206.120701 168.695065 
L 207.343045 169.413005 
L 208.565389 168.953962 
L 209.787733 170.596583 
L 211.010077 170.510427 
L 212.232421 170.204965 
L 213.454765 171.020626 
L 214.677108 170.753159 
L 215.899452 170.204965 
L 217.121796 170.510427 
L 218.34414 172.815407 
L 219.566484 172.093313 
L 220.788828 170.4475 
L 222.011172 173.013965 
L 223.233516 171.877323 
L 224.45586 171.398693 
L 225.678204 170.688403 
L 226.900548 174.795435 
L 228.122892 174.342857 
L 229.345235 174.780966 
L 230.567579 174.578182 
L 231.789923 174.773621 
L 233.012267 174.333317 
L 234.234611 177.556584 
L 235.456955 176.786706 
L 236.679299 176.338475 
L 237.901643 174.887568 
L 240.346331 176.675222 
L 241.568675 177.016598 
L 242.791019 176.113775 
L 244.013363 176.005084 
L 245.235706 176.996753 
L 246.45805 177.773228 
L 247.680394 178.143512 
L 248.902738 176.225455 
L 250.125082 176.894398 
L 251.347426 175.776453 
L 252.56977 177.000642 
L 253.792114 176.904742 
L 255.014458 175.882273 
L 256.236802 174.544564 
L 257.459146 176.336196 
L 258.68149 173.99941 
L 259.903834 175.22204 
L 261.126177 174.667224 
L 262.348521 176.894398 
L 263.570865 176.336757 
L 264.793209 175.999414 
L 266.015553 176.33564 
L 267.237897 178.625455 
L 268.460241 178.768225 
L 269.682585 178.192347 
L 270.904929 179.00801 
L 272.127273 179.415499 
L 273.349617 177.577063 
L 274.571961 177.109896 
L 275.794304 179.310648 
L 277.016648 179.923414 
L 278.238992 181.060453 
L 279.461336 180.405512 
L 280.68368 181.854326 
L 283.128368 182.245944 
L 284.350712 182.245944 
L 285.573056 179.675823 
L 286.7954 181.549972 
L 288.017744 181.447837 
L 289.240088 181.624542 
L 290.462432 182.848221 
L 291.684775 182.914887 
L 292.907119 183.819661 
L 294.129463 184.212231 
L 295.351807 183.014889 
L 296.574151 183.977326 
L 297.796495 181.72553 
L 299.018839 182.38554 
L 300.241183 182.612839 
L 301.463527 184.738206 
L 302.685871 186.011233 
L 303.908215 185.733203 
L 305.130559 187.872837 
L 306.352903 188.265322 
L 307.575246 188.476528 
L 308.79759 189.315635 
L 310.019934 188.023489 
L 311.242278 189.025209 
L 312.464622 188.448052 
L 313.686966 188.896783 
L 314.90931 191.439654 
L 316.131654 189.869532 
L 317.353998 189.990336 
L 318.576342 188.971565 
L 319.798686 189.203967 
L 321.02103 190.549565 
L 322.243373 188.871185 
L 323.465717 191.276677 
L 324.688061 190.32152 
L 325.910405 193.106597 
L 327.132749 191.781487 
L 328.355093 193.611795 
L 330.799781 193.699902 
L 332.022125 195.114923 
L 333.244469 194.265703 
L 334.466813 197.175385 
L 335.689157 197.190744 
L 336.911501 198.813475 
L 338.133844 199.924034 
L 339.356188 200.58848 
L 340.578532 199.474588 
L 341.800876 199.042408 
L 343.02322 199.734271 
L 344.245564 200.766456 
L 345.467908 200.674161 
L 346.690252 202.850304 
L 347.912596 201.525804 
L 349.13494 203.521519 
L 350.357284 203.434138 
L 351.579628 202.384802 
L 354.024315 203.781855 
L 355.246659 203.998585 
L 356.469003 205.239603 
L 357.691347 204.448542 
L 358.913691 204.575157 
L 360.136035 204.051007 
L 361.358379 205.560448 
L 362.580723 205.073216 
L 363.803067 206.267242 
L 366.247755 206.781947 
L 367.470099 206.568495 
L 368.692442 207.29147 
L 369.914786 206.541985 
L 372.359474 206.443636 
L 373.581818 208.182545 
L 373.581818 208.182545 
" style="fill:none;stroke:#006400;stroke-dasharray:5.55,2.4;stroke-dashoffset:0;stroke-width:1.5;"/>
   </g>
   <g id="line2d_15">
    <path clip-path="url(#p75381b8b34)" d="M 69.218182 44.443636 
L 70.440526 110.334545 
L 71.66287 143.28 
L 72.885214 163.047273 
L 74.107558 163.047273 
L 75.329901 157.399481 
L 76.552245 167.989091 
L 77.774589 163.047273 
L 78.996933 159.752727 
L 80.219277 126.807273 
L 81.441621 143.28 
L 82.663965 166.812468 
L 83.886309 166.088392 
L 85.108653 153.504451 
L 86.330997 158.885742 
L 87.553341 159.369641 
L 88.775685 168.473583 
L 89.998028 176.225455 
L 91.220372 179.220496 
L 92.442716 181.496727 
L 93.66506 180.343636 
L 96.109748 199.321237 
L 97.332092 207.015599 
L 98.554436 210.555172 
L 100.999124 215.563311 
L 102.221468 213.34122 
L 103.443812 214.85116 
L 104.666156 213.727195 
L 105.888499 208.706889 
L 107.110843 209.314776 
L 108.333187 211.331267 
L 110.777875 212.252139 
L 112.000219 210.976139 
L 113.222563 211.310224 
L 114.444907 213.700909 
L 115.667251 213.5442 
L 116.889595 214.344162 
L 118.111939 213.799609 
L 119.334283 212.308571 
L 120.556627 214.162645 
L 121.77897 213.531337 
L 123.001314 214.405234 
L 124.223658 213.232677 
L 125.446002 213.877403 
L 126.668346 214.127305 
L 127.89069 213.455926 
L 129.113034 215.009344 
L 130.335378 215.514444 
L 131.557722 214.7401 
L 132.780066 216.198413 
L 134.00241 214.955226 
L 135.224754 215.07443 
L 136.447097 214.037851 
L 137.669441 213.668997 
L 138.891785 214.192335 
L 140.114129 212.645157 
L 141.336473 213.668997 
L 142.558817 214.033707 
L 143.781161 212.76603 
L 146.225849 212.198329 
L 148.670537 212.779775 
L 149.892881 212.103227 
L 151.115225 212.602727 
L 152.337568 211.836032 
L 153.559912 212.618032 
L 154.782256 211.962897 
L 156.0046 212.769047 
L 157.226944 211.93991 
L 158.449288 212.906992 
L 159.671632 212.696844 
L 160.893976 211.991582 
L 162.11632 213.443698 
L 163.338664 213.537174 
L 164.561008 212.929786 
L 165.783352 213.007024 
L 167.005696 212.465455 
L 168.228039 212.266455 
L 169.450383 214.115505 
L 170.672727 213.781024 
L 171.895071 213.782162 
L 173.117415 213.351804 
L 174.339759 213.924233 
L 175.562103 214.209626 
L 176.784447 213.635216 
L 178.006791 213.783273 
L 179.229135 214.156077 
L 180.451479 215.538518 
L 181.673823 216.589091 
L 182.896166 214.557859 
L 184.11851 215.101091 
L 185.340854 215.804977 
L 186.563198 215.130326 
L 187.785542 215.73774 
L 189.007886 217.745753 
L 191.452574 217.490468 
L 192.674918 217.658552 
L 193.897262 218.207056 
L 195.119606 218.328629 
L 196.34195 218.742899 
L 197.564294 218.196303 
L 200.008981 217.99359 
L 201.231325 217.365464 
L 203.676013 218.899768 
L 204.898357 219.857418 
L 206.120701 219.857418 
L 207.343045 217.99359 
L 208.565389 218.959457 
L 209.787733 218.938657 
L 211.010077 219.256252 
L 212.232421 219.037822 
L 213.454765 218.528526 
L 214.677108 218.328629 
L 215.899452 218.70335 
L 217.121796 218.920074 
L 218.34414 218.68604 
L 219.566484 220.33886 
L 223.233516 219.706765 
L 224.45586 219.89081 
L 225.678204 219.192972 
L 226.900548 219.016045 
L 228.122892 219.857418 
L 229.345235 218.782315 
L 230.567579 219.384 
L 231.789923 219.333744 
L 233.012267 219.076806 
L 234.234611 218.156033 
L 235.456955 218.880558 
L 236.679299 219.060196 
L 237.901643 219.706765 
L 239.123987 218.880558 
L 240.346331 218.503581 
L 241.568675 218.721135 
L 242.791019 218.663667 
L 244.013363 219.307972 
L 245.235706 219.307972 
L 246.45805 218.899768 
L 247.680394 219.099676 
L 248.902738 219.928609 
L 250.125082 218.70335 
L 251.347426 219.217308 
L 252.56977 219.192972 
L 253.792114 218.680937 
L 255.014458 220.839091 
L 256.236802 220.937143 
L 257.459146 220.189641 
L 258.68149 222.081966 
L 259.903834 222.048066 
L 261.126177 221.748059 
L 262.348521 222.048066 
L 263.570865 222.081966 
L 264.793209 221.772687 
L 266.015553 222.944092 
L 267.237897 222.48 
L 268.460241 222.54809 
L 269.682585 222.11962 
L 270.904929 223.083686 
L 272.127273 221.656081 
L 273.349617 222.518042 
L 274.571961 221.221428 
L 275.794304 221.621867 
L 277.016648 221.273321 
L 278.238992 219.852882 
L 279.461336 220.666068 
L 280.68368 219.600877 
L 281.906024 220.444603 
L 283.128368 220.375708 
L 284.350712 219.372293 
L 285.573056 219.744619 
L 286.7954 220.818292 
L 288.017744 221.11572 
L 289.240088 219.969085 
L 290.462432 220.901062 
L 291.684775 220.375708 
L 292.907119 220.673898 
L 294.129463 220.48551 
L 295.351807 221.080246 
L 296.574151 221.18631 
L 297.796495 220.666068 
L 300.241183 221.273321 
L 301.463527 220.226431 
L 303.908215 219.563099 
L 305.130559 219.819945 
L 306.352903 219.787883 
L 307.575246 220.263097 
L 308.79759 220.336063 
L 310.019934 221.080246 
L 312.464622 221.782407 
L 313.686966 220.630198 
L 314.90931 220.637493 
L 316.131654 221.816639 
L 317.353998 220.79208 
L 318.576342 221.052876 
L 319.798686 221.816639 
L 321.02103 220.960754 
L 322.243373 222.149421 
L 323.465717 221.044652 
L 324.688061 220.808358 
L 325.910405 221.532261 
L 327.132749 221.782407 
L 328.355093 220.854087 
L 329.577437 222.019636 
L 330.799781 221.414152 
L 332.022125 221.449063 
L 333.244469 221.986086 
L 334.466813 221.842238 
L 335.689157 222.149421 
L 336.911501 221.29131 
L 338.133844 221.518533 
L 340.578532 221.621867 
L 341.800876 221.748059 
L 343.02322 221.587538 
L 344.245564 221.945677 
L 345.467908 221.724169 
L 346.690252 221.308708 
L 347.912596 221.656081 
L 349.13494 221.644315 
L 350.357284 222.11962 
L 351.579628 222.086403 
L 352.801972 223.071483 
L 354.024315 223.115781 
L 355.246659 222.214161 
L 356.469003 222.182979 
L 357.691347 223.115781 
L 358.913691 222.847426 
L 360.136035 222.081966 
L 361.358379 222.146002 
L 363.803067 222.684129 
L 365.025411 222.651138 
L 366.247755 222.11575 
L 367.470099 222.515202 
L 368.692442 223.211422 
L 369.914786 223.65796 
L 371.13713 223.322352 
L 372.359474 224.116364 
L 373.581818 224.325818 
L 373.581818 224.325818 
" style="fill:none;stroke:#8b0000;stroke-dasharray:1.5,2.475;stroke-dashoffset:0;stroke-width:1.5;"/>
   </g>
   <g id="line2d_16">
    <path clip-path="url(#p75381b8b34)" d="M 69.218182 242.116364 
L 85.108653 242.116364 
L 86.330997 236.91445 
L 89.998028 238.648421 
L 92.442716 239.480727 
L 93.66506 239.645455 
L 94.887404 239.944136 
L 96.109748 238.040637 
L 98.554436 238.794133 
L 99.77678 237.519323 
L 100.999124 234.740516 
L 102.221468 237.111991 
L 103.443812 237.572163 
L 104.666156 236.85911 
L 105.888499 237.476159 
L 108.333187 238.065693 
L 109.555531 237.446929 
L 110.777875 237.138993 
L 112.000219 237.377634 
L 113.222563 236.340213 
L 114.444907 234.703636 
L 115.667251 233.952888 
L 116.889595 233.403516 
L 118.111939 232.31441 
L 119.334283 232.703377 
L 120.556627 232.132893 
L 121.77897 230.973048 
L 123.001314 230.108207 
L 124.223658 228.125828 
L 125.446002 227.996883 
L 126.668346 228.121834 
L 127.89069 229.89353 
L 129.113034 228.354338 
L 130.335378 227.382993 
L 131.557722 226.012679 
L 132.780066 226.256125 
L 134.00241 226.272366 
L 135.224754 225.738854 
L 136.447097 226.766777 
L 137.669441 226.798551 
L 138.891785 226.684664 
L 140.114129 227.38076 
L 141.336473 227.163261 
L 142.558817 227.52797 
L 143.781161 228.325243 
L 145.003505 228.868456 
L 146.225849 228.582015 
L 148.670537 227.797314 
L 149.892881 228.662199 
L 151.115225 229.761818 
L 152.337568 229.527911 
L 153.559912 229.910157 
L 154.782256 230.725054 
L 156.0046 230.309972 
L 157.226944 230.927341 
L 158.449288 232.266692 
L 159.671632 232.199672 
L 160.893976 232.977385 
L 162.11632 233.345901 
L 163.338664 233.270424 
L 165.783352 234.331308 
L 169.450383 233.116088 
L 170.672727 233.683227 
L 171.895071 233.116088 
L 173.117415 234.089045 
L 174.339759 233.593161 
L 175.562103 233.478564 
L 176.784447 233.978893 
L 178.006791 233.88 
L 179.229135 233.338134 
L 181.673823 233.607273 
L 182.896166 234.291109 
L 184.11851 235.197818 
L 185.340854 235.369854 
L 186.563198 235.369854 
L 187.785542 235.772138 
L 189.007886 235.34675 
L 190.23023 235.750632 
L 191.452574 235.793499 
L 192.674918 236.08567 
L 193.897262 236.054849 
L 195.119606 236.420709 
L 196.34195 235.772138 
L 197.564294 236.136348 
L 198.786637 236.023711 
L 200.008981 236.08567 
L 201.231325 237.099289 
L 202.453669 236.439951 
L 203.676013 236.478048 
L 204.898357 236.136348 
L 206.120701 236.468571 
L 207.343045 236.08567 
L 208.565389 236.746646 
L 209.787733 236.818602 
L 211.010077 238.082226 
L 213.454765 237.465241 
L 214.677108 237.425824 
L 215.899452 238.102704 
L 217.121796 238.418404 
L 218.34414 238.156309 
L 220.788828 238.116241 
L 222.011172 238.129687 
L 224.45586 238.748856 
L 225.678204 238.794133 
L 226.900548 238.486314 
L 228.122892 238.46191 
L 229.345235 238.782928 
L 231.789923 238.765978 
L 233.012267 238.777297 
L 234.234611 238.455758 
L 235.456955 238.412105 
L 236.679299 238.725751 
L 239.123987 238.748856 
L 241.568675 238.725751 
L 242.791019 239.436055 
L 244.013363 239.802469 
L 248.902738 239.763117 
L 250.125082 240.444006 
L 251.347426 240.43261 
L 252.56977 239.790802 
L 255.014458 240.400455 
L 257.459146 240.455248 
L 258.68149 240.780737 
L 261.126177 240.780737 
L 262.348521 241.112949 
L 263.570865 240.44683 
L 267.237897 240.48 
L 274.571961 240.458035 
L 277.016648 240.435473 
L 278.238992 240.767062 
L 279.461336 240.136336 
L 284.350712 240.109534 
L 285.573056 240.780737 
L 297.796495 240.796345 
L 299.018839 240.466341 
L 300.241183 241.107829 
L 310.019934 241.114644 
L 311.242278 240.780737 
L 321.02103 240.794138 
L 322.243373 241.118017 
L 323.465717 241.112949 
L 325.910405 241.789632 
L 328.355093 241.784141 
L 329.577437 241.457455 
L 330.799781 241.44855 
L 332.022125 241.78302 
L 373.581818 241.786909 
L 373.581818 241.786909 
" style="fill:none;stroke:#000000;stroke-dasharray:9.6,2.4,1.5,2.4;stroke-dashoffset:0;stroke-width:1.5;"/>
   </g>
   <g id="patch_3">
    <path d="M 54 252 
L 54 34.56 
" style="fill:none;stroke:#000000;stroke-linecap:square;stroke-linejoin:miter;stroke-width:0.8;"/>
   </g>
   <g id="patch_4">
    <path d="M 388.8 252 
L 388.8 34.56 
" style="fill:none;stroke:#000000;stroke-linecap:square;stroke-linejoin:miter;stroke-width:0.8;"/>
   </g>
   <g id="patch_5">
    <path d="M 54 252 
L 388.8 252 
" style="fill:none;stroke:#000000;stroke-linecap:square;stroke-linejoin:miter;stroke-width:0.8;"/>
   </g>
   <g id="patch_6">
    <path d="M 54 34.56 
L 388.8 34.56 
" style="fill:none;stroke:#000000;stroke-linecap:square;stroke-linejoin:miter;stroke-width:0.8;"/>
   </g>
   <g id="legend_1">
    <g id="patch_7">
     <path d="M 182.342188 101.2725 
L 260.457813 101.2725 
Q 262.457813 101.2725 262.457813 99.2725 
L 262.457813 41.56 
Q 262.457813 39.56 260.457813 39.56 
L 182.342188 39.56 
Q 180.342188 39.56 180.342188 41.56 
L 180.342188 99.2725 
Q 180.342188 101.2725 182.342188 101.2725 
z
" style="fill:#ffffff;opacity:0.8;stroke:#cccccc;stroke-linejoin:miter;"/>
    </g>
    <g id="line2d_17">
     <path d="M 184.342188 47.658437 
L 204.342188 47.658437 
" style="fill:none;stroke:#00008b;stroke-linecap:square;stroke-width:1.5;"/>
    </g>
    <g id="line2d_18"/>
    <g id="text_15">
     <!-- Believers -->
     <defs>
      <path d="M 19.671875 34.8125 
L 19.671875 8.109375 
L 35.5 8.109375 
Q 43.453125 8.109375 47.28125 11.40625 
Q 51.125 14.703125 51.125 21.484375 
Q 51.125 28.328125 47.28125 31.5625 
Q 43.453125 34.8125 35.5 34.8125 
z
M 19.671875 64.796875 
L 19.671875 42.828125 
L 34.28125 42.828125 
Q 41.5 42.828125 45.03125 45.53125 
Q 48.578125 48.25 48.578125 53.8125 
Q 48.578125 59.328125 45.03125 62.0625 
Q 41.5 64.796875 34.28125 64.796875 
z
M 9.8125 72.90625 
L 35.015625 72.90625 
Q 46.296875 72.90625 52.390625 68.21875 
Q 58.5 63.53125 58.5 54.890625 
Q 58.5 48.1875 55.375 44.234375 
Q 52.25 40.28125 46.1875 39.3125 
Q 53.46875 37.75 57.5 32.78125 
Q 61.53125 27.828125 61.53125 20.40625 
Q 61.53125 10.640625 54.890625 5.3125 
Q 48.25 0 35.984375 0 
L 9.8125 0 
z
" id="DejaVuSans-66"/>
      <path d="M 2.984375 54.6875 
L 12.5 54.6875 
L 29.59375 8.796875 
L 46.6875 54.6875 
L 56.203125 54.6875 
L 35.6875 0 
L 23.484375 0 
z
" id="DejaVuSans-118"/>
      <path d="M 44.28125 53.078125 
L 44.28125 44.578125 
Q 40.484375 46.53125 36.375 47.5 
Q 32.28125 48.484375 27.875 48.484375 
Q 21.1875 48.484375 17.84375 46.4375 
Q 14.5 44.390625 14.5 40.28125 
Q 14.5 37.15625 16.890625 35.375 
Q 19.28125 33.59375 26.515625 31.984375 
L 29.59375 31.296875 
Q 39.15625 29.25 43.1875 25.515625 
Q 47.21875 21.78125 47.21875 15.09375 
Q 47.21875 7.46875 41.1875 3.015625 
Q 35.15625 -1.421875 24.609375 -1.421875 
Q 20.21875 -1.421875 15.453125 -0.5625 
Q 10.6875 0.296875 5.421875 2 
L 5.421875 11.28125 
Q 10.40625 8.6875 15.234375 7.390625 
Q 20.0625 6.109375 24.8125 6.109375 
Q 31.15625 6.109375 34.5625 8.28125 
Q 37.984375 10.453125 37.984375 14.40625 
Q 37.984375 18.0625 35.515625 20.015625 
Q 33.0625 21.96875 24.703125 23.78125 
L 21.578125 24.515625 
Q 13.234375 26.265625 9.515625 29.90625 
Q 5.8125 33.546875 5.8125 39.890625 
Q 5.8125 47.609375 11.28125 51.796875 
Q 16.75 56 26.8125 56 
Q 31.78125 56 36.171875 55.265625 
Q 40.578125 54.546875 44.28125 53.078125 
z
" id="DejaVuSans-115"/>
     </defs>
     <g transform="translate(212.342188 51.158437)scale(0.1 -0.1)">
      <use xlink:href="#DejaVuSans-66"/>
      <use x="68.603516" xlink:href="#DejaVuSans-101"/>
      <use x="130.126953" xlink:href="#DejaVuSans-108"/>
      <use x="157.910156" xlink:href="#DejaVuSans-105"/>
      <use x="185.693359" xlink:href="#DejaVuSans-101"/>
      <use x="247.216797" xlink:href="#DejaVuSans-118"/>
      <use x="306.396484" xlink:href="#DejaVuSans-101"/>
      <use x="367.919922" xlink:href="#DejaVuSans-114"/>
      <use x="409.033203" xlink:href="#DejaVuSans-115"/>
     </g>
    </g>
    <g id="line2d_19">
     <path d="M 184.342188 62.336562 
L 204.342188 62.336562 
" style="fill:none;stroke:#006400;stroke-dasharray:5.55,2.4;stroke-dashoffset:0;stroke-width:1.5;"/>
    </g>
    <g id="line2d_20"/>
    <g id="text_16">
     <!-- Saints -->
     <g transform="translate(212.342188 65.836562)scale(0.1 -0.1)">
      <use xlink:href="#DejaVuSans-83"/>
      <use x="63.476562" xlink:href="#DejaVuSans-97"/>
      <use x="124.755859" xlink:href="#DejaVuSans-105"/>
      <use x="152.539062" xlink:href="#DejaVuSans-110"/>
      <use x="215.917969" xlink:href="#DejaVuSans-116"/>
      <use x="255.126953" xlink:href="#DejaVuSans-115"/>
     </g>
    </g>
    <g id="line2d_21">
     <path d="M 184.342188 77.014687 
L 204.342188 77.014687 
" style="fill:none;stroke:#8b0000;stroke-dasharray:1.5,2.475;stroke-dashoffset:0;stroke-width:1.5;"/>
    </g>
    <g id="line2d_22"/>
    <g id="text_17">
     <!-- Sinners -->
     <g transform="translate(212.342188 80.514687)scale(0.1 -0.1)">
      <use xlink:href="#DejaVuSans-83"/>
      <use x="63.476562" xlink:href="#DejaVuSans-105"/>
      <use x="91.259766" xlink:href="#DejaVuSans-110"/>
      <use x="154.638672" xlink:href="#DejaVuSans-110"/>
      <use x="218.017578" xlink:href="#DejaVuSans-101"/>
      <use x="279.541016" xlink:href="#DejaVuSans-114"/>
      <use x="320.654297" xlink:href="#DejaVuSans-115"/>
     </g>
    </g>
    <g id="line2d_23">
     <path d="M 184.342188 91.692813 
L 204.342188 91.692813 
" style="fill:none;stroke:#000000;stroke-dasharray:9.6,2.4,1.5,2.4;stroke-dashoffset:0;stroke-width:1.5;"/>
    </g>
    <g id="line2d_24"/>
    <g id="text_18">
     <!-- Heretics -->
     <defs>
      <path d="M 9.8125 72.90625 
L 19.671875 72.90625 
L 19.671875 43.015625 
L 55.515625 43.015625 
L 55.515625 72.90625 
L 65.375 72.90625 
L 65.375 0 
L 55.515625 0 
L 55.515625 34.71875 
L 19.671875 34.71875 
L 19.671875 0 
L 9.8125 0 
z
" id="DejaVuSans-72"/>
      <path d="M 48.78125 52.59375 
L 48.78125 44.1875 
Q 44.96875 46.296875 41.140625 47.34375 
Q 37.3125 48.390625 33.40625 48.390625 
Q 24.65625 48.390625 19.8125 42.84375 
Q 14.984375 37.3125 14.984375 27.296875 
Q 14.984375 17.28125 19.8125 11.734375 
Q 24.65625 6.203125 33.40625 6.203125 
Q 37.3125 6.203125 41.140625 7.25 
Q 44.96875 8.296875 48.78125 10.40625 
L 48.78125 2.09375 
Q 45.015625 0.34375 40.984375 -0.53125 
Q 36.96875 -1.421875 32.421875 -1.421875 
Q 20.0625 -1.421875 12.78125 6.34375 
Q 5.515625 14.109375 5.515625 27.296875 
Q 5.515625 40.671875 12.859375 48.328125 
Q 20.21875 56 33.015625 56 
Q 37.15625 56 41.109375 55.140625 
Q 45.0625 54.296875 48.78125 52.59375 
z
" id="DejaVuSans-99"/>
     </defs>
     <g transform="translate(212.342188 95.192813)scale(0.1 -0.1)">
      <use xlink:href="#DejaVuSans-72"/>
      <use x="75.195312" xlink:href="#DejaVuSans-101"/>
      <use x="136.71875" xlink:href="#DejaVuSans-114"/>
      <use x="175.582031" xlink:href="#DejaVuSans-101"/>
      <use x="237.105469" xlink:href="#DejaVuSans-116"/>
      <use x="276.314453" xlink:href="#DejaVuSans-105"/>
      <use x="304.097656" xlink:href="#DejaVuSans-99"/>
      <use x="359.078125" xlink:href="#DejaVuSans-115"/>
     </g>
    </g>
   </g>
  </g>
 </g>
 <defs>
  <clipPath id="p75381b8b34">
   <rect height="217.44" width="334.8" x="54" y="34.56"/>
  </clipPath>
 </defs>
</svg>
