<?xml version="1.0" encoding="utf-8" standalone="no"?>
<!DOCTYPE svg PUBLIC "-//W3C//DTD SVG 1.1//EN"
  "http://www.w3.org/Graphics/SVG/1.1/DTD/svg11.dtd">
<!-- Created with matplotlib (https://matplotlib.org/) -->
<svg height="288pt" version="1.1" viewBox="0 0 432 288" width="432pt" xmlns="http://www.w3.org/2000/svg" xmlns:xlink="http://www.w3.org/1999/xlink">
 <defs>
  <style type="text/css">
*{stroke-linecap:butt;stroke-linejoin:round;}
  </style>
 </defs>
 <g id="figure_1">
  <g id="patch_1">
   <path d="M 0 288 
L 432 288 
L 432 0 
L 0 0 
z
" style="fill:#ffffff;"/>
  </g>
  <g id="axes_1">
   <g id="patch_2">
    <path d="M 54 252 
L 388.8 252 
L 388.8 34.56 
L 54 34.56 
z
" style="fill:#ffffff;"/>
   </g>
   <g id="matplotlib.axis_1">
    <g id="xtick_1">
     <g id="line2d_1">
      <defs>
       <path d="M 0 0 
L 0 3.5 
" id="mff5a62e54e" style="stroke:#000000;stroke-width:0.8;"/>
      </defs>
      <g>
       <use style="stroke:#000000;stroke-width:0.8;" x="69.218182" xlink:href="#mff5a62e54e" y="252"/>
      </g>
     </g>
     <g id="text_1">
      <!-- 0 -->
      <defs>
       <path d="M 31.78125 66.40625 
Q 24.171875 66.40625 20.328125 58.90625 
Q 16.5 51.421875 16.5 36.375 
Q 16.5 21.390625 20.328125 13.890625 
Q 24.171875 6.390625 31.78125 6.390625 
Q 39.453125 6.390625 43.28125 13.890625 
Q 47.125 21.390625 47.125 36.375 
Q 47.125 51.421875 43.28125 58.90625 
Q 39.453125 66.40625 31.78125 66.40625 
z
M 31.78125 74.21875 
Q 44.046875 74.21875 50.515625 64.515625 
Q 56.984375 54.828125 56.984375 36.375 
Q 56.984375 17.96875 50.515625 8.265625 
Q 44.046875 -1.421875 31.78125 -1.421875 
Q 19.53125 -1.421875 13.0625 8.265625 
Q 6.59375 17.96875 6.59375 36.375 
Q 6.59375 54.828125 13.0625 64.515625 
Q 19.53125 74.21875 31.78125 74.21875 
z
" id="DejaVuSans-48"/>
      </defs>
      <g transform="translate(66.036932 266.598437)scale(0.1 -0.1)">
       <use xlink:href="#DejaVuSans-48"/>
      </g>
     </g>
    </g>
    <g id="xtick_2">
     <g id="line2d_2">
      <g>
       <use style="stroke:#000000;stroke-width:0.8;" x="130.335378" xlink:href="#mff5a62e54e" y="252"/>
      </g>
     </g>
     <g id="text_2">
      <!-- 50 -->
      <defs>
       <path d="M 10.796875 72.90625 
L 49.515625 72.90625 
L 49.515625 64.59375 
L 19.828125 64.59375 
L 19.828125 46.734375 
Q 21.96875 47.46875 24.109375 47.828125 
Q 26.265625 48.1875 28.421875 48.1875 
Q 40.625 48.1875 47.75 41.5 
Q 54.890625 34.8125 54.890625 23.390625 
Q 54.890625 11.625 47.5625 5.09375 
Q 40.234375 -1.421875 26.90625 -1.421875 
Q 22.3125 -1.421875 17.546875 -0.640625 
Q 12.796875 0.140625 7.71875 1.703125 
L 7.71875 11.625 
Q 12.109375 9.234375 16.796875 8.0625 
Q 21.484375 6.890625 26.703125 6.890625 
Q 35.15625 6.890625 40.078125 11.328125 
Q 45.015625 15.765625 45.015625 23.390625 
Q 45.015625 31 40.078125 35.4375 
Q 35.15625 39.890625 26.703125 39.890625 
Q 22.75 39.890625 18.8125 39.015625 
Q 14.890625 38.140625 10.796875 36.28125 
z
" id="DejaVuSans-53"/>
      </defs>
      <g transform="translate(123.972878 266.598437)scale(0.1 -0.1)">
       <use xlink:href="#DejaVuSans-53"/>
       <use x="63.623047" xlink:href="#DejaVuSans-48"/>
      </g>
     </g>
    </g>
    <g id="xtick_3">
     <g id="line2d_3">
      <g>
       <use style="stroke:#000000;stroke-width:0.8;" x="191.452574" xlink:href="#mff5a62e54e" y="252"/>
      </g>
     </g>
     <g id="text_3">
      <!-- 100 -->
      <defs>
       <path d="M 12.40625 8.296875 
L 28.515625 8.296875 
L 28.515625 63.921875 
L 10.984375 60.40625 
L 10.984375 69.390625 
L 28.421875 72.90625 
L 38.28125 72.90625 
L 38.28125 8.296875 
L 54.390625 8.296875 
L 54.390625 0 
L 12.40625 0 
z
" id="DejaVuSans-49"/>
      </defs>
      <g transform="translate(181.908824 266.598437)scale(0.1 -0.1)">
       <use xlink:href="#DejaVuSans-49"/>
       <use x="63.623047" xlink:href="#DejaVuSans-48"/>
       <use x="127.246094" xlink:href="#DejaVuSans-48"/>
      </g>
     </g>
    </g>
    <g id="xtick_4">
     <g id="line2d_4">
      <g>
       <use style="stroke:#000000;stroke-width:0.8;" x="252.56977" xlink:href="#mff5a62e54e" y="252"/>
      </g>
     </g>
     <g id="text_4">
      <!-- 150 -->
      <g transform="translate(243.02602 266.598437)scale(0.1 -0.1)">
       <use xlink:href="#DejaVuSans-49"/>
       <use x="63.623047" xlink:href="#DejaVuSans-53"/>
       <use x="127.246094" xlink:href="#DejaVuSans-48"/>
      </g>
     </g>
    </g>
    <g id="xtick_5">
     <g id="line2d_5">
      <g>
       <use style="stroke:#000000;stroke-width:0.8;" x="313.686966" xlink:href="#mff5a62e54e" y="252"/>
      </g>
     </g>
     <g id="text_5">
      <!-- 200 -->
      <defs>
       <path d="M 19.1875 8.296875 
L 53.609375 8.296875 
L 53.609375 0 
L 7.328125 0 
L 7.328125 8.296875 
Q 12.9375 14.109375 22.625 23.890625 
Q 32.328125 33.6875 34.8125 36.53125 
Q 39.546875 41.84375 41.421875 45.53125 
Q 43.3125 49.21875 43.3125 52.78125 
Q 43.3125 58.59375 39.234375 62.25 
Q 35.15625 65.921875 28.609375 65.921875 
Q 23.96875 65.921875 18.8125 64.3125 
Q 13.671875 62.703125 7.8125 59.421875 
L 7.8125 69.390625 
Q 13.765625 71.78125 18.9375 73 
Q 24.125 74.21875 28.421875 74.21875 
Q 39.75 74.21875 46.484375 68.546875 
Q 53.21875 62.890625 53.21875 53.421875 
Q 53.21875 48.921875 51.53125 44.890625 
Q 49.859375 40.875 45.40625 35.40625 
Q 44.1875 33.984375 37.640625 27.21875 
Q 31.109375 20.453125 19.1875 8.296875 
z
" id="DejaVuSans-50"/>
      </defs>
      <g transform="translate(304.143216 266.598437)scale(0.1 -0.1)">
       <use xlink:href="#DejaVuSans-50"/>
       <use x="63.623047" xlink:href="#DejaVuSans-48"/>
       <use x="127.246094" xlink:href="#DejaVuSans-48"/>
      </g>
     </g>
    </g>
    <g id="xtick_6">
     <g id="line2d_6">
      <g>
       <use style="stroke:#000000;stroke-width:0.8;" x="374.804162" xlink:href="#mff5a62e54e" y="252"/>
      </g>
     </g>
     <g id="text_6">
      <!-- 250 -->
      <g transform="translate(365.260412 266.598437)scale(0.1 -0.1)">
       <use xlink:href="#DejaVuSans-50"/>
       <use x="63.623047" xlink:href="#DejaVuSans-53"/>
       <use x="127.246094" xlink:href="#DejaVuSans-48"/>
      </g>
     </g>
    </g>
    <g id="text_7">
     <!-- Simulation Time -->
     <defs>
      <path d="M 53.515625 70.515625 
L 53.515625 60.890625 
Q 47.90625 63.578125 42.921875 64.890625 
Q 37.9375 66.21875 33.296875 66.21875 
Q 25.25 66.21875 20.875 63.09375 
Q 16.5 59.96875 16.5 54.203125 
Q 16.5 49.359375 19.40625 46.890625 
Q 22.3125 44.4375 30.421875 42.921875 
L 36.375 41.703125 
Q 47.40625 39.59375 52.65625 34.296875 
Q 57.90625 29 57.90625 20.125 
Q 57.90625 9.515625 50.796875 4.046875 
Q 43.703125 -1.421875 29.984375 -1.421875 
Q 24.8125 -1.421875 18.96875 -0.25 
Q 13.140625 0.921875 6.890625 3.21875 
L 6.890625 13.375 
Q 12.890625 10.015625 18.65625 8.296875 
Q 24.421875 6.59375 29.984375 6.59375 
Q 38.421875 6.59375 43.015625 9.90625 
Q 47.609375 13.234375 47.609375 19.390625 
Q 47.609375 24.75 44.3125 27.78125 
Q 41.015625 30.8125 33.5 32.328125 
L 27.484375 33.5 
Q 16.453125 35.6875 11.515625 40.375 
Q 6.59375 45.0625 6.59375 53.421875 
Q 6.59375 63.09375 13.40625 68.65625 
Q 20.21875 74.21875 32.171875 74.21875 
Q 37.3125 74.21875 42.625 73.28125 
Q 47.953125 72.359375 53.515625 70.515625 
z
" id="DejaVuSans-83"/>
      <path d="M 9.421875 54.6875 
L 18.40625 54.6875 
L 18.40625 0 
L 9.421875 0 
z
M 9.421875 75.984375 
L 18.40625 75.984375 
L 18.40625 64.59375 
L 9.421875 64.59375 
z
" id="DejaVuSans-105"/>
      <path d="M 52 44.1875 
Q 55.375 50.25 60.0625 53.125 
Q 64.75 56 71.09375 56 
Q 79.640625 56 84.28125 50.015625 
Q 88.921875 44.046875 88.921875 33.015625 
L 88.921875 0 
L 79.890625 0 
L 79.890625 32.71875 
Q 79.890625 40.578125 77.09375 44.375 
Q 74.3125 48.1875 68.609375 48.1875 
Q 61.625 48.1875 57.5625 43.546875 
Q 53.515625 38.921875 53.515625 30.90625 
L 53.515625 0 
L 44.484375 0 
L 44.484375 32.71875 
Q 44.484375 40.625 41.703125 44.40625 
Q 38.921875 48.1875 33.109375 48.1875 
Q 26.21875 48.1875 22.15625 43.53125 
Q 18.109375 38.875 18.109375 30.90625 
L 18.109375 0 
L 9.078125 0 
L 9.078125 54.6875 
L 18.109375 54.6875 
L 18.109375 46.1875 
Q 21.1875 51.21875 25.484375 53.609375 
Q 29.78125 56 35.6875 56 
Q 41.65625 56 45.828125 52.96875 
Q 50 49.953125 52 44.1875 
z
" id="DejaVuSans-109"/>
      <path d="M 8.5 21.578125 
L 8.5 54.6875 
L 17.484375 54.6875 
L 17.484375 21.921875 
Q 17.484375 14.15625 20.5 10.265625 
Q 23.53125 6.390625 29.59375 6.390625 
Q 36.859375 6.390625 41.078125 11.03125 
Q 45.3125 15.671875 45.3125 23.6875 
L 45.3125 54.6875 
L 54.296875 54.6875 
L 54.296875 0 
L 45.3125 0 
L 45.3125 8.40625 
Q 42.046875 3.421875 37.71875 1 
Q 33.40625 -1.421875 27.6875 -1.421875 
Q 18.265625 -1.421875 13.375 4.4375 
Q 8.5 10.296875 8.5 21.578125 
z
M 31.109375 56 
z
" id="DejaVuSans-117"/>
      <path d="M 9.421875 75.984375 
L 18.40625 75.984375 
L 18.40625 0 
L 9.421875 0 
z
" id="DejaVuSans-108"/>
      <path d="M 34.28125 27.484375 
Q 23.390625 27.484375 19.1875 25 
Q 14.984375 22.515625 14.984375 16.5 
Q 14.984375 11.71875 18.140625 8.90625 
Q 21.296875 6.109375 26.703125 6.109375 
Q 34.1875 6.109375 38.703125 11.40625 
Q 43.21875 16.703125 43.21875 25.484375 
L 43.21875 27.484375 
z
M 52.203125 31.203125 
L 52.203125 0 
L 43.21875 0 
L 43.21875 8.296875 
Q 40.140625 3.328125 35.546875 0.953125 
Q 30.953125 -1.421875 24.3125 -1.421875 
Q 15.921875 -1.421875 10.953125 3.296875 
Q 6 8.015625 6 15.921875 
Q 6 25.140625 12.171875 29.828125 
Q 18.359375 34.515625 30.609375 34.515625 
L 43.21875 34.515625 
L 43.21875 35.40625 
Q 43.21875 41.609375 39.140625 45 
Q 35.0625 48.390625 27.6875 48.390625 
Q 23 48.390625 18.546875 47.265625 
Q 14.109375 46.140625 10.015625 43.890625 
L 10.015625 52.203125 
Q 14.9375 54.109375 19.578125 55.046875 
Q 24.21875 56 28.609375 56 
Q 40.484375 56 46.34375 49.84375 
Q 52.203125 43.703125 52.203125 31.203125 
z
" id="DejaVuSans-97"/>
      <path d="M 18.3125 70.21875 
L 18.3125 54.6875 
L 36.8125 54.6875 
L 36.8125 47.703125 
L 18.3125 47.703125 
L 18.3125 18.015625 
Q 18.3125 11.328125 20.140625 9.421875 
Q 21.96875 7.515625 27.59375 7.515625 
L 36.8125 7.515625 
L 36.8125 0 
L 27.59375 0 
Q 17.1875 0 13.234375 3.875 
Q 9.28125 7.765625 9.28125 18.015625 
L 9.28125 47.703125 
L 2.6875 47.703125 
L 2.6875 54.6875 
L 9.28125 54.6875 
L 9.28125 70.21875 
z
" id="DejaVuSans-116"/>
      <path d="M 30.609375 48.390625 
Q 23.390625 48.390625 19.1875 42.75 
Q 14.984375 37.109375 14.984375 27.296875 
Q 14.984375 17.484375 19.15625 11.84375 
Q 23.34375 6.203125 30.609375 6.203125 
Q 37.796875 6.203125 41.984375 11.859375 
Q 46.1875 17.53125 46.1875 27.296875 
Q 46.1875 37.015625 41.984375 42.703125 
Q 37.796875 48.390625 30.609375 48.390625 
z
M 30.609375 56 
Q 42.328125 56 49.015625 48.375 
Q 55.71875 40.765625 55.71875 27.296875 
Q 55.71875 13.875 49.015625 6.21875 
Q 42.328125 -1.421875 30.609375 -1.421875 
Q 18.84375 -1.421875 12.171875 6.21875 
Q 5.515625 13.875 5.515625 27.296875 
Q 5.515625 40.765625 12.171875 48.375 
Q 18.84375 56 30.609375 56 
z
" id="DejaVuSans-111"/>
      <path d="M 54.890625 33.015625 
L 54.890625 0 
L 45.90625 0 
L 45.90625 32.71875 
Q 45.90625 40.484375 42.875 44.328125 
Q 39.84375 48.1875 33.796875 48.1875 
Q 26.515625 48.1875 22.3125 43.546875 
Q 18.109375 38.921875 18.109375 30.90625 
L 18.109375 0 
L 9.078125 0 
L 9.078125 54.6875 
L 18.109375 54.6875 
L 18.109375 46.1875 
Q 21.34375 51.125 25.703125 53.5625 
Q 30.078125 56 35.796875 56 
Q 45.21875 56 50.046875 50.171875 
Q 54.890625 44.34375 54.890625 33.015625 
z
" id="DejaVuSans-110"/>
      <path id="DejaVuSans-32"/>
      <path d="M -0.296875 72.90625 
L 61.375 72.90625 
L 61.375 64.59375 
L 35.5 64.59375 
L 35.5 0 
L 25.59375 0 
L 25.59375 64.59375 
L -0.296875 64.59375 
z
" id="DejaVuSans-84"/>
      <path d="M 56.203125 29.59375 
L 56.203125 25.203125 
L 14.890625 25.203125 
Q 15.484375 15.921875 20.484375 11.0625 
Q 25.484375 6.203125 34.421875 6.203125 
Q 39.59375 6.203125 44.453125 7.46875 
Q 49.3125 8.734375 54.109375 11.28125 
L 54.109375 2.78125 
Q 49.265625 0.734375 44.1875 -0.34375 
Q 39.109375 -1.421875 33.890625 -1.421875 
Q 20.796875 -1.421875 13.15625 6.1875 
Q 5.515625 13.8125 5.515625 26.8125 
Q 5.515625 40.234375 12.765625 48.109375 
Q 20.015625 56 32.328125 56 
Q 43.359375 56 49.78125 48.890625 
Q 56.203125 41.796875 56.203125 29.59375 
z
M 47.21875 32.234375 
Q 47.125 39.59375 43.09375 43.984375 
Q 39.0625 48.390625 32.421875 48.390625 
Q 24.90625 48.390625 20.390625 44.140625 
Q 15.875 39.890625 15.1875 32.171875 
z
" id="DejaVuSans-101"/>
     </defs>
     <g transform="translate(180.944531 280.276563)scale(0.1 -0.1)">
      <use xlink:href="#DejaVuSans-83"/>
      <use x="63.476562" xlink:href="#DejaVuSans-105"/>
      <use x="91.259766" xlink:href="#DejaVuSans-109"/>
      <use x="188.671875" xlink:href="#DejaVuSans-117"/>
      <use x="252.050781" xlink:href="#DejaVuSans-108"/>
      <use x="279.833984" xlink:href="#DejaVuSans-97"/>
      <use x="341.113281" xlink:href="#DejaVuSans-116"/>
      <use x="380.322266" xlink:href="#DejaVuSans-105"/>
      <use x="408.105469" xlink:href="#DejaVuSans-111"/>
      <use x="469.287109" xlink:href="#DejaVuSans-110"/>
      <use x="532.666016" xlink:href="#DejaVuSans-32"/>
      <use x="564.453125" xlink:href="#DejaVuSans-84"/>
      <use x="622.412109" xlink:href="#DejaVuSans-105"/>
      <use x="650.195312" xlink:href="#DejaVuSans-109"/>
      <use x="747.607422" xlink:href="#DejaVuSans-101"/>
     </g>
    </g>
   </g>
   <g id="matplotlib.axis_2">
    <g id="ytick_1">
     <g id="line2d_7">
      <defs>
       <path d="M 0 0 
L -3.5 0 
" id="mcd38aeb596" style="stroke:#000000;stroke-width:0.8;"/>
      </defs>
      <g>
       <use style="stroke:#000000;stroke-width:0.8;" x="54" xlink:href="#mcd38aeb596" y="242.116364"/>
      </g>
     </g>
     <g id="text_8">
      <!-- 0% -->
      <defs>
       <path d="M 72.703125 32.078125 
Q 68.453125 32.078125 66.03125 28.46875 
Q 63.625 24.859375 63.625 18.40625 
Q 63.625 12.0625 66.03125 8.421875 
Q 68.453125 4.78125 72.703125 4.78125 
Q 76.859375 4.78125 79.265625 8.421875 
Q 81.6875 12.0625 81.6875 18.40625 
Q 81.6875 24.8125 79.265625 28.4375 
Q 76.859375 32.078125 72.703125 32.078125 
z
M 72.703125 38.28125 
Q 80.421875 38.28125 84.953125 32.90625 
Q 89.5 27.546875 89.5 18.40625 
Q 89.5 9.28125 84.9375 3.921875 
Q 80.375 -1.421875 72.703125 -1.421875 
Q 64.890625 -1.421875 60.34375 3.921875 
Q 55.8125 9.28125 55.8125 18.40625 
Q 55.8125 27.59375 60.375 32.9375 
Q 64.9375 38.28125 72.703125 38.28125 
z
M 22.3125 68.015625 
Q 18.109375 68.015625 15.6875 64.375 
Q 13.28125 60.75 13.28125 54.390625 
Q 13.28125 47.953125 15.671875 44.328125 
Q 18.0625 40.71875 22.3125 40.71875 
Q 26.5625 40.71875 28.96875 44.328125 
Q 31.390625 47.953125 31.390625 54.390625 
Q 31.390625 60.6875 28.953125 64.34375 
Q 26.515625 68.015625 22.3125 68.015625 
z
M 66.40625 74.21875 
L 74.21875 74.21875 
L 28.609375 -1.421875 
L 20.796875 -1.421875 
z
M 22.3125 74.21875 
Q 30.03125 74.21875 34.609375 68.875 
Q 39.203125 63.53125 39.203125 54.390625 
Q 39.203125 45.171875 34.640625 39.84375 
Q 30.078125 34.515625 22.3125 34.515625 
Q 14.546875 34.515625 10.03125 39.859375 
Q 5.515625 45.21875 5.515625 54.390625 
Q 5.515625 63.484375 10.046875 68.84375 
Q 14.59375 74.21875 22.3125 74.21875 
z
" id="DejaVuSans-37"/>
      </defs>
      <g transform="translate(31.135937 245.915582)scale(0.1 -0.1)">
       <use xlink:href="#DejaVuSans-48"/>
       <use x="63.623047" xlink:href="#DejaVuSans-37"/>
      </g>
     </g>
    </g>
    <g id="ytick_2">
     <g id="line2d_8">
      <g>
       <use style="stroke:#000000;stroke-width:0.8;" x="54" xlink:href="#mcd38aeb596" y="202.581818"/>
      </g>
     </g>
     <g id="text_9">
      <!-- 20% -->
      <g transform="translate(24.773438 206.381037)scale(0.1 -0.1)">
       <use xlink:href="#DejaVuSans-50"/>
       <use x="63.623047" xlink:href="#DejaVuSans-48"/>
       <use x="127.246094" xlink:href="#DejaVuSans-37"/>
      </g>
     </g>
    </g>
    <g id="ytick_3">
     <g id="line2d_9">
      <g>
       <use style="stroke:#000000;stroke-width:0.8;" x="54" xlink:href="#mcd38aeb596" y="163.047273"/>
      </g>
     </g>
     <g id="text_10">
      <!-- 40% -->
      <defs>
       <path d="M 37.796875 64.3125 
L 12.890625 25.390625 
L 37.796875 25.390625 
z
M 35.203125 72.90625 
L 47.609375 72.90625 
L 47.609375 25.390625 
L 58.015625 25.390625 
L 58.015625 17.1875 
L 47.609375 17.1875 
L 47.609375 0 
L 37.796875 0 
L 37.796875 17.1875 
L 4.890625 17.1875 
L 4.890625 26.703125 
z
" id="DejaVuSans-52"/>
      </defs>
      <g transform="translate(24.773438 166.846491)scale(0.1 -0.1)">
       <use xlink:href="#DejaVuSans-52"/>
       <use x="63.623047" xlink:href="#DejaVuSans-48"/>
       <use x="127.246094" xlink:href="#DejaVuSans-37"/>
      </g>
     </g>
    </g>
    <g id="ytick_4">
     <g id="line2d_10">
      <g>
       <use style="stroke:#000000;stroke-width:0.8;" x="54" xlink:href="#mcd38aeb596" y="123.512727"/>
      </g>
     </g>
     <g id="text_11">
      <!-- 60% -->
      <defs>
       <path d="M 33.015625 40.375 
Q 26.375 40.375 22.484375 35.828125 
Q 18.609375 31.296875 18.609375 23.390625 
Q 18.609375 15.53125 22.484375 10.953125 
Q 26.375 6.390625 33.015625 6.390625 
Q 39.65625 6.390625 43.53125 10.953125 
Q 47.40625 15.53125 47.40625 23.390625 
Q 47.40625 31.296875 43.53125 35.828125 
Q 39.65625 40.375 33.015625 40.375 
z
M 52.59375 71.296875 
L 52.59375 62.3125 
Q 48.875 64.0625 45.09375 64.984375 
Q 41.3125 65.921875 37.59375 65.921875 
Q 27.828125 65.921875 22.671875 59.328125 
Q 17.53125 52.734375 16.796875 39.40625 
Q 19.671875 43.65625 24.015625 45.921875 
Q 28.375 48.1875 33.59375 48.1875 
Q 44.578125 48.1875 50.953125 41.515625 
Q 57.328125 34.859375 57.328125 23.390625 
Q 57.328125 12.15625 50.6875 5.359375 
Q 44.046875 -1.421875 33.015625 -1.421875 
Q 20.359375 -1.421875 13.671875 8.265625 
Q 6.984375 17.96875 6.984375 36.375 
Q 6.984375 53.65625 15.1875 63.9375 
Q 23.390625 74.21875 37.203125 74.21875 
Q 40.921875 74.21875 44.703125 73.484375 
Q 48.484375 72.75 52.59375 71.296875 
z
" id="DejaVuSans-54"/>
      </defs>
      <g transform="translate(24.773438 127.311946)scale(0.1 -0.1)">
       <use xlink:href="#DejaVuSans-54"/>
       <use x="63.623047" xlink:href="#DejaVuSans-48"/>
       <use x="127.246094" xlink:href="#DejaVuSans-37"/>
      </g>
     </g>
    </g>
    <g id="ytick_5">
     <g id="line2d_11">
      <g>
       <use style="stroke:#000000;stroke-width:0.8;" x="54" xlink:href="#mcd38aeb596" y="83.978182"/>
      </g>
     </g>
     <g id="text_12">
      <!-- 80% -->
      <defs>
       <path d="M 31.78125 34.625 
Q 24.75 34.625 20.71875 30.859375 
Q 16.703125 27.09375 16.703125 20.515625 
Q 16.703125 13.921875 20.71875 10.15625 
Q 24.75 6.390625 31.78125 6.390625 
Q 38.8125 6.390625 42.859375 10.171875 
Q 46.921875 13.96875 46.921875 20.515625 
Q 46.921875 27.09375 42.890625 30.859375 
Q 38.875 34.625 31.78125 34.625 
z
M 21.921875 38.8125 
Q 15.578125 40.375 12.03125 44.71875 
Q 8.5 49.078125 8.5 55.328125 
Q 8.5 64.0625 14.71875 69.140625 
Q 20.953125 74.21875 31.78125 74.21875 
Q 42.671875 74.21875 48.875 69.140625 
Q 55.078125 64.0625 55.078125 55.328125 
Q 55.078125 49.078125 51.53125 44.71875 
Q 48 40.375 41.703125 38.8125 
Q 48.828125 37.15625 52.796875 32.3125 
Q 56.78125 27.484375 56.78125 20.515625 
Q 56.78125 9.90625 50.3125 4.234375 
Q 43.84375 -1.421875 31.78125 -1.421875 
Q 19.734375 -1.421875 13.25 4.234375 
Q 6.78125 9.90625 6.78125 20.515625 
Q 6.78125 27.484375 10.78125 32.3125 
Q 14.796875 37.15625 21.921875 38.8125 
z
M 18.3125 54.390625 
Q 18.3125 48.734375 21.84375 45.5625 
Q 25.390625 42.390625 31.78125 42.390625 
Q 38.140625 42.390625 41.71875 45.5625 
Q 45.3125 48.734375 45.3125 54.390625 
Q 45.3125 60.0625 41.71875 63.234375 
Q 38.140625 66.40625 31.78125 66.40625 
Q 25.390625 66.40625 21.84375 63.234375 
Q 18.3125 60.0625 18.3125 54.390625 
z
" id="DejaVuSans-56"/>
      </defs>
      <g transform="translate(24.773438 87.777401)scale(0.1 -0.1)">
       <use xlink:href="#DejaVuSans-56"/>
       <use x="63.623047" xlink:href="#DejaVuSans-48"/>
       <use x="127.246094" xlink:href="#DejaVuSans-37"/>
      </g>
     </g>
    </g>
    <g id="ytick_6">
     <g id="line2d_12">
      <g>
       <use style="stroke:#000000;stroke-width:0.8;" x="54" xlink:href="#mcd38aeb596" y="44.443636"/>
      </g>
     </g>
     <g id="text_13">
      <!-- 100% -->
      <g transform="translate(18.410937 48.242855)scale(0.1 -0.1)">
       <use xlink:href="#DejaVuSans-49"/>
       <use x="63.623047" xlink:href="#DejaVuSans-48"/>
       <use x="127.246094" xlink:href="#DejaVuSans-48"/>
       <use x="190.869141" xlink:href="#DejaVuSans-37"/>
      </g>
     </g>
    </g>
    <g id="text_14">
     <!-- Strategy -->
     <defs>
      <path d="M 41.109375 46.296875 
Q 39.59375 47.171875 37.8125 47.578125 
Q 36.03125 48 33.890625 48 
Q 26.265625 48 22.1875 43.046875 
Q 18.109375 38.09375 18.109375 28.8125 
L 18.109375 0 
L 9.078125 0 
L 9.078125 54.6875 
L 18.109375 54.6875 
L 18.109375 46.1875 
Q 20.953125 51.171875 25.484375 53.578125 
Q 30.03125 56 36.53125 56 
Q 37.453125 56 38.578125 55.875 
Q 39.703125 55.765625 41.0625 55.515625 
z
" id="DejaVuSans-114"/>
      <path d="M 45.40625 27.984375 
Q 45.40625 37.75 41.375 43.109375 
Q 37.359375 48.484375 30.078125 48.484375 
Q 22.859375 48.484375 18.828125 43.109375 
Q 14.796875 37.75 14.796875 27.984375 
Q 14.796875 18.265625 18.828125 12.890625 
Q 22.859375 7.515625 30.078125 7.515625 
Q 37.359375 7.515625 41.375 12.890625 
Q 45.40625 18.265625 45.40625 27.984375 
z
M 54.390625 6.78125 
Q 54.390625 -7.171875 48.1875 -13.984375 
Q 42 -20.796875 29.203125 -20.796875 
Q 24.46875 -20.796875 20.265625 -20.09375 
Q 16.0625 -19.390625 12.109375 -17.921875 
L 12.109375 -9.1875 
Q 16.0625 -11.328125 19.921875 -12.34375 
Q 23.78125 -13.375 27.78125 -13.375 
Q 36.625 -13.375 41.015625 -8.765625 
Q 45.40625 -4.15625 45.40625 5.171875 
L 45.40625 9.625 
Q 42.625 4.78125 38.28125 2.390625 
Q 33.9375 0 27.875 0 
Q 17.828125 0 11.671875 7.65625 
Q 5.515625 15.328125 5.515625 27.984375 
Q 5.515625 40.671875 11.671875 48.328125 
Q 17.828125 56 27.875 56 
Q 33.9375 56 38.28125 53.609375 
Q 42.625 51.21875 45.40625 46.390625 
L 45.40625 54.6875 
L 54.390625 54.6875 
z
" id="DejaVuSans-103"/>
      <path d="M 32.171875 -5.078125 
Q 28.375 -14.84375 24.75 -17.8125 
Q 21.140625 -20.796875 15.09375 -20.796875 
L 7.90625 -20.796875 
L 7.90625 -13.28125 
L 13.1875 -13.28125 
Q 16.890625 -13.28125 18.9375 -11.515625 
Q 21 -9.765625 23.484375 -3.21875 
L 25.09375 0.875 
L 2.984375 54.6875 
L 12.5 54.6875 
L 29.59375 11.921875 
L 46.6875 54.6875 
L 56.203125 54.6875 
z
" id="DejaVuSans-121"/>
     </defs>
     <g transform="translate(12.33125 164.704219)rotate(-90)scale(0.1 -0.1)">
      <use xlink:href="#DejaVuSans-83"/>
      <use x="63.476562" xlink:href="#DejaVuSans-116"/>
      <use x="102.685547" xlink:href="#DejaVuSans-114"/>
      <use x="143.798828" xlink:href="#DejaVuSans-97"/>
      <use x="205.078125" xlink:href="#DejaVuSans-116"/>
      <use x="244.287109" xlink:href="#DejaVuSans-101"/>
      <use x="305.810547" xlink:href="#DejaVuSans-103"/>
      <use x="369.287109" xlink:href="#DejaVuSans-121"/>
     </g>
    </g>
   </g>
   <g id="line2d_13">
    <path clip-path="url(#pb7f747273c)" d="M 69.218182 242.116364 
L 70.440526 143.28 
L 71.66287 176.225455 
L 72.885214 143.28 
L 74.107558 163.047273 
L 75.329901 185.638442 
L 76.552245 198.189091 
L 77.774589 202.581818 
L 78.996933 213.877403 
L 81.441621 213.877403 
L 82.663965 215.76 
L 83.886309 215.76 
L 85.108653 205.052727 
L 86.330997 207.232941 
L 87.553341 209.170909 
L 88.775685 209.170909 
L 89.998028 202.581818 
L 91.220372 199.757922 
L 92.442716 203.857126 
L 93.66506 201.419037 
L 94.887404 206.636643 
L 96.109748 195.852534 
L 97.332092 191.799669 
L 98.554436 195.051429 
L 99.77678 200.185785 
L 100.999124 193.965315 
L 102.221468 193.847442 
L 103.443812 191.104047 
L 104.666156 185.897515 
L 105.888499 176.770008 
L 107.110843 172.349519 
L 108.333187 173.53603 
L 109.555531 171.518961 
L 110.777875 171.096222 
L 112.000219 173.77207 
L 113.222563 170.596583 
L 114.444907 169.429531 
L 115.667251 172.68586 
L 116.889595 171.783371 
L 118.111939 167.377912 
L 119.334283 168.386343 
L 120.556627 167.68404 
L 121.77897 166.485059 
L 123.001314 163.272541 
L 124.223658 163.484119 
L 125.446002 165.93 
L 126.668346 162.370642 
L 129.113034 161.978771 
L 131.557722 162.544715 
L 134.00241 161.658663 
L 135.224754 161.640905 
L 136.447097 159.432246 
L 138.891785 157.346599 
L 140.114129 156.507171 
L 141.336473 157.814759 
L 142.558817 156.981899 
L 143.781161 155.168755 
L 145.003505 155.677593 
L 146.225849 155.042054 
L 147.448193 157.007273 
L 148.670537 158.140013 
L 149.892881 156.142267 
L 151.115225 156.258512 
L 152.337568 157.209957 
L 153.559912 156.200883 
L 154.782256 154.638553 
L 156.0046 154.858453 
L 157.226944 153.113635 
L 158.449288 152.443636 
L 159.671632 153.351408 
L 160.893976 153.229969 
L 162.11632 154.150328 
L 163.338664 152.385528 
L 164.561008 152.629386 
L 165.783352 150.959853 
L 167.005696 151.558601 
L 168.228039 149.230015 
L 169.450383 151.474555 
L 170.672727 149.581647 
L 171.895071 148.640616 
L 173.117415 150.83228 
L 175.562103 150.805611 
L 176.784447 149.891128 
L 178.006791 151.474555 
L 179.229135 150.90831 
L 180.451479 147.432788 
L 181.673823 147.87704 
L 182.896166 146.479133 
L 184.11851 147.152634 
L 185.340854 146.215734 
L 186.563198 147.113451 
L 187.785542 146.619066 
L 189.007886 147.126424 
L 190.23023 146.45748 
L 191.452574 144.597818 
L 192.674918 144.285116 
L 193.897262 144.760079 
L 195.119606 143.945565 
L 196.34195 143.609455 
L 197.564294 142.291636 
L 198.786637 143.615039 
L 200.008981 141.127784 
L 201.231325 141.935288 
L 202.453669 144.119018 
L 203.676013 143.447236 
L 204.898357 142.612187 
L 206.120701 140.144957 
L 207.343045 141.935288 
L 208.565389 140.10252 
L 211.010077 136.957135 
L 212.232421 136.80165 
L 213.454765 137.071264 
L 214.677108 136.80165 
L 215.899452 136.757803 
L 217.121796 137.208141 
L 218.34414 137.919384 
L 219.566484 138.338182 
L 220.788828 135.498913 
L 222.011172 136.690909 
L 223.233516 136.113114 
L 224.45586 137.289917 
L 225.678204 136.957135 
L 226.900548 137.269681 
L 228.122892 138.305015 
L 229.345235 136.690909 
L 230.567579 135.804981 
L 231.789923 136.161133 
L 233.012267 134.960441 
L 234.234611 136.57923 
L 235.456955 135.346646 
L 236.679299 135.990182 
L 237.901643 132.630964 
L 239.123987 132.779678 
L 240.346331 132.44412 
L 241.568675 135.113083 
L 242.791019 132.973986 
L 244.013363 131.710526 
L 245.235706 133.512252 
L 246.45805 131.682738 
L 248.902738 131.325346 
L 250.125082 130.374095 
L 251.347426 131.486081 
L 252.56977 131.88869 
L 253.792114 130.057744 
L 255.014458 131.049413 
L 256.236802 132.222575 
L 257.459146 129.923735 
L 258.68149 130.988595 
L 259.903834 128.873344 
L 261.126177 127.674258 
L 262.348521 129.492743 
L 264.793209 129.064956 
L 266.015553 128.16385 
L 267.237897 129.207821 
L 268.460241 129.584811 
L 269.682585 128.175439 
L 270.904929 129.496698 
L 272.127273 127.252482 
L 274.571961 125.779463 
L 275.794304 125.506066 
L 277.016648 125.370055 
L 278.238992 124.964747 
L 279.461336 125.370055 
L 280.68368 124.706724 
L 281.906024 123.381165 
L 283.128368 123.910059 
L 284.350712 123.316364 
L 285.573056 126.193035 
L 286.7954 124.177173 
L 288.017744 124.375058 
L 289.240088 125.16 
L 290.462432 122.640148 
L 291.684775 123.711727 
L 292.907119 123.78167 
L 294.129463 123.512727 
L 295.351807 122.640148 
L 296.574151 124.438285 
L 297.796495 124.653792 
L 299.018839 121.278755 
L 300.241183 122.172573 
L 301.463527 123.380061 
L 302.685871 123.381165 
L 305.130559 120.344684 
L 306.352903 121.335265 
L 307.575246 121.536 
L 308.79759 122.065539 
L 310.019934 119.389091 
L 311.242278 119.888727 
L 312.464622 119.411354 
L 313.686966 118.48827 
L 314.90931 119.731739 
L 316.131654 117.98854 
L 317.353998 118.779249 
L 318.576342 116.415082 
L 319.798686 116.978092 
L 321.02103 115.686091 
L 322.243373 112.791495 
L 323.465717 113.662369 
L 324.688061 113.84288 
L 325.910405 113.662369 
L 327.132749 113.228403 
L 328.355093 112.489326 
L 329.577437 114.466687 
L 330.799781 113.39134 
L 332.022125 111.877142 
L 333.244469 111.686154 
L 334.466813 111.006902 
L 336.911501 111.23408 
L 338.133844 112.445721 
L 339.356188 111.998457 
L 340.578532 110.776766 
L 341.800876 111.220474 
L 343.02322 112.112378 
L 344.245564 110.445101 
L 345.467908 111.445691 
L 346.690252 111.808869 
L 347.912596 110.554916 
L 349.13494 110.552727 
L 350.357284 111.100719 
L 351.579628 111.990096 
L 354.024315 110.670724 
L 355.246659 108.653655 
L 356.469003 108.982937 
L 357.691347 105.904905 
L 358.913691 105.188566 
L 360.136035 106.072944 
L 361.358379 103.947161 
L 362.580723 104.504465 
L 363.803067 104.150245 
L 365.025411 103.510529 
L 366.247755 104.54683 
L 367.470099 104.722032 
L 368.692442 104.252308 
L 369.914786 104.415532 
L 371.13713 102.466974 
L 372.359474 103.148456 
L 373.581818 103.075378 
L 373.581818 103.075378 
" style="fill:none;stroke:#00008b;stroke-linecap:square;stroke-width:1.5;"/>
   </g>
   <g id="line2d_14">
    <path clip-path="url(#pb7f747273c)" d="M 69.218182 242.116364 
L 70.440526 242.116364 
L 71.66287 176.225455 
L 72.885214 192.698182 
L 74.107558 202.581818 
L 75.329901 213.877403 
L 76.552245 220.152727 
L 78.996933 185.638442 
L 80.219277 185.638442 
L 81.441621 171.518961 
L 82.663965 176.225455 
L 83.886309 176.225455 
L 85.108653 180.343636 
L 86.330997 183.977326 
L 87.553341 187.207273 
L 88.775685 176.225455 
L 89.998028 170.954182 
L 91.220372 164.459221 
L 92.442716 159.221349 
L 93.66506 154.907807 
L 94.887404 161.01986 
L 96.109748 158.000309 
L 97.332092 155.859174 
L 99.77678 140.284959 
L 100.999124 145.814266 
L 102.221468 145.57852 
L 103.443812 144.342757 
L 104.666156 142.373244 
L 105.888499 145.730488 
L 107.110843 152.000856 
L 108.333187 150.675918 
L 109.555531 154.832302 
L 110.777875 156.892194 
L 112.000219 154.845957 
L 113.222563 156.689959 
L 114.444907 156.133159 
L 115.667251 151.448295 
L 116.889595 149.572952 
L 118.111939 152.011128 
L 119.334283 148.047027 
L 120.556627 149.38101 
L 121.77897 148.723162 
L 123.001314 152.572308 
L 124.223658 152.562973 
L 125.446002 149.457273 
L 127.89069 152.055191 
L 129.113034 152.184177 
L 130.335378 151.480397 
L 131.557722 150.399569 
L 132.780066 150.661969 
L 134.00241 149.814636 
L 135.224754 150.311836 
L 136.447097 150.586969 
L 137.669441 152.15983 
L 140.114129 152.832957 
L 141.336473 150.910749 
L 142.558817 151.501139 
L 143.781161 154.10409 
L 145.003505 152.922572 
L 146.225849 152.935417 
L 147.448193 152.545909 
L 148.670537 150.191634 
L 149.892881 149.711133 
L 151.115225 151.266777 
L 152.337568 150.244979 
L 153.559912 150.159951 
L 154.782256 151.24794 
L 156.0046 150.831165 
L 157.226944 152.113604 
L 158.449288 152.443636 
L 159.671632 151.64439 
L 160.893976 151.903307 
L 162.11632 150.805611 
L 163.338664 151.723307 
L 164.561008 151.627666 
L 165.783352 152.963292 
L 167.005696 151.896503 
L 168.228039 154.849474 
L 169.450383 153.146913 
L 170.672727 153.229969 
L 171.895071 154.001233 
L 173.117415 151.16064 
L 174.339759 150.831165 
L 175.562103 151.809026 
L 176.784447 151.54391 
L 178.006791 149.467725 
L 179.229135 149.913313 
L 180.451479 152.416134 
L 181.673823 151.81736 
L 182.896166 152.877398 
L 184.11851 152.203897 
L 185.340854 153.391971 
L 186.563198 152.446948 
L 187.785542 152.295479 
L 189.007886 151.809026 
L 190.23023 152.47797 
L 191.452574 153.493091 
L 192.674918 153.666194 
L 193.897262 153.640551 
L 195.119606 154.927383 
L 196.34195 155.140364 
L 197.564294 156.128727 
L 198.786637 154.67131 
L 200.008981 157.352179 
L 201.231325 155.71859 
L 202.453669 154.858453 
L 203.676013 155.488214 
L 204.898357 155.968452 
L 206.120701 158.295207 
L 207.343045 156.054768 
L 208.565389 158.83293 
L 209.787733 159.416549 
L 211.010077 160.584683 
L 212.232421 160.389488 
L 213.454765 159.892564 
L 214.677108 160.057265 
L 215.899452 159.836345 
L 217.121796 160.146274 
L 218.34414 160.031926 
L 219.566484 160.082182 
L 220.788828 162.649941 
L 222.011172 161.070545 
L 223.233516 161.780567 
L 224.45586 159.919118 
L 225.678204 159.919118 
L 226.900548 159.307518 
L 228.122892 158.204954 
L 229.345235 159.752727 
L 230.567579 160.389488 
L 231.789923 160.00106 
L 233.012267 160.251901 
L 234.234611 159.02681 
L 235.456955 160.138376 
L 236.679299 160.063533 
L 237.901643 163.246942 
L 239.123987 163.113941 
L 240.346331 162.324881 
L 241.568675 160.447193 
L 242.791019 162.371469 
L 244.013363 162.782828 
L 245.235706 161.3255 
L 246.45805 162.493374 
L 247.680394 163.047273 
L 248.902738 162.979923 
L 250.125082 164.027468 
L 252.56977 162.042157 
L 253.792114 163.774497 
L 255.014458 163.44394 
L 256.236802 162.162679 
L 257.459146 164.316118 
L 258.68149 163.316673 
L 259.903834 165.392542 
L 261.126177 166.604711 
L 262.348521 164.708388 
L 263.570865 164.983931 
L 264.793209 165.522363 
L 266.015553 166.701727 
L 267.237897 165.961042 
L 268.460241 166.215316 
L 269.682585 167.907001 
L 270.904929 166.812468 
L 272.127273 169.324717 
L 273.349617 168.791608 
L 274.571961 169.780813 
L 275.794304 169.359511 
L 277.016648 168.818255 
L 278.238992 170.175371 
L 279.461336 169.481586 
L 280.68368 169.813252 
L 281.906024 170.414775 
L 283.128368 170.265473 
L 284.350712 170.770909 
L 285.573056 168.072851 
L 286.7954 170.023957 
L 288.017744 169.813252 
L 289.240088 169.306909 
L 290.462432 171.303213 
L 291.684775 170.144918 
L 292.907119 169.501892 
L 294.129463 170.688403 
L 295.351807 171.303213 
L 296.574151 169.393956 
L 297.796495 168.953962 
L 299.018839 171.712379 
L 300.241183 171.088197 
L 301.463527 170.144918 
L 302.685871 170.085869 
L 303.908215 171.020626 
L 305.130559 172.485403 
L 306.352903 171.689075 
L 307.575246 171.283636 
L 308.79759 170.085869 
L 310.019934 172.407273 
L 311.242278 171.942545 
L 313.686966 173.030076 
L 314.90931 171.803246 
L 316.131654 173.230413 
L 317.353998 172.114217 
L 318.576342 174.456571 
L 319.798686 173.175958 
L 322.243373 176.783852 
L 323.465717 175.892672 
L 324.688061 175.348371 
L 327.132749 175.668943 
L 328.355093 176.112045 
L 329.577437 174.773621 
L 332.022125 176.996753 
L 333.244469 177.914965 
L 334.466813 178.578701 
L 335.689157 178.124006 
L 336.911501 178.024524 
L 338.133844 176.781027 
L 339.356188 177.223802 
L 340.578532 179.09989 
L 341.800876 178.661757 
L 343.02322 178.447745 
L 344.245564 179.763221 
L 345.467908 178.781088 
L 346.690252 178.833873 
L 347.912596 179.97176 
L 349.13494 180.261818 
L 350.357284 179.727961 
L 351.579628 178.874335 
L 352.801972 179.536556 
L 354.024315 180.59577 
L 355.246659 182.27666 
L 356.469003 181.96979 
L 357.691347 185.306218 
L 358.913691 186.069937 
L 360.136035 185.076472 
L 361.358379 187.319332 
L 363.803067 186.794986 
L 365.025411 187.076759 
L 366.247755 186.353956 
L 367.470099 185.878978 
L 368.692442 186.362517 
L 369.914786 186.164931 
L 371.13713 188.026811 
L 373.581818 187.505085 
L 373.581818 187.505085 
" style="fill:none;stroke:#006400;stroke-dasharray:5.55,2.4;stroke-dashoffset:0;stroke-width:1.5;"/>
   </g>
   <g id="line2d_15">
    <path clip-path="url(#pb7f747273c)" d="M 69.218182 242.116364 
L 75.329901 242.116364 
L 76.552245 220.152727 
L 77.774589 222.349091 
L 78.996933 227.996883 
L 80.219277 213.877403 
L 81.441621 213.877403 
L 82.663965 215.76 
L 83.886309 215.76 
L 85.108653 217.407273 
L 86.330997 218.860749 
L 87.553341 209.170909 
L 89.998028 226.302545 
L 91.220372 220.937143 
L 92.442716 216.610205 
L 93.66506 218.860749 
L 94.887404 211.705175 
L 96.109748 212.675745 
L 97.332092 213.363967 
L 98.554436 213.877403 
L 99.77678 218.156033 
L 100.999124 221.842238 
L 102.221468 219.131163 
L 103.443812 218.735718 
L 105.888499 225.779775 
L 107.110843 223.221176 
L 108.333187 224.635102 
L 109.555531 222.862527 
L 110.777875 220.810321 
L 112.000219 218.984449 
L 113.222563 218.276437 
L 114.444907 219.955744 
L 115.667251 220.061968 
L 116.889595 221.386639 
L 118.111939 223.257128 
L 119.334283 225.590669 
L 120.556627 225.033535 
L 121.77897 225.500395 
L 123.001314 224.658089 
L 124.223658 224.096474 
L 125.446002 224.099318 
L 126.668346 225.683912 
L 127.89069 224.104129 
L 130.335378 223.55757 
L 131.557722 224.945639 
L 132.780066 224.48166 
L 134.00241 224.962945 
L 135.224754 224.146116 
L 136.447097 225.964117 
L 137.669441 226.287102 
L 138.891785 226.939244 
L 141.336473 227.944973 
L 142.558817 228.597157 
L 143.781161 228.275724 
L 145.003505 228.685638 
L 146.225849 228.774332 
L 147.448193 227.016364 
L 148.670537 227.601933 
L 149.892881 228.577136 
L 151.115225 227.473939 
L 152.337568 227.854741 
L 153.559912 228.020855 
L 154.782256 228.892974 
L 156.0046 229.027677 
L 157.226944 229.449309 
L 158.449288 230.007273 
L 159.671632 229.143024 
L 160.893976 229.513069 
L 162.11632 229.406442 
L 163.338664 229.86529 
L 164.561008 229.761818 
L 165.783352 230.763538 
L 168.228039 230.54689 
L 169.450383 230.075385 
L 170.672727 231.171397 
L 171.895071 231.060092 
L 173.117415 231.608843 
L 174.339759 231.712536 
L 175.562103 231.413272 
L 176.784447 232.530228 
L 178.006791 232.416687 
L 179.229135 232.829725 
L 180.451479 233.810787 
L 181.673823 234.235723 
L 182.896166 234.371095 
L 184.11851 234.371095 
L 185.340854 233.961548 
L 186.563198 233.782775 
L 189.007886 235.09246 
L 190.23023 235.09246 
L 191.452574 235.527273 
L 192.674918 235.750632 
L 193.897262 235.538236 
L 195.119606 235.460716 
L 198.786637 235.750632 
L 200.008981 235.163052 
L 201.231325 235.72898 
L 202.453669 234.397395 
L 203.676013 234.089045 
L 204.898357 234.102604 
L 206.120701 234.526259 
L 207.343045 234.720445 
L 208.565389 233.754573 
L 209.787733 234.720445 
L 211.010077 235.127934 
L 212.232421 234.807456 
L 213.454765 235.068609 
L 214.677108 234.807456 
L 215.899452 235.09246 
L 217.121796 234.695203 
L 218.34414 234.075439 
L 219.566484 233.88 
L 222.011172 234.538909 
L 223.233516 234.449462 
L 226.900548 235.438231 
L 228.122892 235.151385 
L 229.345235 235.197818 
L 230.567579 235.471902 
L 231.789923 235.494162 
L 233.012267 236.126281 
L 234.234611 235.750632 
L 235.456955 236.166348 
L 239.123987 235.782836 
L 240.346331 236.534243 
L 241.568675 235.782836 
L 242.791019 236.034126 
L 244.013363 236.496905 
L 245.235706 236.487492 
L 246.45805 236.92356 
L 247.680394 236.468571 
L 248.902738 237.065101 
L 250.125082 237.215387 
L 251.347426 237.133018 
L 252.56977 237.425824 
L 253.792114 237.488574 
L 255.014458 237.158018 
L 256.236802 237.012937 
L 257.459146 237.441671 
L 261.126177 237.417861 
L 262.348521 237.465241 
L 263.570865 237.775577 
L 264.793209 237.768233 
L 266.015553 237.133018 
L 267.237897 237.149712 
L 268.460241 236.836291 
L 269.682585 236.205883 
L 270.904929 236.065158 
L 272.127273 235.772138 
L 273.349617 236.70993 
L 275.794304 237.465241 
L 277.016648 238.136376 
L 278.238992 237.166295 
L 280.68368 237.80471 
L 281.906024 238.498394 
L 283.128368 238.143042 
L 284.350712 238.189091 
L 285.573056 238.095901 
L 288.017744 238.136376 
L 289.240088 237.833455 
L 290.462432 238.424683 
L 291.684775 238.468041 
L 292.907119 238.754583 
L 294.129463 238.46191 
L 295.351807 238.76029 
L 297.796495 238.76029 
L 299.018839 239.408518 
L 300.241183 238.765978 
L 305.130559 240.136336 
L 306.352903 240.074993 
L 307.575246 240.139636 
L 310.019934 240.807273 
L 311.242278 240.469091 
L 313.686966 240.463582 
L 314.90931 240.12637 
L 316.131654 240.452452 
L 318.576342 240.458035 
L 319.798686 241.136168 
L 321.02103 240.778477 
L 322.243373 241.111248 
L 328.355093 241.095678 
L 330.799781 240.418144 
L 332.022125 241.124694 
L 333.244469 240.426853 
L 334.466813 240.435473 
L 335.689157 240.77621 
L 339.356188 240.785234 
L 340.578532 240.458035 
L 341.800876 240.455248 
L 343.02322 240.116302 
L 345.467908 240.116302 
L 346.690252 239.734765 
L 347.912596 239.802469 
L 349.13494 239.498182 
L 354.024315 239.426939 
L 355.246659 239.763117 
L 356.469003 239.751049 
L 357.691347 239.458579 
L 361.358379 239.426939 
L 362.580723 239.146323 
L 363.803067 239.41776 
L 365.025411 239.431505 
L 366.247755 239.111204 
L 367.470099 239.759108 
L 368.692442 239.413147 
L 373.581818 239.436055 
L 373.581818 239.436055 
" style="fill:none;stroke:#8b0000;stroke-dasharray:1.5,2.475;stroke-dashoffset:0;stroke-width:1.5;"/>
   </g>
   <g id="line2d_16">
    <path clip-path="url(#pb7f747273c)" d="M 69.218182 44.443636 
L 70.440526 143.28 
L 71.66287 176.225455 
L 72.885214 192.698182 
L 74.107558 163.047273 
L 75.329901 129.160519 
L 76.552245 132.298182 
L 77.774589 143.28 
L 78.996933 143.28 
L 81.441621 171.518961 
L 82.663965 163.047273 
L 83.886309 163.047273 
L 85.108653 167.989091 
L 86.330997 160.721711 
L 87.553341 165.243636 
L 89.998028 170.954182 
L 91.220372 185.638442 
L 92.442716 191.104047 
L 93.66506 195.605134 
L 94.887404 191.431049 
L 96.109748 204.264139 
L 97.332092 209.769917 
L 98.554436 213.877403 
L 99.77678 212.16595 
L 100.999124 209.170909 
L 102.221468 212.235603 
L 103.443812 216.610205 
L 104.666156 220.354229 
L 105.888499 222.512457 
L 107.110843 223.221176 
L 108.333187 221.945677 
L 109.555531 221.578937 
L 110.777875 221.99399 
L 112.000219 223.190251 
L 113.222563 225.229749 
L 114.444907 225.274293 
L 116.889595 228.049765 
L 118.111939 228.14656 
L 119.334283 228.768688 
L 120.556627 228.694141 
L 121.77897 230.084111 
L 123.001314 230.28979 
L 124.223658 230.649161 
L 126.668346 231.966908 
L 129.113034 232.766978 
L 130.335378 233.484367 
L 131.557722 232.902804 
L 132.780066 233.504066 
L 134.00241 234.356484 
L 135.224754 234.69387 
L 136.447097 234.809395 
L 137.669441 234.008693 
L 140.114129 234.033092 
L 141.336473 234.122246 
L 143.781161 233.244159 
L 145.003505 233.506924 
L 146.225849 234.040924 
L 147.448193 234.223182 
L 148.670537 234.859148 
L 149.892881 236.362192 
L 151.115225 235.793499 
L 152.337568 235.483051 
L 153.559912 236.411039 
L 154.782256 236.013261 
L 157.226944 236.11618 
L 158.449288 235.898182 
L 159.671632 236.653905 
L 160.893976 236.146382 
L 163.338664 236.818602 
L 164.561008 236.773857 
L 165.783352 236.106044 
L 167.005696 236.70993 
L 168.228039 236.166348 
L 169.450383 236.095874 
L 170.672727 236.809713 
L 171.895071 237.090786 
L 173.117415 237.190963 
L 174.339759 237.417861 
L 175.562103 236.764818 
L 176.784447 236.827461 
L 178.006791 237.433761 
L 179.229135 237.141379 
L 180.451479 237.133018 
L 181.673823 236.862603 
L 182.896166 237.065101 
L 184.11851 237.065101 
L 187.785542 237.441671 
L 189.007886 236.764818 
L 190.23023 236.764818 
L 191.452574 237.174545 
L 192.674918 237.090786 
L 193.897262 236.853862 
L 195.119606 236.459063 
L 196.34195 236.515636 
L 197.564294 236.845091 
L 198.786637 236.755747 
L 200.008981 237.149712 
L 201.231325 237.40987 
L 202.453669 237.417861 
L 204.898357 238.109484 
L 206.120701 237.826304 
L 207.343045 238.082226 
L 211.010077 238.122975 
L 212.232421 238.794133 
L 213.454765 238.76029 
L 214.677108 239.126356 
L 215.899452 239.106119 
L 217.121796 238.743109 
L 218.34414 238.765978 
L 219.566484 238.492364 
L 223.233516 238.449585 
L 224.45586 238.78854 
L 226.900548 238.777297 
L 228.122892 239.131373 
L 231.789923 239.136373 
L 233.012267 239.454105 
L 234.234611 239.436055 
L 235.456955 239.141356 
L 236.679299 238.725751 
L 237.901643 239.121322 
L 239.123987 239.116272 
L 240.346331 239.489484 
L 242.791019 239.413147 
L 244.013363 239.802469 
L 245.235706 239.467483 
L 246.45805 239.693055 
L 247.680394 239.790802 
L 248.902738 239.422357 
L 250.125082 239.175778 
L 251.347426 239.126356 
L 252.56977 239.436055 
L 253.792114 239.471912 
L 255.014458 239.141356 
L 256.236802 239.394536 
L 257.459146 239.111204 
L 261.126177 239.095898 
L 262.348521 239.126356 
L 264.793209 238.437176 
L 266.015553 238.794133 
L 268.460241 238.156309 
L 269.682585 238.504404 
L 272.127273 238.443391 
L 273.349617 238.737343 
L 274.571961 238.116241 
L 275.794304 238.46191 
L 291.684775 238.468041 
L 292.907119 238.754583 
L 294.129463 238.129687 
L 296.574151 238.149687 
L 297.796495 238.424683 
L 299.018839 238.393076 
L 300.241183 238.765978 
L 301.463527 238.136376 
L 302.685871 237.840581 
L 303.908215 238.129687 
L 305.130559 237.826304 
L 306.352903 237.693394 
L 307.575246 237.833455 
L 308.79759 238.169487 
L 310.019934 238.189091 
L 311.242278 238.492364 
L 312.464622 238.418404 
L 314.90931 239.131373 
L 316.131654 239.121322 
L 317.353998 239.449615 
L 321.02103 239.440591 
L 322.243373 240.106133 
L 323.465717 240.119669 
L 324.688061 240.471832 
L 325.910405 240.452452 
L 328.355093 241.095678 
L 329.577437 240.77621 
L 330.799781 241.097432 
L 332.022125 240.794138 
L 336.911501 240.767062 
L 339.356188 240.785234 
L 340.578532 240.458035 
L 341.800876 240.455248 
L 343.02322 240.116302 
L 344.245564 240.458035 
L 352.801972 240.460813 
L 354.024315 240.099295 
L 362.580723 240.136336 
L 365.025411 240.773934 
L 366.247755 240.780737 
L 367.470099 240.43261 
L 368.692442 240.764755 
L 371.13713 240.805102 
L 372.359474 240.458035 
L 373.581818 240.77621 
L 373.581818 240.77621 
" style="fill:none;stroke:#000000;stroke-dasharray:9.6,2.4,1.5,2.4;stroke-dashoffset:0;stroke-width:1.5;"/>
   </g>
   <g id="patch_3">
    <path d="M 54 252 
L 54 34.56 
" style="fill:none;stroke:#000000;stroke-linecap:square;stroke-linejoin:miter;stroke-width:0.8;"/>
   </g>
   <g id="patch_4">
    <path d="M 388.8 252 
L 388.8 34.56 
" style="fill:none;stroke:#000000;stroke-linecap:square;stroke-linejoin:miter;stroke-width:0.8;"/>
   </g>
   <g id="patch_5">
    <path d="M 54 252 
L 388.8 252 
" style="fill:none;stroke:#000000;stroke-linecap:square;stroke-linejoin:miter;stroke-width:0.8;"/>
   </g>
   <g id="patch_6">
    <path d="M 54 34.56 
L 388.8 34.56 
" style="fill:none;stroke:#000000;stroke-linecap:square;stroke-linejoin:miter;stroke-width:0.8;"/>
   </g>
   <g id="legend_1">
    <g id="patch_7">
     <path d="M 303.684375 101.2725 
L 381.8 101.2725 
Q 383.8 101.2725 383.8 99.2725 
L 383.8 41.56 
Q 383.8 39.56 381.8 39.56 
L 303.684375 39.56 
Q 301.684375 39.56 301.684375 41.56 
L 301.684375 99.2725 
Q 301.684375 101.2725 303.684375 101.2725 
z
" style="fill:#ffffff;opacity:0.8;stroke:#cccccc;stroke-linejoin:miter;"/>
    </g>
    <g id="line2d_17">
     <path d="M 305.684375 47.658437 
L 325.684375 47.658437 
" style="fill:none;stroke:#00008b;stroke-linecap:square;stroke-width:1.5;"/>
    </g>
    <g id="line2d_18"/>
    <g id="text_15">
     <!-- Believers -->
     <defs>
      <path d="M 19.671875 34.8125 
L 19.671875 8.109375 
L 35.5 8.109375 
Q 43.453125 8.109375 47.28125 11.40625 
Q 51.125 14.703125 51.125 21.484375 
Q 51.125 28.328125 47.28125 31.5625 
Q 43.453125 34.8125 35.5 34.8125 
z
M 19.671875 64.796875 
L 19.671875 42.828125 
L 34.28125 42.828125 
Q 41.5 42.828125 45.03125 45.53125 
Q 48.578125 48.25 48.578125 53.8125 
Q 48.578125 59.328125 45.03125 62.0625 
Q 41.5 64.796875 34.28125 64.796875 
z
M 9.8125 72.90625 
L 35.015625 72.90625 
Q 46.296875 72.90625 52.390625 68.21875 
Q 58.5 63.53125 58.5 54.890625 
Q 58.5 48.1875 55.375 44.234375 
Q 52.25 40.28125 46.1875 39.3125 
Q 53.46875 37.75 57.5 32.78125 
Q 61.53125 27.828125 61.53125 20.40625 
Q 61.53125 10.640625 54.890625 5.3125 
Q 48.25 0 35.984375 0 
L 9.8125 0 
z
" id="DejaVuSans-66"/>
      <path d="M 2.984375 54.6875 
L 12.5 54.6875 
L 29.59375 8.796875 
L 46.6875 54.6875 
L 56.203125 54.6875 
L 35.6875 0 
L 23.484375 0 
z
" id="DejaVuSans-118"/>
      <path d="M 44.28125 53.078125 
L 44.28125 44.578125 
Q 40.484375 46.53125 36.375 47.5 
Q 32.28125 48.484375 27.875 48.484375 
Q 21.1875 48.484375 17.84375 46.4375 
Q 14.5 44.390625 14.5 40.28125 
Q 14.5 37.15625 16.890625 35.375 
Q 19.28125 33.59375 26.515625 31.984375 
L 29.59375 31.296875 
Q 39.15625 29.25 43.1875 25.515625 
Q 47.21875 21.78125 47.21875 15.09375 
Q 47.21875 7.46875 41.1875 3.015625 
Q 35.15625 -1.421875 24.609375 -1.421875 
Q 20.21875 -1.421875 15.453125 -0.5625 
Q 10.6875 0.296875 5.421875 2 
L 5.421875 11.28125 
Q 10.40625 8.6875 15.234375 7.390625 
Q 20.0625 6.109375 24.8125 6.109375 
Q 31.15625 6.109375 34.5625 8.28125 
Q 37.984375 10.453125 37.984375 14.40625 
Q 37.984375 18.0625 35.515625 20.015625 
Q 33.0625 21.96875 24.703125 23.78125 
L 21.578125 24.515625 
Q 13.234375 26.265625 9.515625 29.90625 
Q 5.8125 33.546875 5.8125 39.890625 
Q 5.8125 47.609375 11.28125 51.796875 
Q 16.75 56 26.8125 56 
Q 31.78125 56 36.171875 55.265625 
Q 40.578125 54.546875 44.28125 53.078125 
z
" id="DejaVuSans-115"/>
     </defs>
     <g transform="translate(333.684375 51.158437)scale(0.1 -0.1)">
      <use xlink:href="#DejaVuSans-66"/>
      <use x="68.603516" xlink:href="#DejaVuSans-101"/>
      <use x="130.126953" xlink:href="#DejaVuSans-108"/>
      <use x="157.910156" xlink:href="#DejaVuSans-105"/>
      <use x="185.693359" xlink:href="#DejaVuSans-101"/>
      <use x="247.216797" xlink:href="#DejaVuSans-118"/>
      <use x="306.396484" xlink:href="#DejaVuSans-101"/>
      <use x="367.919922" xlink:href="#DejaVuSans-114"/>
      <use x="409.033203" xlink:href="#DejaVuSans-115"/>
     </g>
    </g>
    <g id="line2d_19">
     <path d="M 305.684375 62.336562 
L 325.684375 62.336562 
" style="fill:none;stroke:#006400;stroke-dasharray:5.55,2.4;stroke-dashoffset:0;stroke-width:1.5;"/>
    </g>
    <g id="line2d_20"/>
    <g id="text_16">
     <!-- Saints -->
     <g transform="translate(333.684375 65.836562)scale(0.1 -0.1)">
      <use xlink:href="#DejaVuSans-83"/>
      <use x="63.476562" xlink:href="#DejaVuSans-97"/>
      <use x="124.755859" xlink:href="#DejaVuSans-105"/>
      <use x="152.539062" xlink:href="#DejaVuSans-110"/>
      <use x="215.917969" xlink:href="#DejaVuSans-116"/>
      <use x="255.126953" xlink:href="#DejaVuSans-115"/>
     </g>
    </g>
    <g id="line2d_21">
     <path d="M 305.684375 77.014687 
L 325.684375 77.014687 
" style="fill:none;stroke:#8b0000;stroke-dasharray:1.5,2.475;stroke-dashoffset:0;stroke-width:1.5;"/>
    </g>
    <g id="line2d_22"/>
    <g id="text_17">
     <!-- Sinners -->
     <g transform="translate(333.684375 80.514687)scale(0.1 -0.1)">
      <use xlink:href="#DejaVuSans-83"/>
      <use x="63.476562" xlink:href="#DejaVuSans-105"/>
      <use x="91.259766" xlink:href="#DejaVuSans-110"/>
      <use x="154.638672" xlink:href="#DejaVuSans-110"/>
      <use x="218.017578" xlink:href="#DejaVuSans-101"/>
      <use x="279.541016" xlink:href="#DejaVuSans-114"/>
      <use x="320.654297" xlink:href="#DejaVuSans-115"/>
     </g>
    </g>
    <g id="line2d_23">
     <path d="M 305.684375 91.692813 
L 325.684375 91.692813 
" style="fill:none;stroke:#000000;stroke-dasharray:9.6,2.4,1.5,2.4;stroke-dashoffset:0;stroke-width:1.5;"/>
    </g>
    <g id="line2d_24"/>
    <g id="text_18">
     <!-- Heretics -->
     <defs>
      <path d="M 9.8125 72.90625 
L 19.671875 72.90625 
L 19.671875 43.015625 
L 55.515625 43.015625 
L 55.515625 72.90625 
L 65.375 72.90625 
L 65.375 0 
L 55.515625 0 
L 55.515625 34.71875 
L 19.671875 34.71875 
L 19.671875 0 
L 9.8125 0 
z
" id="DejaVuSans-72"/>
      <path d="M 48.78125 52.59375 
L 48.78125 44.1875 
Q 44.96875 46.296875 41.140625 47.34375 
Q 37.3125 48.390625 33.40625 48.390625 
Q 24.65625 48.390625 19.8125 42.84375 
Q 14.984375 37.3125 14.984375 27.296875 
Q 14.984375 17.28125 19.8125 11.734375 
Q 24.65625 6.203125 33.40625 6.203125 
Q 37.3125 6.203125 41.140625 7.25 
Q 44.96875 8.296875 48.78125 10.40625 
L 48.78125 2.09375 
Q 45.015625 0.34375 40.984375 -0.53125 
Q 36.96875 -1.421875 32.421875 -1.421875 
Q 20.0625 -1.421875 12.78125 6.34375 
Q 5.515625 14.109375 5.515625 27.296875 
Q 5.515625 40.671875 12.859375 48.328125 
Q 20.21875 56 33.015625 56 
Q 37.15625 56 41.109375 55.140625 
Q 45.0625 54.296875 48.78125 52.59375 
z
" id="DejaVuSans-99"/>
     </defs>
     <g transform="translate(333.684375 95.192813)scale(0.1 -0.1)">
      <use xlink:href="#DejaVuSans-72"/>
      <use x="75.195312" xlink:href="#DejaVuSans-101"/>
      <use x="136.71875" xlink:href="#DejaVuSans-114"/>
      <use x="175.582031" xlink:href="#DejaVuSans-101"/>
      <use x="237.105469" xlink:href="#DejaVuSans-116"/>
      <use x="276.314453" xlink:href="#DejaVuSans-105"/>
      <use x="304.097656" xlink:href="#DejaVuSans-99"/>
      <use x="359.078125" xlink:href="#DejaVuSans-115"/>
     </g>
    </g>
   </g>
  </g>
 </g>
 <defs>
  <clipPath id="pb7f747273c">
   <rect height="217.44" width="334.8" x="54" y="34.56"/>
  </clipPath>
 </defs>
</svg>
