<?xml version="1.0" encoding="utf-8" standalone="no"?>
<!DOCTYPE svg PUBLIC "-//W3C//DTD SVG 1.1//EN"
  "http://www.w3.org/Graphics/SVG/1.1/DTD/svg11.dtd">
<!-- Created with matplotlib (https://matplotlib.org/) -->
<svg height="288pt" version="1.1" viewBox="0 0 432 288" width="432pt" xmlns="http://www.w3.org/2000/svg" xmlns:xlink="http://www.w3.org/1999/xlink">
 <defs>
  <style type="text/css">
*{stroke-linecap:butt;stroke-linejoin:round;}
  </style>
 </defs>
 <g id="figure_1">
  <g id="patch_1">
   <path d="M 0 288 
L 432 288 
L 432 0 
L 0 0 
z
" style="fill:#ffffff;"/>
  </g>
  <g id="axes_1">
   <g id="patch_2">
    <path d="M 54 252 
L 388.8 252 
L 388.8 34.56 
L 54 34.56 
z
" style="fill:#ffffff;"/>
   </g>
   <g id="matplotlib.axis_1">
    <g id="xtick_1">
     <g id="line2d_1">
      <defs>
       <path d="M 0 0 
L 0 3.5 
" id="m65d9ca90bd" style="stroke:#000000;stroke-width:0.8;"/>
      </defs>
      <g>
       <use style="stroke:#000000;stroke-width:0.8;" x="69.218182" xlink:href="#m65d9ca90bd" y="252"/>
      </g>
     </g>
     <g id="text_1">
      <!-- 0 -->
      <defs>
       <path d="M 31.78125 66.40625 
Q 24.171875 66.40625 20.328125 58.90625 
Q 16.5 51.421875 16.5 36.375 
Q 16.5 21.390625 20.328125 13.890625 
Q 24.171875 6.390625 31.78125 6.390625 
Q 39.453125 6.390625 43.28125 13.890625 
Q 47.125 21.390625 47.125 36.375 
Q 47.125 51.421875 43.28125 58.90625 
Q 39.453125 66.40625 31.78125 66.40625 
z
M 31.78125 74.21875 
Q 44.046875 74.21875 50.515625 64.515625 
Q 56.984375 54.828125 56.984375 36.375 
Q 56.984375 17.96875 50.515625 8.265625 
Q 44.046875 -1.421875 31.78125 -1.421875 
Q 19.53125 -1.421875 13.0625 8.265625 
Q 6.59375 17.96875 6.59375 36.375 
Q 6.59375 54.828125 13.0625 64.515625 
Q 19.53125 74.21875 31.78125 74.21875 
z
" id="DejaVuSans-48"/>
      </defs>
      <g transform="translate(66.036932 266.598437)scale(0.1 -0.1)">
       <use xlink:href="#DejaVuSans-48"/>
      </g>
     </g>
    </g>
    <g id="xtick_2">
     <g id="line2d_2">
      <g>
       <use style="stroke:#000000;stroke-width:0.8;" x="130.335378" xlink:href="#m65d9ca90bd" y="252"/>
      </g>
     </g>
     <g id="text_2">
      <!-- 50 -->
      <defs>
       <path d="M 10.796875 72.90625 
L 49.515625 72.90625 
L 49.515625 64.59375 
L 19.828125 64.59375 
L 19.828125 46.734375 
Q 21.96875 47.46875 24.109375 47.828125 
Q 26.265625 48.1875 28.421875 48.1875 
Q 40.625 48.1875 47.75 41.5 
Q 54.890625 34.8125 54.890625 23.390625 
Q 54.890625 11.625 47.5625 5.09375 
Q 40.234375 -1.421875 26.90625 -1.421875 
Q 22.3125 -1.421875 17.546875 -0.640625 
Q 12.796875 0.140625 7.71875 1.703125 
L 7.71875 11.625 
Q 12.109375 9.234375 16.796875 8.0625 
Q 21.484375 6.890625 26.703125 6.890625 
Q 35.15625 6.890625 40.078125 11.328125 
Q 45.015625 15.765625 45.015625 23.390625 
Q 45.015625 31 40.078125 35.4375 
Q 35.15625 39.890625 26.703125 39.890625 
Q 22.75 39.890625 18.8125 39.015625 
Q 14.890625 38.140625 10.796875 36.28125 
z
" id="DejaVuSans-53"/>
      </defs>
      <g transform="translate(123.972878 266.598437)scale(0.1 -0.1)">
       <use xlink:href="#DejaVuSans-53"/>
       <use x="63.623047" xlink:href="#DejaVuSans-48"/>
      </g>
     </g>
    </g>
    <g id="xtick_3">
     <g id="line2d_3">
      <g>
       <use style="stroke:#000000;stroke-width:0.8;" x="191.452574" xlink:href="#m65d9ca90bd" y="252"/>
      </g>
     </g>
     <g id="text_3">
      <!-- 100 -->
      <defs>
       <path d="M 12.40625 8.296875 
L 28.515625 8.296875 
L 28.515625 63.921875 
L 10.984375 60.40625 
L 10.984375 69.390625 
L 28.421875 72.90625 
L 38.28125 72.90625 
L 38.28125 8.296875 
L 54.390625 8.296875 
L 54.390625 0 
L 12.40625 0 
z
" id="DejaVuSans-49"/>
      </defs>
      <g transform="translate(181.908824 266.598437)scale(0.1 -0.1)">
       <use xlink:href="#DejaVuSans-49"/>
       <use x="63.623047" xlink:href="#DejaVuSans-48"/>
       <use x="127.246094" xlink:href="#DejaVuSans-48"/>
      </g>
     </g>
    </g>
    <g id="xtick_4">
     <g id="line2d_4">
      <g>
       <use style="stroke:#000000;stroke-width:0.8;" x="252.56977" xlink:href="#m65d9ca90bd" y="252"/>
      </g>
     </g>
     <g id="text_4">
      <!-- 150 -->
      <g transform="translate(243.02602 266.598437)scale(0.1 -0.1)">
       <use xlink:href="#DejaVuSans-49"/>
       <use x="63.623047" xlink:href="#DejaVuSans-53"/>
       <use x="127.246094" xlink:href="#DejaVuSans-48"/>
      </g>
     </g>
    </g>
    <g id="xtick_5">
     <g id="line2d_5">
      <g>
       <use style="stroke:#000000;stroke-width:0.8;" x="313.686966" xlink:href="#m65d9ca90bd" y="252"/>
      </g>
     </g>
     <g id="text_5">
      <!-- 200 -->
      <defs>
       <path d="M 19.1875 8.296875 
L 53.609375 8.296875 
L 53.609375 0 
L 7.328125 0 
L 7.328125 8.296875 
Q 12.9375 14.109375 22.625 23.890625 
Q 32.328125 33.6875 34.8125 36.53125 
Q 39.546875 41.84375 41.421875 45.53125 
Q 43.3125 49.21875 43.3125 52.78125 
Q 43.3125 58.59375 39.234375 62.25 
Q 35.15625 65.921875 28.609375 65.921875 
Q 23.96875 65.921875 18.8125 64.3125 
Q 13.671875 62.703125 7.8125 59.421875 
L 7.8125 69.390625 
Q 13.765625 71.78125 18.9375 73 
Q 24.125 74.21875 28.421875 74.21875 
Q 39.75 74.21875 46.484375 68.546875 
Q 53.21875 62.890625 53.21875 53.421875 
Q 53.21875 48.921875 51.53125 44.890625 
Q 49.859375 40.875 45.40625 35.40625 
Q 44.1875 33.984375 37.640625 27.21875 
Q 31.109375 20.453125 19.1875 8.296875 
z
" id="DejaVuSans-50"/>
      </defs>
      <g transform="translate(304.143216 266.598437)scale(0.1 -0.1)">
       <use xlink:href="#DejaVuSans-50"/>
       <use x="63.623047" xlink:href="#DejaVuSans-48"/>
       <use x="127.246094" xlink:href="#DejaVuSans-48"/>
      </g>
     </g>
    </g>
    <g id="xtick_6">
     <g id="line2d_6">
      <g>
       <use style="stroke:#000000;stroke-width:0.8;" x="374.804162" xlink:href="#m65d9ca90bd" y="252"/>
      </g>
     </g>
     <g id="text_6">
      <!-- 250 -->
      <g transform="translate(365.260412 266.598437)scale(0.1 -0.1)">
       <use xlink:href="#DejaVuSans-50"/>
       <use x="63.623047" xlink:href="#DejaVuSans-53"/>
       <use x="127.246094" xlink:href="#DejaVuSans-48"/>
      </g>
     </g>
    </g>
    <g id="text_7">
     <!-- Simulation Time -->
     <defs>
      <path d="M 53.515625 70.515625 
L 53.515625 60.890625 
Q 47.90625 63.578125 42.921875 64.890625 
Q 37.9375 66.21875 33.296875 66.21875 
Q 25.25 66.21875 20.875 63.09375 
Q 16.5 59.96875 16.5 54.203125 
Q 16.5 49.359375 19.40625 46.890625 
Q 22.3125 44.4375 30.421875 42.921875 
L 36.375 41.703125 
Q 47.40625 39.59375 52.65625 34.296875 
Q 57.90625 29 57.90625 20.125 
Q 57.90625 9.515625 50.796875 4.046875 
Q 43.703125 -1.421875 29.984375 -1.421875 
Q 24.8125 -1.421875 18.96875 -0.25 
Q 13.140625 0.921875 6.890625 3.21875 
L 6.890625 13.375 
Q 12.890625 10.015625 18.65625 8.296875 
Q 24.421875 6.59375 29.984375 6.59375 
Q 38.421875 6.59375 43.015625 9.90625 
Q 47.609375 13.234375 47.609375 19.390625 
Q 47.609375 24.75 44.3125 27.78125 
Q 41.015625 30.8125 33.5 32.328125 
L 27.484375 33.5 
Q 16.453125 35.6875 11.515625 40.375 
Q 6.59375 45.0625 6.59375 53.421875 
Q 6.59375 63.09375 13.40625 68.65625 
Q 20.21875 74.21875 32.171875 74.21875 
Q 37.3125 74.21875 42.625 73.28125 
Q 47.953125 72.359375 53.515625 70.515625 
z
" id="DejaVuSans-83"/>
      <path d="M 9.421875 54.6875 
L 18.40625 54.6875 
L 18.40625 0 
L 9.421875 0 
z
M 9.421875 75.984375 
L 18.40625 75.984375 
L 18.40625 64.59375 
L 9.421875 64.59375 
z
" id="DejaVuSans-105"/>
      <path d="M 52 44.1875 
Q 55.375 50.25 60.0625 53.125 
Q 64.75 56 71.09375 56 
Q 79.640625 56 84.28125 50.015625 
Q 88.921875 44.046875 88.921875 33.015625 
L 88.921875 0 
L 79.890625 0 
L 79.890625 32.71875 
Q 79.890625 40.578125 77.09375 44.375 
Q 74.3125 48.1875 68.609375 48.1875 
Q 61.625 48.1875 57.5625 43.546875 
Q 53.515625 38.921875 53.515625 30.90625 
L 53.515625 0 
L 44.484375 0 
L 44.484375 32.71875 
Q 44.484375 40.625 41.703125 44.40625 
Q 38.921875 48.1875 33.109375 48.1875 
Q 26.21875 48.1875 22.15625 43.53125 
Q 18.109375 38.875 18.109375 30.90625 
L 18.109375 0 
L 9.078125 0 
L 9.078125 54.6875 
L 18.109375 54.6875 
L 18.109375 46.1875 
Q 21.1875 51.21875 25.484375 53.609375 
Q 29.78125 56 35.6875 56 
Q 41.65625 56 45.828125 52.96875 
Q 50 49.953125 52 44.1875 
z
" id="DejaVuSans-109"/>
      <path d="M 8.5 21.578125 
L 8.5 54.6875 
L 17.484375 54.6875 
L 17.484375 21.921875 
Q 17.484375 14.15625 20.5 10.265625 
Q 23.53125 6.390625 29.59375 6.390625 
Q 36.859375 6.390625 41.078125 11.03125 
Q 45.3125 15.671875 45.3125 23.6875 
L 45.3125 54.6875 
L 54.296875 54.6875 
L 54.296875 0 
L 45.3125 0 
L 45.3125 8.40625 
Q 42.046875 3.421875 37.71875 1 
Q 33.40625 -1.421875 27.6875 -1.421875 
Q 18.265625 -1.421875 13.375 4.4375 
Q 8.5 10.296875 8.5 21.578125 
z
M 31.109375 56 
z
" id="DejaVuSans-117"/>
      <path d="M 9.421875 75.984375 
L 18.40625 75.984375 
L 18.40625 0 
L 9.421875 0 
z
" id="DejaVuSans-108"/>
      <path d="M 34.28125 27.484375 
Q 23.390625 27.484375 19.1875 25 
Q 14.984375 22.515625 14.984375 16.5 
Q 14.984375 11.71875 18.140625 8.90625 
Q 21.296875 6.109375 26.703125 6.109375 
Q 34.1875 6.109375 38.703125 11.40625 
Q 43.21875 16.703125 43.21875 25.484375 
L 43.21875 27.484375 
z
M 52.203125 31.203125 
L 52.203125 0 
L 43.21875 0 
L 43.21875 8.296875 
Q 40.140625 3.328125 35.546875 0.953125 
Q 30.953125 -1.421875 24.3125 -1.421875 
Q 15.921875 -1.421875 10.953125 3.296875 
Q 6 8.015625 6 15.921875 
Q 6 25.140625 12.171875 29.828125 
Q 18.359375 34.515625 30.609375 34.515625 
L 43.21875 34.515625 
L 43.21875 35.40625 
Q 43.21875 41.609375 39.140625 45 
Q 35.0625 48.390625 27.6875 48.390625 
Q 23 48.390625 18.546875 47.265625 
Q 14.109375 46.140625 10.015625 43.890625 
L 10.015625 52.203125 
Q 14.9375 54.109375 19.578125 55.046875 
Q 24.21875 56 28.609375 56 
Q 40.484375 56 46.34375 49.84375 
Q 52.203125 43.703125 52.203125 31.203125 
z
" id="DejaVuSans-97"/>
      <path d="M 18.3125 70.21875 
L 18.3125 54.6875 
L 36.8125 54.6875 
L 36.8125 47.703125 
L 18.3125 47.703125 
L 18.3125 18.015625 
Q 18.3125 11.328125 20.140625 9.421875 
Q 21.96875 7.515625 27.59375 7.515625 
L 36.8125 7.515625 
L 36.8125 0 
L 27.59375 0 
Q 17.1875 0 13.234375 3.875 
Q 9.28125 7.765625 9.28125 18.015625 
L 9.28125 47.703125 
L 2.6875 47.703125 
L 2.6875 54.6875 
L 9.28125 54.6875 
L 9.28125 70.21875 
z
" id="DejaVuSans-116"/>
      <path d="M 30.609375 48.390625 
Q 23.390625 48.390625 19.1875 42.75 
Q 14.984375 37.109375 14.984375 27.296875 
Q 14.984375 17.484375 19.15625 11.84375 
Q 23.34375 6.203125 30.609375 6.203125 
Q 37.796875 6.203125 41.984375 11.859375 
Q 46.1875 17.53125 46.1875 27.296875 
Q 46.1875 37.015625 41.984375 42.703125 
Q 37.796875 48.390625 30.609375 48.390625 
z
M 30.609375 56 
Q 42.328125 56 49.015625 48.375 
Q 55.71875 40.765625 55.71875 27.296875 
Q 55.71875 13.875 49.015625 6.21875 
Q 42.328125 -1.421875 30.609375 -1.421875 
Q 18.84375 -1.421875 12.171875 6.21875 
Q 5.515625 13.875 5.515625 27.296875 
Q 5.515625 40.765625 12.171875 48.375 
Q 18.84375 56 30.609375 56 
z
" id="DejaVuSans-111"/>
      <path d="M 54.890625 33.015625 
L 54.890625 0 
L 45.90625 0 
L 45.90625 32.71875 
Q 45.90625 40.484375 42.875 44.328125 
Q 39.84375 48.1875 33.796875 48.1875 
Q 26.515625 48.1875 22.3125 43.546875 
Q 18.109375 38.921875 18.109375 30.90625 
L 18.109375 0 
L 9.078125 0 
L 9.078125 54.6875 
L 18.109375 54.6875 
L 18.109375 46.1875 
Q 21.34375 51.125 25.703125 53.5625 
Q 30.078125 56 35.796875 56 
Q 45.21875 56 50.046875 50.171875 
Q 54.890625 44.34375 54.890625 33.015625 
z
" id="DejaVuSans-110"/>
      <path id="DejaVuSans-32"/>
      <path d="M -0.296875 72.90625 
L 61.375 72.90625 
L 61.375 64.59375 
L 35.5 64.59375 
L 35.5 0 
L 25.59375 0 
L 25.59375 64.59375 
L -0.296875 64.59375 
z
" id="DejaVuSans-84"/>
      <path d="M 56.203125 29.59375 
L 56.203125 25.203125 
L 14.890625 25.203125 
Q 15.484375 15.921875 20.484375 11.0625 
Q 25.484375 6.203125 34.421875 6.203125 
Q 39.59375 6.203125 44.453125 7.46875 
Q 49.3125 8.734375 54.109375 11.28125 
L 54.109375 2.78125 
Q 49.265625 0.734375 44.1875 -0.34375 
Q 39.109375 -1.421875 33.890625 -1.421875 
Q 20.796875 -1.421875 13.15625 6.1875 
Q 5.515625 13.8125 5.515625 26.8125 
Q 5.515625 40.234375 12.765625 48.109375 
Q 20.015625 56 32.328125 56 
Q 43.359375 56 49.78125 48.890625 
Q 56.203125 41.796875 56.203125 29.59375 
z
M 47.21875 32.234375 
Q 47.125 39.59375 43.09375 43.984375 
Q 39.0625 48.390625 32.421875 48.390625 
Q 24.90625 48.390625 20.390625 44.140625 
Q 15.875 39.890625 15.1875 32.171875 
z
" id="DejaVuSans-101"/>
     </defs>
     <g transform="translate(180.944531 280.276563)scale(0.1 -0.1)">
      <use xlink:href="#DejaVuSans-83"/>
      <use x="63.476562" xlink:href="#DejaVuSans-105"/>
      <use x="91.259766" xlink:href="#DejaVuSans-109"/>
      <use x="188.671875" xlink:href="#DejaVuSans-117"/>
      <use x="252.050781" xlink:href="#DejaVuSans-108"/>
      <use x="279.833984" xlink:href="#DejaVuSans-97"/>
      <use x="341.113281" xlink:href="#DejaVuSans-116"/>
      <use x="380.322266" xlink:href="#DejaVuSans-105"/>
      <use x="408.105469" xlink:href="#DejaVuSans-111"/>
      <use x="469.287109" xlink:href="#DejaVuSans-110"/>
      <use x="532.666016" xlink:href="#DejaVuSans-32"/>
      <use x="564.453125" xlink:href="#DejaVuSans-84"/>
      <use x="622.412109" xlink:href="#DejaVuSans-105"/>
      <use x="650.195312" xlink:href="#DejaVuSans-109"/>
      <use x="747.607422" xlink:href="#DejaVuSans-101"/>
     </g>
    </g>
   </g>
   <g id="matplotlib.axis_2">
    <g id="ytick_1">
     <g id="line2d_7">
      <defs>
       <path d="M 0 0 
L -3.5 0 
" id="ma9beefade4" style="stroke:#000000;stroke-width:0.8;"/>
      </defs>
      <g>
       <use style="stroke:#000000;stroke-width:0.8;" x="54" xlink:href="#ma9beefade4" y="242.116364"/>
      </g>
     </g>
     <g id="text_8">
      <!-- 0% -->
      <defs>
       <path d="M 72.703125 32.078125 
Q 68.453125 32.078125 66.03125 28.46875 
Q 63.625 24.859375 63.625 18.40625 
Q 63.625 12.0625 66.03125 8.421875 
Q 68.453125 4.78125 72.703125 4.78125 
Q 76.859375 4.78125 79.265625 8.421875 
Q 81.6875 12.0625 81.6875 18.40625 
Q 81.6875 24.8125 79.265625 28.4375 
Q 76.859375 32.078125 72.703125 32.078125 
z
M 72.703125 38.28125 
Q 80.421875 38.28125 84.953125 32.90625 
Q 89.5 27.546875 89.5 18.40625 
Q 89.5 9.28125 84.9375 3.921875 
Q 80.375 -1.421875 72.703125 -1.421875 
Q 64.890625 -1.421875 60.34375 3.921875 
Q 55.8125 9.28125 55.8125 18.40625 
Q 55.8125 27.59375 60.375 32.9375 
Q 64.9375 38.28125 72.703125 38.28125 
z
M 22.3125 68.015625 
Q 18.109375 68.015625 15.6875 64.375 
Q 13.28125 60.75 13.28125 54.390625 
Q 13.28125 47.953125 15.671875 44.328125 
Q 18.0625 40.71875 22.3125 40.71875 
Q 26.5625 40.71875 28.96875 44.328125 
Q 31.390625 47.953125 31.390625 54.390625 
Q 31.390625 60.6875 28.953125 64.34375 
Q 26.515625 68.015625 22.3125 68.015625 
z
M 66.40625 74.21875 
L 74.21875 74.21875 
L 28.609375 -1.421875 
L 20.796875 -1.421875 
z
M 22.3125 74.21875 
Q 30.03125 74.21875 34.609375 68.875 
Q 39.203125 63.53125 39.203125 54.390625 
Q 39.203125 45.171875 34.640625 39.84375 
Q 30.078125 34.515625 22.3125 34.515625 
Q 14.546875 34.515625 10.03125 39.859375 
Q 5.515625 45.21875 5.515625 54.390625 
Q 5.515625 63.484375 10.046875 68.84375 
Q 14.59375 74.21875 22.3125 74.21875 
z
" id="DejaVuSans-37"/>
      </defs>
      <g transform="translate(31.135937 245.915582)scale(0.1 -0.1)">
       <use xlink:href="#DejaVuSans-48"/>
       <use x="63.623047" xlink:href="#DejaVuSans-37"/>
      </g>
     </g>
    </g>
    <g id="ytick_2">
     <g id="line2d_8">
      <g>
       <use style="stroke:#000000;stroke-width:0.8;" x="54" xlink:href="#ma9beefade4" y="202.581818"/>
      </g>
     </g>
     <g id="text_9">
      <!-- 20% -->
      <g transform="translate(24.773438 206.381037)scale(0.1 -0.1)">
       <use xlink:href="#DejaVuSans-50"/>
       <use x="63.623047" xlink:href="#DejaVuSans-48"/>
       <use x="127.246094" xlink:href="#DejaVuSans-37"/>
      </g>
     </g>
    </g>
    <g id="ytick_3">
     <g id="line2d_9">
      <g>
       <use style="stroke:#000000;stroke-width:0.8;" x="54" xlink:href="#ma9beefade4" y="163.047273"/>
      </g>
     </g>
     <g id="text_10">
      <!-- 40% -->
      <defs>
       <path d="M 37.796875 64.3125 
L 12.890625 25.390625 
L 37.796875 25.390625 
z
M 35.203125 72.90625 
L 47.609375 72.90625 
L 47.609375 25.390625 
L 58.015625 25.390625 
L 58.015625 17.1875 
L 47.609375 17.1875 
L 47.609375 0 
L 37.796875 0 
L 37.796875 17.1875 
L 4.890625 17.1875 
L 4.890625 26.703125 
z
" id="DejaVuSans-52"/>
      </defs>
      <g transform="translate(24.773438 166.846491)scale(0.1 -0.1)">
       <use xlink:href="#DejaVuSans-52"/>
       <use x="63.623047" xlink:href="#DejaVuSans-48"/>
       <use x="127.246094" xlink:href="#DejaVuSans-37"/>
      </g>
     </g>
    </g>
    <g id="ytick_4">
     <g id="line2d_10">
      <g>
       <use style="stroke:#000000;stroke-width:0.8;" x="54" xlink:href="#ma9beefade4" y="123.512727"/>
      </g>
     </g>
     <g id="text_11">
      <!-- 60% -->
      <defs>
       <path d="M 33.015625 40.375 
Q 26.375 40.375 22.484375 35.828125 
Q 18.609375 31.296875 18.609375 23.390625 
Q 18.609375 15.53125 22.484375 10.953125 
Q 26.375 6.390625 33.015625 6.390625 
Q 39.65625 6.390625 43.53125 10.953125 
Q 47.40625 15.53125 47.40625 23.390625 
Q 47.40625 31.296875 43.53125 35.828125 
Q 39.65625 40.375 33.015625 40.375 
z
M 52.59375 71.296875 
L 52.59375 62.3125 
Q 48.875 64.0625 45.09375 64.984375 
Q 41.3125 65.921875 37.59375 65.921875 
Q 27.828125 65.921875 22.671875 59.328125 
Q 17.53125 52.734375 16.796875 39.40625 
Q 19.671875 43.65625 24.015625 45.921875 
Q 28.375 48.1875 33.59375 48.1875 
Q 44.578125 48.1875 50.953125 41.515625 
Q 57.328125 34.859375 57.328125 23.390625 
Q 57.328125 12.15625 50.6875 5.359375 
Q 44.046875 -1.421875 33.015625 -1.421875 
Q 20.359375 -1.421875 13.671875 8.265625 
Q 6.984375 17.96875 6.984375 36.375 
Q 6.984375 53.65625 15.1875 63.9375 
Q 23.390625 74.21875 37.203125 74.21875 
Q 40.921875 74.21875 44.703125 73.484375 
Q 48.484375 72.75 52.59375 71.296875 
z
" id="DejaVuSans-54"/>
      </defs>
      <g transform="translate(24.773438 127.311946)scale(0.1 -0.1)">
       <use xlink:href="#DejaVuSans-54"/>
       <use x="63.623047" xlink:href="#DejaVuSans-48"/>
       <use x="127.246094" xlink:href="#DejaVuSans-37"/>
      </g>
     </g>
    </g>
    <g id="ytick_5">
     <g id="line2d_11">
      <g>
       <use style="stroke:#000000;stroke-width:0.8;" x="54" xlink:href="#ma9beefade4" y="83.978182"/>
      </g>
     </g>
     <g id="text_12">
      <!-- 80% -->
      <defs>
       <path d="M 31.78125 34.625 
Q 24.75 34.625 20.71875 30.859375 
Q 16.703125 27.09375 16.703125 20.515625 
Q 16.703125 13.921875 20.71875 10.15625 
Q 24.75 6.390625 31.78125 6.390625 
Q 38.8125 6.390625 42.859375 10.171875 
Q 46.921875 13.96875 46.921875 20.515625 
Q 46.921875 27.09375 42.890625 30.859375 
Q 38.875 34.625 31.78125 34.625 
z
M 21.921875 38.8125 
Q 15.578125 40.375 12.03125 44.71875 
Q 8.5 49.078125 8.5 55.328125 
Q 8.5 64.0625 14.71875 69.140625 
Q 20.953125 74.21875 31.78125 74.21875 
Q 42.671875 74.21875 48.875 69.140625 
Q 55.078125 64.0625 55.078125 55.328125 
Q 55.078125 49.078125 51.53125 44.71875 
Q 48 40.375 41.703125 38.8125 
Q 48.828125 37.15625 52.796875 32.3125 
Q 56.78125 27.484375 56.78125 20.515625 
Q 56.78125 9.90625 50.3125 4.234375 
Q 43.84375 -1.421875 31.78125 -1.421875 
Q 19.734375 -1.421875 13.25 4.234375 
Q 6.78125 9.90625 6.78125 20.515625 
Q 6.78125 27.484375 10.78125 32.3125 
Q 14.796875 37.15625 21.921875 38.8125 
z
M 18.3125 54.390625 
Q 18.3125 48.734375 21.84375 45.5625 
Q 25.390625 42.390625 31.78125 42.390625 
Q 38.140625 42.390625 41.71875 45.5625 
Q 45.3125 48.734375 45.3125 54.390625 
Q 45.3125 60.0625 41.71875 63.234375 
Q 38.140625 66.40625 31.78125 66.40625 
Q 25.390625 66.40625 21.84375 63.234375 
Q 18.3125 60.0625 18.3125 54.390625 
z
" id="DejaVuSans-56"/>
      </defs>
      <g transform="translate(24.773438 87.777401)scale(0.1 -0.1)">
       <use xlink:href="#DejaVuSans-56"/>
       <use x="63.623047" xlink:href="#DejaVuSans-48"/>
       <use x="127.246094" xlink:href="#DejaVuSans-37"/>
      </g>
     </g>
    </g>
    <g id="ytick_6">
     <g id="line2d_12">
      <g>
       <use style="stroke:#000000;stroke-width:0.8;" x="54" xlink:href="#ma9beefade4" y="44.443636"/>
      </g>
     </g>
     <g id="text_13">
      <!-- 100% -->
      <g transform="translate(18.410937 48.242855)scale(0.1 -0.1)">
       <use xlink:href="#DejaVuSans-49"/>
       <use x="63.623047" xlink:href="#DejaVuSans-48"/>
       <use x="127.246094" xlink:href="#DejaVuSans-48"/>
       <use x="190.869141" xlink:href="#DejaVuSans-37"/>
      </g>
     </g>
    </g>
    <g id="text_14">
     <!-- Strategy -->
     <defs>
      <path d="M 41.109375 46.296875 
Q 39.59375 47.171875 37.8125 47.578125 
Q 36.03125 48 33.890625 48 
Q 26.265625 48 22.1875 43.046875 
Q 18.109375 38.09375 18.109375 28.8125 
L 18.109375 0 
L 9.078125 0 
L 9.078125 54.6875 
L 18.109375 54.6875 
L 18.109375 46.1875 
Q 20.953125 51.171875 25.484375 53.578125 
Q 30.03125 56 36.53125 56 
Q 37.453125 56 38.578125 55.875 
Q 39.703125 55.765625 41.0625 55.515625 
z
" id="DejaVuSans-114"/>
      <path d="M 45.40625 27.984375 
Q 45.40625 37.75 41.375 43.109375 
Q 37.359375 48.484375 30.078125 48.484375 
Q 22.859375 48.484375 18.828125 43.109375 
Q 14.796875 37.75 14.796875 27.984375 
Q 14.796875 18.265625 18.828125 12.890625 
Q 22.859375 7.515625 30.078125 7.515625 
Q 37.359375 7.515625 41.375 12.890625 
Q 45.40625 18.265625 45.40625 27.984375 
z
M 54.390625 6.78125 
Q 54.390625 -7.171875 48.1875 -13.984375 
Q 42 -20.796875 29.203125 -20.796875 
Q 24.46875 -20.796875 20.265625 -20.09375 
Q 16.0625 -19.390625 12.109375 -17.921875 
L 12.109375 -9.1875 
Q 16.0625 -11.328125 19.921875 -12.34375 
Q 23.78125 -13.375 27.78125 -13.375 
Q 36.625 -13.375 41.015625 -8.765625 
Q 45.40625 -4.15625 45.40625 5.171875 
L 45.40625 9.625 
Q 42.625 4.78125 38.28125 2.390625 
Q 33.9375 0 27.875 0 
Q 17.828125 0 11.671875 7.65625 
Q 5.515625 15.328125 5.515625 27.984375 
Q 5.515625 40.671875 11.671875 48.328125 
Q 17.828125 56 27.875 56 
Q 33.9375 56 38.28125 53.609375 
Q 42.625 51.21875 45.40625 46.390625 
L 45.40625 54.6875 
L 54.390625 54.6875 
z
" id="DejaVuSans-103"/>
      <path d="M 32.171875 -5.078125 
Q 28.375 -14.84375 24.75 -17.8125 
Q 21.140625 -20.796875 15.09375 -20.796875 
L 7.90625 -20.796875 
L 7.90625 -13.28125 
L 13.1875 -13.28125 
Q 16.890625 -13.28125 18.9375 -11.515625 
Q 21 -9.765625 23.484375 -3.21875 
L 25.09375 0.875 
L 2.984375 54.6875 
L 12.5 54.6875 
L 29.59375 11.921875 
L 46.6875 54.6875 
L 56.203125 54.6875 
z
" id="DejaVuSans-121"/>
     </defs>
     <g transform="translate(12.33125 164.704219)rotate(-90)scale(0.1 -0.1)">
      <use xlink:href="#DejaVuSans-83"/>
      <use x="63.476562" xlink:href="#DejaVuSans-116"/>
      <use x="102.685547" xlink:href="#DejaVuSans-114"/>
      <use x="143.798828" xlink:href="#DejaVuSans-97"/>
      <use x="205.078125" xlink:href="#DejaVuSans-116"/>
      <use x="244.287109" xlink:href="#DejaVuSans-101"/>
      <use x="305.810547" xlink:href="#DejaVuSans-103"/>
      <use x="369.287109" xlink:href="#DejaVuSans-121"/>
     </g>
    </g>
   </g>
   <g id="line2d_13">
    <path clip-path="url(#p8ec0987088)" d="M 69.218182 242.116364 
L 71.66287 242.116364 
L 72.885214 217.407273 
L 74.107558 220.152727 
L 75.329901 220.152727 
L 76.552245 206.175868 
L 77.774589 206.175868 
L 78.996933 196.49958 
L 80.219277 205.052727 
L 81.441621 200.501053 
L 82.663965 204.464416 
L 83.886309 210.488727 
L 85.108653 210.488727 
L 86.330997 202.581818 
L 87.553341 198.189091 
L 88.775685 198.724789 
L 89.998028 192.698182 
L 91.220372 193.6306 
L 92.442716 192.698182 
L 93.66506 191.200661 
L 94.887404 195.299139 
L 96.109748 192.698182 
L 97.332092 191.0324 
L 98.554436 191.689647 
L 99.77678 192.698182 
L 100.999124 194.81007 
L 102.221468 195.522078 
L 103.443812 195.299139 
L 104.666156 196.767914 
L 105.888499 194.033808 
L 107.110843 190.942206 
L 108.333187 189.710106 
L 109.555531 191.262799 
L 110.777875 188.275543 
L 112.000219 185.834545 
L 113.222563 185.921776 
L 114.444907 180.790186 
L 115.667251 182.18061 
L 116.889595 177.669639 
L 118.111939 176.225455 
L 119.334283 175.907908 
L 121.77897 174.330362 
L 123.001314 174.271063 
L 124.223658 171.252556 
L 125.446002 170.524631 
L 126.668346 170.023957 
L 127.89069 169.071584 
L 129.113034 169.12951 
L 130.335378 168.220017 
L 131.557722 166.762398 
L 132.780066 168.164333 
L 134.00241 166.515215 
L 135.224754 165.282441 
L 136.447097 163.323738 
L 137.669441 165.376865 
L 138.891785 163.250361 
L 140.114129 165.727581 
L 141.336473 163.379496 
L 143.781161 164.132269 
L 145.003505 160.088905 
L 146.225849 159.385411 
L 147.448193 162.516608 
L 148.670537 161.386157 
L 149.892881 162.507552 
L 151.115225 162.512118 
L 152.337568 160.643145 
L 153.559912 160.00106 
L 154.782256 158.574146 
L 156.0046 158.83293 
L 157.226944 157.021069 
L 158.449288 158.113788 
L 159.671632 157.067257 
L 160.893976 155.696629 
L 162.11632 156.346502 
L 163.338664 158.079937 
L 164.561008 154.150328 
L 165.783352 154.411741 
L 167.005696 155.613427 
L 168.228039 153.596253 
L 169.450383 152.812441 
L 170.672727 151.419465 
L 171.895071 153.029165 
L 173.117415 151.695116 
L 174.339759 150.113543 
L 175.562103 152.692987 
L 176.784447 150.47114 
L 178.006791 151.087242 
L 179.229135 149.249982 
L 180.451479 147.938953 
L 181.673823 150.000217 
L 182.896166 150.136668 
L 184.11851 148.196389 
L 185.340854 144.943912 
L 186.563198 147.341768 
L 187.785542 146.336795 
L 189.007886 146.085039 
L 190.23023 145.609477 
L 191.452574 145.454066 
L 192.674918 144.624712 
L 193.897262 144.28172 
L 195.119606 143.445555 
L 196.34195 143.447236 
L 197.564294 143.615039 
L 198.786637 144.121877 
L 200.008981 143.780015 
L 201.231325 142.614435 
L 202.453669 142.281653 
L 203.676013 140.950523 
L 204.898357 141.262931 
L 206.120701 141.953337 
L 207.343045 141.809707 
L 208.565389 140.474961 
L 209.787733 140.754369 
L 211.010077 139.446549 
L 213.454765 139.286612 
L 214.677108 136.779801 
L 215.899452 136.510386 
L 217.121796 137.329985 
L 218.34414 135.854898 
L 219.566484 137.90115 
L 220.788828 138.006459 
L 222.011172 137.798319 
L 223.233516 138.09569 
L 224.45586 137.584345 
L 225.678204 136.161133 
L 226.900548 137.446488 
L 228.122892 135.446426 
L 229.345235 135.140535 
L 230.567579 135.576336 
L 231.789923 133.596708 
L 233.012267 133.898921 
L 234.234611 132.522301 
L 235.456955 133.962094 
L 237.901643 132.893806 
L 239.123987 131.894843 
L 240.346331 132.744144 
L 241.568675 132.075201 
L 242.791019 131.11816 
L 244.013363 132.003368 
L 245.235706 129.786981 
L 246.45805 130.359117 
L 247.680394 131.446304 
L 248.902738 129.978343 
L 250.125082 129.687902 
L 251.347426 127.72707 
L 252.56977 126.637451 
L 253.792114 129.589828 
L 255.014458 128.112868 
L 256.236802 127.905455 
L 257.459146 125.582948 
L 258.68149 125.838289 
L 259.903834 126.421624 
L 261.126177 128.33567 
L 262.348521 128.965768 
L 263.570865 128.503799 
L 264.793209 126.779494 
L 266.015553 125.642534 
L 267.237897 126.640882 
L 268.460241 124.9894 
L 269.682585 125.679004 
L 270.904929 124.90339 
L 272.127273 124.706724 
L 273.349617 122.183835 
L 274.571961 123.982578 
L 275.794304 123.313058 
L 277.016648 124.97697 
L 278.238992 122.436957 
L 279.461336 123.982578 
L 280.68368 122.304541 
L 281.906024 121.037637 
L 283.128368 122.365821 
L 284.350712 121.749609 
L 285.573056 120.951519 
L 286.7954 119.605628 
L 288.017744 119.652452 
L 289.240088 120.749914 
L 290.462432 121.016519 
L 291.684775 118.405076 
L 292.907119 116.721929 
L 295.351807 117.287857 
L 296.574151 118.112562 
L 297.796495 118.696336 
L 299.018839 117.631555 
L 300.241183 117.569189 
L 301.463527 115.513262 
L 302.685871 114.993499 
L 303.908215 114.210481 
L 305.130559 114.682677 
L 306.352903 113.713566 
L 307.575246 114.521593 
L 308.79759 114.946909 
L 310.019934 111.317992 
L 311.242278 112.791495 
L 312.464622 111.565106 
L 313.686966 110.779004 
L 314.90931 109.662189 
L 316.131654 107.922565 
L 317.353998 108.445599 
L 318.576342 107.186174 
L 319.798686 104.04853 
L 321.02103 105.732284 
L 323.465717 105.54855 
L 324.688061 106.237128 
L 325.910405 103.975689 
L 327.132749 105.96423 
L 329.577437 105.651943 
L 330.799781 103.911566 
L 332.022125 104.344463 
L 333.244469 103.112102 
L 334.466813 102.307227 
L 335.689157 102.387903 
L 336.911501 102.660064 
L 338.133844 104.28334 
L 339.356188 100.826797 
L 340.578532 100.433839 
L 341.800876 98.836803 
L 343.02322 98.985442 
L 344.245564 97.993773 
L 345.467908 97.993773 
L 347.912596 97.156364 
L 349.13494 96.652878 
L 350.357284 98.770909 
L 351.579628 98.021598 
L 352.801972 97.868698 
L 354.024315 99.352727 
L 355.246659 100.300397 
L 356.469003 98.870418 
L 357.691347 99.054915 
L 358.913691 99.739022 
L 360.136035 98.293567 
L 361.358379 97.904374 
L 362.580723 98.507972 
L 363.803067 98.078387 
L 365.025411 97.244365 
L 366.247755 96.054434 
L 367.470099 94.60932 
L 368.692442 94.927218 
L 369.914786 94.030481 
L 371.13713 94.364376 
L 372.359474 94.197996 
L 373.581818 94.279908 
L 373.581818 94.279908 
" style="fill:none;stroke:#00008b;stroke-linecap:square;stroke-width:1.5;"/>
   </g>
   <g id="line2d_14">
    <path clip-path="url(#p8ec0987088)" d="M 69.218182 242.116364 
L 78.996933 242.116364 
L 80.219277 229.761818 
L 81.441621 231.712536 
L 82.663965 223.29039 
L 83.886309 218.395636 
L 85.108653 218.395636 
L 86.330997 215.76 
L 87.553341 214.661818 
L 88.775685 213.188647 
L 91.220372 204.819623 
L 92.442716 199.287273 
L 93.66506 197.190744 
L 94.887404 190.097225 
L 96.109748 185.638442 
L 97.332092 184.369275 
L 98.554436 181.604304 
L 99.77678 183.873506 
L 100.999124 174.535944 
L 102.221468 174.342857 
L 103.443812 169.289569 
L 104.666156 168.861176 
L 105.888499 170.526781 
L 107.110843 168.867079 
L 108.333187 167.644313 
L 109.555531 167.476454 
L 110.777875 167.508369 
L 112.000219 166.616364 
L 114.444907 168.286791 
L 115.667251 167.196671 
L 116.889595 172.795517 
L 118.111939 171.233719 
L 119.334283 171.62103 
L 120.556627 170.529278 
L 121.77897 170.394401 
L 123.001314 169.245485 
L 124.223658 171.252556 
L 125.446002 169.729168 
L 126.668346 169.24877 
L 127.89069 169.824623 
L 129.113034 168.749371 
L 130.335378 168.589499 
L 131.557722 169.91675 
L 132.780066 168.514816 
L 134.00241 169.289569 
L 135.224754 168.425647 
L 136.447097 168.161882 
L 137.669441 167.774974 
L 138.891785 169.004533 
L 140.114129 168.072851 
L 141.336473 169.027288 
L 142.558817 169.218188 
L 143.781161 168.201004 
L 145.003505 170.510427 
L 146.225849 169.896311 
L 147.448193 166.828261 
L 148.670537 168.695065 
L 149.892881 168.916736 
L 151.115225 168.867079 
L 152.337568 168.990811 
L 153.559912 170.927693 
L 154.782256 171.072588 
L 156.0046 169.536022 
L 157.226944 170.927693 
L 158.449288 168.447438 
L 160.893976 169.603253 
L 162.11632 168.742928 
L 163.338664 167.266105 
L 164.561008 170.204965 
L 165.783352 170.603363 
L 167.005696 169.805315 
L 168.228039 171.233719 
L 169.450383 171.542852 
L 170.672727 172.017296 
L 171.895071 170.846605 
L 173.117415 169.845367 
L 174.339759 171.44753 
L 175.562103 169.501892 
L 176.784447 172.211795 
L 178.006791 170.023957 
L 179.229135 171.803246 
L 180.451479 172.232066 
L 181.673823 170.980407 
L 182.896166 171.20838 
L 184.11851 169.896311 
L 185.340854 171.233719 
L 186.563198 169.681494 
L 189.007886 170.505376 
L 190.23023 169.237025 
L 191.452574 169.201551 
L 192.674918 171.182783 
L 193.897262 170.326437 
L 195.119606 170.596583 
L 196.34195 171.877323 
L 197.564294 172.428351 
L 198.786637 170.725191 
L 200.008981 170.114156 
L 201.231325 170.900937 
L 202.453669 170.900937 
L 203.676013 172.564848 
L 204.898357 172.863673 
L 206.120701 171.803246 
L 207.343045 171.869031 
L 208.565389 174.135426 
L 209.787733 173.755949 
L 211.010077 174.114279 
L 212.232421 174.98223 
L 213.454765 173.895978 
L 214.677108 175.447653 
L 215.899452 175.097186 
L 217.121796 175.343971 
L 218.34414 176.115453 
L 219.566484 175.889276 
L 220.788828 176.112045 
L 222.011172 174.67508 
L 223.233516 174.553096 
L 224.45586 176.113775 
L 225.678204 176.887675 
L 226.900548 176.447684 
L 228.122892 177.781058 
L 229.345235 177.997311 
L 230.567579 177.864532 
L 231.789923 179.00801 
L 233.012267 179.46416 
L 234.234611 179.587236 
L 235.456955 179.886061 
L 236.679299 179.658426 
L 237.901643 179.799199 
L 239.123987 180.735517 
L 240.346331 179.904642 
L 241.568675 180.239114 
L 242.791019 180.450695 
L 244.013363 180.426553 
L 245.235706 181.735104 
L 247.680394 181.114493 
L 248.902738 182.174719 
L 250.125082 181.035827 
L 251.347426 182.245944 
L 252.56977 185.735483 
L 253.792114 183.348796 
L 255.014458 182.781211 
L 256.236802 183.659301 
L 257.459146 185.352236 
L 258.68149 185.306218 
L 259.903834 184.930106 
L 261.126177 182.678688 
L 262.348521 183.496176 
L 263.570865 183.996641 
L 266.015553 186.208926 
L 267.237897 182.881102 
L 268.460241 185.734329 
L 269.682585 184.236164 
L 272.127273 184.738206 
L 273.349617 186.967334 
L 274.571961 185.398722 
L 275.794304 186.208926 
L 277.016648 184.877796 
L 278.238992 186.646976 
L 279.461336 185.398722 
L 280.68368 187.412366 
L 283.128368 186.457661 
L 284.350712 187.866559 
L 285.573056 188.265322 
L 286.7954 189.800968 
L 288.017744 190.867879 
L 289.240088 189.491345 
L 290.462432 189.156264 
L 291.684775 189.381525 
L 292.907119 191.689647 
L 294.129463 191.295662 
L 295.351807 191.456519 
L 296.574151 191.1148 
L 299.018839 191.472938 
L 300.241183 191.028649 
L 301.463527 192.202347 
L 302.685871 192.531791 
L 303.908215 192.615126 
L 305.130559 191.276677 
L 307.575246 193.524573 
L 308.79759 192.698182 
L 310.019934 196.550014 
L 311.242278 194.875932 
L 312.464622 194.124513 
L 313.686966 195.114923 
L 316.131654 196.398378 
L 317.353998 196.78164 
L 318.576342 197.926727 
L 319.798686 200.696014 
L 321.02103 199.685761 
L 322.243373 199.187438 
L 323.465717 199.376314 
L 324.688061 198.927364 
L 325.910405 200.674161 
L 327.132749 199.757922 
L 328.355093 199.613354 
L 329.577437 198.635053 
L 330.799781 200.920703 
L 332.022125 200.185785 
L 335.689157 202.052042 
L 336.911501 202.318693 
L 338.133844 201.438813 
L 339.356188 203.311483 
L 340.578532 203.537748 
L 343.02322 203.771821 
L 344.245564 204.76349 
L 345.467908 204.76349 
L 346.690252 205.571826 
L 347.912596 205.285035 
L 349.13494 205.340042 
L 350.357284 203.498182 
L 351.579628 204.511956 
L 352.801972 204.718821 
L 354.024315 203.846391 
L 355.246659 203.652127 
L 356.469003 204.384914 
L 357.691347 205.262126 
L 358.913691 204.038703 
L 360.136035 204.990014 
L 361.358379 204.825849 
L 362.580723 203.595524 
L 363.803067 203.66126 
L 366.247755 204.673236 
L 367.470099 205.571826 
L 368.692442 204.7454 
L 369.914786 205.347887 
L 371.13713 204.592049 
L 372.359474 205.47295 
L 373.581818 204.990014 
L 373.581818 204.990014 
" style="fill:none;stroke:#006400;stroke-dasharray:5.55,2.4;stroke-dashoffset:0;stroke-width:1.5;"/>
   </g>
   <g id="line2d_15">
    <path clip-path="url(#p8ec0987088)" d="M 69.218182 44.443636 
L 70.440526 143.28 
L 71.66287 157.399481 
L 72.885214 167.989091 
L 74.107558 154.261818 
L 75.329901 154.261818 
L 76.552245 170.235372 
L 77.774589 188.20562 
L 78.996933 181.293986 
L 80.219277 192.698182 
L 81.441621 200.501053 
L 82.663965 195.051429 
L 85.108653 210.488727 
L 86.330997 209.170909 
L 87.553341 214.661818 
L 88.775685 208.367361 
L 89.998028 209.170909 
L 91.220372 204.819623 
L 92.442716 209.170909 
L 93.66506 212.16595 
L 94.887404 216.106794 
L 96.109748 218.583896 
L 97.332092 217.684903 
L 98.554436 219.928609 
L 99.77678 215.642338 
L 100.999124 215.084196 
L 102.221468 213.877403 
L 103.443812 214.806316 
L 104.666156 215.372406 
L 105.888499 215.403833 
L 107.110843 214.020748 
L 108.333187 214.534123 
L 109.555531 210.94805 
L 110.777875 211.35018 
L 112.000219 211.916364 
L 113.222563 211.705175 
L 114.444907 213.537174 
L 115.667251 210.419571 
L 116.889595 210.163786 
L 119.334283 209.250296 
L 120.556627 210.710416 
L 121.77897 211.066002 
L 123.001314 209.868906 
L 124.223658 209.378113 
L 125.446002 210.297816 
L 126.668346 209.946096 
L 127.89069 209.735688 
L 129.113034 210.564755 
L 130.335378 211.818862 
L 131.557722 211.27381 
L 134.00241 211.945263 
L 135.224754 212.779775 
L 136.447097 215.506573 
L 137.669441 214.024226 
L 138.891785 214.699427 
L 140.114129 213.303051 
L 141.336473 213.877403 
L 142.558817 213.635216 
L 143.781161 213.974277 
L 145.003505 214.885937 
L 146.225849 215.330522 
L 147.448193 214.91978 
L 148.670537 215.206295 
L 151.115225 213.686276 
L 152.337568 215.069926 
L 153.559912 214.303116 
L 154.782256 215.474948 
L 156.0046 216.362049 
L 157.226944 216.620886 
L 158.449288 217.448941 
L 159.671632 217.864079 
L 160.893976 216.951996 
L 163.338664 216.939459 
L 164.561008 217.365464 
L 165.783352 217.491604 
L 167.005696 216.097902 
L 168.228039 216.159339 
L 170.672727 217.199633 
L 171.895071 216.230649 
L 173.117415 218.026031 
L 174.339759 217.448941 
L 176.784447 215.693106 
L 178.006791 216.535187 
L 179.229135 216.246443 
L 180.451479 217.490468 
L 181.673823 216.546757 
L 182.896166 216.027577 
L 184.11851 218.721135 
L 185.340854 220.48551 
L 186.563198 219.776638 
L 187.785542 219.360225 
L 189.007886 218.68604 
L 190.23023 220.152727 
L 191.452574 220.71018 
L 192.674918 219.256252 
L 193.897262 219.744619 
L 195.119606 219.600877 
L 196.34195 218.034407 
L 197.564294 217.323513 
L 198.786637 218.543807 
L 200.008981 219.449002 
L 201.231325 219.487163 
L 202.453669 219.819945 
L 204.898357 219.256252 
L 206.120701 219.563099 
L 207.343045 219.245139 
L 208.565389 218.356036 
L 209.787733 217.870305 
L 211.010077 218.782315 
L 212.232421 217.703951 
L 213.454765 218.821598 
L 214.677108 219.782346 
L 215.899452 220.115118 
L 217.121796 219.638528 
L 218.34414 220.006059 
L 219.566484 218.920074 
L 220.788828 218.300372 
L 222.011172 220.189641 
L 223.233516 219.706765 
L 224.45586 218.998706 
L 225.678204 219.269767 
L 226.900548 218.448971 
L 228.122892 218.782315 
L 230.567579 218.841465 
L 231.789923 219.744619 
L 233.012267 218.663667 
L 234.234611 219.928609 
L 235.456955 218.488815 
L 236.679299 219.192972 
L 237.901643 219.668783 
L 240.346331 219.706765 
L 241.568675 220.041237 
L 242.791019 220.190793 
L 244.013363 220.226431 
L 245.235706 221.202184 
L 246.45805 221.308708 
L 247.680394 220.782376 
L 248.902738 221.237813 
L 250.125082 222.31553 
L 251.347426 222.382538 
L 252.56977 220.039513 
L 253.792114 219.410713 
L 255.014458 221.449063 
L 256.236802 220.828531 
L 257.459146 221.080246 
L 258.68149 221.18631 
L 259.903834 220.299641 
L 261.126177 220.7188 
L 262.348521 219.963386 
L 263.570865 219.787883 
L 264.793209 220.782376 
L 266.015553 220.152727 
L 267.237897 222.482204 
L 268.460241 220.973101 
L 269.682585 222.484483 
L 270.904929 222.580868 
L 272.127273 222.54809 
L 273.349617 223.179649 
L 274.571961 222.986745 
L 275.794304 223.147769 
L 277.016648 222.814986 
L 278.238992 223.962746 
L 280.68368 223.322352 
L 281.906024 224.723839 
L 283.128368 223.900788 
L 284.350712 223.467993 
L 285.573056 223.728203 
L 286.7954 223.574198 
L 288.017744 222.482204 
L 289.240088 223.039794 
L 290.462432 222.551486 
L 291.684775 224.206419 
L 292.907119 223.626568 
L 294.129463 223.636109 
L 295.351807 223.243088 
L 296.574151 223.115781 
L 297.796495 222.71701 
L 299.018839 223.16592 
L 300.241183 223.417592 
L 301.463527 224.266318 
L 302.685871 224.478898 
L 303.908215 225.172987 
L 305.130559 225.727254 
L 306.352903 225.559161 
L 307.575246 223.935762 
L 308.79759 224.325818 
L 310.019934 224.086513 
L 311.242278 224.359322 
L 312.464622 226.007211 
L 313.686966 225.449186 
L 316.131654 227.315577 
L 317.353998 226.449217 
L 318.576342 226.262066 
L 319.798686 226.962577 
L 321.02103 226.289075 
L 322.243373 226.808375 
L 323.465717 227.090565 
L 324.688061 226.834102 
L 325.910405 226.986671 
L 327.132749 225.979814 
L 328.355093 226.599392 
L 329.577437 227.065141 
L 330.799781 226.834102 
L 333.244469 227.449247 
L 334.466813 228.068556 
L 335.689157 227.216409 
L 338.133844 225.979814 
L 339.356188 227.523075 
L 340.578532 227.777409 
L 341.800876 228.849738 
L 343.02322 227.902438 
L 344.245564 228.563551 
L 345.467908 228.563551 
L 346.690252 228.162995 
L 347.912596 229.276084 
L 349.13494 229.638683 
L 351.579628 228.472287 
L 352.801972 228.426192 
L 354.024315 227.806722 
L 355.246659 226.730669 
L 356.469003 227.424472 
L 357.691347 226.704592 
L 358.913691 227.216409 
L 360.136035 227.399612 
L 361.358379 228.256172 
L 362.580723 228.938182 
L 363.803067 229.297996 
L 365.025411 229.246186 
L 366.247755 229.972647 
L 368.692442 230.970638 
L 371.13713 231.060092 
L 372.359474 230.686308 
L 373.581818 231.0788 
L 373.581818 231.0788 
" style="fill:none;stroke:#8b0000;stroke-dasharray:1.5,2.475;stroke-dashoffset:0;stroke-width:1.5;"/>
   </g>
   <g id="line2d_16">
    <path clip-path="url(#p8ec0987088)" d="M 69.218182 242.116364 
L 70.440526 143.28 
L 71.66287 129.160519 
L 72.885214 143.28 
L 74.107558 154.261818 
L 75.329901 154.261818 
L 76.552245 152.265124 
L 77.774589 134.294876 
L 78.996933 150.882797 
L 80.219277 143.28 
L 81.441621 138.078086 
L 82.663965 147.986494 
L 85.108653 131.419636 
L 86.330997 143.28 
L 87.553341 143.28 
L 88.775685 150.511929 
L 89.998028 159.752727 
L 91.220372 167.522882 
L 92.442716 169.636364 
L 93.66506 170.235372 
L 94.887404 169.289569 
L 96.109748 173.872208 
L 97.332092 177.706149 
L 98.554436 177.570167 
L 99.77678 178.578701 
L 100.999124 186.362517 
L 102.221468 187.05039 
L 103.443812 191.397703 
L 104.666156 189.79123 
L 105.888499 190.828305 
L 107.110843 196.962695 
L 108.333187 198.904186 
L 109.555531 201.105424 
L 112.000219 206.425455 
L 113.222563 205.75516 
L 114.444907 208.178576 
L 115.667251 210.995876 
L 116.889595 210.163786 
L 118.111939 213.663471 
L 120.556627 214.405234 
L 121.77897 215.001963 
L 123.001314 217.407273 
L 125.446002 220.241112 
L 126.668346 221.573904 
L 127.89069 222.160831 
L 129.113034 222.349091 
L 130.335378 222.16435 
L 131.557722 222.839768 
L 132.780066 222.489284 
L 134.00241 223.042679 
L 135.224754 224.304863 
L 136.447097 223.800534 
L 137.669441 223.616663 
L 138.891785 223.838406 
L 140.114129 223.689245 
L 141.336473 224.508541 
L 142.558817 224.146116 
L 143.781161 224.485177 
L 146.225849 226.180483 
L 147.448193 226.528078 
L 148.670537 225.50521 
L 149.892881 224.912765 
L 151.115225 225.727254 
L 152.337568 226.088845 
L 153.559912 225.560859 
L 154.782256 225.671045 
L 156.0046 226.061726 
L 157.226944 226.223079 
L 158.449288 226.78256 
L 159.671632 226.834102 
L 160.893976 228.54085 
L 162.11632 228.714823 
L 163.338664 228.507226 
L 164.561008 229.07197 
L 165.783352 228.286019 
L 167.005696 229.276084 
L 168.228039 229.803416 
L 169.450383 229.740914 
L 171.895071 230.686308 
L 174.339759 231.782713 
L 175.562103 232.03102 
L 176.784447 232.416687 
L 178.006791 233.146341 
L 179.229135 233.493057 
L 180.451479 233.13124 
L 182.896166 233.420102 
L 184.11851 233.978893 
L 185.340854 234.129587 
L 186.563198 233.992827 
L 187.785542 234.983843 
L 189.007886 235.516273 
L 190.23023 235.793499 
L 191.452574 235.426931 
L 192.674918 235.72898 
L 195.119606 237.149712 
L 196.34195 237.433761 
L 200.008981 237.449554 
L 201.231325 237.790193 
L 203.676013 237.790193 
L 204.898357 237.40987 
L 206.120701 237.473045 
L 207.343045 237.86885 
L 208.565389 237.826304 
L 209.787733 238.412105 
L 211.010077 238.449585 
L 212.232421 238.725751 
L 214.677108 238.782928 
L 215.899452 239.070037 
L 217.121796 238.480243 
L 218.34414 238.816318 
L 219.566484 238.082226 
L 220.788828 238.373851 
L 222.011172 238.129687 
L 223.233516 238.437176 
L 224.45586 238.095901 
L 225.678204 238.474153 
L 226.900548 238.449585 
L 228.122892 238.782928 
L 229.345235 238.794133 
L 230.567579 238.510393 
L 231.789923 238.443391 
L 233.012267 238.765978 
L 234.234611 238.754583 
L 235.456955 238.455758 
L 241.568675 238.437176 
L 242.791019 239.03308 
L 244.013363 238.136376 
L 245.235706 238.068458 
L 247.680394 237.449554 
L 248.902738 237.401852 
L 250.125082 237.753468 
L 251.347426 238.437176 
L 252.56977 238.380281 
L 255.014458 238.449585 
L 256.236802 238.399441 
L 257.459146 238.777297 
L 258.68149 238.46191 
L 259.903834 239.141356 
L 261.126177 239.059569 
L 262.348521 238.367398 
L 263.570865 238.504404 
L 264.793209 238.116241 
L 266.015553 238.78854 
L 267.237897 238.78854 
L 268.460241 239.095898 
L 269.682585 238.393076 
L 270.904929 238.805263 
L 272.127273 238.799707 
L 273.349617 238.46191 
L 274.571961 238.424683 
L 275.794304 238.122975 
L 277.016648 238.122975 
L 278.238992 237.746048 
L 280.68368 237.753468 
L 281.906024 238.102704 
L 283.128368 238.068458 
L 284.350712 237.708567 
L 285.573056 237.847683 
L 288.017744 237.790193 
L 289.240088 237.511674 
L 290.462432 238.068458 
L 291.684775 238.799707 
L 294.129463 238.816318 
L 295.351807 238.805263 
L 297.796495 238.102704 
L 299.018839 238.522314 
L 300.241183 238.777297 
L 303.908215 238.794133 
L 305.130559 239.106119 
L 306.352903 239.075245 
L 307.575246 238.8108 
L 311.242278 238.765978 
L 313.686966 239.449615 
L 314.90931 239.090761 
L 317.353998 239.116272 
L 318.576342 239.41776 
L 319.798686 239.085606 
L 322.243373 239.121322 
L 323.465717 238.777297 
L 324.688061 238.794133 
L 325.910405 239.156206 
L 327.132749 239.090761 
L 328.355093 238.743109 
L 329.577437 239.440591 
L 330.799781 239.126356 
L 332.022125 239.121322 
L 333.244469 239.449615 
L 334.466813 239.106119 
L 339.356188 239.131373 
L 340.578532 239.043731 
L 341.800876 239.463038 
L 343.02322 240.133025 
L 344.245564 239.471912 
L 346.690252 239.458579 
L 347.912596 239.075245 
L 349.13494 239.161124 
L 351.579628 239.786887 
L 354.024315 239.786887 
L 355.246659 240.109534 
L 356.469003 240.112924 
L 357.691347 239.771094 
L 358.913691 239.798593 
L 360.136035 240.109534 
L 361.358379 239.806332 
L 363.803067 239.755085 
L 365.025411 240.136336 
L 367.470099 240.123025 
L 368.692442 240.149471 
L 371.13713 240.77621 
L 372.359474 240.435473 
L 373.581818 240.444006 
L 373.581818 240.444006 
" style="fill:none;stroke:#000000;stroke-dasharray:9.6,2.4,1.5,2.4;stroke-dashoffset:0;stroke-width:1.5;"/>
   </g>
   <g id="patch_3">
    <path d="M 54 252 
L 54 34.56 
" style="fill:none;stroke:#000000;stroke-linecap:square;stroke-linejoin:miter;stroke-width:0.8;"/>
   </g>
   <g id="patch_4">
    <path d="M 388.8 252 
L 388.8 34.56 
" style="fill:none;stroke:#000000;stroke-linecap:square;stroke-linejoin:miter;stroke-width:0.8;"/>
   </g>
   <g id="patch_5">
    <path d="M 54 252 
L 388.8 252 
" style="fill:none;stroke:#000000;stroke-linecap:square;stroke-linejoin:miter;stroke-width:0.8;"/>
   </g>
   <g id="patch_6">
    <path d="M 54 34.56 
L 388.8 34.56 
" style="fill:none;stroke:#000000;stroke-linecap:square;stroke-linejoin:miter;stroke-width:0.8;"/>
   </g>
   <g id="legend_1">
    <g id="patch_7">
     <path d="M 182.342188 101.2725 
L 260.457813 101.2725 
Q 262.457813 101.2725 262.457813 99.2725 
L 262.457813 41.56 
Q 262.457813 39.56 260.457813 39.56 
L 182.342188 39.56 
Q 180.342188 39.56 180.342188 41.56 
L 180.342188 99.2725 
Q 180.342188 101.2725 182.342188 101.2725 
z
" style="fill:#ffffff;opacity:0.8;stroke:#cccccc;stroke-linejoin:miter;"/>
    </g>
    <g id="line2d_17">
     <path d="M 184.342188 47.658437 
L 204.342188 47.658437 
" style="fill:none;stroke:#00008b;stroke-linecap:square;stroke-width:1.5;"/>
    </g>
    <g id="line2d_18"/>
    <g id="text_15">
     <!-- Believers -->
     <defs>
      <path d="M 19.671875 34.8125 
L 19.671875 8.109375 
L 35.5 8.109375 
Q 43.453125 8.109375 47.28125 11.40625 
Q 51.125 14.703125 51.125 21.484375 
Q 51.125 28.328125 47.28125 31.5625 
Q 43.453125 34.8125 35.5 34.8125 
z
M 19.671875 64.796875 
L 19.671875 42.828125 
L 34.28125 42.828125 
Q 41.5 42.828125 45.03125 45.53125 
Q 48.578125 48.25 48.578125 53.8125 
Q 48.578125 59.328125 45.03125 62.0625 
Q 41.5 64.796875 34.28125 64.796875 
z
M 9.8125 72.90625 
L 35.015625 72.90625 
Q 46.296875 72.90625 52.390625 68.21875 
Q 58.5 63.53125 58.5 54.890625 
Q 58.5 48.1875 55.375 44.234375 
Q 52.25 40.28125 46.1875 39.3125 
Q 53.46875 37.75 57.5 32.78125 
Q 61.53125 27.828125 61.53125 20.40625 
Q 61.53125 10.640625 54.890625 5.3125 
Q 48.25 0 35.984375 0 
L 9.8125 0 
z
" id="DejaVuSans-66"/>
      <path d="M 2.984375 54.6875 
L 12.5 54.6875 
L 29.59375 8.796875 
L 46.6875 54.6875 
L 56.203125 54.6875 
L 35.6875 0 
L 23.484375 0 
z
" id="DejaVuSans-118"/>
      <path d="M 44.28125 53.078125 
L 44.28125 44.578125 
Q 40.484375 46.53125 36.375 47.5 
Q 32.28125 48.484375 27.875 48.484375 
Q 21.1875 48.484375 17.84375 46.4375 
Q 14.5 44.390625 14.5 40.28125 
Q 14.5 37.15625 16.890625 35.375 
Q 19.28125 33.59375 26.515625 31.984375 
L 29.59375 31.296875 
Q 39.15625 29.25 43.1875 25.515625 
Q 47.21875 21.78125 47.21875 15.09375 
Q 47.21875 7.46875 41.1875 3.015625 
Q 35.15625 -1.421875 24.609375 -1.421875 
Q 20.21875 -1.421875 15.453125 -0.5625 
Q 10.6875 0.296875 5.421875 2 
L 5.421875 11.28125 
Q 10.40625 8.6875 15.234375 7.390625 
Q 20.0625 6.109375 24.8125 6.109375 
Q 31.15625 6.109375 34.5625 8.28125 
Q 37.984375 10.453125 37.984375 14.40625 
Q 37.984375 18.0625 35.515625 20.015625 
Q 33.0625 21.96875 24.703125 23.78125 
L 21.578125 24.515625 
Q 13.234375 26.265625 9.515625 29.90625 
Q 5.8125 33.546875 5.8125 39.890625 
Q 5.8125 47.609375 11.28125 51.796875 
Q 16.75 56 26.8125 56 
Q 31.78125 56 36.171875 55.265625 
Q 40.578125 54.546875 44.28125 53.078125 
z
" id="DejaVuSans-115"/>
     </defs>
     <g transform="translate(212.342188 51.158437)scale(0.1 -0.1)">
      <use xlink:href="#DejaVuSans-66"/>
      <use x="68.603516" xlink:href="#DejaVuSans-101"/>
      <use x="130.126953" xlink:href="#DejaVuSans-108"/>
      <use x="157.910156" xlink:href="#DejaVuSans-105"/>
      <use x="185.693359" xlink:href="#DejaVuSans-101"/>
      <use x="247.216797" xlink:href="#DejaVuSans-118"/>
      <use x="306.396484" xlink:href="#DejaVuSans-101"/>
      <use x="367.919922" xlink:href="#DejaVuSans-114"/>
      <use x="409.033203" xlink:href="#DejaVuSans-115"/>
     </g>
    </g>
    <g id="line2d_19">
     <path d="M 184.342188 62.336562 
L 204.342188 62.336562 
" style="fill:none;stroke:#006400;stroke-dasharray:5.55,2.4;stroke-dashoffset:0;stroke-width:1.5;"/>
    </g>
    <g id="line2d_20"/>
    <g id="text_16">
     <!-- Saints -->
     <g transform="translate(212.342188 65.836562)scale(0.1 -0.1)">
      <use xlink:href="#DejaVuSans-83"/>
      <use x="63.476562" xlink:href="#DejaVuSans-97"/>
      <use x="124.755859" xlink:href="#DejaVuSans-105"/>
      <use x="152.539062" xlink:href="#DejaVuSans-110"/>
      <use x="215.917969" xlink:href="#DejaVuSans-116"/>
      <use x="255.126953" xlink:href="#DejaVuSans-115"/>
     </g>
    </g>
    <g id="line2d_21">
     <path d="M 184.342188 77.014687 
L 204.342188 77.014687 
" style="fill:none;stroke:#8b0000;stroke-dasharray:1.5,2.475;stroke-dashoffset:0;stroke-width:1.5;"/>
    </g>
    <g id="line2d_22"/>
    <g id="text_17">
     <!-- Sinners -->
     <g transform="translate(212.342188 80.514687)scale(0.1 -0.1)">
      <use xlink:href="#DejaVuSans-83"/>
      <use x="63.476562" xlink:href="#DejaVuSans-105"/>
      <use x="91.259766" xlink:href="#DejaVuSans-110"/>
      <use x="154.638672" xlink:href="#DejaVuSans-110"/>
      <use x="218.017578" xlink:href="#DejaVuSans-101"/>
      <use x="279.541016" xlink:href="#DejaVuSans-114"/>
      <use x="320.654297" xlink:href="#DejaVuSans-115"/>
     </g>
    </g>
    <g id="line2d_23">
     <path d="M 184.342188 91.692813 
L 204.342188 91.692813 
" style="fill:none;stroke:#000000;stroke-dasharray:9.6,2.4,1.5,2.4;stroke-dashoffset:0;stroke-width:1.5;"/>
    </g>
    <g id="line2d_24"/>
    <g id="text_18">
     <!-- Heretics -->
     <defs>
      <path d="M 9.8125 72.90625 
L 19.671875 72.90625 
L 19.671875 43.015625 
L 55.515625 43.015625 
L 55.515625 72.90625 
L 65.375 72.90625 
L 65.375 0 
L 55.515625 0 
L 55.515625 34.71875 
L 19.671875 34.71875 
L 19.671875 0 
L 9.8125 0 
z
" id="DejaVuSans-72"/>
      <path d="M 48.78125 52.59375 
L 48.78125 44.1875 
Q 44.96875 46.296875 41.140625 47.34375 
Q 37.3125 48.390625 33.40625 48.390625 
Q 24.65625 48.390625 19.8125 42.84375 
Q 14.984375 37.3125 14.984375 27.296875 
Q 14.984375 17.28125 19.8125 11.734375 
Q 24.65625 6.203125 33.40625 6.203125 
Q 37.3125 6.203125 41.140625 7.25 
Q 44.96875 8.296875 48.78125 10.40625 
L 48.78125 2.09375 
Q 45.015625 0.34375 40.984375 -0.53125 
Q 36.96875 -1.421875 32.421875 -1.421875 
Q 20.0625 -1.421875 12.78125 6.34375 
Q 5.515625 14.109375 5.515625 27.296875 
Q 5.515625 40.671875 12.859375 48.328125 
Q 20.21875 56 33.015625 56 
Q 37.15625 56 41.109375 55.140625 
Q 45.0625 54.296875 48.78125 52.59375 
z
" id="DejaVuSans-99"/>
     </defs>
     <g transform="translate(212.342188 95.192813)scale(0.1 -0.1)">
      <use xlink:href="#DejaVuSans-72"/>
      <use x="75.195312" xlink:href="#DejaVuSans-101"/>
      <use x="136.71875" xlink:href="#DejaVuSans-114"/>
      <use x="175.582031" xlink:href="#DejaVuSans-101"/>
      <use x="237.105469" xlink:href="#DejaVuSans-116"/>
      <use x="276.314453" xlink:href="#DejaVuSans-105"/>
      <use x="304.097656" xlink:href="#DejaVuSans-99"/>
      <use x="359.078125" xlink:href="#DejaVuSans-115"/>
     </g>
    </g>
   </g>
  </g>
 </g>
 <defs>
  <clipPath id="p8ec0987088">
   <rect height="217.44" width="334.8" x="54" y="34.56"/>
  </clipPath>
 </defs>
</svg>
