<?xml version="1.0" encoding="utf-8" standalone="no"?>
<!DOCTYPE svg PUBLIC "-//W3C//DTD SVG 1.1//EN"
  "http://www.w3.org/Graphics/SVG/1.1/DTD/svg11.dtd">
<!-- Created with matplotlib (https://matplotlib.org/) -->
<svg height="288pt" version="1.1" viewBox="0 0 432 288" width="432pt" xmlns="http://www.w3.org/2000/svg" xmlns:xlink="http://www.w3.org/1999/xlink">
 <defs>
  <style type="text/css">
*{stroke-linecap:butt;stroke-linejoin:round;}
  </style>
 </defs>
 <g id="figure_1">
  <g id="patch_1">
   <path d="M 0 288 
L 432 288 
L 432 0 
L 0 0 
z
" style="fill:#ffffff;"/>
  </g>
  <g id="axes_1">
   <g id="patch_2">
    <path d="M 54 252 
L 388.8 252 
L 388.8 34.56 
L 54 34.56 
z
" style="fill:#ffffff;"/>
   </g>
   <g id="matplotlib.axis_1">
    <g id="xtick_1">
     <g id="line2d_1">
      <defs>
       <path d="M 0 0 
L 0 3.5 
" id="m17098a641c" style="stroke:#000000;stroke-width:0.8;"/>
      </defs>
      <g>
       <use style="stroke:#000000;stroke-width:0.8;" x="69.218182" xlink:href="#m17098a641c" y="252"/>
      </g>
     </g>
     <g id="text_1">
      <!-- 0 -->
      <defs>
       <path d="M 31.78125 66.40625 
Q 24.171875 66.40625 20.328125 58.90625 
Q 16.5 51.421875 16.5 36.375 
Q 16.5 21.390625 20.328125 13.890625 
Q 24.171875 6.390625 31.78125 6.390625 
Q 39.453125 6.390625 43.28125 13.890625 
Q 47.125 21.390625 47.125 36.375 
Q 47.125 51.421875 43.28125 58.90625 
Q 39.453125 66.40625 31.78125 66.40625 
z
M 31.78125 74.21875 
Q 44.046875 74.21875 50.515625 64.515625 
Q 56.984375 54.828125 56.984375 36.375 
Q 56.984375 17.96875 50.515625 8.265625 
Q 44.046875 -1.421875 31.78125 -1.421875 
Q 19.53125 -1.421875 13.0625 8.265625 
Q 6.59375 17.96875 6.59375 36.375 
Q 6.59375 54.828125 13.0625 64.515625 
Q 19.53125 74.21875 31.78125 74.21875 
z
" id="DejaVuSans-48"/>
      </defs>
      <g transform="translate(66.036932 266.598437)scale(0.1 -0.1)">
       <use xlink:href="#DejaVuSans-48"/>
      </g>
     </g>
    </g>
    <g id="xtick_2">
     <g id="line2d_2">
      <g>
       <use style="stroke:#000000;stroke-width:0.8;" x="130.335378" xlink:href="#m17098a641c" y="252"/>
      </g>
     </g>
     <g id="text_2">
      <!-- 50 -->
      <defs>
       <path d="M 10.796875 72.90625 
L 49.515625 72.90625 
L 49.515625 64.59375 
L 19.828125 64.59375 
L 19.828125 46.734375 
Q 21.96875 47.46875 24.109375 47.828125 
Q 26.265625 48.1875 28.421875 48.1875 
Q 40.625 48.1875 47.75 41.5 
Q 54.890625 34.8125 54.890625 23.390625 
Q 54.890625 11.625 47.5625 5.09375 
Q 40.234375 -1.421875 26.90625 -1.421875 
Q 22.3125 -1.421875 17.546875 -0.640625 
Q 12.796875 0.140625 7.71875 1.703125 
L 7.71875 11.625 
Q 12.109375 9.234375 16.796875 8.0625 
Q 21.484375 6.890625 26.703125 6.890625 
Q 35.15625 6.890625 40.078125 11.328125 
Q 45.015625 15.765625 45.015625 23.390625 
Q 45.015625 31 40.078125 35.4375 
Q 35.15625 39.890625 26.703125 39.890625 
Q 22.75 39.890625 18.8125 39.015625 
Q 14.890625 38.140625 10.796875 36.28125 
z
" id="DejaVuSans-53"/>
      </defs>
      <g transform="translate(123.972878 266.598437)scale(0.1 -0.1)">
       <use xlink:href="#DejaVuSans-53"/>
       <use x="63.623047" xlink:href="#DejaVuSans-48"/>
      </g>
     </g>
    </g>
    <g id="xtick_3">
     <g id="line2d_3">
      <g>
       <use style="stroke:#000000;stroke-width:0.8;" x="191.452574" xlink:href="#m17098a641c" y="252"/>
      </g>
     </g>
     <g id="text_3">
      <!-- 100 -->
      <defs>
       <path d="M 12.40625 8.296875 
L 28.515625 8.296875 
L 28.515625 63.921875 
L 10.984375 60.40625 
L 10.984375 69.390625 
L 28.421875 72.90625 
L 38.28125 72.90625 
L 38.28125 8.296875 
L 54.390625 8.296875 
L 54.390625 0 
L 12.40625 0 
z
" id="DejaVuSans-49"/>
      </defs>
      <g transform="translate(181.908824 266.598437)scale(0.1 -0.1)">
       <use xlink:href="#DejaVuSans-49"/>
       <use x="63.623047" xlink:href="#DejaVuSans-48"/>
       <use x="127.246094" xlink:href="#DejaVuSans-48"/>
      </g>
     </g>
    </g>
    <g id="xtick_4">
     <g id="line2d_4">
      <g>
       <use style="stroke:#000000;stroke-width:0.8;" x="252.56977" xlink:href="#m17098a641c" y="252"/>
      </g>
     </g>
     <g id="text_4">
      <!-- 150 -->
      <g transform="translate(243.02602 266.598437)scale(0.1 -0.1)">
       <use xlink:href="#DejaVuSans-49"/>
       <use x="63.623047" xlink:href="#DejaVuSans-53"/>
       <use x="127.246094" xlink:href="#DejaVuSans-48"/>
      </g>
     </g>
    </g>
    <g id="xtick_5">
     <g id="line2d_5">
      <g>
       <use style="stroke:#000000;stroke-width:0.8;" x="313.686966" xlink:href="#m17098a641c" y="252"/>
      </g>
     </g>
     <g id="text_5">
      <!-- 200 -->
      <defs>
       <path d="M 19.1875 8.296875 
L 53.609375 8.296875 
L 53.609375 0 
L 7.328125 0 
L 7.328125 8.296875 
Q 12.9375 14.109375 22.625 23.890625 
Q 32.328125 33.6875 34.8125 36.53125 
Q 39.546875 41.84375 41.421875 45.53125 
Q 43.3125 49.21875 43.3125 52.78125 
Q 43.3125 58.59375 39.234375 62.25 
Q 35.15625 65.921875 28.609375 65.921875 
Q 23.96875 65.921875 18.8125 64.3125 
Q 13.671875 62.703125 7.8125 59.421875 
L 7.8125 69.390625 
Q 13.765625 71.78125 18.9375 73 
Q 24.125 74.21875 28.421875 74.21875 
Q 39.75 74.21875 46.484375 68.546875 
Q 53.21875 62.890625 53.21875 53.421875 
Q 53.21875 48.921875 51.53125 44.890625 
Q 49.859375 40.875 45.40625 35.40625 
Q 44.1875 33.984375 37.640625 27.21875 
Q 31.109375 20.453125 19.1875 8.296875 
z
" id="DejaVuSans-50"/>
      </defs>
      <g transform="translate(304.143216 266.598437)scale(0.1 -0.1)">
       <use xlink:href="#DejaVuSans-50"/>
       <use x="63.623047" xlink:href="#DejaVuSans-48"/>
       <use x="127.246094" xlink:href="#DejaVuSans-48"/>
      </g>
     </g>
    </g>
    <g id="xtick_6">
     <g id="line2d_6">
      <g>
       <use style="stroke:#000000;stroke-width:0.8;" x="374.804162" xlink:href="#m17098a641c" y="252"/>
      </g>
     </g>
     <g id="text_6">
      <!-- 250 -->
      <g transform="translate(365.260412 266.598437)scale(0.1 -0.1)">
       <use xlink:href="#DejaVuSans-50"/>
       <use x="63.623047" xlink:href="#DejaVuSans-53"/>
       <use x="127.246094" xlink:href="#DejaVuSans-48"/>
      </g>
     </g>
    </g>
    <g id="text_7">
     <!-- Simulation Time -->
     <defs>
      <path d="M 53.515625 70.515625 
L 53.515625 60.890625 
Q 47.90625 63.578125 42.921875 64.890625 
Q 37.9375 66.21875 33.296875 66.21875 
Q 25.25 66.21875 20.875 63.09375 
Q 16.5 59.96875 16.5 54.203125 
Q 16.5 49.359375 19.40625 46.890625 
Q 22.3125 44.4375 30.421875 42.921875 
L 36.375 41.703125 
Q 47.40625 39.59375 52.65625 34.296875 
Q 57.90625 29 57.90625 20.125 
Q 57.90625 9.515625 50.796875 4.046875 
Q 43.703125 -1.421875 29.984375 -1.421875 
Q 24.8125 -1.421875 18.96875 -0.25 
Q 13.140625 0.921875 6.890625 3.21875 
L 6.890625 13.375 
Q 12.890625 10.015625 18.65625 8.296875 
Q 24.421875 6.59375 29.984375 6.59375 
Q 38.421875 6.59375 43.015625 9.90625 
Q 47.609375 13.234375 47.609375 19.390625 
Q 47.609375 24.75 44.3125 27.78125 
Q 41.015625 30.8125 33.5 32.328125 
L 27.484375 33.5 
Q 16.453125 35.6875 11.515625 40.375 
Q 6.59375 45.0625 6.59375 53.421875 
Q 6.59375 63.09375 13.40625 68.65625 
Q 20.21875 74.21875 32.171875 74.21875 
Q 37.3125 74.21875 42.625 73.28125 
Q 47.953125 72.359375 53.515625 70.515625 
z
" id="DejaVuSans-83"/>
      <path d="M 9.421875 54.6875 
L 18.40625 54.6875 
L 18.40625 0 
L 9.421875 0 
z
M 9.421875 75.984375 
L 18.40625 75.984375 
L 18.40625 64.59375 
L 9.421875 64.59375 
z
" id="DejaVuSans-105"/>
      <path d="M 52 44.1875 
Q 55.375 50.25 60.0625 53.125 
Q 64.75 56 71.09375 56 
Q 79.640625 56 84.28125 50.015625 
Q 88.921875 44.046875 88.921875 33.015625 
L 88.921875 0 
L 79.890625 0 
L 79.890625 32.71875 
Q 79.890625 40.578125 77.09375 44.375 
Q 74.3125 48.1875 68.609375 48.1875 
Q 61.625 48.1875 57.5625 43.546875 
Q 53.515625 38.921875 53.515625 30.90625 
L 53.515625 0 
L 44.484375 0 
L 44.484375 32.71875 
Q 44.484375 40.625 41.703125 44.40625 
Q 38.921875 48.1875 33.109375 48.1875 
Q 26.21875 48.1875 22.15625 43.53125 
Q 18.109375 38.875 18.109375 30.90625 
L 18.109375 0 
L 9.078125 0 
L 9.078125 54.6875 
L 18.109375 54.6875 
L 18.109375 46.1875 
Q 21.1875 51.21875 25.484375 53.609375 
Q 29.78125 56 35.6875 56 
Q 41.65625 56 45.828125 52.96875 
Q 50 49.953125 52 44.1875 
z
" id="DejaVuSans-109"/>
      <path d="M 8.5 21.578125 
L 8.5 54.6875 
L 17.484375 54.6875 
L 17.484375 21.921875 
Q 17.484375 14.15625 20.5 10.265625 
Q 23.53125 6.390625 29.59375 6.390625 
Q 36.859375 6.390625 41.078125 11.03125 
Q 45.3125 15.671875 45.3125 23.6875 
L 45.3125 54.6875 
L 54.296875 54.6875 
L 54.296875 0 
L 45.3125 0 
L 45.3125 8.40625 
Q 42.046875 3.421875 37.71875 1 
Q 33.40625 -1.421875 27.6875 -1.421875 
Q 18.265625 -1.421875 13.375 4.4375 
Q 8.5 10.296875 8.5 21.578125 
z
M 31.109375 56 
z
" id="DejaVuSans-117"/>
      <path d="M 9.421875 75.984375 
L 18.40625 75.984375 
L 18.40625 0 
L 9.421875 0 
z
" id="DejaVuSans-108"/>
      <path d="M 34.28125 27.484375 
Q 23.390625 27.484375 19.1875 25 
Q 14.984375 22.515625 14.984375 16.5 
Q 14.984375 11.71875 18.140625 8.90625 
Q 21.296875 6.109375 26.703125 6.109375 
Q 34.1875 6.109375 38.703125 11.40625 
Q 43.21875 16.703125 43.21875 25.484375 
L 43.21875 27.484375 
z
M 52.203125 31.203125 
L 52.203125 0 
L 43.21875 0 
L 43.21875 8.296875 
Q 40.140625 3.328125 35.546875 0.953125 
Q 30.953125 -1.421875 24.3125 -1.421875 
Q 15.921875 -1.421875 10.953125 3.296875 
Q 6 8.015625 6 15.921875 
Q 6 25.140625 12.171875 29.828125 
Q 18.359375 34.515625 30.609375 34.515625 
L 43.21875 34.515625 
L 43.21875 35.40625 
Q 43.21875 41.609375 39.140625 45 
Q 35.0625 48.390625 27.6875 48.390625 
Q 23 48.390625 18.546875 47.265625 
Q 14.109375 46.140625 10.015625 43.890625 
L 10.015625 52.203125 
Q 14.9375 54.109375 19.578125 55.046875 
Q 24.21875 56 28.609375 56 
Q 40.484375 56 46.34375 49.84375 
Q 52.203125 43.703125 52.203125 31.203125 
z
" id="DejaVuSans-97"/>
      <path d="M 18.3125 70.21875 
L 18.3125 54.6875 
L 36.8125 54.6875 
L 36.8125 47.703125 
L 18.3125 47.703125 
L 18.3125 18.015625 
Q 18.3125 11.328125 20.140625 9.421875 
Q 21.96875 7.515625 27.59375 7.515625 
L 36.8125 7.515625 
L 36.8125 0 
L 27.59375 0 
Q 17.1875 0 13.234375 3.875 
Q 9.28125 7.765625 9.28125 18.015625 
L 9.28125 47.703125 
L 2.6875 47.703125 
L 2.6875 54.6875 
L 9.28125 54.6875 
L 9.28125 70.21875 
z
" id="DejaVuSans-116"/>
      <path d="M 30.609375 48.390625 
Q 23.390625 48.390625 19.1875 42.75 
Q 14.984375 37.109375 14.984375 27.296875 
Q 14.984375 17.484375 19.15625 11.84375 
Q 23.34375 6.203125 30.609375 6.203125 
Q 37.796875 6.203125 41.984375 11.859375 
Q 46.1875 17.53125 46.1875 27.296875 
Q 46.1875 37.015625 41.984375 42.703125 
Q 37.796875 48.390625 30.609375 48.390625 
z
M 30.609375 56 
Q 42.328125 56 49.015625 48.375 
Q 55.71875 40.765625 55.71875 27.296875 
Q 55.71875 13.875 49.015625 6.21875 
Q 42.328125 -1.421875 30.609375 -1.421875 
Q 18.84375 -1.421875 12.171875 6.21875 
Q 5.515625 13.875 5.515625 27.296875 
Q 5.515625 40.765625 12.171875 48.375 
Q 18.84375 56 30.609375 56 
z
" id="DejaVuSans-111"/>
      <path d="M 54.890625 33.015625 
L 54.890625 0 
L 45.90625 0 
L 45.90625 32.71875 
Q 45.90625 40.484375 42.875 44.328125 
Q 39.84375 48.1875 33.796875 48.1875 
Q 26.515625 48.1875 22.3125 43.546875 
Q 18.109375 38.921875 18.109375 30.90625 
L 18.109375 0 
L 9.078125 0 
L 9.078125 54.6875 
L 18.109375 54.6875 
L 18.109375 46.1875 
Q 21.34375 51.125 25.703125 53.5625 
Q 30.078125 56 35.796875 56 
Q 45.21875 56 50.046875 50.171875 
Q 54.890625 44.34375 54.890625 33.015625 
z
" id="DejaVuSans-110"/>
      <path id="DejaVuSans-32"/>
      <path d="M -0.296875 72.90625 
L 61.375 72.90625 
L 61.375 64.59375 
L 35.5 64.59375 
L 35.5 0 
L 25.59375 0 
L 25.59375 64.59375 
L -0.296875 64.59375 
z
" id="DejaVuSans-84"/>
      <path d="M 56.203125 29.59375 
L 56.203125 25.203125 
L 14.890625 25.203125 
Q 15.484375 15.921875 20.484375 11.0625 
Q 25.484375 6.203125 34.421875 6.203125 
Q 39.59375 6.203125 44.453125 7.46875 
Q 49.3125 8.734375 54.109375 11.28125 
L 54.109375 2.78125 
Q 49.265625 0.734375 44.1875 -0.34375 
Q 39.109375 -1.421875 33.890625 -1.421875 
Q 20.796875 -1.421875 13.15625 6.1875 
Q 5.515625 13.8125 5.515625 26.8125 
Q 5.515625 40.234375 12.765625 48.109375 
Q 20.015625 56 32.328125 56 
Q 43.359375 56 49.78125 48.890625 
Q 56.203125 41.796875 56.203125 29.59375 
z
M 47.21875 32.234375 
Q 47.125 39.59375 43.09375 43.984375 
Q 39.0625 48.390625 32.421875 48.390625 
Q 24.90625 48.390625 20.390625 44.140625 
Q 15.875 39.890625 15.1875 32.171875 
z
" id="DejaVuSans-101"/>
     </defs>
     <g transform="translate(180.944531 280.276563)scale(0.1 -0.1)">
      <use xlink:href="#DejaVuSans-83"/>
      <use x="63.476562" xlink:href="#DejaVuSans-105"/>
      <use x="91.259766" xlink:href="#DejaVuSans-109"/>
      <use x="188.671875" xlink:href="#DejaVuSans-117"/>
      <use x="252.050781" xlink:href="#DejaVuSans-108"/>
      <use x="279.833984" xlink:href="#DejaVuSans-97"/>
      <use x="341.113281" xlink:href="#DejaVuSans-116"/>
      <use x="380.322266" xlink:href="#DejaVuSans-105"/>
      <use x="408.105469" xlink:href="#DejaVuSans-111"/>
      <use x="469.287109" xlink:href="#DejaVuSans-110"/>
      <use x="532.666016" xlink:href="#DejaVuSans-32"/>
      <use x="564.453125" xlink:href="#DejaVuSans-84"/>
      <use x="622.412109" xlink:href="#DejaVuSans-105"/>
      <use x="650.195312" xlink:href="#DejaVuSans-109"/>
      <use x="747.607422" xlink:href="#DejaVuSans-101"/>
     </g>
    </g>
   </g>
   <g id="matplotlib.axis_2">
    <g id="ytick_1">
     <g id="line2d_7">
      <defs>
       <path d="M 0 0 
L -3.5 0 
" id="m37dd8f65c0" style="stroke:#000000;stroke-width:0.8;"/>
      </defs>
      <g>
       <use style="stroke:#000000;stroke-width:0.8;" x="54" xlink:href="#m37dd8f65c0" y="242.116364"/>
      </g>
     </g>
     <g id="text_8">
      <!-- 0% -->
      <defs>
       <path d="M 72.703125 32.078125 
Q 68.453125 32.078125 66.03125 28.46875 
Q 63.625 24.859375 63.625 18.40625 
Q 63.625 12.0625 66.03125 8.421875 
Q 68.453125 4.78125 72.703125 4.78125 
Q 76.859375 4.78125 79.265625 8.421875 
Q 81.6875 12.0625 81.6875 18.40625 
Q 81.6875 24.8125 79.265625 28.4375 
Q 76.859375 32.078125 72.703125 32.078125 
z
M 72.703125 38.28125 
Q 80.421875 38.28125 84.953125 32.90625 
Q 89.5 27.546875 89.5 18.40625 
Q 89.5 9.28125 84.9375 3.921875 
Q 80.375 -1.421875 72.703125 -1.421875 
Q 64.890625 -1.421875 60.34375 3.921875 
Q 55.8125 9.28125 55.8125 18.40625 
Q 55.8125 27.59375 60.375 32.9375 
Q 64.9375 38.28125 72.703125 38.28125 
z
M 22.3125 68.015625 
Q 18.109375 68.015625 15.6875 64.375 
Q 13.28125 60.75 13.28125 54.390625 
Q 13.28125 47.953125 15.671875 44.328125 
Q 18.0625 40.71875 22.3125 40.71875 
Q 26.5625 40.71875 28.96875 44.328125 
Q 31.390625 47.953125 31.390625 54.390625 
Q 31.390625 60.6875 28.953125 64.34375 
Q 26.515625 68.015625 22.3125 68.015625 
z
M 66.40625 74.21875 
L 74.21875 74.21875 
L 28.609375 -1.421875 
L 20.796875 -1.421875 
z
M 22.3125 74.21875 
Q 30.03125 74.21875 34.609375 68.875 
Q 39.203125 63.53125 39.203125 54.390625 
Q 39.203125 45.171875 34.640625 39.84375 
Q 30.078125 34.515625 22.3125 34.515625 
Q 14.546875 34.515625 10.03125 39.859375 
Q 5.515625 45.21875 5.515625 54.390625 
Q 5.515625 63.484375 10.046875 68.84375 
Q 14.59375 74.21875 22.3125 74.21875 
z
" id="DejaVuSans-37"/>
      </defs>
      <g transform="translate(31.135937 245.915582)scale(0.1 -0.1)">
       <use xlink:href="#DejaVuSans-48"/>
       <use x="63.623047" xlink:href="#DejaVuSans-37"/>
      </g>
     </g>
    </g>
    <g id="ytick_2">
     <g id="line2d_8">
      <g>
       <use style="stroke:#000000;stroke-width:0.8;" x="54" xlink:href="#m37dd8f65c0" y="202.581818"/>
      </g>
     </g>
     <g id="text_9">
      <!-- 20% -->
      <g transform="translate(24.773438 206.381037)scale(0.1 -0.1)">
       <use xlink:href="#DejaVuSans-50"/>
       <use x="63.623047" xlink:href="#DejaVuSans-48"/>
       <use x="127.246094" xlink:href="#DejaVuSans-37"/>
      </g>
     </g>
    </g>
    <g id="ytick_3">
     <g id="line2d_9">
      <g>
       <use style="stroke:#000000;stroke-width:0.8;" x="54" xlink:href="#m37dd8f65c0" y="163.047273"/>
      </g>
     </g>
     <g id="text_10">
      <!-- 40% -->
      <defs>
       <path d="M 37.796875 64.3125 
L 12.890625 25.390625 
L 37.796875 25.390625 
z
M 35.203125 72.90625 
L 47.609375 72.90625 
L 47.609375 25.390625 
L 58.015625 25.390625 
L 58.015625 17.1875 
L 47.609375 17.1875 
L 47.609375 0 
L 37.796875 0 
L 37.796875 17.1875 
L 4.890625 17.1875 
L 4.890625 26.703125 
z
" id="DejaVuSans-52"/>
      </defs>
      <g transform="translate(24.773438 166.846491)scale(0.1 -0.1)">
       <use xlink:href="#DejaVuSans-52"/>
       <use x="63.623047" xlink:href="#DejaVuSans-48"/>
       <use x="127.246094" xlink:href="#DejaVuSans-37"/>
      </g>
     </g>
    </g>
    <g id="ytick_4">
     <g id="line2d_10">
      <g>
       <use style="stroke:#000000;stroke-width:0.8;" x="54" xlink:href="#m37dd8f65c0" y="123.512727"/>
      </g>
     </g>
     <g id="text_11">
      <!-- 60% -->
      <defs>
       <path d="M 33.015625 40.375 
Q 26.375 40.375 22.484375 35.828125 
Q 18.609375 31.296875 18.609375 23.390625 
Q 18.609375 15.53125 22.484375 10.953125 
Q 26.375 6.390625 33.015625 6.390625 
Q 39.65625 6.390625 43.53125 10.953125 
Q 47.40625 15.53125 47.40625 23.390625 
Q 47.40625 31.296875 43.53125 35.828125 
Q 39.65625 40.375 33.015625 40.375 
z
M 52.59375 71.296875 
L 52.59375 62.3125 
Q 48.875 64.0625 45.09375 64.984375 
Q 41.3125 65.921875 37.59375 65.921875 
Q 27.828125 65.921875 22.671875 59.328125 
Q 17.53125 52.734375 16.796875 39.40625 
Q 19.671875 43.65625 24.015625 45.921875 
Q 28.375 48.1875 33.59375 48.1875 
Q 44.578125 48.1875 50.953125 41.515625 
Q 57.328125 34.859375 57.328125 23.390625 
Q 57.328125 12.15625 50.6875 5.359375 
Q 44.046875 -1.421875 33.015625 -1.421875 
Q 20.359375 -1.421875 13.671875 8.265625 
Q 6.984375 17.96875 6.984375 36.375 
Q 6.984375 53.65625 15.1875 63.9375 
Q 23.390625 74.21875 37.203125 74.21875 
Q 40.921875 74.21875 44.703125 73.484375 
Q 48.484375 72.75 52.59375 71.296875 
z
" id="DejaVuSans-54"/>
      </defs>
      <g transform="translate(24.773438 127.311946)scale(0.1 -0.1)">
       <use xlink:href="#DejaVuSans-54"/>
       <use x="63.623047" xlink:href="#DejaVuSans-48"/>
       <use x="127.246094" xlink:href="#DejaVuSans-37"/>
      </g>
     </g>
    </g>
    <g id="ytick_5">
     <g id="line2d_11">
      <g>
       <use style="stroke:#000000;stroke-width:0.8;" x="54" xlink:href="#m37dd8f65c0" y="83.978182"/>
      </g>
     </g>
     <g id="text_12">
      <!-- 80% -->
      <defs>
       <path d="M 31.78125 34.625 
Q 24.75 34.625 20.71875 30.859375 
Q 16.703125 27.09375 16.703125 20.515625 
Q 16.703125 13.921875 20.71875 10.15625 
Q 24.75 6.390625 31.78125 6.390625 
Q 38.8125 6.390625 42.859375 10.171875 
Q 46.921875 13.96875 46.921875 20.515625 
Q 46.921875 27.09375 42.890625 30.859375 
Q 38.875 34.625 31.78125 34.625 
z
M 21.921875 38.8125 
Q 15.578125 40.375 12.03125 44.71875 
Q 8.5 49.078125 8.5 55.328125 
Q 8.5 64.0625 14.71875 69.140625 
Q 20.953125 74.21875 31.78125 74.21875 
Q 42.671875 74.21875 48.875 69.140625 
Q 55.078125 64.0625 55.078125 55.328125 
Q 55.078125 49.078125 51.53125 44.71875 
Q 48 40.375 41.703125 38.8125 
Q 48.828125 37.15625 52.796875 32.3125 
Q 56.78125 27.484375 56.78125 20.515625 
Q 56.78125 9.90625 50.3125 4.234375 
Q 43.84375 -1.421875 31.78125 -1.421875 
Q 19.734375 -1.421875 13.25 4.234375 
Q 6.78125 9.90625 6.78125 20.515625 
Q 6.78125 27.484375 10.78125 32.3125 
Q 14.796875 37.15625 21.921875 38.8125 
z
M 18.3125 54.390625 
Q 18.3125 48.734375 21.84375 45.5625 
Q 25.390625 42.390625 31.78125 42.390625 
Q 38.140625 42.390625 41.71875 45.5625 
Q 45.3125 48.734375 45.3125 54.390625 
Q 45.3125 60.0625 41.71875 63.234375 
Q 38.140625 66.40625 31.78125 66.40625 
Q 25.390625 66.40625 21.84375 63.234375 
Q 18.3125 60.0625 18.3125 54.390625 
z
" id="DejaVuSans-56"/>
      </defs>
      <g transform="translate(24.773438 87.777401)scale(0.1 -0.1)">
       <use xlink:href="#DejaVuSans-56"/>
       <use x="63.623047" xlink:href="#DejaVuSans-48"/>
       <use x="127.246094" xlink:href="#DejaVuSans-37"/>
      </g>
     </g>
    </g>
    <g id="ytick_6">
     <g id="line2d_12">
      <g>
       <use style="stroke:#000000;stroke-width:0.8;" x="54" xlink:href="#m37dd8f65c0" y="44.443636"/>
      </g>
     </g>
     <g id="text_13">
      <!-- 100% -->
      <g transform="translate(18.410937 48.242855)scale(0.1 -0.1)">
       <use xlink:href="#DejaVuSans-49"/>
       <use x="63.623047" xlink:href="#DejaVuSans-48"/>
       <use x="127.246094" xlink:href="#DejaVuSans-48"/>
       <use x="190.869141" xlink:href="#DejaVuSans-37"/>
      </g>
     </g>
    </g>
    <g id="text_14">
     <!-- Strategy -->
     <defs>
      <path d="M 41.109375 46.296875 
Q 39.59375 47.171875 37.8125 47.578125 
Q 36.03125 48 33.890625 48 
Q 26.265625 48 22.1875 43.046875 
Q 18.109375 38.09375 18.109375 28.8125 
L 18.109375 0 
L 9.078125 0 
L 9.078125 54.6875 
L 18.109375 54.6875 
L 18.109375 46.1875 
Q 20.953125 51.171875 25.484375 53.578125 
Q 30.03125 56 36.53125 56 
Q 37.453125 56 38.578125 55.875 
Q 39.703125 55.765625 41.0625 55.515625 
z
" id="DejaVuSans-114"/>
      <path d="M 45.40625 27.984375 
Q 45.40625 37.75 41.375 43.109375 
Q 37.359375 48.484375 30.078125 48.484375 
Q 22.859375 48.484375 18.828125 43.109375 
Q 14.796875 37.75 14.796875 27.984375 
Q 14.796875 18.265625 18.828125 12.890625 
Q 22.859375 7.515625 30.078125 7.515625 
Q 37.359375 7.515625 41.375 12.890625 
Q 45.40625 18.265625 45.40625 27.984375 
z
M 54.390625 6.78125 
Q 54.390625 -7.171875 48.1875 -13.984375 
Q 42 -20.796875 29.203125 -20.796875 
Q 24.46875 -20.796875 20.265625 -20.09375 
Q 16.0625 -19.390625 12.109375 -17.921875 
L 12.109375 -9.1875 
Q 16.0625 -11.328125 19.921875 -12.34375 
Q 23.78125 -13.375 27.78125 -13.375 
Q 36.625 -13.375 41.015625 -8.765625 
Q 45.40625 -4.15625 45.40625 5.171875 
L 45.40625 9.625 
Q 42.625 4.78125 38.28125 2.390625 
Q 33.9375 0 27.875 0 
Q 17.828125 0 11.671875 7.65625 
Q 5.515625 15.328125 5.515625 27.984375 
Q 5.515625 40.671875 11.671875 48.328125 
Q 17.828125 56 27.875 56 
Q 33.9375 56 38.28125 53.609375 
Q 42.625 51.21875 45.40625 46.390625 
L 45.40625 54.6875 
L 54.390625 54.6875 
z
" id="DejaVuSans-103"/>
      <path d="M 32.171875 -5.078125 
Q 28.375 -14.84375 24.75 -17.8125 
Q 21.140625 -20.796875 15.09375 -20.796875 
L 7.90625 -20.796875 
L 7.90625 -13.28125 
L 13.1875 -13.28125 
Q 16.890625 -13.28125 18.9375 -11.515625 
Q 21 -9.765625 23.484375 -3.21875 
L 25.09375 0.875 
L 2.984375 54.6875 
L 12.5 54.6875 
L 29.59375 11.921875 
L 46.6875 54.6875 
L 56.203125 54.6875 
z
" id="DejaVuSans-121"/>
     </defs>
     <g transform="translate(12.33125 164.704219)rotate(-90)scale(0.1 -0.1)">
      <use xlink:href="#DejaVuSans-83"/>
      <use x="63.476562" xlink:href="#DejaVuSans-116"/>
      <use x="102.685547" xlink:href="#DejaVuSans-114"/>
      <use x="143.798828" xlink:href="#DejaVuSans-97"/>
      <use x="205.078125" xlink:href="#DejaVuSans-116"/>
      <use x="244.287109" xlink:href="#DejaVuSans-101"/>
      <use x="305.810547" xlink:href="#DejaVuSans-103"/>
      <use x="369.287109" xlink:href="#DejaVuSans-121"/>
     </g>
    </g>
   </g>
   <g id="line2d_13">
    <path clip-path="url(#p151de17c86)" d="M 69.218182 242.116364 
L 76.552245 242.116364 
L 77.774589 220.152727 
L 78.996933 206.175868 
L 80.219277 217.407273 
L 81.441621 222.349091 
L 82.663965 210.488727 
L 83.886309 214.85116 
L 85.108653 216.610205 
L 86.330997 216.106794 
L 87.553341 216.881547 
L 88.775685 216.881547 
L 89.998028 216.332964 
L 91.220372 208.549297 
L 92.442716 202.581818 
L 93.66506 203.138643 
L 94.887404 204.583567 
L 96.109748 203.041522 
L 97.332092 204.558545 
L 98.554436 202.581818 
L 99.77678 203.586934 
L 100.999124 199.074721 
L 102.221468 200.743002 
L 103.443812 200.419773 
L 104.666156 200.811615 
L 105.888499 202.307273 
L 107.110843 201.264 
L 108.333187 200.884016 
L 109.555531 200.008564 
L 110.777875 202.366957 
L 112.000219 201.731613 
L 113.222563 196.579191 
L 114.444907 196.056699 
L 115.667251 197.273939 
L 116.889595 197.22998 
L 118.111939 195.605134 
L 119.334283 192.698182 
L 120.556627 188.671515 
L 121.77897 188.978534 
L 123.001314 187.244001 
L 124.223658 186.171252 
L 125.446002 183.524747 
L 126.668346 183.16134 
L 127.89069 181.883677 
L 129.113034 180.442473 
L 130.335378 181.675079 
L 131.557722 181.80943 
L 132.780066 181.04295 
L 134.00241 178.203704 
L 135.224754 177.248152 
L 136.447097 177.215232 
L 137.669441 177.476548 
L 138.891785 176.888341 
L 140.114129 175.062674 
L 141.336473 174.033389 
L 142.558817 171.815929 
L 143.781161 170.93943 
L 145.003505 169.404954 
L 146.225849 169.140411 
L 147.448193 169.009394 
L 148.670537 165.926343 
L 149.892881 167.36915 
L 151.115225 167.161097 
L 152.337568 166.535615 
L 154.782256 163.047273 
L 156.0046 164.224308 
L 157.226944 161.58303 
L 158.449288 161.896438 
L 159.671632 163.454146 
L 160.893976 162.843136 
L 162.11632 160.702003 
L 163.338664 160.862289 
L 164.561008 161.419779 
L 165.783352 160.622667 
L 167.005696 159.975332 
L 168.228039 157.546814 
L 169.450383 157.59191 
L 170.672727 156.378795 
L 171.895071 158.885742 
L 173.117415 156.965035 
L 174.339759 158.408015 
L 175.562103 157.543312 
L 176.784447 155.529668 
L 178.006791 157.545042 
L 179.229135 156.878292 
L 180.451479 155.865276 
L 181.673823 154.522846 
L 184.11851 152.450384 
L 185.340854 153.399764 
L 186.563198 151.627666 
L 187.785542 152.113604 
L 189.007886 150.26843 
L 191.452574 147.665231 
L 192.674918 147.518266 
L 193.897262 148.374658 
L 195.119606 146.295347 
L 196.34195 147.259988 
L 197.564294 148.65885 
L 198.786637 146.791952 
L 200.008981 147.432788 
L 201.231325 146.45748 
L 202.453669 146.11342 
L 203.676013 146.952973 
L 204.898357 145.805631 
L 207.343045 144.288534 
L 208.565389 145.82296 
L 209.787733 143.617325 
L 211.010077 142.264558 
L 212.232421 143.115547 
L 213.454765 143.618481 
L 214.677108 141.142109 
L 215.899452 142.101372 
L 217.121796 140.123881 
L 218.34414 140.436991 
L 219.566484 139.814952 
L 220.788828 139.472234 
L 222.011172 139.582041 
L 223.233516 140.223205 
L 224.45586 137.779831 
L 225.678204 138.462765 
L 226.900548 138.2714 
L 229.345235 137.269681 
L 230.567579 135.804981 
L 231.789923 135.446426 
L 233.012267 135.651121 
L 234.234611 134.539369 
L 235.456955 134.788903 
L 236.679299 135.156463 
L 237.901643 133.446365 
L 239.123987 131.513766 
L 240.346331 133.430328 
L 241.568675 133.066909 
L 242.791019 133.181142 
L 244.013363 132.298182 
L 245.235706 132.919449 
L 246.45805 134.141021 
L 248.902738 133.80254 
L 250.125082 132.48275 
L 251.347426 132.112991 
L 252.56977 131.37997 
L 253.792114 131.194481 
L 255.014458 131.365939 
L 256.236802 132.298182 
L 257.459146 130.201151 
L 258.68149 130.157189 
L 259.903834 133.596708 
L 261.126177 130.270769 
L 262.348521 130.863371 
L 263.570865 132.041082 
L 264.793209 134.050798 
L 266.015553 132.636084 
L 267.237897 132.261637 
L 268.460241 132.948673 
L 269.682585 131.11296 
L 270.904929 130.461632 
L 272.127273 131.234834 
L 273.349617 130.02351 
L 274.571961 126.723655 
L 275.794304 128.355046 
L 277.016648 125.996222 
L 278.238992 127.252482 
L 279.461336 127.003044 
L 281.906024 124.97697 
L 283.128368 123.580656 
L 284.350712 122.98472 
L 286.7954 124.259944 
L 288.017744 124.123038 
L 289.240088 122.100779 
L 290.462432 120.832419 
L 291.684775 121.058401 
L 294.129463 120.419889 
L 295.351807 123.578949 
L 296.574151 122.314711 
L 297.796495 123.119349 
L 299.018839 122.100779 
L 301.463527 122.314711 
L 302.685871 118.953666 
L 303.908215 119.699751 
L 305.130559 117.655758 
L 306.352903 118.445905 
L 307.575246 116.594182 
L 308.79759 117.741745 
L 310.019934 115.834809 
L 311.242278 118.073411 
L 312.464622 117.200489 
L 313.686966 116.821215 
L 314.90931 116.689506 
L 316.131654 115.740979 
L 317.353998 118.277253 
L 318.576342 118.241455 
L 319.798686 115.816318 
L 321.02103 115.471803 
L 322.243373 117.817072 
L 323.465717 115.445813 
L 324.688061 116.235224 
L 325.910405 114.542704 
L 327.132749 116.116364 
L 328.355093 114.013733 
L 329.577437 113.932684 
L 330.799781 116.294527 
L 332.022125 115.136764 
L 333.244469 114.993499 
L 334.466813 113.761757 
L 335.689157 113.399239 
L 336.911501 113.779096 
L 338.133844 113.430092 
L 339.356188 116.355035 
L 340.578532 116.14188 
L 341.800876 115.632307 
L 343.02322 115.935273 
L 344.245564 114.521593 
L 345.467908 114.801726 
L 346.690252 111.88492 
L 347.912596 113.84288 
L 349.13494 114.112439 
L 350.357284 114.210481 
L 351.579628 115.136764 
L 352.801972 114.660716 
L 354.024315 114.801726 
L 355.246659 115.482273 
L 356.469003 114.032505 
L 357.691347 113.976757 
L 358.913691 114.795909 
L 360.136035 113.228403 
L 361.358379 111.892776 
L 362.580723 113.243142 
L 363.803067 111.55887 
L 365.025411 111.877142 
L 366.247755 112.983426 
L 367.470099 110.672448 
L 368.692442 111.224963 
L 369.914786 110.334545 
L 371.13713 111.116302 
L 372.359474 109.227135 
L 373.581818 108.123441 
L 373.581818 108.123441 
" style="fill:none;stroke:#00008b;stroke-linecap:square;stroke-width:1.5;"/>
   </g>
   <g id="line2d_14">
    <path clip-path="url(#p151de17c86)" d="M 69.218182 242.116364 
L 70.440526 242.116364 
L 71.66287 176.225455 
L 72.885214 192.698182 
L 74.107558 213.877403 
L 75.329901 213.877403 
L 76.552245 217.407273 
L 77.774589 220.152727 
L 78.996933 224.146116 
L 80.219277 229.761818 
L 81.441621 202.581818 
L 82.663965 202.581818 
L 83.886309 194.402257 
L 85.108653 184.727507 
L 86.330997 190.097225 
L 87.553341 170.617718 
L 88.775685 166.411915 
L 89.998028 173.360632 
L 91.220372 174.98223 
L 92.442716 184.335105 
L 93.66506 183.649782 
L 94.887404 182.06389 
L 96.109748 177.757801 
L 97.332092 180.837818 
L 98.554436 179.220496 
L 99.77678 176.783852 
L 100.999124 179.945103 
L 102.221468 180.822495 
L 103.443812 180.343636 
L 104.666156 177.208901 
L 105.888499 172.107273 
L 107.110843 176.225455 
L 108.333187 172.991545 
L 109.555531 173.106358 
L 110.777875 171.212016 
L 113.222563 170.705797 
L 114.444907 172.06729 
L 115.667251 172.564848 
L 116.889595 170.47079 
L 118.111939 174.010634 
L 119.334283 174.938523 
L 120.556627 175.493333 
L 121.77897 172.682933 
L 123.001314 173.360632 
L 124.223658 174.98223 
L 125.446002 175.830898 
L 126.668346 173.913493 
L 129.113034 176.752582 
L 131.557722 175.587286 
L 132.780066 175.448439 
L 134.00241 177.290666 
L 135.224754 177.248152 
L 136.447097 178.063613 
L 138.891785 176.888341 
L 140.114129 179.326203 
L 141.336473 179.062245 
L 142.558817 181.642872 
L 143.781161 180.896825 
L 147.448193 179.301152 
L 148.670537 180.321692 
L 149.892881 178.70522 
L 151.115225 180.409004 
L 152.337568 179.5314 
L 153.559912 181.726117 
L 154.782256 182.642656 
L 156.0046 178.764159 
L 157.226944 181.106263 
L 158.449288 179.158954 
L 159.671632 178.033781 
L 160.893976 179.854558 
L 162.11632 180.469276 
L 163.338664 179.980895 
L 165.783352 180.154214 
L 167.005696 181.345356 
L 168.228039 182.298877 
L 169.450383 181.164466 
L 170.672727 182.916614 
L 171.895071 180.364612 
L 173.117415 182.307692 
L 174.339759 181.604304 
L 175.562103 180.700219 
L 176.784447 181.707041 
L 178.006791 181.320112 
L 179.229135 180.426553 
L 180.451479 182.713863 
L 181.673823 182.378256 
L 182.896166 182.20528 
L 184.11851 181.320112 
L 185.340854 181.735104 
L 186.563198 183.014889 
L 187.785542 182.114524 
L 189.007886 182.215537 
L 190.23023 182.543761 
L 191.452574 182.74708 
L 192.674918 182.780639 
L 193.897262 184.037263 
L 195.119606 184.489738 
L 196.34195 185.733203 
L 197.564294 184.629907 
L 198.786637 186.594075 
L 200.008981 185.306218 
L 201.231325 185.925132 
L 202.453669 186.781334 
L 203.676013 186.020049 
L 204.898357 186.88923 
L 206.120701 186.177727 
L 207.343045 187.991688 
L 208.565389 186.849375 
L 209.787733 189.49359 
L 211.010077 188.636413 
L 212.232421 189.162438 
L 213.454765 188.974894 
L 214.677108 189.820251 
L 215.899452 188.572984 
L 217.121796 189.292895 
L 218.34414 188.935376 
L 219.566484 188.985631 
L 220.788828 189.469858 
L 222.011172 189.336401 
L 223.233516 187.773346 
L 224.45586 188.781395 
L 225.678204 188.960672 
L 226.900548 188.357396 
L 228.122892 186.928546 
L 229.345235 187.355676 
L 230.567579 188.296226 
L 231.789923 188.448052 
L 233.012267 186.849375 
L 234.234611 187.65551 
L 235.456955 187.773346 
L 236.679299 186.94401 
L 237.901643 187.781364 
L 239.123987 188.327866 
L 240.346331 188.11299 
L 241.568675 188.085818 
L 242.791019 186.820978 
L 244.013363 188.538402 
L 245.235706 188.504626 
L 246.45805 189.313375 
L 248.902738 187.282491 
L 250.125082 187.964003 
L 251.347426 189.781426 
L 252.56977 188.566227 
L 253.792114 189.138748 
L 255.014458 188.754795 
L 256.236802 188.20562 
L 257.459146 190.132079 
L 258.68149 189.625118 
L 259.903834 188.023489 
L 261.126177 190.755245 
L 262.348521 190.794299 
L 263.570865 190.219009 
L 264.793209 188.083581 
L 266.015553 188.727832 
L 267.237897 190.478064 
L 268.460241 189.770972 
L 269.682585 191.1148 
L 270.904929 190.505566 
L 272.127273 189.64564 
L 274.571961 191.276677 
L 275.794304 190.376522 
L 277.016648 191.439654 
L 278.238992 190.694742 
L 279.461336 190.097225 
L 280.68368 191.603742 
L 283.128368 191.509428 
L 284.350712 191.625667 
L 285.573056 191.625667 
L 286.7954 191.509428 
L 288.017744 190.579049 
L 289.240088 192.362004 
L 290.462432 192.530663 
L 291.684775 192.366516 
L 294.129463 192.362004 
L 295.351807 190.463189 
L 296.574151 192.199008 
L 297.796495 191.632782 
L 299.018839 192.698182 
L 300.241183 192.780959 
L 301.463527 191.533444 
L 302.685871 194.82461 
L 303.908215 193.617979 
L 305.130559 195.19405 
L 306.352903 192.781518 
L 307.575246 194.674909 
L 308.79759 194.024844 
L 310.019934 194.634499 
L 311.242278 194.35651 
L 312.464622 193.611795 
L 313.686966 194.319849 
L 314.90931 193.283507 
L 316.131654 194.81007 
L 317.353998 193.788906 
L 318.576342 193.357091 
L 319.798686 196.069472 
L 321.02103 195.546009 
L 322.243373 193.870817 
L 323.465717 195.114923 
L 324.688061 194.583121 
L 325.910405 195.272911 
L 327.132749 194.007273 
L 328.355093 195.95928 
L 329.577437 195.228123 
L 330.799781 192.780959 
L 332.022125 193.870817 
L 333.244469 193.197355 
L 334.466813 195.351507 
L 335.689157 195.160882 
L 336.911501 194.448235 
L 338.133844 195.351507 
L 339.356188 192.949036 
L 341.800876 194.76762 
L 343.02322 193.027636 
L 344.245564 193.855129 
L 345.467908 193.870817 
L 346.690252 196.934026 
L 347.912596 194.096034 
L 349.13494 194.448235 
L 350.357284 193.611795 
L 351.579628 192.195624 
L 352.801972 192.864573 
L 354.024315 192.865701 
L 355.246659 192.355 
L 356.469003 193.370538 
L 357.691347 192.780959 
L 358.913691 192.698182 
L 360.136035 193.699902 
L 361.358379 193.699902 
L 362.580723 192.782084 
L 363.803067 193.699902 
L 366.247755 191.456519 
L 367.470099 193.120559 
L 368.692442 192.698182 
L 369.914786 192.949036 
L 371.13713 192.530663 
L 372.359474 193.944018 
L 373.581818 194.024844 
L 373.581818 194.024844 
" style="fill:none;stroke:#006400;stroke-dasharray:5.55,2.4;stroke-dashoffset:0;stroke-width:1.5;"/>
   </g>
   <g id="line2d_15">
    <path clip-path="url(#p151de17c86)" d="M 69.218182 44.443636 
L 70.440526 143.28 
L 71.66287 176.225455 
L 72.885214 192.698182 
L 74.107558 157.399481 
L 75.329901 157.399481 
L 76.552245 167.989091 
L 77.774589 176.225455 
L 78.996933 188.20562 
L 80.219277 180.343636 
L 81.441621 192.698182 
L 82.663965 202.581818 
L 83.886309 208.034859 
L 85.108653 210.233666 
L 86.330997 216.106794 
L 87.553341 225.293153 
L 88.775685 225.293153 
L 89.998028 224.927431 
L 91.220372 223.467993 
L 92.442716 217.787413 
L 93.66506 217.059257 
L 94.887404 212.090127 
L 96.109748 212.235603 
L 97.332092 206.535273 
L 98.554436 206.175868 
L 99.77678 200.236549 
L 100.999124 200.668856 
L 102.221468 194.613615 
L 103.443812 195.786818 
L 104.666156 196.386106 
L 105.888499 198.189091 
L 107.110843 194.674909 
L 108.333187 193.607719 
L 109.555531 192.990597 
L 110.777875 192.698182 
L 112.000219 194.292317 
L 113.222563 196.579191 
L 114.444907 195.097123 
L 115.667251 195.443636 
L 116.889595 198.09318 
L 118.111939 197.266249 
L 119.334283 197.331136 
L 120.556627 198.189091 
L 121.77897 201.731613 
L 123.001314 203.771821 
L 124.223658 202.954786 
L 125.446002 203.055286 
L 126.668346 203.391005 
L 127.89069 201.048623 
L 129.113034 203.636073 
L 130.335378 201.987314 
L 131.557722 202.868994 
L 132.780066 202.488576 
L 134.00241 203.312249 
L 135.224754 203.984374 
L 136.447097 203.515037 
L 137.669441 202.498412 
L 138.891785 203.138643 
L 140.114129 202.581818 
L 142.558817 203.564512 
L 145.003505 206.308735 
L 146.225849 205.982639 
L 147.448193 204.853103 
L 148.670537 205.250224 
L 149.892881 204.919883 
L 151.115225 203.069899 
L 152.337568 204.154992 
L 153.559912 203.494694 
L 154.782256 202.581818 
L 156.0046 204.38199 
L 157.226944 203.069899 
L 158.449288 203.529564 
L 159.671632 202.107132 
L 160.893976 201.629179 
L 162.11632 201.911741 
L 163.338664 202.513537 
L 164.561008 202.107132 
L 165.783352 202.043017 
L 167.005696 201.045848 
L 168.228039 202.925597 
L 169.450383 203.053269 
L 170.672727 202.649864 
L 171.895071 202.514697 
L 173.117415 202.91972 
L 174.339759 202.111169 
L 176.784447 204.192733 
L 178.006791 202.717676 
L 179.229135 204.30648 
L 180.451479 203.521519 
L 181.673823 204.192733 
L 182.896166 205.221968 
L 184.11851 206.453758 
L 185.340854 205.010562 
L 186.563198 204.718821 
L 187.785542 204.115199 
L 189.007886 204.844738 
L 190.23023 206.57589 
L 191.452574 206.359863 
L 192.674918 207.193052 
L 193.897262 205.77447 
L 195.119606 207.607396 
L 196.34195 204.969811 
L 197.564294 204.800594 
L 198.786637 204.990014 
L 200.008981 205.904049 
L 202.453669 204.781886 
L 203.676013 204.384914 
L 204.898357 204.400273 
L 206.120701 205.395909 
L 209.787733 202.649283 
L 211.010077 204.883487 
L 212.232421 202.647599 
L 213.454765 202.175641 
L 214.677108 203.963225 
L 218.34414 205.324485 
L 219.566484 206.145867 
L 220.788828 205.694253 
L 222.011172 205.809128 
L 223.233516 206.453758 
L 224.45586 208.448665 
L 225.678204 207.565164 
L 226.900548 208.057887 
L 228.122892 210.34156 
L 229.345235 211.063047 
L 230.567579 211.551841 
L 231.789923 210.78207 
L 234.234611 212.53269 
L 235.456955 212.227704 
L 237.901643 213.115474 
L 239.123987 213.877403 
L 240.346331 212.906992 
L 241.568675 213.453818 
L 242.791019 214.303116 
L 244.013363 214.162645 
L 245.235706 213.50151 
L 246.45805 211.653101 
L 247.680394 212.73258 
L 248.902738 213.345504 
L 250.125082 213.212956 
L 251.347426 212.115444 
L 252.56977 214.01907 
L 255.014458 213.925347 
L 256.236802 213.49708 
L 257.459146 213.309785 
L 258.68149 213.54518 
L 259.903834 212.064767 
L 261.126177 212.718881 
L 262.348521 212.647565 
L 263.570865 212.035731 
L 264.793209 212.24731 
L 266.015553 212.718881 
L 267.237897 211.856978 
L 268.460241 212.499892 
L 269.682585 212.448787 
L 270.904929 214.118349 
L 272.127273 213.735972 
L 273.349617 214.596561 
L 274.571961 216.696521 
L 275.794304 216.246443 
L 277.016648 217.28142 
L 278.238992 216.405553 
L 279.461336 217.28142 
L 280.68368 217.196803 
L 281.906024 218.156033 
L 283.128368 218.680937 
L 284.350712 220.006059 
L 285.573056 219.346049 
L 286.7954 219.020581 
L 288.017744 220.07738 
L 289.240088 219.928609 
L 290.462432 220.003821 
L 291.684775 220.889762 
L 294.129463 220.937143 
L 295.351807 219.269767 
L 296.574151 218.821598 
L 300.241183 217.945327 
L 301.463527 218.821598 
L 303.908215 219.706765 
L 305.130559 219.487163 
L 306.352903 220.782376 
L 307.575246 220.701818 
L 308.79759 220.226431 
L 310.019934 221.237813 
L 311.242278 219.563099 
L 312.464622 221.18631 
L 313.686966 221.29074 
L 314.90931 222.048066 
L 316.131654 221.842238 
L 317.353998 220.637493 
L 318.576342 221.031273 
L 319.798686 220.73745 
L 321.02103 221.343975 
L 322.243373 220.673898 
L 323.465717 221.782407 
L 324.688061 221.463989 
L 325.910405 222.515202 
L 327.132749 222.152727 
L 328.355093 222.382538 
L 329.577437 222.888812 
L 330.799781 223.243088 
L 332.022125 223.354206 
L 333.244469 224.146116 
L 334.466813 223.211422 
L 335.689157 224.056563 
L 336.911501 223.782468 
L 338.133844 223.874753 
L 339.356188 223.385953 
L 340.578532 222.684129 
L 341.800876 222.580868 
L 343.02322 223.996364 
L 344.245564 224.596874 
L 346.690252 224.176318 
L 347.912596 225.013232 
L 349.13494 224.449155 
L 350.357284 225.172987 
L 351.579628 225.364438 
L 352.801972 224.478898 
L 355.246659 224.957273 
L 356.469003 224.635102 
L 357.691347 225.560859 
L 358.913691 224.614091 
L 360.136035 224.753219 
L 361.358379 226.088845 
L 362.580723 225.335996 
L 363.803067 226.088845 
L 365.025411 226.580213 
L 366.247755 226.885299 
L 367.470099 226.910769 
L 368.692442 227.090565 
L 369.914786 227.399612 
L 371.13713 227.03963 
L 373.581818 227.854741 
L 373.581818 227.854741 
" style="fill:none;stroke:#8b0000;stroke-dasharray:1.5,2.475;stroke-dashoffset:0;stroke-width:1.5;"/>
   </g>
   <g id="line2d_16">
    <path clip-path="url(#p151de17c86)" d="M 69.218182 242.116364 
L 70.440526 143.28 
L 71.66287 176.225455 
L 72.885214 143.28 
L 74.107558 157.399481 
L 75.329901 157.399481 
L 76.552245 143.28 
L 77.774589 154.261818 
L 78.996933 152.265124 
L 80.219277 143.28 
L 81.441621 153.163636 
L 82.663965 155.140364 
L 83.886309 153.504451 
L 85.108653 159.221349 
L 86.330997 148.481914 
L 87.553341 158.000309 
L 88.775685 162.206112 
L 89.998028 156.1717 
L 91.220372 163.793208 
L 92.442716 166.088392 
L 93.66506 166.945045 
L 94.887404 172.055144 
L 96.109748 177.757801 
L 97.332092 178.861091 
L 98.554436 182.814545 
L 99.77678 190.185393 
L 100.999124 191.104047 
L 102.221468 194.613615 
L 103.443812 194.2425 
L 104.666156 196.386106 
L 105.888499 198.189091 
L 107.110843 198.628364 
L 108.333187 203.309448 
L 109.555531 204.687208 
L 110.777875 204.515573 
L 112.000219 203.857126 
L 113.222563 206.928548 
L 114.444907 207.571615 
L 115.667251 205.510303 
L 116.889595 204.998777 
L 118.111939 203.91071 
L 119.334283 205.824886 
L 120.556627 208.438788 
L 123.001314 206.416272 
L 124.223658 206.68446 
L 125.446002 208.381796 
L 126.668346 210.32689 
L 127.89069 212.54759 
L 129.113034 209.9616 
L 130.335378 210.90488 
L 131.557722 210.527017 
L 132.780066 211.812762 
L 134.00241 211.98611 
L 135.224754 212.31205 
L 136.447097 211.998845 
L 137.669441 213.34122 
L 138.891785 213.877403 
L 140.114129 213.822032 
L 141.336473 214.651073 
L 142.558817 213.769414 
L 143.781161 214.088141 
L 145.003505 214.712566 
L 146.225849 215.901701 
L 148.670537 219.294468 
L 149.892881 219.798475 
L 152.337568 220.57072 
L 153.559912 220.698892 
L 154.782256 222.52098 
L 156.0046 223.42227 
L 157.226944 225.033535 
L 158.449288 226.207771 
L 159.671632 227.197667 
L 160.893976 226.465855 
L 162.11632 227.709707 
L 164.561008 227.197667 
L 165.783352 227.972829 
L 167.005696 228.426192 
L 168.228039 228.021439 
L 169.450383 228.983082 
L 170.672727 228.847454 
L 171.895071 229.027677 
L 173.117415 228.60028 
L 174.339759 228.669239 
L 175.562103 229.363284 
L 176.784447 229.363284 
L 178.006791 229.209897 
L 179.229135 229.181403 
L 180.451479 228.69207 
L 181.673823 229.698892 
L 182.896166 229.931059 
L 184.11851 230.568472 
L 185.340854 230.647298 
L 186.563198 231.431351 
L 189.007886 233.464022 
L 190.23023 232.638904 
L 191.452574 234.020552 
L 193.897262 232.606336 
L 195.119606 232.400247 
L 196.34195 232.829725 
L 197.564294 232.703377 
L 200.008981 232.149672 
L 201.231325 233.08563 
L 202.453669 233.116088 
L 204.898357 233.697593 
L 206.120701 234.223182 
L 207.343045 234.048089 
L 208.565389 234.657015 
L 209.787733 235.032529 
L 211.010077 235.008269 
L 212.232421 235.867143 
L 213.454765 236.023711 
L 215.899452 235.718098 
L 217.121796 236.468571 
L 218.34414 236.095874 
L 219.566484 235.846277 
L 220.788828 236.156382 
L 222.011172 236.065158 
L 223.233516 236.342418 
L 224.45586 235.782836 
L 225.678204 235.804125 
L 226.900548 236.106044 
L 228.122892 235.761403 
L 229.345235 235.104324 
L 230.567579 235.139679 
L 231.789923 236.11618 
L 233.012267 236.691383 
L 234.234611 236.065158 
L 236.679299 236.023711 
L 237.901643 236.449523 
L 239.123987 237.073692 
L 240.346331 236.342418 
L 241.568675 236.186182 
L 242.791019 236.487492 
L 244.013363 235.793499 
L 245.235706 235.867143 
L 246.45805 235.68523 
L 247.680394 235.772138 
L 248.902738 236.362192 
L 250.125082 237.133018 
L 251.347426 236.782867 
L 252.56977 236.827461 
L 253.792114 236.487492 
L 255.014458 236.746646 
L 256.236802 236.791846 
L 258.68149 237.465241 
L 259.903834 237.107764 
L 261.126177 237.047832 
L 262.348521 236.487492 
L 264.793209 236.411039 
L 266.015553 236.70993 
L 268.460241 235.57319 
L 269.682585 236.11618 
L 270.904929 235.70718 
L 272.127273 236.176282 
L 273.349617 235.739824 
L 274.571961 236.095874 
L 275.794304 235.814716 
L 278.238992 236.439951 
L 279.461336 236.411039 
L 280.68368 236.054849 
L 281.906024 236.126281 
L 283.128368 237.021706 
L 284.350712 236.176282 
L 285.573056 236.176282 
L 286.7954 236.002774 
L 288.017744 236.013261 
L 289.240088 236.401336 
L 290.462432 237.425824 
L 291.684775 236.478048 
L 294.129463 237.073692 
L 295.351807 237.480822 
L 297.796495 237.526947 
L 299.018839 237.746048 
L 300.241183 237.811932 
L 301.463527 238.122975 
L 302.685871 237.693394 
L 303.908215 237.768233 
L 305.130559 238.455758 
L 306.352903 238.782928 
L 308.79759 238.799707 
L 310.019934 239.085606 
L 311.242278 238.799707 
L 312.464622 238.794133 
L 313.686966 238.360923 
L 314.90931 238.771647 
L 317.353998 238.089075 
L 319.798686 238.169487 
L 321.02103 238.43094 
L 328.355093 238.437176 
L 329.577437 238.743109 
L 330.799781 238.474153 
L 333.244469 238.455758 
L 334.466813 238.468041 
L 335.689157 238.176043 
L 336.911501 238.782928 
L 338.133844 238.136376 
L 340.578532 238.095901 
L 341.800876 237.811932 
L 344.245564 237.81913 
L 346.690252 237.797464 
L 349.13494 237.782897 
L 350.357284 237.797464 
L 351.579628 238.095901 
L 352.801972 238.78854 
L 355.246659 237.998182 
L 356.469003 238.754583 
L 357.691347 238.474153 
L 358.913691 238.684545 
L 360.136035 239.111204 
L 361.358379 239.111204 
L 362.580723 239.431505 
L 363.803067 239.445111 
L 365.025411 239.802469 
L 366.247755 239.467483 
L 367.470099 240.088951 
L 368.692442 239.779017 
L 369.914786 240.109534 
L 372.359474 240.123025 
L 373.581818 240.789701 
L 373.581818 240.789701 
" style="fill:none;stroke:#000000;stroke-dasharray:9.6,2.4,1.5,2.4;stroke-dashoffset:0;stroke-width:1.5;"/>
   </g>
   <g id="patch_3">
    <path d="M 54 252 
L 54 34.56 
" style="fill:none;stroke:#000000;stroke-linecap:square;stroke-linejoin:miter;stroke-width:0.8;"/>
   </g>
   <g id="patch_4">
    <path d="M 388.8 252 
L 388.8 34.56 
" style="fill:none;stroke:#000000;stroke-linecap:square;stroke-linejoin:miter;stroke-width:0.8;"/>
   </g>
   <g id="patch_5">
    <path d="M 54 252 
L 388.8 252 
" style="fill:none;stroke:#000000;stroke-linecap:square;stroke-linejoin:miter;stroke-width:0.8;"/>
   </g>
   <g id="patch_6">
    <path d="M 54 34.56 
L 388.8 34.56 
" style="fill:none;stroke:#000000;stroke-linecap:square;stroke-linejoin:miter;stroke-width:0.8;"/>
   </g>
   <g id="legend_1">
    <g id="patch_7">
     <path d="M 303.684375 101.2725 
L 381.8 101.2725 
Q 383.8 101.2725 383.8 99.2725 
L 383.8 41.56 
Q 383.8 39.56 381.8 39.56 
L 303.684375 39.56 
Q 301.684375 39.56 301.684375 41.56 
L 301.684375 99.2725 
Q 301.684375 101.2725 303.684375 101.2725 
z
" style="fill:#ffffff;opacity:0.8;stroke:#cccccc;stroke-linejoin:miter;"/>
    </g>
    <g id="line2d_17">
     <path d="M 305.684375 47.658437 
L 325.684375 47.658437 
" style="fill:none;stroke:#00008b;stroke-linecap:square;stroke-width:1.5;"/>
    </g>
    <g id="line2d_18"/>
    <g id="text_15">
     <!-- Believers -->
     <defs>
      <path d="M 19.671875 34.8125 
L 19.671875 8.109375 
L 35.5 8.109375 
Q 43.453125 8.109375 47.28125 11.40625 
Q 51.125 14.703125 51.125 21.484375 
Q 51.125 28.328125 47.28125 31.5625 
Q 43.453125 34.8125 35.5 34.8125 
z
M 19.671875 64.796875 
L 19.671875 42.828125 
L 34.28125 42.828125 
Q 41.5 42.828125 45.03125 45.53125 
Q 48.578125 48.25 48.578125 53.8125 
Q 48.578125 59.328125 45.03125 62.0625 
Q 41.5 64.796875 34.28125 64.796875 
z
M 9.8125 72.90625 
L 35.015625 72.90625 
Q 46.296875 72.90625 52.390625 68.21875 
Q 58.5 63.53125 58.5 54.890625 
Q 58.5 48.1875 55.375 44.234375 
Q 52.25 40.28125 46.1875 39.3125 
Q 53.46875 37.75 57.5 32.78125 
Q 61.53125 27.828125 61.53125 20.40625 
Q 61.53125 10.640625 54.890625 5.3125 
Q 48.25 0 35.984375 0 
L 9.8125 0 
z
" id="DejaVuSans-66"/>
      <path d="M 2.984375 54.6875 
L 12.5 54.6875 
L 29.59375 8.796875 
L 46.6875 54.6875 
L 56.203125 54.6875 
L 35.6875 0 
L 23.484375 0 
z
" id="DejaVuSans-118"/>
      <path d="M 44.28125 53.078125 
L 44.28125 44.578125 
Q 40.484375 46.53125 36.375 47.5 
Q 32.28125 48.484375 27.875 48.484375 
Q 21.1875 48.484375 17.84375 46.4375 
Q 14.5 44.390625 14.5 40.28125 
Q 14.5 37.15625 16.890625 35.375 
Q 19.28125 33.59375 26.515625 31.984375 
L 29.59375 31.296875 
Q 39.15625 29.25 43.1875 25.515625 
Q 47.21875 21.78125 47.21875 15.09375 
Q 47.21875 7.46875 41.1875 3.015625 
Q 35.15625 -1.421875 24.609375 -1.421875 
Q 20.21875 -1.421875 15.453125 -0.5625 
Q 10.6875 0.296875 5.421875 2 
L 5.421875 11.28125 
Q 10.40625 8.6875 15.234375 7.390625 
Q 20.0625 6.109375 24.8125 6.109375 
Q 31.15625 6.109375 34.5625 8.28125 
Q 37.984375 10.453125 37.984375 14.40625 
Q 37.984375 18.0625 35.515625 20.015625 
Q 33.0625 21.96875 24.703125 23.78125 
L 21.578125 24.515625 
Q 13.234375 26.265625 9.515625 29.90625 
Q 5.8125 33.546875 5.8125 39.890625 
Q 5.8125 47.609375 11.28125 51.796875 
Q 16.75 56 26.8125 56 
Q 31.78125 56 36.171875 55.265625 
Q 40.578125 54.546875 44.28125 53.078125 
z
" id="DejaVuSans-115"/>
     </defs>
     <g transform="translate(333.684375 51.158437)scale(0.1 -0.1)">
      <use xlink:href="#DejaVuSans-66"/>
      <use x="68.603516" xlink:href="#DejaVuSans-101"/>
      <use x="130.126953" xlink:href="#DejaVuSans-108"/>
      <use x="157.910156" xlink:href="#DejaVuSans-105"/>
      <use x="185.693359" xlink:href="#DejaVuSans-101"/>
      <use x="247.216797" xlink:href="#DejaVuSans-118"/>
      <use x="306.396484" xlink:href="#DejaVuSans-101"/>
      <use x="367.919922" xlink:href="#DejaVuSans-114"/>
      <use x="409.033203" xlink:href="#DejaVuSans-115"/>
     </g>
    </g>
    <g id="line2d_19">
     <path d="M 305.684375 62.336562 
L 325.684375 62.336562 
" style="fill:none;stroke:#006400;stroke-dasharray:5.55,2.4;stroke-dashoffset:0;stroke-width:1.5;"/>
    </g>
    <g id="line2d_20"/>
    <g id="text_16">
     <!-- Saints -->
     <g transform="translate(333.684375 65.836562)scale(0.1 -0.1)">
      <use xlink:href="#DejaVuSans-83"/>
      <use x="63.476562" xlink:href="#DejaVuSans-97"/>
      <use x="124.755859" xlink:href="#DejaVuSans-105"/>
      <use x="152.539062" xlink:href="#DejaVuSans-110"/>
      <use x="215.917969" xlink:href="#DejaVuSans-116"/>
      <use x="255.126953" xlink:href="#DejaVuSans-115"/>
     </g>
    </g>
    <g id="line2d_21">
     <path d="M 305.684375 77.014687 
L 325.684375 77.014687 
" style="fill:none;stroke:#8b0000;stroke-dasharray:1.5,2.475;stroke-dashoffset:0;stroke-width:1.5;"/>
    </g>
    <g id="line2d_22"/>
    <g id="text_17">
     <!-- Sinners -->
     <g transform="translate(333.684375 80.514687)scale(0.1 -0.1)">
      <use xlink:href="#DejaVuSans-83"/>
      <use x="63.476562" xlink:href="#DejaVuSans-105"/>
      <use x="91.259766" xlink:href="#DejaVuSans-110"/>
      <use x="154.638672" xlink:href="#DejaVuSans-110"/>
      <use x="218.017578" xlink:href="#DejaVuSans-101"/>
      <use x="279.541016" xlink:href="#DejaVuSans-114"/>
      <use x="320.654297" xlink:href="#DejaVuSans-115"/>
     </g>
    </g>
    <g id="line2d_23">
     <path d="M 305.684375 91.692813 
L 325.684375 91.692813 
" style="fill:none;stroke:#000000;stroke-dasharray:9.6,2.4,1.5,2.4;stroke-dashoffset:0;stroke-width:1.5;"/>
    </g>
    <g id="line2d_24"/>
    <g id="text_18">
     <!-- Heretics -->
     <defs>
      <path d="M 9.8125 72.90625 
L 19.671875 72.90625 
L 19.671875 43.015625 
L 55.515625 43.015625 
L 55.515625 72.90625 
L 65.375 72.90625 
L 65.375 0 
L 55.515625 0 
L 55.515625 34.71875 
L 19.671875 34.71875 
L 19.671875 0 
L 9.8125 0 
z
" id="DejaVuSans-72"/>
      <path d="M 48.78125 52.59375 
L 48.78125 44.1875 
Q 44.96875 46.296875 41.140625 47.34375 
Q 37.3125 48.390625 33.40625 48.390625 
Q 24.65625 48.390625 19.8125 42.84375 
Q 14.984375 37.3125 14.984375 27.296875 
Q 14.984375 17.28125 19.8125 11.734375 
Q 24.65625 6.203125 33.40625 6.203125 
Q 37.3125 6.203125 41.140625 7.25 
Q 44.96875 8.296875 48.78125 10.40625 
L 48.78125 2.09375 
Q 45.015625 0.34375 40.984375 -0.53125 
Q 36.96875 -1.421875 32.421875 -1.421875 
Q 20.0625 -1.421875 12.78125 6.34375 
Q 5.515625 14.109375 5.515625 27.296875 
Q 5.515625 40.671875 12.859375 48.328125 
Q 20.21875 56 33.015625 56 
Q 37.15625 56 41.109375 55.140625 
Q 45.0625 54.296875 48.78125 52.59375 
z
" id="DejaVuSans-99"/>
     </defs>
     <g transform="translate(333.684375 95.192813)scale(0.1 -0.1)">
      <use xlink:href="#DejaVuSans-72"/>
      <use x="75.195312" xlink:href="#DejaVuSans-101"/>
      <use x="136.71875" xlink:href="#DejaVuSans-114"/>
      <use x="175.582031" xlink:href="#DejaVuSans-101"/>
      <use x="237.105469" xlink:href="#DejaVuSans-116"/>
      <use x="276.314453" xlink:href="#DejaVuSans-105"/>
      <use x="304.097656" xlink:href="#DejaVuSans-99"/>
      <use x="359.078125" xlink:href="#DejaVuSans-115"/>
     </g>
    </g>
   </g>
  </g>
 </g>
 <defs>
  <clipPath id="p151de17c86">
   <rect height="217.44" width="334.8" x="54" y="34.56"/>
  </clipPath>
 </defs>
</svg>
