<?xml version="1.0" encoding="utf-8" standalone="no"?>
<!DOCTYPE svg PUBLIC "-//W3C//DTD SVG 1.1//EN"
  "http://www.w3.org/Graphics/SVG/1.1/DTD/svg11.dtd">
<!-- Created with matplotlib (https://matplotlib.org/) -->
<svg height="288pt" version="1.1" viewBox="0 0 432 288" width="432pt" xmlns="http://www.w3.org/2000/svg" xmlns:xlink="http://www.w3.org/1999/xlink">
 <defs>
  <style type="text/css">
*{stroke-linecap:butt;stroke-linejoin:round;}
  </style>
 </defs>
 <g id="figure_1">
  <g id="patch_1">
   <path d="M 0 288 
L 432 288 
L 432 0 
L 0 0 
z
" style="fill:#ffffff;"/>
  </g>
  <g id="axes_1">
   <g id="patch_2">
    <path d="M 54 252 
L 388.8 252 
L 388.8 34.56 
L 54 34.56 
z
" style="fill:#ffffff;"/>
   </g>
   <g id="matplotlib.axis_1">
    <g id="xtick_1">
     <g id="line2d_1">
      <defs>
       <path d="M 0 0 
L 0 3.5 
" id="m5e46584635" style="stroke:#000000;stroke-width:0.8;"/>
      </defs>
      <g>
       <use style="stroke:#000000;stroke-width:0.8;" x="69.218182" xlink:href="#m5e46584635" y="252"/>
      </g>
     </g>
     <g id="text_1">
      <!-- 0 -->
      <defs>
       <path d="M 31.78125 66.40625 
Q 24.171875 66.40625 20.328125 58.90625 
Q 16.5 51.421875 16.5 36.375 
Q 16.5 21.390625 20.328125 13.890625 
Q 24.171875 6.390625 31.78125 6.390625 
Q 39.453125 6.390625 43.28125 13.890625 
Q 47.125 21.390625 47.125 36.375 
Q 47.125 51.421875 43.28125 58.90625 
Q 39.453125 66.40625 31.78125 66.40625 
z
M 31.78125 74.21875 
Q 44.046875 74.21875 50.515625 64.515625 
Q 56.984375 54.828125 56.984375 36.375 
Q 56.984375 17.96875 50.515625 8.265625 
Q 44.046875 -1.421875 31.78125 -1.421875 
Q 19.53125 -1.421875 13.0625 8.265625 
Q 6.59375 17.96875 6.59375 36.375 
Q 6.59375 54.828125 13.0625 64.515625 
Q 19.53125 74.21875 31.78125 74.21875 
z
" id="DejaVuSans-48"/>
      </defs>
      <g transform="translate(66.036932 266.598437)scale(0.1 -0.1)">
       <use xlink:href="#DejaVuSans-48"/>
      </g>
     </g>
    </g>
    <g id="xtick_2">
     <g id="line2d_2">
      <g>
       <use style="stroke:#000000;stroke-width:0.8;" x="143.456836" xlink:href="#m5e46584635" y="252"/>
      </g>
     </g>
     <g id="text_2">
      <!-- 5000 -->
      <defs>
       <path d="M 10.796875 72.90625 
L 49.515625 72.90625 
L 49.515625 64.59375 
L 19.828125 64.59375 
L 19.828125 46.734375 
Q 21.96875 47.46875 24.109375 47.828125 
Q 26.265625 48.1875 28.421875 48.1875 
Q 40.625 48.1875 47.75 41.5 
Q 54.890625 34.8125 54.890625 23.390625 
Q 54.890625 11.625 47.5625 5.09375 
Q 40.234375 -1.421875 26.90625 -1.421875 
Q 22.3125 -1.421875 17.546875 -0.640625 
Q 12.796875 0.140625 7.71875 1.703125 
L 7.71875 11.625 
Q 12.109375 9.234375 16.796875 8.0625 
Q 21.484375 6.890625 26.703125 6.890625 
Q 35.15625 6.890625 40.078125 11.328125 
Q 45.015625 15.765625 45.015625 23.390625 
Q 45.015625 31 40.078125 35.4375 
Q 35.15625 39.890625 26.703125 39.890625 
Q 22.75 39.890625 18.8125 39.015625 
Q 14.890625 38.140625 10.796875 36.28125 
z
" id="DejaVuSans-53"/>
      </defs>
      <g transform="translate(130.731836 266.598437)scale(0.1 -0.1)">
       <use xlink:href="#DejaVuSans-53"/>
       <use x="63.623047" xlink:href="#DejaVuSans-48"/>
       <use x="127.246094" xlink:href="#DejaVuSans-48"/>
       <use x="190.869141" xlink:href="#DejaVuSans-48"/>
      </g>
     </g>
    </g>
    <g id="xtick_3">
     <g id="line2d_3">
      <g>
       <use style="stroke:#000000;stroke-width:0.8;" x="217.695491" xlink:href="#m5e46584635" y="252"/>
      </g>
     </g>
     <g id="text_3">
      <!-- 10000 -->
      <defs>
       <path d="M 12.40625 8.296875 
L 28.515625 8.296875 
L 28.515625 63.921875 
L 10.984375 60.40625 
L 10.984375 69.390625 
L 28.421875 72.90625 
L 38.28125 72.90625 
L 38.28125 8.296875 
L 54.390625 8.296875 
L 54.390625 0 
L 12.40625 0 
z
" id="DejaVuSans-49"/>
      </defs>
      <g transform="translate(201.789241 266.598437)scale(0.1 -0.1)">
       <use xlink:href="#DejaVuSans-49"/>
       <use x="63.623047" xlink:href="#DejaVuSans-48"/>
       <use x="127.246094" xlink:href="#DejaVuSans-48"/>
       <use x="190.869141" xlink:href="#DejaVuSans-48"/>
       <use x="254.492188" xlink:href="#DejaVuSans-48"/>
      </g>
     </g>
    </g>
    <g id="xtick_4">
     <g id="line2d_4">
      <g>
       <use style="stroke:#000000;stroke-width:0.8;" x="291.934146" xlink:href="#m5e46584635" y="252"/>
      </g>
     </g>
     <g id="text_4">
      <!-- 15000 -->
      <g transform="translate(276.027896 266.598437)scale(0.1 -0.1)">
       <use xlink:href="#DejaVuSans-49"/>
       <use x="63.623047" xlink:href="#DejaVuSans-53"/>
       <use x="127.246094" xlink:href="#DejaVuSans-48"/>
       <use x="190.869141" xlink:href="#DejaVuSans-48"/>
       <use x="254.492188" xlink:href="#DejaVuSans-48"/>
      </g>
     </g>
    </g>
    <g id="xtick_5">
     <g id="line2d_5">
      <g>
       <use style="stroke:#000000;stroke-width:0.8;" x="366.1728" xlink:href="#m5e46584635" y="252"/>
      </g>
     </g>
     <g id="text_5">
      <!-- 20000 -->
      <defs>
       <path d="M 19.1875 8.296875 
L 53.609375 8.296875 
L 53.609375 0 
L 7.328125 0 
L 7.328125 8.296875 
Q 12.9375 14.109375 22.625 23.890625 
Q 32.328125 33.6875 34.8125 36.53125 
Q 39.546875 41.84375 41.421875 45.53125 
Q 43.3125 49.21875 43.3125 52.78125 
Q 43.3125 58.59375 39.234375 62.25 
Q 35.15625 65.921875 28.609375 65.921875 
Q 23.96875 65.921875 18.8125 64.3125 
Q 13.671875 62.703125 7.8125 59.421875 
L 7.8125 69.390625 
Q 13.765625 71.78125 18.9375 73 
Q 24.125 74.21875 28.421875 74.21875 
Q 39.75 74.21875 46.484375 68.546875 
Q 53.21875 62.890625 53.21875 53.421875 
Q 53.21875 48.921875 51.53125 44.890625 
Q 49.859375 40.875 45.40625 35.40625 
Q 44.1875 33.984375 37.640625 27.21875 
Q 31.109375 20.453125 19.1875 8.296875 
z
" id="DejaVuSans-50"/>
      </defs>
      <g transform="translate(350.26655 266.598437)scale(0.1 -0.1)">
       <use xlink:href="#DejaVuSans-50"/>
       <use x="63.623047" xlink:href="#DejaVuSans-48"/>
       <use x="127.246094" xlink:href="#DejaVuSans-48"/>
       <use x="190.869141" xlink:href="#DejaVuSans-48"/>
       <use x="254.492188" xlink:href="#DejaVuSans-48"/>
      </g>
     </g>
    </g>
    <g id="text_6">
     <!-- Simulation Time -->
     <defs>
      <path d="M 53.515625 70.515625 
L 53.515625 60.890625 
Q 47.90625 63.578125 42.921875 64.890625 
Q 37.9375 66.21875 33.296875 66.21875 
Q 25.25 66.21875 20.875 63.09375 
Q 16.5 59.96875 16.5 54.203125 
Q 16.5 49.359375 19.40625 46.890625 
Q 22.3125 44.4375 30.421875 42.921875 
L 36.375 41.703125 
Q 47.40625 39.59375 52.65625 34.296875 
Q 57.90625 29 57.90625 20.125 
Q 57.90625 9.515625 50.796875 4.046875 
Q 43.703125 -1.421875 29.984375 -1.421875 
Q 24.8125 -1.421875 18.96875 -0.25 
Q 13.140625 0.921875 6.890625 3.21875 
L 6.890625 13.375 
Q 12.890625 10.015625 18.65625 8.296875 
Q 24.421875 6.59375 29.984375 6.59375 
Q 38.421875 6.59375 43.015625 9.90625 
Q 47.609375 13.234375 47.609375 19.390625 
Q 47.609375 24.75 44.3125 27.78125 
Q 41.015625 30.8125 33.5 32.328125 
L 27.484375 33.5 
Q 16.453125 35.6875 11.515625 40.375 
Q 6.59375 45.0625 6.59375 53.421875 
Q 6.59375 63.09375 13.40625 68.65625 
Q 20.21875 74.21875 32.171875 74.21875 
Q 37.3125 74.21875 42.625 73.28125 
Q 47.953125 72.359375 53.515625 70.515625 
z
" id="DejaVuSans-83"/>
      <path d="M 9.421875 54.6875 
L 18.40625 54.6875 
L 18.40625 0 
L 9.421875 0 
z
M 9.421875 75.984375 
L 18.40625 75.984375 
L 18.40625 64.59375 
L 9.421875 64.59375 
z
" id="DejaVuSans-105"/>
      <path d="M 52 44.1875 
Q 55.375 50.25 60.0625 53.125 
Q 64.75 56 71.09375 56 
Q 79.640625 56 84.28125 50.015625 
Q 88.921875 44.046875 88.921875 33.015625 
L 88.921875 0 
L 79.890625 0 
L 79.890625 32.71875 
Q 79.890625 40.578125 77.09375 44.375 
Q 74.3125 48.1875 68.609375 48.1875 
Q 61.625 48.1875 57.5625 43.546875 
Q 53.515625 38.921875 53.515625 30.90625 
L 53.515625 0 
L 44.484375 0 
L 44.484375 32.71875 
Q 44.484375 40.625 41.703125 44.40625 
Q 38.921875 48.1875 33.109375 48.1875 
Q 26.21875 48.1875 22.15625 43.53125 
Q 18.109375 38.875 18.109375 30.90625 
L 18.109375 0 
L 9.078125 0 
L 9.078125 54.6875 
L 18.109375 54.6875 
L 18.109375 46.1875 
Q 21.1875 51.21875 25.484375 53.609375 
Q 29.78125 56 35.6875 56 
Q 41.65625 56 45.828125 52.96875 
Q 50 49.953125 52 44.1875 
z
" id="DejaVuSans-109"/>
      <path d="M 8.5 21.578125 
L 8.5 54.6875 
L 17.484375 54.6875 
L 17.484375 21.921875 
Q 17.484375 14.15625 20.5 10.265625 
Q 23.53125 6.390625 29.59375 6.390625 
Q 36.859375 6.390625 41.078125 11.03125 
Q 45.3125 15.671875 45.3125 23.6875 
L 45.3125 54.6875 
L 54.296875 54.6875 
L 54.296875 0 
L 45.3125 0 
L 45.3125 8.40625 
Q 42.046875 3.421875 37.71875 1 
Q 33.40625 -1.421875 27.6875 -1.421875 
Q 18.265625 -1.421875 13.375 4.4375 
Q 8.5 10.296875 8.5 21.578125 
z
M 31.109375 56 
z
" id="DejaVuSans-117"/>
      <path d="M 9.421875 75.984375 
L 18.40625 75.984375 
L 18.40625 0 
L 9.421875 0 
z
" id="DejaVuSans-108"/>
      <path d="M 34.28125 27.484375 
Q 23.390625 27.484375 19.1875 25 
Q 14.984375 22.515625 14.984375 16.5 
Q 14.984375 11.71875 18.140625 8.90625 
Q 21.296875 6.109375 26.703125 6.109375 
Q 34.1875 6.109375 38.703125 11.40625 
Q 43.21875 16.703125 43.21875 25.484375 
L 43.21875 27.484375 
z
M 52.203125 31.203125 
L 52.203125 0 
L 43.21875 0 
L 43.21875 8.296875 
Q 40.140625 3.328125 35.546875 0.953125 
Q 30.953125 -1.421875 24.3125 -1.421875 
Q 15.921875 -1.421875 10.953125 3.296875 
Q 6 8.015625 6 15.921875 
Q 6 25.140625 12.171875 29.828125 
Q 18.359375 34.515625 30.609375 34.515625 
L 43.21875 34.515625 
L 43.21875 35.40625 
Q 43.21875 41.609375 39.140625 45 
Q 35.0625 48.390625 27.6875 48.390625 
Q 23 48.390625 18.546875 47.265625 
Q 14.109375 46.140625 10.015625 43.890625 
L 10.015625 52.203125 
Q 14.9375 54.109375 19.578125 55.046875 
Q 24.21875 56 28.609375 56 
Q 40.484375 56 46.34375 49.84375 
Q 52.203125 43.703125 52.203125 31.203125 
z
" id="DejaVuSans-97"/>
      <path d="M 18.3125 70.21875 
L 18.3125 54.6875 
L 36.8125 54.6875 
L 36.8125 47.703125 
L 18.3125 47.703125 
L 18.3125 18.015625 
Q 18.3125 11.328125 20.140625 9.421875 
Q 21.96875 7.515625 27.59375 7.515625 
L 36.8125 7.515625 
L 36.8125 0 
L 27.59375 0 
Q 17.1875 0 13.234375 3.875 
Q 9.28125 7.765625 9.28125 18.015625 
L 9.28125 47.703125 
L 2.6875 47.703125 
L 2.6875 54.6875 
L 9.28125 54.6875 
L 9.28125 70.21875 
z
" id="DejaVuSans-116"/>
      <path d="M 30.609375 48.390625 
Q 23.390625 48.390625 19.1875 42.75 
Q 14.984375 37.109375 14.984375 27.296875 
Q 14.984375 17.484375 19.15625 11.84375 
Q 23.34375 6.203125 30.609375 6.203125 
Q 37.796875 6.203125 41.984375 11.859375 
Q 46.1875 17.53125 46.1875 27.296875 
Q 46.1875 37.015625 41.984375 42.703125 
Q 37.796875 48.390625 30.609375 48.390625 
z
M 30.609375 56 
Q 42.328125 56 49.015625 48.375 
Q 55.71875 40.765625 55.71875 27.296875 
Q 55.71875 13.875 49.015625 6.21875 
Q 42.328125 -1.421875 30.609375 -1.421875 
Q 18.84375 -1.421875 12.171875 6.21875 
Q 5.515625 13.875 5.515625 27.296875 
Q 5.515625 40.765625 12.171875 48.375 
Q 18.84375 56 30.609375 56 
z
" id="DejaVuSans-111"/>
      <path d="M 54.890625 33.015625 
L 54.890625 0 
L 45.90625 0 
L 45.90625 32.71875 
Q 45.90625 40.484375 42.875 44.328125 
Q 39.84375 48.1875 33.796875 48.1875 
Q 26.515625 48.1875 22.3125 43.546875 
Q 18.109375 38.921875 18.109375 30.90625 
L 18.109375 0 
L 9.078125 0 
L 9.078125 54.6875 
L 18.109375 54.6875 
L 18.109375 46.1875 
Q 21.34375 51.125 25.703125 53.5625 
Q 30.078125 56 35.796875 56 
Q 45.21875 56 50.046875 50.171875 
Q 54.890625 44.34375 54.890625 33.015625 
z
" id="DejaVuSans-110"/>
      <path id="DejaVuSans-32"/>
      <path d="M -0.296875 72.90625 
L 61.375 72.90625 
L 61.375 64.59375 
L 35.5 64.59375 
L 35.5 0 
L 25.59375 0 
L 25.59375 64.59375 
L -0.296875 64.59375 
z
" id="DejaVuSans-84"/>
      <path d="M 56.203125 29.59375 
L 56.203125 25.203125 
L 14.890625 25.203125 
Q 15.484375 15.921875 20.484375 11.0625 
Q 25.484375 6.203125 34.421875 6.203125 
Q 39.59375 6.203125 44.453125 7.46875 
Q 49.3125 8.734375 54.109375 11.28125 
L 54.109375 2.78125 
Q 49.265625 0.734375 44.1875 -0.34375 
Q 39.109375 -1.421875 33.890625 -1.421875 
Q 20.796875 -1.421875 13.15625 6.1875 
Q 5.515625 13.8125 5.515625 26.8125 
Q 5.515625 40.234375 12.765625 48.109375 
Q 20.015625 56 32.328125 56 
Q 43.359375 56 49.78125 48.890625 
Q 56.203125 41.796875 56.203125 29.59375 
z
M 47.21875 32.234375 
Q 47.125 39.59375 43.09375 43.984375 
Q 39.0625 48.390625 32.421875 48.390625 
Q 24.90625 48.390625 20.390625 44.140625 
Q 15.875 39.890625 15.1875 32.171875 
z
" id="DejaVuSans-101"/>
     </defs>
     <g transform="translate(180.944531 280.276563)scale(0.1 -0.1)">
      <use xlink:href="#DejaVuSans-83"/>
      <use x="63.476562" xlink:href="#DejaVuSans-105"/>
      <use x="91.259766" xlink:href="#DejaVuSans-109"/>
      <use x="188.671875" xlink:href="#DejaVuSans-117"/>
      <use x="252.050781" xlink:href="#DejaVuSans-108"/>
      <use x="279.833984" xlink:href="#DejaVuSans-97"/>
      <use x="341.113281" xlink:href="#DejaVuSans-116"/>
      <use x="380.322266" xlink:href="#DejaVuSans-105"/>
      <use x="408.105469" xlink:href="#DejaVuSans-111"/>
      <use x="469.287109" xlink:href="#DejaVuSans-110"/>
      <use x="532.666016" xlink:href="#DejaVuSans-32"/>
      <use x="564.453125" xlink:href="#DejaVuSans-84"/>
      <use x="622.412109" xlink:href="#DejaVuSans-105"/>
      <use x="650.195312" xlink:href="#DejaVuSans-109"/>
      <use x="747.607422" xlink:href="#DejaVuSans-101"/>
     </g>
    </g>
   </g>
   <g id="matplotlib.axis_2">
    <g id="ytick_1">
     <g id="line2d_6">
      <defs>
       <path d="M 0 0 
L -3.5 0 
" id="mf2bea87a6b" style="stroke:#000000;stroke-width:0.8;"/>
      </defs>
      <g>
       <use style="stroke:#000000;stroke-width:0.8;" x="54" xlink:href="#mf2bea87a6b" y="242.116364"/>
      </g>
     </g>
     <g id="text_7">
      <!-- 0% -->
      <defs>
       <path d="M 72.703125 32.078125 
Q 68.453125 32.078125 66.03125 28.46875 
Q 63.625 24.859375 63.625 18.40625 
Q 63.625 12.0625 66.03125 8.421875 
Q 68.453125 4.78125 72.703125 4.78125 
Q 76.859375 4.78125 79.265625 8.421875 
Q 81.6875 12.0625 81.6875 18.40625 
Q 81.6875 24.8125 79.265625 28.4375 
Q 76.859375 32.078125 72.703125 32.078125 
z
M 72.703125 38.28125 
Q 80.421875 38.28125 84.953125 32.90625 
Q 89.5 27.546875 89.5 18.40625 
Q 89.5 9.28125 84.9375 3.921875 
Q 80.375 -1.421875 72.703125 -1.421875 
Q 64.890625 -1.421875 60.34375 3.921875 
Q 55.8125 9.28125 55.8125 18.40625 
Q 55.8125 27.59375 60.375 32.9375 
Q 64.9375 38.28125 72.703125 38.28125 
z
M 22.3125 68.015625 
Q 18.109375 68.015625 15.6875 64.375 
Q 13.28125 60.75 13.28125 54.390625 
Q 13.28125 47.953125 15.671875 44.328125 
Q 18.0625 40.71875 22.3125 40.71875 
Q 26.5625 40.71875 28.96875 44.328125 
Q 31.390625 47.953125 31.390625 54.390625 
Q 31.390625 60.6875 28.953125 64.34375 
Q 26.515625 68.015625 22.3125 68.015625 
z
M 66.40625 74.21875 
L 74.21875 74.21875 
L 28.609375 -1.421875 
L 20.796875 -1.421875 
z
M 22.3125 74.21875 
Q 30.03125 74.21875 34.609375 68.875 
Q 39.203125 63.53125 39.203125 54.390625 
Q 39.203125 45.171875 34.640625 39.84375 
Q 30.078125 34.515625 22.3125 34.515625 
Q 14.546875 34.515625 10.03125 39.859375 
Q 5.515625 45.21875 5.515625 54.390625 
Q 5.515625 63.484375 10.046875 68.84375 
Q 14.59375 74.21875 22.3125 74.21875 
z
" id="DejaVuSans-37"/>
      </defs>
      <g transform="translate(31.135937 245.915582)scale(0.1 -0.1)">
       <use xlink:href="#DejaVuSans-48"/>
       <use x="63.623047" xlink:href="#DejaVuSans-37"/>
      </g>
     </g>
    </g>
    <g id="ytick_2">
     <g id="line2d_7">
      <g>
       <use style="stroke:#000000;stroke-width:0.8;" x="54" xlink:href="#mf2bea87a6b" y="202.581818"/>
      </g>
     </g>
     <g id="text_8">
      <!-- 20% -->
      <g transform="translate(24.773438 206.381037)scale(0.1 -0.1)">
       <use xlink:href="#DejaVuSans-50"/>
       <use x="63.623047" xlink:href="#DejaVuSans-48"/>
       <use x="127.246094" xlink:href="#DejaVuSans-37"/>
      </g>
     </g>
    </g>
    <g id="ytick_3">
     <g id="line2d_8">
      <g>
       <use style="stroke:#000000;stroke-width:0.8;" x="54" xlink:href="#mf2bea87a6b" y="163.047273"/>
      </g>
     </g>
     <g id="text_9">
      <!-- 40% -->
      <defs>
       <path d="M 37.796875 64.3125 
L 12.890625 25.390625 
L 37.796875 25.390625 
z
M 35.203125 72.90625 
L 47.609375 72.90625 
L 47.609375 25.390625 
L 58.015625 25.390625 
L 58.015625 17.1875 
L 47.609375 17.1875 
L 47.609375 0 
L 37.796875 0 
L 37.796875 17.1875 
L 4.890625 17.1875 
L 4.890625 26.703125 
z
" id="DejaVuSans-52"/>
      </defs>
      <g transform="translate(24.773438 166.846491)scale(0.1 -0.1)">
       <use xlink:href="#DejaVuSans-52"/>
       <use x="63.623047" xlink:href="#DejaVuSans-48"/>
       <use x="127.246094" xlink:href="#DejaVuSans-37"/>
      </g>
     </g>
    </g>
    <g id="ytick_4">
     <g id="line2d_9">
      <g>
       <use style="stroke:#000000;stroke-width:0.8;" x="54" xlink:href="#mf2bea87a6b" y="123.512727"/>
      </g>
     </g>
     <g id="text_10">
      <!-- 60% -->
      <defs>
       <path d="M 33.015625 40.375 
Q 26.375 40.375 22.484375 35.828125 
Q 18.609375 31.296875 18.609375 23.390625 
Q 18.609375 15.53125 22.484375 10.953125 
Q 26.375 6.390625 33.015625 6.390625 
Q 39.65625 6.390625 43.53125 10.953125 
Q 47.40625 15.53125 47.40625 23.390625 
Q 47.40625 31.296875 43.53125 35.828125 
Q 39.65625 40.375 33.015625 40.375 
z
M 52.59375 71.296875 
L 52.59375 62.3125 
Q 48.875 64.0625 45.09375 64.984375 
Q 41.3125 65.921875 37.59375 65.921875 
Q 27.828125 65.921875 22.671875 59.328125 
Q 17.53125 52.734375 16.796875 39.40625 
Q 19.671875 43.65625 24.015625 45.921875 
Q 28.375 48.1875 33.59375 48.1875 
Q 44.578125 48.1875 50.953125 41.515625 
Q 57.328125 34.859375 57.328125 23.390625 
Q 57.328125 12.15625 50.6875 5.359375 
Q 44.046875 -1.421875 33.015625 -1.421875 
Q 20.359375 -1.421875 13.671875 8.265625 
Q 6.984375 17.96875 6.984375 36.375 
Q 6.984375 53.65625 15.1875 63.9375 
Q 23.390625 74.21875 37.203125 74.21875 
Q 40.921875 74.21875 44.703125 73.484375 
Q 48.484375 72.75 52.59375 71.296875 
z
" id="DejaVuSans-54"/>
      </defs>
      <g transform="translate(24.773438 127.311946)scale(0.1 -0.1)">
       <use xlink:href="#DejaVuSans-54"/>
       <use x="63.623047" xlink:href="#DejaVuSans-48"/>
       <use x="127.246094" xlink:href="#DejaVuSans-37"/>
      </g>
     </g>
    </g>
    <g id="ytick_5">
     <g id="line2d_10">
      <g>
       <use style="stroke:#000000;stroke-width:0.8;" x="54" xlink:href="#mf2bea87a6b" y="83.978182"/>
      </g>
     </g>
     <g id="text_11">
      <!-- 80% -->
      <defs>
       <path d="M 31.78125 34.625 
Q 24.75 34.625 20.71875 30.859375 
Q 16.703125 27.09375 16.703125 20.515625 
Q 16.703125 13.921875 20.71875 10.15625 
Q 24.75 6.390625 31.78125 6.390625 
Q 38.8125 6.390625 42.859375 10.171875 
Q 46.921875 13.96875 46.921875 20.515625 
Q 46.921875 27.09375 42.890625 30.859375 
Q 38.875 34.625 31.78125 34.625 
z
M 21.921875 38.8125 
Q 15.578125 40.375 12.03125 44.71875 
Q 8.5 49.078125 8.5 55.328125 
Q 8.5 64.0625 14.71875 69.140625 
Q 20.953125 74.21875 31.78125 74.21875 
Q 42.671875 74.21875 48.875 69.140625 
Q 55.078125 64.0625 55.078125 55.328125 
Q 55.078125 49.078125 51.53125 44.71875 
Q 48 40.375 41.703125 38.8125 
Q 48.828125 37.15625 52.796875 32.3125 
Q 56.78125 27.484375 56.78125 20.515625 
Q 56.78125 9.90625 50.3125 4.234375 
Q 43.84375 -1.421875 31.78125 -1.421875 
Q 19.734375 -1.421875 13.25 4.234375 
Q 6.78125 9.90625 6.78125 20.515625 
Q 6.78125 27.484375 10.78125 32.3125 
Q 14.796875 37.15625 21.921875 38.8125 
z
M 18.3125 54.390625 
Q 18.3125 48.734375 21.84375 45.5625 
Q 25.390625 42.390625 31.78125 42.390625 
Q 38.140625 42.390625 41.71875 45.5625 
Q 45.3125 48.734375 45.3125 54.390625 
Q 45.3125 60.0625 41.71875 63.234375 
Q 38.140625 66.40625 31.78125 66.40625 
Q 25.390625 66.40625 21.84375 63.234375 
Q 18.3125 60.0625 18.3125 54.390625 
z
" id="DejaVuSans-56"/>
      </defs>
      <g transform="translate(24.773438 87.777401)scale(0.1 -0.1)">
       <use xlink:href="#DejaVuSans-56"/>
       <use x="63.623047" xlink:href="#DejaVuSans-48"/>
       <use x="127.246094" xlink:href="#DejaVuSans-37"/>
      </g>
     </g>
    </g>
    <g id="ytick_6">
     <g id="line2d_11">
      <g>
       <use style="stroke:#000000;stroke-width:0.8;" x="54" xlink:href="#mf2bea87a6b" y="44.443636"/>
      </g>
     </g>
     <g id="text_12">
      <!-- 100% -->
      <g transform="translate(18.410937 48.242855)scale(0.1 -0.1)">
       <use xlink:href="#DejaVuSans-49"/>
       <use x="63.623047" xlink:href="#DejaVuSans-48"/>
       <use x="127.246094" xlink:href="#DejaVuSans-48"/>
       <use x="190.869141" xlink:href="#DejaVuSans-37"/>
      </g>
     </g>
    </g>
    <g id="text_13">
     <!-- Trust, Sinners -->
     <defs>
      <path d="M 41.109375 46.296875 
Q 39.59375 47.171875 37.8125 47.578125 
Q 36.03125 48 33.890625 48 
Q 26.265625 48 22.1875 43.046875 
Q 18.109375 38.09375 18.109375 28.8125 
L 18.109375 0 
L 9.078125 0 
L 9.078125 54.6875 
L 18.109375 54.6875 
L 18.109375 46.1875 
Q 20.953125 51.171875 25.484375 53.578125 
Q 30.03125 56 36.53125 56 
Q 37.453125 56 38.578125 55.875 
Q 39.703125 55.765625 41.0625 55.515625 
z
" id="DejaVuSans-114"/>
      <path d="M 44.28125 53.078125 
L 44.28125 44.578125 
Q 40.484375 46.53125 36.375 47.5 
Q 32.28125 48.484375 27.875 48.484375 
Q 21.1875 48.484375 17.84375 46.4375 
Q 14.5 44.390625 14.5 40.28125 
Q 14.5 37.15625 16.890625 35.375 
Q 19.28125 33.59375 26.515625 31.984375 
L 29.59375 31.296875 
Q 39.15625 29.25 43.1875 25.515625 
Q 47.21875 21.78125 47.21875 15.09375 
Q 47.21875 7.46875 41.1875 3.015625 
Q 35.15625 -1.421875 24.609375 -1.421875 
Q 20.21875 -1.421875 15.453125 -0.5625 
Q 10.6875 0.296875 5.421875 2 
L 5.421875 11.28125 
Q 10.40625 8.6875 15.234375 7.390625 
Q 20.0625 6.109375 24.8125 6.109375 
Q 31.15625 6.109375 34.5625 8.28125 
Q 37.984375 10.453125 37.984375 14.40625 
Q 37.984375 18.0625 35.515625 20.015625 
Q 33.0625 21.96875 24.703125 23.78125 
L 21.578125 24.515625 
Q 13.234375 26.265625 9.515625 29.90625 
Q 5.8125 33.546875 5.8125 39.890625 
Q 5.8125 47.609375 11.28125 51.796875 
Q 16.75 56 26.8125 56 
Q 31.78125 56 36.171875 55.265625 
Q 40.578125 54.546875 44.28125 53.078125 
z
" id="DejaVuSans-115"/>
      <path d="M 11.71875 12.40625 
L 22.015625 12.40625 
L 22.015625 4 
L 14.015625 -11.625 
L 7.71875 -11.625 
L 11.71875 4 
z
" id="DejaVuSans-44"/>
     </defs>
     <g transform="translate(12.33125 177.201094)rotate(-90)scale(0.1 -0.1)">
      <use xlink:href="#DejaVuSans-84"/>
      <use x="46.333984" xlink:href="#DejaVuSans-114"/>
      <use x="87.447266" xlink:href="#DejaVuSans-117"/>
      <use x="150.826172" xlink:href="#DejaVuSans-115"/>
      <use x="202.925781" xlink:href="#DejaVuSans-116"/>
      <use x="242.134766" xlink:href="#DejaVuSans-44"/>
      <use x="273.921875" xlink:href="#DejaVuSans-32"/>
      <use x="305.708984" xlink:href="#DejaVuSans-83"/>
      <use x="369.185547" xlink:href="#DejaVuSans-105"/>
      <use x="396.96875" xlink:href="#DejaVuSans-110"/>
      <use x="460.347656" xlink:href="#DejaVuSans-110"/>
      <use x="523.726562" xlink:href="#DejaVuSans-101"/>
      <use x="585.25" xlink:href="#DejaVuSans-114"/>
      <use x="626.363281" xlink:href="#DejaVuSans-115"/>
     </g>
    </g>
   </g>
   <g id="line2d_12">
    <path clip-path="url(#p042b569422)" d="M 54 83.978182 
L 388.8 83.978182 
" style="fill:none;stroke:#a9a9a9;stroke-linecap:square;stroke-width:1.5;"/>
   </g>
   <g id="line2d_13">
    <path clip-path="url(#p042b569422)" d="M 54 64.210909 
L 388.8 64.210909 
" style="fill:none;stroke:#d3d3d3;stroke-linecap:square;stroke-width:1.5;"/>
   </g>
   <g id="line2d_14">
    <path clip-path="url(#p042b569422)" d="M 69.218182 44.443636 
L 69.411202 47.655818 
L 69.500289 47.655818 
L 69.648766 49.138364 
L 69.663614 49.138364 
L 69.826939 51.115091 
L 69.856634 51.115091 
L 70.406 58.445455 
L 70.465391 58.445455 
L 70.584173 59.598545 
L 70.599021 59.351455 
L 70.613869 59.351455 
L 70.643564 59.845636 
L 70.717803 59.516182 
L 70.73265 59.516182 
L 70.747498 59.269091 
L 70.806889 60.010364 
L 70.955366 61.492909 
L 70.985062 61.245818 
L 71.044453 61.163455 
L 71.074148 61.410545 
L 71.118691 61.081091 
L 71.133539 61.081091 
L 71.19293 60.998727 
L 71.400798 64.334455 
L 71.415646 64.252091 
L 71.460189 64.005 
L 71.489885 64.268564 
L 71.51958 64.268564 
L 71.549276 64.268564 
L 71.742296 66.368836 
L 71.757144 66.121745 
L 71.786839 66.121745 
L 71.950164 67.068927 
L 71.965012 67.068927 
L 72.024403 68.304382 
L 72.098642 68.098473 
L 72.143185 68.016109 
L 72.217423 68.839745 
L 72.261967 68.757382 
L 72.291662 68.757382 
L 72.529226 72.331964 
L 72.603464 72.2496 
L 72.662855 72.167236 
L 72.781637 73.1556 
L 72.796485 72.990873 
L 72.870724 72.908509 
L 72.915267 73.196782 
L 72.989505 72.7026 
L 73.09344 72.900273 
L 73.034049 72.529636 
L 73.108287 72.859091 
L 73.167678 72.200182 
L 73.227069 72.529636 
L 73.256765 72.529636 
L 73.301308 72.776727 
L 73.345851 72.422564 
L 73.360699 72.496691 
L 73.390394 72.290782 
L 73.42009 72.455509 
L 73.583415 74.226327 
L 73.657653 73.938055 
L 73.702197 73.855691 
L 73.850674 74.522836 
L 73.865522 74.522836 
L 73.984303 74.1522 
L 74.058542 74.1522 
L 74.177324 73.905109 
L 74.207019 73.822745 
L 74.385192 75.923018 
L 74.40004 75.997145 
L 74.429735 75.667691 
L 74.459431 75.642982 
L 74.474279 75.807709 
L 74.59306 75.857127 
L 74.786081 77.973873 
L 74.91971 77.702073 
L 75.068188 77.059636 
L 75.246361 78.517473 
L 75.365142 78.106831 
L 75.469077 78.955177 
L 75.498772 78.872813 
L 75.587858 78.592777 
L 75.558163 78.922231 
L 75.617554 78.839868 
L 75.795727 79.622322 
L 75.810574 79.292868 
L 75.825422 79.292868 
L 75.884813 78.757504 
L 75.944204 79.12814 
L 75.973899 78.996358 
L 76.092681 79.572904 
L 76.122377 79.507013 
L 76.211463 79.086958 
L 76.226311 79.136377 
L 76.389636 80.59186 
L 76.434179 80.344769 
L 76.478722 80.377714 
L 76.6272 79.754104 
L 76.68659 80.767177 
L 76.760829 80.676577 
L 76.805372 81.088395 
L 76.924154 80.926021 
L 76.939002 80.843657 
L 76.983545 81.107221 
L 76.998393 81.107221 
L 77.132022 81.486094 
L 77.221109 81.724948 
L 77.265652 81.683766 
L 77.295347 81.634348 
L 77.310195 81.840257 
L 77.325043 81.76613 
L 77.339891 81.889675 
L 77.399282 81.642584 
L 77.428977 81.724948 
L 77.681388 80.544206 
L 77.696236 80.544206 
L 77.740779 80.857188 
L 77.815018 80.692461 
L 77.844713 80.692461 
L 78.008039 81.301952 
L 78.186211 80.141213 
L 78.230754 80.347122 
L 78.245602 80.347122 
L 78.26045 80.816595 
L 78.349536 80.411836 
L 78.379232 80.477727 
L 78.39408 80.214164 
L 78.408927 80.214164 
L 78.45347 80.288291 
L 78.661339 81.470797 
L 78.676186 81.388434 
L 78.809816 81.035518 
L 78.824664 81.175536 
L 78.869207 81.051991 
L 78.884055 81.216718 
L 79.091923 82.658082 
L 79.106771 82.493354 
L 79.121618 82.468645 
L 79.136466 82.583954 
L 79.181009 83.3417 
L 79.299791 83.079313 
L 79.433421 83.566756 
L 79.463116 83.35261 
L 79.477964 83.237301 
L 79.522507 83.756192 
L 79.626441 83.397594 
L 79.685832 83.611739 
L 79.8937 84.521857 
L 79.923396 84.423021 
L 80.012482 84.093566 
L 80.086721 84.241821 
L 80.116416 84.26653 
L 80.502457 83.628016 
L 80.517305 83.751561 
L 80.561848 83.389749 
L 80.591544 83.45564 
L 80.829107 83.36504 
L 80.873651 83.422695 
L 80.962737 83.165014 
L 80.992432 83.329742 
L 81.022128 83.022643 
L 81.126062 83.056177 
L 81.200301 82.663577 
L 81.259692 82.731821 
L 81.363626 82.526696 
L 81.378473 82.724369 
L 81.46756 82.511988 
L 81.586342 82.284312 
L 81.616037 82.305491 
L 81.66058 82.552582 
L 81.734819 82.501987 
L 81.764514 82.478455 
L 81.779362 82.725546 
L 81.853601 82.291764 
L 81.912992 82.530618 
L 81.98723 82.367709 
L 82.106012 82.180626 
L 82.165403 82.139444 
L 82.195099 82.930135 
L 82.299033 82.653843 
L 82.492053 82.283206 
L 82.566292 82.198436 
L 82.640531 82.146665 
L 82.595987 82.281976 
L 82.670226 82.220792 
L 82.685074 82.261974 
L 82.729617 82.139801 
L 82.759312 82.156274 
L 82.818703 82.193337 
L 82.892942 81.961543 
L 82.952333 82.101561 
L 82.996876 82.003901 
L 83.026572 82.051554 
L 83.071115 81.883885 
L 83.085963 82.081558 
L 83.160201 81.736861 
L 83.204744 81.682932 
L 83.23444 81.831187 
L 83.293831 81.905314 
L 83.323526 81.75706 
L 83.516547 81.186183 
L 83.575938 81.383856 
L 83.679872 81.546177 
L 83.665024 81.348504 
L 83.709567 81.487934 
L 83.813501 81.410277 
L 83.75411 81.533822 
L 83.843197 81.458518 
L 83.917435 81.533822 
L 83.961979 81.476168 
L 83.976826 81.520095 
L 84.006522 81.324972 
L 84.02137 81.324972 
L 84.34802 80.60429 
L 84.437106 80.523103 
L 84.481649 80.811375 
L 84.555888 80.665474 
L 84.719213 80.448191 
L 84.748908 80.695282 
L 84.852842 80.589386 
L 85.417056 80.032451 
L 85.431904 80.213651 
L 85.506143 79.877333 
L 85.565534 79.785556 
L 85.580381 79.726725 
L 85.610077 79.897335 
L 85.684315 79.754179 
L 85.714011 79.72594 
L 85.758554 79.776339 
L 85.803097 80.037157 
L 85.907031 79.941172 
L 86.070356 79.600449 
L 86.397007 79.183942 
L 86.411854 79.231007 
L 86.590027 79.054121 
L 86.604875 78.962933 
L 86.708809 79.002403 
L 86.753352 78.917098 
L 87.139393 78.069341 
L 87.213632 78.338788 
L 87.258175 78.236422 
L 87.347261 78.144467 
L 87.510586 77.595162 
L 87.540282 77.876571 
L 87.659064 77.676454 
L 87.673911 77.635273 
L 87.688759 77.767054 
L 87.733302 77.725646 
L 87.792693 77.803927 
L 87.837236 77.69632 
L 87.970866 77.672787 
L 87.985714 77.738678 
L 88.059952 77.62435 
L 88.178734 77.475115 
L 88.609318 76.682903 
L 88.624166 76.748794 
L 88.713253 76.649797 
L 88.817187 76.598026 
L 88.846882 76.658426 
L 88.876578 76.753732 
L 88.921121 76.655894 
L 88.995359 76.431551 
L 89.05475 76.484054 
L 89.143837 76.383506 
L 89.277466 77.353828 
L 89.322009 77.378341 
L 89.455639 77.147901 
L 89.574421 77.264084 
L 89.589269 77.228624 
L 89.886223 76.809682 
L 89.945614 76.901263 
L 89.960462 77.000099 
L 90.049548 76.942553 
L 90.183178 76.929503 
L 90.30196 77.0303 
L 90.420742 77.060411 
L 90.480133 76.999369 
L 90.49498 77.131151 
L 90.688001 77.040248 
L 90.747392 76.763153 
L 90.777087 76.869638 
L 90.806783 77.36382 
L 90.895869 77.17339 
L 91.074042 76.785634 
L 91.103737 76.800342 
L 91.222519 76.710536 
L 91.385844 76.459227 
L 91.400692 76.912227 
L 91.504626 76.807543 
L 91.890667 76.2174 
L 92.06884 76.052762 
L 92.113383 76.329269 
L 92.187622 76.199323 
L 92.543967 76.010921 
L 92.72214 75.785669 
L 92.796379 75.693236 
L 93.197267 75.011975 
L 93.271506 74.885113 
L 94.117827 74.097222 
L 94.132674 74.261949 
L 94.221761 74.047102 
L 94.310847 73.982797 
L 94.340543 74.017365 
L 94.563259 73.817149 
L 95.394731 73.139376 
L 95.409579 73.180558 
L 95.454122 73.157687 
L 95.587752 72.851014 
L 95.780772 72.634758 
L 96.018336 72.491529 
L 96.166813 72.352164 
L 96.374682 71.972516 
L 96.493464 71.821557 
L 96.686484 71.604547 
L 96.790418 71.521669 
L 96.924048 71.030728 
L 96.938895 71.244873 
L 97.027982 71.080982 
L 97.324936 70.807429 
L 97.503109 70.588476 
L 102.417708 66.409613 
L 102.818597 66.261703 
L 103.501593 65.680808 
L 103.590679 65.619876 
L 103.709461 65.306176 
L 104.214284 65.033177 
L 104.704259 64.771926 
L 104.867584 64.712047 
L 104.882432 64.876774 
L 104.986366 64.817043 
L 105.001213 64.814689 
L 105.016061 64.938235 
L 105.119995 64.888363 
L 105.149691 64.926979 
L 105.179386 64.746158 
L 107.555023 63.411355 
L 107.569871 63.534901 
L 107.673805 63.470925 
L 108.371648 63.101553 
L 109.767335 62.331278 
L 119.863792 58.577316 
L 121.64552 58.079685 
L 122.566079 57.810222 
L 123.219379 57.642991 
L 125.149584 57.140918 
L 126.010753 56.943134 
L 126.545271 56.808843 
L 126.975855 56.706891 
L 127.154028 56.657286 
L 127.896414 56.499297 
L 131.058981 55.833463 
L 131.341088 55.7719 
L 132.647688 55.525041 
L 134.459112 55.242754 
L 135.839951 55.022412 
L 136.463555 54.913746 
L 137.309876 54.781424 
L 137.517744 54.752843 
L 138.20074 54.644219 
L 138.779801 54.544657 
L 139.388558 54.467338 
L 140.769397 54.413077 
L 140.962418 54.462369 
L 145.208869 54.382856 
L 145.327651 54.407211 
L 145.802778 54.461331 
L 145.92156 54.529892 
L 146.634251 54.595555 
L 146.812424 54.646916 
L 147.124226 54.706457 
L 147.450876 54.872016 
L 147.643897 54.919631 
L 147.792374 54.951064 
L 148.059633 54.970367 
L 148.20811 55.00034 
L 148.386283 55.084852 
L 148.53476 55.109813 
L 148.683238 55.19125 
L 148.80202 55.193065 
L 149.054431 55.254238 
L 149.232604 55.32408 
L 149.381081 55.330914 
L 149.767122 55.419421 
L 149.900752 55.423153 
L 150.049229 55.496863 
L 151.489459 55.513025 
L 151.637936 55.520435 
L 151.920043 55.541409 
L 152.306084 55.603227 
L 152.350627 55.613944 
L 152.380323 56.122571 
L 152.469409 56.107604 
L 152.781212 56.174562 
L 152.914841 56.202865 
L 153.449359 56.187529 
L 153.493903 56.66623 
L 153.568141 56.662128 
L 154.369919 56.719544 
L 154.488701 56.456827 
L 154.711417 56.528704 
L 154.904437 56.578769 
L 155.038067 56.689776 
L 155.201392 56.72049 
L 155.320173 56.721187 
L 155.335021 56.830803 
L 155.438955 56.813673 
L 155.631976 56.826884 
L 155.646824 57.073975 
L 155.750758 57.063965 
L 156.018017 57.211966 
L 156.121951 57.124958 
L 156.136799 57.136908 
L 157.309769 57.179041 
L 157.532485 57.239915 
L 158.363958 57.237703 
L 158.48274 57.310339 
L 158.512436 57.305056 
L 158.601522 57.558646 
L 158.631217 57.550184 
L 158.794543 57.541075 
L 159.329061 57.607608 
L 159.536929 57.640819 
L 159.715102 57.713501 
L 159.982361 57.636905 
L 160.026904 57.549936 
L 160.101143 57.568247 
L 160.24962 57.563796 
L 160.368402 57.891574 
L 160.38325 57.889462 
L 160.487184 57.838848 
L 160.502032 57.844956 
L 162.0165 57.731711 
L 162.135282 58.476841 
L 162.164977 58.474981 
L 162.179825 58.226396 
L 162.283759 58.297972 
L 162.788582 58.329878 
L 163.441882 58.257337 
L 163.560664 58.380176 
L 163.679446 58.437065 
L 163.709141 58.413211 
L 164.24366 58.438994 
L 164.347594 58.408415 
L 164.421833 58.378611 
L 164.540614 58.554969 
L 165.000894 58.472827 
L 165.134524 58.333669 
L 165.579956 58.240237 
L 165.713585 58.194208 
L 166.069931 58.258307 
L 166.218408 58.279948 
L 166.545058 58.284507 
L 166.66384 58.024025 
L 166.842013 58.050481 
L 167.12412 58.056978 
L 167.153815 58.052856 
L 167.168663 58.545423 
L 167.272597 58.531927 
L 168.475263 58.327111 
L 169.425518 58.183915 
L 169.559147 58.041536 
L 170.895443 57.937669 
L 171.029073 57.881972 
L 172.395064 57.716981 
L 172.543541 57.697025 
L 173.805598 57.711317 
L 173.879837 57.37401 
L 173.92438 57.528812 
L 175.899129 57.277585 
L 176.032758 57.22801 
L 176.181235 57.228755 
L 177.190881 57.098627 
L 177.205729 57.340227 
L 177.309663 57.329584 
L 177.45814 57.283309 
L 178.096593 57.308122 
L 178.319309 57.327329 
L 178.883522 57.223804 
L 178.987457 57.185188 
L 179.002304 57.196337 
L 180.902814 56.957188 
L 181.021596 56.850467 
L 181.719439 56.698799 
L 181.882764 56.665356 
L 196.953211 54.90623 
L 198.541918 54.746497 
L 200.472123 54.569884 
L 202.045983 54.437839 
L 204.391924 54.242114 
L 207.079364 54.058189 
L 208.668071 54.032763 
L 216.953105 53.939039 
L 217.071886 54.015971 
L 218.764528 54.01388 
L 219.150569 54.072154 
L 220.278996 54.099636 
L 220.412626 54.164335 
L 222.313135 54.20559 
L 222.431917 54.268135 
L 222.684329 54.277868 
L 223.26339 54.337285 
L 224.258188 54.387051 
L 224.451209 54.386194 
L 225.728114 54.364076 
L 225.846895 54.449278 
L 226.322023 54.533801 
L 226.722912 54.560192 
L 226.782302 55.06637 
L 226.841693 55.023508 
L 227.554384 55.044515 
L 227.673166 55.151886 
L 228.385857 55.227266 
L 228.519487 55.35617 
L 228.816442 55.352844 
L 230.449692 55.318666 
L 230.687256 55.320406 
L 231.414795 55.353113 
L 231.607815 55.921775 
L 231.845379 55.895378 
L 232.88472 55.947831 
L 233.523172 55.948566 
L 233.894366 55.91755 
L 233.9983 56.167321 
L 234.013147 56.165734 
L 234.636752 56.175886 
L 234.666448 56.427175 
L 234.755534 56.354659 
L 235.126727 56.390144 
L 235.349443 56.358306 
L 235.423682 56.847483 
L 235.468225 56.843575 
L 236.195764 56.863747 
L 236.463023 56.888422 
L 236.774825 56.971748 
L 236.863912 56.974238 
L 236.967846 56.719013 
L 236.982694 56.723665 
L 237.665689 56.59788 
L 237.739928 56.511011 
L 237.784471 56.523549 
L 238.096273 56.518618 
L 239.29894 56.456179 
L 239.417721 56.374691 
L 239.878001 56.271994 
L 239.981935 56.026222 
L 239.996783 56.032187 
L 240.694626 55.99465 
L 240.709474 56.488832 
L 240.813408 56.484066 
L 241.733968 56.488948 
L 241.852749 56.57304 
L 242.298181 56.51322 
L 242.431811 56.373849 
L 243.337522 56.296752 
L 243.456304 56.419494 
L 244.020518 56.391841 
L 244.1393 56.515537 
L 244.198691 56.51608 
L 244.317473 56.413234 
L 246.336764 56.38718 
L 246.351612 56.881362 
L 246.455546 56.874027 
L 246.529785 56.877187 
L 246.648566 56.623471 
L 247.880928 56.499856 
L 247.925471 56.998229 
L 247.99971 56.993535 
L 248.32636 56.954262 
L 248.445142 56.702071 
L 249.187528 56.727417 
L 249.30631 56.82907 
L 250.701997 56.813462 
L 250.820779 56.916723 
L 250.850474 56.914885 
L 250.969256 57.164659 
L 251.711643 57.203135 
L 251.978902 57.282992 
L 252.067988 57.44469 
L 252.097684 57.401738 
L 252.409486 57.323587 
L 252.528268 57.070839 
L 253.404284 57.082585 
L 253.523066 57.123542 
L 254.60695 56.976424 
L 256.745023 56.686337 
L 256.878653 56.65753 
L 258.660381 56.485496 
L 258.779163 56.40622 
L 260.293631 56.178982 
L 260.427261 56.132571 
L 261.362668 55.983891 
L 261.48145 55.888331 
L 262.431704 55.738551 
L 262.580182 55.720077 
L 265.757596 55.505599 
L 265.920921 55.477528 
L 266.64846 55.363873 
L 267.197826 55.272962 
L 267.316608 54.99095 
L 268.578665 54.863436 
L 268.949858 54.839566 
L 269.796179 54.709939 
L 269.914961 54.618841 
L 272.171816 54.462208 
L 272.305445 54.416148 
L 292.082623 53.532326 
L 292.201405 53.56969 
L 296.447856 53.494719 
L 296.566638 53.567293 
L 297.873238 53.572091 
L 297.99202 53.827425 
L 298.942275 53.908203 
L 299.254077 53.915924 
L 301.882126 53.898744 
L 302.000907 53.959563 
L 303.173878 53.97021 
L 303.248117 54.213905 
L 303.29266 54.183141 
L 305.133779 54.238943 
L 305.51982 54.264327 
L 306.633399 54.316284 
L 306.737334 54.805541 
L 306.752181 54.804937 
L 308.622995 54.817754 
L 308.712082 55.400031 
L 308.741777 55.398997 
L 308.756625 55.398851 
L 308.875407 55.628882 
L 309.05358 55.647087 
L 309.142666 55.396988 
L 309.172361 55.401307 
L 309.202057 55.400156 
L 309.320839 55.649635 
L 310.03353 55.808123 
L 310.152312 55.67032 
L 310.167159 55.675807 
L 314.383915 55.616294 
L 314.458154 55.368368 
L 314.502697 55.373052 
L 317.29407 55.344074 
L 317.323766 55.893501 
L 317.412852 55.890138 
L 317.917675 55.83199 
L 318.036457 55.554998 
L 318.40765 55.570587 
L 318.526432 55.736585 
L 319.84788 55.613954 
L 319.98151 55.569231 
L 321.28811 55.480102 
L 321.302958 56.004876 
L 321.406892 56.001036 
L 321.540521 56.002238 
L 321.659303 55.751072 
L 321.837476 55.709949 
L 321.956258 55.95348 
L 323.782529 55.832768 
L 323.90131 55.781682 
L 326.202709 55.681898 
L 326.321491 55.80183 
L 326.752075 55.75583 
L 326.796618 56.245042 
L 326.870857 56.24259 
L 326.959943 56.239527 
L 326.974791 56.40062 
L 327.078725 56.365378 
L 328.266543 56.304126 
L 328.385325 56.057921 
L 329.454362 55.948559 
L 329.573144 55.86277 
L 332.08241 55.744622 
L 332.201192 55.903885 
L 333.151447 55.783494 
L 333.270229 55.743754 
L 334.027463 55.656522 
L 334.146245 55.570223 
L 335.601322 55.429542 
L 336.937618 55.289652 
L 337.071248 55.244748 
L 337.7097 55.102032 
L 337.858178 55.047643 
L 339.639905 54.994595 
L 339.758687 55.237691 
L 342.653995 54.968789 
L 342.787624 54.924252 
L 345.029632 54.795815 
L 345.192957 54.762666 
L 346.410471 54.669513 
L 346.529252 54.588922 
L 350.033317 54.423503 
L 350.196642 54.40202 
L 352.156542 54.226441 
L 352.290172 54.197962 
L 365.638282 53.806861 
L 365.771912 53.82762 
L 367.909985 53.837249 
L 368.474199 53.802257 
L 368.563285 53.672661 
L 368.592981 53.676369 
L 368.979022 53.65932 
L 370.834988 53.669068 
L 370.879531 54.233336 
L 370.95377 54.231153 
L 373.581818 54.222415 
L 373.581818 54.222415 
" style="fill:none;stroke:#006400;stroke-linecap:square;stroke-width:1.5;"/>
   </g>
   <g id="line2d_15">
    <path clip-path="url(#p042b569422)" d="M 69.218182 242.116364 
L 76.345093 242.116364 
L 76.463875 239.67596 
L 76.656895 239.67596 
L 76.775677 237.235556 
L 78.201059 237.235556 
L 78.319841 234.795152 
L 79.181009 234.795152 
L 79.299791 232.354747 
L 79.581898 232.354747 
L 79.70068 229.914343 
L 80.02733 229.914343 
L 80.16096 225.033535 
L 81.066671 225.033535 
L 81.185453 222.593131 
L 81.378473 222.593131 
L 81.497255 220.152727 
L 81.809058 220.152727 
L 81.927839 217.712323 
L 82.076317 217.712323 
L 82.224794 210.391111 
L 82.299033 210.391111 
L 82.417815 207.950707 
L 82.477206 207.950707 
L 82.595987 205.510303 
L 82.803856 205.510303 
L 82.922637 203.069899 
L 83.724415 203.069899 
L 83.872892 195.748687 
L 83.88774 195.748687 
L 84.006522 193.308283 
L 84.08076 193.308283 
L 84.21439 188.427475 
L 84.229238 188.427475 
L 84.362867 183.546667 
L 84.526192 183.546667 
L 84.644974 181.106263 
L 85.031015 181.106263 
L 85.149797 178.665859 
L 85.491295 178.665859 
L 85.610077 176.225455 
L 86.248529 176.225455 
L 86.367311 173.785051 
L 86.397007 173.785051 
L 86.530636 168.904242 
L 86.604875 168.904242 
L 86.738504 164.023434 
L 86.872134 164.023434 
L 86.990916 161.58303 
L 87.154241 161.58303 
L 87.273023 159.142626 
L 87.347261 159.142626 
L 87.480891 154.261818 
L 87.61452 154.261818 
L 87.74815 149.38101 
L 88.312364 149.38101 
L 88.431146 146.940606 
L 88.86173 146.940606 
L 89.025055 137.17899 
L 89.143837 137.17899 
L 89.262619 134.738586 
L 89.292314 134.738586 
L 89.411096 132.298182 
L 89.945614 132.298182 
L 90.064396 129.857778 
L 90.123787 129.857778 
L 90.242569 127.417374 
L 90.287112 127.417374 
L 90.405894 124.97697 
L 90.881021 124.97697 
L 90.999803 122.536566 
L 91.044346 122.536566 
L 91.177976 117.655758 
L 91.757037 117.655758 
L 91.875819 115.215354 
L 92.083687 115.215354 
L 92.202469 112.774949 
L 92.365794 112.774949 
L 92.484576 110.334545 
L 92.677597 110.334545 
L 92.796379 107.894141 
L 92.885465 107.894141 
L 93.004247 105.453737 
L 93.04879 105.453737 
L 93.167572 103.013333 
L 94.117827 103.013333 
L 94.251456 98.132525 
L 94.310847 98.132525 
L 94.429629 95.692121 
L 94.637497 95.692121 
L 94.756279 93.251717 
L 94.919604 93.251717 
L 95.053234 88.370909 
L 95.097777 88.370909 
L 95.216559 85.930505 
L 95.394731 85.930505 
L 95.528361 81.049697 
L 95.869859 81.049697 
L 96.003488 76.168889 
L 96.181661 76.168889 
L 96.300443 73.728485 
L 97.324936 73.728485 
L 97.443718 71.288081 
L 97.69613 71.288081 
L 97.814912 68.847677 
L 98.750319 68.847677 
L 98.8691 66.407273 
L 99.166055 66.407273 
L 99.314532 59.086061 
L 102.061363 59.086061 
L 102.180144 56.645657 
L 108.16378 56.645657 
L 108.282562 54.205253 
L 109.069492 54.205253 
L 109.188273 51.764848 
L 110.138528 51.764848 
L 110.25731 49.324444 
L 111.682692 49.324444 
L 111.801474 46.88404 
L 135.736016 46.88404 
L 135.854798 49.324444 
L 136.047819 49.324444 
L 136.166601 51.764848 
L 137.591983 51.764848 
L 137.710765 54.205253 
L 138.571933 54.205253 
L 138.690715 56.645657 
L 138.972822 56.645657 
L 139.091604 59.086061 
L 139.418254 59.086061 
L 139.551883 63.966869 
L 140.457595 63.966869 
L 140.576377 66.407273 
L 140.769397 66.407273 
L 140.888179 68.847677 
L 141.199981 68.847677 
L 141.318763 71.288081 
L 141.467241 71.288081 
L 141.615718 78.609293 
L 141.689956 78.609293 
L 141.808738 81.049697 
L 141.868129 81.049697 
L 141.986911 83.490101 
L 142.194779 83.490101 
L 142.313561 85.930505 
L 143.115339 85.930505 
L 143.263816 93.251717 
L 143.278664 93.251717 
L 143.397446 95.692121 
L 143.471684 95.692121 
L 143.605314 100.572929 
L 143.620162 100.572929 
L 143.753791 105.453737 
L 143.917116 105.453737 
L 144.035898 107.894141 
L 144.421939 107.894141 
L 144.540721 110.334545 
L 144.882219 110.334545 
L 145.001 112.774949 
L 145.490976 112.774949 
L 145.609757 110.334545 
L 145.639453 110.334545 
L 145.758235 112.774949 
L 145.78793 112.774949 
L 145.92156 117.655758 
L 145.995798 117.655758 
L 146.129428 122.536566 
L 146.263058 122.536566 
L 146.381839 124.97697 
L 146.545165 124.97697 
L 146.663946 127.417374 
L 146.738185 127.417374 
L 146.871815 132.298182 
L 147.005444 132.298182 
L 147.139074 137.17899 
L 147.643897 137.17899 
L 147.703288 134.738586 
L 147.747831 137.17899 
L 148.252654 137.17899 
L 148.401131 144.500202 
L 148.53476 144.500202 
L 148.653542 146.940606 
L 148.683238 146.940606 
L 148.712933 149.38101 
L 148.787172 146.940606 
L 149.232604 146.940606 
L 149.336538 144.500202 
L 149.45532 146.940606 
L 149.514711 146.940606 
L 149.633493 149.38101 
L 149.678036 149.38101 
L 149.796818 151.821414 
L 150.227402 151.821414 
L 150.271945 149.38101 
L 150.331336 151.821414 
L 150.420422 151.821414 
L 150.43527 149.38101 
L 150.509509 154.261818 
L 151.147961 154.261818 
L 151.266743 156.702222 
L 151.474611 156.702222 
L 151.593393 159.142626 
L 151.756718 159.142626 
L 151.8755 161.58303 
L 152.06852 161.58303 
L 152.187302 164.023434 
L 152.276389 164.023434 
L 152.350627 166.463838 
L 152.380323 164.023434 
L 152.439714 164.023434 
L 152.558496 166.463838 
L 152.647582 166.463838 
L 152.766364 164.023434 
L 153.375121 164.023434 
L 153.50875 159.142626 
L 153.64238 164.023434 
L 153.701771 164.023434 
L 153.820553 166.463838 
L 154.028421 166.463838 
L 154.147203 168.904242 
L 154.176898 168.904242 
L 154.310528 164.023434 
L 154.42931 168.904242 
L 154.548091 166.463838 
L 154.785655 166.463838 
L 154.919285 171.344646 
L 155.260783 171.344646 
L 155.394412 176.225455 
L 155.572585 176.225455 
L 155.691367 178.665859 
L 155.839844 178.665859 
L 155.958626 176.225455 
L 156.211037 176.225455 
L 156.329819 173.785051 
L 156.611926 173.785051 
L 156.71586 171.344646 
L 156.834642 173.785051 
L 156.923728 173.785051 
L 157.04251 171.344646 
L 157.087053 171.344646 
L 157.116749 173.785051 
L 157.190988 171.344646 
L 157.398856 171.344646 
L 157.517638 168.904242 
L 157.799745 168.904242 
L 157.948222 161.58303 
L 158.141242 161.58303 
L 158.260024 164.023434 
L 158.556979 164.023434 
L 158.675761 166.463838 
L 158.690608 166.463838 
L 158.720304 168.904242 
L 158.794543 166.463838 
L 159.833884 166.463838 
L 159.952666 164.023434 
L 160.353554 164.023434 
L 160.487184 159.142626 
L 160.591118 159.142626 
L 160.724748 154.261818 
L 160.947464 154.261818 
L 161.066245 151.821414 
L 161.125636 151.821414 
L 161.244418 149.38101 
L 161.452286 149.38101 
L 161.571068 151.821414 
L 161.585916 151.821414 
L 161.704698 149.38101 
L 161.971957 149.38101 
L 162.105587 144.500202 
L 163.115232 144.500202 
L 163.26371 137.17899 
L 163.679446 137.17899 
L 163.813076 132.298182 
L 163.91701 132.298182 
L 164.050639 127.417374 
L 164.822721 127.417374 
L 164.956351 122.536566 
L 165.060285 122.536566 
L 165.179067 120.096162 
L 165.283001 120.096162 
L 165.401783 117.655758 
L 165.579956 117.655758 
L 165.698737 115.215354 
L 165.832367 115.215354 
L 165.965997 110.334545 
L 166.322342 110.334545 
L 166.441124 107.894141 
L 166.916251 107.894141 
L 167.049881 103.013333 
L 167.094424 103.013333 
L 167.213206 100.572929 
L 167.539856 100.572929 
L 167.554704 98.132525 
L 167.64379 100.572929 
L 167.821963 100.572929 
L 167.955593 95.692121 
L 168.371329 95.692121 
L 168.460415 93.251717 
L 168.475263 95.692121 
L 168.742522 95.692121 
L 168.876152 90.811313 
L 169.366127 90.811313 
L 169.484909 88.370909 
L 169.514604 88.370909 
L 169.529452 85.930505 
L 169.618538 88.370909 
L 170.672727 88.370909 
L 170.791509 85.930505 
L 171.073616 85.930505 
L 171.133007 88.370909 
L 171.17755 85.930505 
L 172.395064 85.930505 
L 172.513846 83.490101 
L 172.736562 83.490101 
L 172.855344 81.049697 
L 175.438849 81.049697 
L 175.557631 78.609293 
L 175.735804 78.609293 
L 175.854585 76.168889 
L 177.042404 76.168889 
L 177.161186 73.728485 
L 177.576922 73.728485 
L 177.695704 71.288081 
L 178.259918 71.288081 
L 178.3787 68.847677 
L 179.046848 68.847677 
L 179.165629 66.407273 
L 179.328954 66.407273 
L 179.447736 63.966869 
L 181.12553 63.966869 
L 181.244312 61.526465 
L 184.273249 61.526465 
L 184.392031 59.086061 
L 184.421726 59.086061 
L 184.540508 56.645657 
L 186.307388 56.645657 
L 186.42617 54.205253 
L 186.485561 54.205253 
L 186.604343 51.764848 
L 187.420968 51.764848 
L 187.53975 49.324444 
L 187.569445 49.324444 
L 187.688227 46.88404 
L 204.881899 46.88404 
L 205.000681 49.324444 
L 207.03482 49.324444 
L 207.153602 51.764848 
L 207.673273 51.764848 
L 207.792055 54.205253 
L 208.103857 54.205253 
L 208.222639 56.645657 
L 208.623528 56.645657 
L 208.742309 59.086061 
L 209.618326 59.086061 
L 209.737107 61.526465 
L 209.811346 61.526465 
L 209.930128 63.966869 
L 211.741551 63.966869 
L 211.860333 66.407273 
L 212.038506 66.407273 
L 212.157287 68.847677 
L 212.766044 68.847677 
L 212.899674 73.728485 
L 213.567822 73.728485 
L 213.701452 78.609293 
L 213.820233 78.609293 
L 213.953863 83.490101 
L 215.230768 83.490101 
L 215.34955 85.930505 
L 215.601961 85.930505 
L 215.720743 88.370909 
L 216.00285 88.370909 
L 216.121632 90.811313 
L 216.314652 90.811313 
L 216.433434 93.251717 
L 216.507673 93.251717 
L 216.626455 95.692121 
L 216.78978 95.692121 
L 216.908561 98.132525 
L 217.190668 98.132525 
L 217.339146 105.453737 
L 218.022141 105.453737 
L 218.155771 110.334545 
L 219.002091 110.334545 
L 219.120873 107.894141 
L 219.224807 107.894141 
L 219.343589 110.334545 
L 219.744478 110.334545 
L 219.878108 115.215354 
L 219.982042 115.215354 
L 220.05628 117.655758 
L 220.085976 115.215354 
L 220.338387 115.215354 
L 220.457169 117.655758 
L 220.51656 117.655758 
L 220.635342 120.096162 
L 220.917449 120.096162 
L 220.97684 117.655758 
L 221.021383 120.096162 
L 221.362881 120.096162 
L 221.49651 124.97697 
L 222.506156 124.97697 
L 222.654633 132.298182 
L 223.07037 132.298182 
L 223.203999 137.17899 
L 223.233695 137.17899 
L 223.307933 134.738586 
L 223.322781 137.17899 
L 223.441563 139.619394 
L 223.575193 139.619394 
L 223.693974 137.17899 
L 223.886995 137.17899 
L 224.020625 132.298182 
L 224.213645 132.298182 
L 224.347275 137.17899 
L 224.451209 137.17899 
L 224.569991 139.619394 
L 224.673925 139.619394 
L 224.792707 142.059798 
L 224.911488 142.059798 
L 224.970879 137.17899 
L 225.03027 139.619394 
L 225.208443 139.619394 
L 225.223291 137.17899 
L 225.312377 139.619394 
L 225.431159 142.059798 
L 225.713266 142.059798 
L 225.832048 144.500202 
L 226.307175 144.500202 
L 226.440805 149.38101 
L 226.485348 149.38101 
L 226.60413 151.821414 
L 226.782302 151.821414 
L 226.901084 149.38101 
L 226.93078 149.38101 
L 227.049562 151.821414 
L 227.212887 151.821414 
L 227.346516 156.702222 
L 227.762253 156.702222 
L 227.851339 159.142626 
L 227.866187 156.702222 
L 228.014664 156.702222 
L 228.133446 154.261818 
L 228.267076 159.142626 
L 228.667964 159.142626 
L 228.757051 156.702222 
L 228.771898 159.142626 
L 228.905528 159.142626 
L 229.02431 161.58303 
L 229.692458 161.58303 
L 229.81124 159.142626 
L 230.063651 159.142626 
L 230.167585 161.58303 
L 230.286367 159.142626 
L 230.523931 159.142626 
L 230.642713 161.58303 
L 231.696901 161.58303 
L 231.785988 159.142626 
L 231.800836 161.58303 
L 232.008704 161.58303 
L 232.127486 159.142626 
L 232.246267 161.58303 
L 232.647156 161.58303 
L 232.780786 156.702222 
L 233.270761 156.702222 
L 233.389543 154.261818 
L 233.731041 154.261818 
L 233.849822 151.821414 
L 234.666448 151.821414 
L 234.785229 149.38101 
L 234.829773 149.38101 
L 234.948554 151.821414 
L 235.037641 151.821414 
L 235.156423 149.38101 
L 235.63155 149.38101 
L 235.750332 146.940606 
L 235.839418 146.940606 
L 235.973048 142.059798 
L 236.299698 142.059798 
L 236.41848 139.619394 
L 236.433328 139.619394 
L 236.552109 142.059798 
L 236.774825 142.059798 
L 236.893607 139.619394 
L 236.967846 139.619394 
L 237.012389 142.059798 
L 237.07178 139.619394 
L 237.190562 139.619394 
L 237.324191 134.738586 
L 237.339039 134.738586 
L 237.472669 129.857778 
L 237.650842 129.857778 
L 237.665689 132.298182 
L 237.754776 129.857778 
L 238.140817 129.857778 
L 238.259598 127.417374 
L 238.348685 127.417374 
L 238.437771 124.97697 
L 238.452619 127.417374 
L 238.719878 127.417374 
L 238.794117 129.857778 
L 238.823812 127.417374 
L 239.477112 127.417374 
L 239.595894 124.97697 
L 239.981935 124.97697 
L 240.115565 120.096162 
L 240.516454 120.096162 
L 240.635235 122.536566 
L 240.917342 122.536566 
L 241.036124 120.096162 
L 241.511252 120.096162 
L 241.659729 112.774949 
L 241.882445 112.774949 
L 242.001227 110.334545 
L 242.164552 110.334545 
L 242.283334 107.894141 
L 242.357572 107.894141 
L 242.476354 105.453737 
L 243.040568 105.453737 
L 243.15935 103.013333 
L 243.664173 103.013333 
L 243.768107 105.453737 
L 243.81265 103.013333 
L 243.872041 105.453737 
L 244.198691 105.453737 
L 244.317473 103.013333 
L 245.059859 103.013333 
L 245.178641 100.572929 
L 245.341966 100.572929 
L 245.490443 93.251717 
L 245.698312 93.251717 
L 245.817094 95.692121 
L 245.876484 95.692121 
L 245.995266 98.132525 
L 246.114048 95.692121 
L 246.292221 95.692121 
L 246.411003 93.251717 
L 246.470394 93.251717 
L 246.589176 90.811313 
L 246.811891 90.811313 
L 246.930673 93.251717 
L 246.960369 93.251717 
L 247.079151 95.692121 
L 247.747299 95.692121 
L 247.880928 90.811313 
L 250.078392 90.811313 
L 250.197174 88.370909 
L 250.464433 88.370909 
L 250.583215 85.930505 
L 250.701997 85.930505 
L 250.820779 83.490101 
L 251.295906 83.490101 
L 251.414688 81.049697 
L 251.978902 81.049697 
L 252.097684 78.609293 
L 252.275856 78.609293 
L 252.394638 76.168889 
L 253.033091 76.168889 
L 253.16672 71.288081 
L 253.701239 71.288081 
L 253.82002 68.847677 
L 256.641089 68.847677 
L 256.774719 63.966869 
L 256.819262 63.966869 
L 256.938044 61.526465 
L 258.660381 61.526465 
L 258.779163 59.086061 
L 261.036018 59.086061 
L 261.1548 56.645657 
L 261.362668 56.645657 
L 261.48145 54.205253 
L 263.159243 54.205253 
L 263.278025 51.764848 
L 267.658106 51.764848 
L 267.791735 46.88404 
L 278.393015 46.88404 
L 278.511797 49.324444 
L 279.447204 49.324444 
L 279.580834 54.205253 
L 280.308372 54.205253 
L 280.427154 56.645657 
L 282.624618 56.645657 
L 282.7434 59.086061 
L 282.966116 59.086061 
L 283.084898 61.526465 
L 283.277919 61.526465 
L 283.411548 66.407273 
L 284.302412 66.407273 
L 284.436042 71.288081 
L 284.599367 71.288081 
L 284.718149 73.728485 
L 285.178428 73.728485 
L 285.29721 71.288081 
L 286.173226 71.288081 
L 286.292008 73.728485 
L 287.242263 73.728485 
L 287.361045 76.168889 
L 287.405588 76.168889 
L 287.52437 78.609293 
L 288.058888 78.609293 
L 288.17767 81.049697 
L 289.083381 81.049697 
L 289.202163 83.490101 
L 289.558509 83.490101 
L 289.677291 85.930505 
L 290.419677 85.930505 
L 290.553307 81.049697 
L 291.087825 81.049697 
L 291.206607 83.490101 
L 291.399627 83.490101 
L 291.518409 85.930505 
L 292.03808 85.930505 
L 292.171709 90.811313 
L 292.305339 90.811313 
L 292.424121 88.370909 
L 292.55775 88.370909 
L 292.661685 85.930505 
L 292.780466 88.370909 
L 293.121964 88.370909 
L 293.240746 90.811313 
L 294.057371 90.811313 
L 294.176153 93.251717 
L 294.428565 93.251717 
L 294.562194 98.132525 
L 294.636433 98.132525 
L 294.755215 95.692121 
L 295.022474 95.692121 
L 295.141256 98.132525 
L 295.230342 98.132525 
L 295.363972 103.013333 
L 295.690622 103.013333 
L 295.809404 105.453737 
L 296.165749 105.453737 
L 296.284531 107.894141 
L 296.403313 107.894141 
L 296.522095 110.334545 
L 296.581486 110.334545 
L 296.715115 115.215354 
L 296.729963 115.215354 
L 296.863592 120.096162 
L 297.056613 120.096162 
L 297.175395 122.536566 
L 297.442654 122.536566 
L 297.53174 120.096162 
L 297.546588 122.536566 
L 297.739609 122.536566 
L 297.85839 124.97697 
L 298.185041 124.97697 
L 298.303822 127.417374 
L 298.868036 127.417374 
L 298.986818 129.857778 
L 299.372859 129.857778 
L 299.506489 134.738586 
L 300.308266 134.738586 
L 300.323114 137.17899 
L 300.4122 134.738586 
L 300.73885 134.738586 
L 300.857632 132.298182 
L 300.902175 132.298182 
L 301.050653 139.619394 
L 301.273369 139.619394 
L 301.39215 142.059798 
L 301.555475 142.059798 
L 301.674257 144.500202 
L 301.748496 144.500202 
L 301.867278 146.940606 
L 302.253319 146.940606 
L 302.372101 144.500202 
L 302.431492 144.500202 
L 302.550273 146.940606 
L 302.758142 146.940606 
L 302.876923 144.500202 
L 303.15903 144.500202 
L 303.262964 146.940606 
L 303.381746 144.500202 
L 303.589615 144.500202 
L 303.604462 146.940606 
L 303.663853 142.059798 
L 303.678701 142.059798 
L 304.183524 142.059798 
L 304.302306 139.619394 
L 304.450783 139.619394 
L 304.569565 142.059798 
L 304.73289 142.059798 
L 304.881367 149.38101 
L 305.163474 149.38101 
L 305.282256 146.940606 
L 305.38619 146.940606 
L 305.504972 149.38101 
L 305.683145 149.38101 
L 305.787079 151.821414 
L 305.861317 149.38101 
L 305.891013 151.821414 
L 306.277054 151.821414 
L 306.395836 149.38101 
L 306.633399 149.38101 
L 306.752181 146.940606 
L 307.138222 146.940606 
L 307.271852 151.821414 
L 307.80637 151.821414 
L 307.94 146.940606 
L 308.26665 146.940606 
L 308.385432 144.500202 
L 308.444823 144.500202 
L 308.563604 142.059798 
L 308.697234 142.059798 
L 308.845711 134.738586 
L 309.142666 134.738586 
L 309.276296 129.857778 
L 309.439621 129.857778 
L 309.469316 127.417374 
L 309.543555 129.857778 
L 309.766271 129.857778 
L 309.855357 127.417374 
L 309.870205 129.857778 
L 309.974139 129.857778 
L 310.092921 124.97697 
L 310.211703 127.417374 
L 310.241398 127.417374 
L 310.36018 124.97697 
L 310.68683 124.97697 
L 310.805612 127.417374 
L 311.369826 127.417374 
L 311.488607 129.857778 
L 311.66678 129.857778 
L 311.785562 132.298182 
L 311.889496 132.298182 
L 312.008278 129.857778 
L 312.424014 129.857778 
L 312.557644 134.738586 
L 312.735817 134.738586 
L 312.854599 132.298182 
L 313.092162 132.298182 
L 313.210944 134.738586 
L 313.983026 134.738586 
L 314.101808 132.298182 
L 314.591783 132.298182 
L 314.725413 127.417374 
L 315.423256 127.417374 
L 315.542038 124.97697 
L 316.032013 124.97697 
L 316.165643 129.857778 
L 316.210186 129.857778 
L 316.284425 132.298182 
L 316.31412 129.857778 
L 316.566531 129.857778 
L 316.685313 127.417374 
L 317.29407 127.417374 
L 317.4277 122.536566 
L 317.457395 122.536566 
L 317.576177 120.096162 
L 318.006761 120.096162 
L 318.051304 117.655758 
L 318.110695 120.096162 
L 318.21463 120.096162 
L 318.348259 115.215354 
L 318.927321 115.215354 
L 319.046102 112.774949 
L 319.743946 112.774949 
L 319.862728 110.334545 
L 320.129987 110.334545 
L 320.248769 107.894141 
L 320.426941 107.894141 
L 320.545723 110.334545 
L 320.753592 110.334545 
L 320.872373 112.774949 
L 320.991155 112.774949 
L 321.109937 110.334545 
L 321.28811 110.334545 
L 321.406892 107.894141 
L 321.718694 107.894141 
L 321.837476 105.453737 
L 322.550167 105.453737 
L 322.668949 107.894141 
L 323.262858 107.894141 
L 323.38164 105.453737 
L 323.411335 105.453737 
L 323.530117 103.013333 
L 323.782529 103.013333 
L 323.90131 100.572929 
L 323.945854 100.572929 
L 324.094331 93.251717 
L 324.866413 93.251717 
L 324.985195 90.811313 
L 325.103977 90.811313 
L 325.222759 88.370909 
L 325.47517 88.370909 
L 325.593952 85.930505 
L 325.6088 85.930505 
L 325.727581 83.490101 
L 325.950297 83.490101 
L 326.069079 81.049697 
L 327.049029 81.049697 
L 327.182659 85.930505 
L 327.969589 85.930505 
L 328.088371 83.490101 
L 328.860453 83.490101 
L 328.979234 81.049697 
L 329.038625 81.049697 
L 329.172255 76.168889 
L 330.018576 76.168889 
L 330.137357 73.728485 
L 330.538246 73.728485 
L 330.657028 71.288081 
L 332.913883 71.288081 
L 333.032665 68.847677 
L 333.84929 68.847677 
L 333.968072 66.407273 
L 334.858936 66.407273 
L 334.977718 63.966869 
L 336.86338 63.966869 
L 336.982161 61.526465 
L 340.515921 61.526465 
L 340.634703 59.086061 
L 342.134324 59.086061 
L 342.253106 56.645657 
L 344.569352 56.645657 
L 344.688134 59.086061 
L 344.717829 59.086061 
L 344.836611 56.645657 
L 349.810601 56.645657 
L 349.944231 61.526465 
L 351.696263 61.526465 
L 351.815045 63.966869 
L 351.948674 63.966869 
L 351.963522 66.407273 
L 352.052608 63.966869 
L 353.329513 63.966869 
L 353.448295 61.526465 
L 354.027357 61.526465 
L 354.146138 63.966869 
L 356.833578 63.966869 
L 356.95236 66.407273 
L 357.561117 66.407273 
L 357.679898 63.966869 
L 358.645001 63.966869 
L 358.763783 61.526465 
L 359.714037 61.526465 
L 359.832819 63.966869 
L 360.100078 63.966869 
L 360.129774 61.526465 
L 360.204013 63.966869 
L 361.644243 63.966869 
L 361.763024 66.407273 
L 362.149065 66.407273 
L 362.267847 68.847677 
L 362.653888 68.847677 
L 362.77267 71.288081 
L 362.995386 71.288081 
L 363.129016 76.168889 
L 363.574448 76.168889 
L 363.693229 78.609293 
L 364.554398 78.609293 
L 364.67318 81.049697 
L 365.178002 81.049697 
L 365.296784 83.490101 
L 366.024323 83.490101 
L 366.143105 85.930505 
L 366.425212 85.930505 
L 366.543994 83.490101 
L 367.197294 83.490101 
L 367.330923 88.370909 
L 367.538792 88.370909 
L 367.657574 85.930505 
L 367.776355 88.370909 
L 367.835746 88.370909 
L 367.954528 90.811313 
L 368.088158 90.811313 
L 368.236635 98.132525 
L 368.474199 98.132525 
L 368.53359 95.692121 
L 368.578133 98.132525 
L 368.637524 98.132525 
L 368.756306 100.572929 
L 368.830544 100.572929 
L 368.949326 103.013333 
L 369.157194 103.013333 
L 369.275976 105.453737 
L 369.365063 105.453737 
L 369.498692 110.334545 
L 369.632322 110.334545 
L 369.751104 112.774949 
L 370.478642 112.774949 
L 370.597424 110.334545 
L 370.760749 110.334545 
L 370.894379 105.453737 
L 371.28042 105.453737 
L 371.399202 107.894141 
L 372.126741 107.894141 
L 372.245522 110.334545 
L 372.438543 110.334545 
L 372.572172 105.453737 
L 373.37395 105.453737 
L 373.492732 107.894141 
L 373.581818 107.894141 
L 373.581818 107.894141 
" style="fill:none;stroke:#8b0000;stroke-linecap:square;stroke-width:1.5;"/>
   </g>
   <g id="patch_3">
    <path d="M 54 252 
L 54 34.56 
" style="fill:none;stroke:#000000;stroke-linecap:square;stroke-linejoin:miter;stroke-width:0.8;"/>
   </g>
   <g id="patch_4">
    <path d="M 388.8 252 
L 388.8 34.56 
" style="fill:none;stroke:#000000;stroke-linecap:square;stroke-linejoin:miter;stroke-width:0.8;"/>
   </g>
   <g id="patch_5">
    <path d="M 54 252 
L 388.8 252 
" style="fill:none;stroke:#000000;stroke-linecap:square;stroke-linejoin:miter;stroke-width:0.8;"/>
   </g>
   <g id="patch_6">
    <path d="M 54 34.56 
L 388.8 34.56 
" style="fill:none;stroke:#000000;stroke-linecap:square;stroke-linejoin:miter;stroke-width:0.8;"/>
   </g>
   <g id="legend_1">
    <g id="patch_7">
     <path d="M 312.525 247 
L 381.8 247 
Q 383.8 247 383.8 245 
L 383.8 216.64375 
Q 383.8 214.64375 381.8 214.64375 
L 312.525 214.64375 
Q 310.525 214.64375 310.525 216.64375 
L 310.525 245 
Q 310.525 247 312.525 247 
z
" style="fill:#ffffff;opacity:0.8;stroke:#cccccc;stroke-linejoin:miter;"/>
    </g>
    <g id="line2d_16">
     <path d="M 314.525 222.742188 
L 334.525 222.742188 
" style="fill:none;stroke:#006400;stroke-linecap:square;stroke-width:1.5;"/>
    </g>
    <g id="line2d_17"/>
    <g id="text_14">
     <!-- Trust -->
     <g transform="translate(342.525 226.242188)scale(0.1 -0.1)">
      <use xlink:href="#DejaVuSans-84"/>
      <use x="46.333984" xlink:href="#DejaVuSans-114"/>
      <use x="87.447266" xlink:href="#DejaVuSans-117"/>
      <use x="150.826172" xlink:href="#DejaVuSans-115"/>
      <use x="202.925781" xlink:href="#DejaVuSans-116"/>
     </g>
    </g>
    <g id="line2d_18">
     <path d="M 314.525 237.420312 
L 334.525 237.420312 
" style="fill:none;stroke:#8b0000;stroke-linecap:square;stroke-width:1.5;"/>
    </g>
    <g id="line2d_19"/>
    <g id="text_15">
     <!-- Sinners -->
     <g transform="translate(342.525 240.920312)scale(0.1 -0.1)">
      <use xlink:href="#DejaVuSans-83"/>
      <use x="63.476562" xlink:href="#DejaVuSans-105"/>
      <use x="91.259766" xlink:href="#DejaVuSans-110"/>
      <use x="154.638672" xlink:href="#DejaVuSans-110"/>
      <use x="218.017578" xlink:href="#DejaVuSans-101"/>
      <use x="279.541016" xlink:href="#DejaVuSans-114"/>
      <use x="320.654297" xlink:href="#DejaVuSans-115"/>
     </g>
    </g>
   </g>
  </g>
 </g>
 <defs>
  <clipPath id="p042b569422">
   <rect height="217.44" width="334.8" x="54" y="34.56"/>
  </clipPath>
 </defs>
</svg>
