<?xml version="1.0" encoding="utf-8" standalone="no"?>
<!DOCTYPE svg PUBLIC "-//W3C//DTD SVG 1.1//EN"
  "http://www.w3.org/Graphics/SVG/1.1/DTD/svg11.dtd">
<!-- Created with matplotlib (https://matplotlib.org/) -->
<svg height="288pt" version="1.1" viewBox="0 0 432 288" width="432pt" xmlns="http://www.w3.org/2000/svg" xmlns:xlink="http://www.w3.org/1999/xlink">
 <defs>
  <style type="text/css">
*{stroke-linecap:butt;stroke-linejoin:round;}
  </style>
 </defs>
 <g id="figure_1">
  <g id="patch_1">
   <path d="M 0 288 
L 432 288 
L 432 0 
L 0 0 
z
" style="fill:#ffffff;"/>
  </g>
  <g id="axes_1">
   <g id="patch_2">
    <path d="M 54 252 
L 388.8 252 
L 388.8 34.56 
L 54 34.56 
z
" style="fill:#ffffff;"/>
   </g>
   <g id="matplotlib.axis_1">
    <g id="xtick_1">
     <g id="line2d_1">
      <defs>
       <path d="M 0 0 
L 0 3.5 
" id="maa91df59a8" style="stroke:#000000;stroke-width:0.8;"/>
      </defs>
      <g>
       <use style="stroke:#000000;stroke-width:0.8;" x="69.218182" xlink:href="#maa91df59a8" y="252"/>
      </g>
     </g>
     <g id="text_1">
      <!-- 0 -->
      <defs>
       <path d="M 31.78125 66.40625 
Q 24.171875 66.40625 20.328125 58.90625 
Q 16.5 51.421875 16.5 36.375 
Q 16.5 21.390625 20.328125 13.890625 
Q 24.171875 6.390625 31.78125 6.390625 
Q 39.453125 6.390625 43.28125 13.890625 
Q 47.125 21.390625 47.125 36.375 
Q 47.125 51.421875 43.28125 58.90625 
Q 39.453125 66.40625 31.78125 66.40625 
z
M 31.78125 74.21875 
Q 44.046875 74.21875 50.515625 64.515625 
Q 56.984375 54.828125 56.984375 36.375 
Q 56.984375 17.96875 50.515625 8.265625 
Q 44.046875 -1.421875 31.78125 -1.421875 
Q 19.53125 -1.421875 13.0625 8.265625 
Q 6.59375 17.96875 6.59375 36.375 
Q 6.59375 54.828125 13.0625 64.515625 
Q 19.53125 74.21875 31.78125 74.21875 
z
" id="DejaVuSans-48"/>
      </defs>
      <g transform="translate(66.036932 266.598437)scale(0.1 -0.1)">
       <use xlink:href="#DejaVuSans-48"/>
      </g>
     </g>
    </g>
    <g id="xtick_2">
     <g id="line2d_2">
      <g>
       <use style="stroke:#000000;stroke-width:0.8;" x="127.19773" xlink:href="#maa91df59a8" y="252"/>
      </g>
     </g>
     <g id="text_2">
      <!-- 2000 -->
      <defs>
       <path d="M 19.1875 8.296875 
L 53.609375 8.296875 
L 53.609375 0 
L 7.328125 0 
L 7.328125 8.296875 
Q 12.9375 14.109375 22.625 23.890625 
Q 32.328125 33.6875 34.8125 36.53125 
Q 39.546875 41.84375 41.421875 45.53125 
Q 43.3125 49.21875 43.3125 52.78125 
Q 43.3125 58.59375 39.234375 62.25 
Q 35.15625 65.921875 28.609375 65.921875 
Q 23.96875 65.921875 18.8125 64.3125 
Q 13.671875 62.703125 7.8125 59.421875 
L 7.8125 69.390625 
Q 13.765625 71.78125 18.9375 73 
Q 24.125 74.21875 28.421875 74.21875 
Q 39.75 74.21875 46.484375 68.546875 
Q 53.21875 62.890625 53.21875 53.421875 
Q 53.21875 48.921875 51.53125 44.890625 
Q 49.859375 40.875 45.40625 35.40625 
Q 44.1875 33.984375 37.640625 27.21875 
Q 31.109375 20.453125 19.1875 8.296875 
z
" id="DejaVuSans-50"/>
      </defs>
      <g transform="translate(114.47273 266.598437)scale(0.1 -0.1)">
       <use xlink:href="#DejaVuSans-50"/>
       <use x="63.623047" xlink:href="#DejaVuSans-48"/>
       <use x="127.246094" xlink:href="#DejaVuSans-48"/>
       <use x="190.869141" xlink:href="#DejaVuSans-48"/>
      </g>
     </g>
    </g>
    <g id="xtick_3">
     <g id="line2d_3">
      <g>
       <use style="stroke:#000000;stroke-width:0.8;" x="185.177277" xlink:href="#maa91df59a8" y="252"/>
      </g>
     </g>
     <g id="text_3">
      <!-- 4000 -->
      <defs>
       <path d="M 37.796875 64.3125 
L 12.890625 25.390625 
L 37.796875 25.390625 
z
M 35.203125 72.90625 
L 47.609375 72.90625 
L 47.609375 25.390625 
L 58.015625 25.390625 
L 58.015625 17.1875 
L 47.609375 17.1875 
L 47.609375 0 
L 37.796875 0 
L 37.796875 17.1875 
L 4.890625 17.1875 
L 4.890625 26.703125 
z
" id="DejaVuSans-52"/>
      </defs>
      <g transform="translate(172.452277 266.598437)scale(0.1 -0.1)">
       <use xlink:href="#DejaVuSans-52"/>
       <use x="63.623047" xlink:href="#DejaVuSans-48"/>
       <use x="127.246094" xlink:href="#DejaVuSans-48"/>
       <use x="190.869141" xlink:href="#DejaVuSans-48"/>
      </g>
     </g>
    </g>
    <g id="xtick_4">
     <g id="line2d_4">
      <g>
       <use style="stroke:#000000;stroke-width:0.8;" x="243.156825" xlink:href="#maa91df59a8" y="252"/>
      </g>
     </g>
     <g id="text_4">
      <!-- 6000 -->
      <defs>
       <path d="M 33.015625 40.375 
Q 26.375 40.375 22.484375 35.828125 
Q 18.609375 31.296875 18.609375 23.390625 
Q 18.609375 15.53125 22.484375 10.953125 
Q 26.375 6.390625 33.015625 6.390625 
Q 39.65625 6.390625 43.53125 10.953125 
Q 47.40625 15.53125 47.40625 23.390625 
Q 47.40625 31.296875 43.53125 35.828125 
Q 39.65625 40.375 33.015625 40.375 
z
M 52.59375 71.296875 
L 52.59375 62.3125 
Q 48.875 64.0625 45.09375 64.984375 
Q 41.3125 65.921875 37.59375 65.921875 
Q 27.828125 65.921875 22.671875 59.328125 
Q 17.53125 52.734375 16.796875 39.40625 
Q 19.671875 43.65625 24.015625 45.921875 
Q 28.375 48.1875 33.59375 48.1875 
Q 44.578125 48.1875 50.953125 41.515625 
Q 57.328125 34.859375 57.328125 23.390625 
Q 57.328125 12.15625 50.6875 5.359375 
Q 44.046875 -1.421875 33.015625 -1.421875 
Q 20.359375 -1.421875 13.671875 8.265625 
Q 6.984375 17.96875 6.984375 36.375 
Q 6.984375 53.65625 15.1875 63.9375 
Q 23.390625 74.21875 37.203125 74.21875 
Q 40.921875 74.21875 44.703125 73.484375 
Q 48.484375 72.75 52.59375 71.296875 
z
" id="DejaVuSans-54"/>
      </defs>
      <g transform="translate(230.431825 266.598437)scale(0.1 -0.1)">
       <use xlink:href="#DejaVuSans-54"/>
       <use x="63.623047" xlink:href="#DejaVuSans-48"/>
       <use x="127.246094" xlink:href="#DejaVuSans-48"/>
       <use x="190.869141" xlink:href="#DejaVuSans-48"/>
      </g>
     </g>
    </g>
    <g id="xtick_5">
     <g id="line2d_5">
      <g>
       <use style="stroke:#000000;stroke-width:0.8;" x="301.136373" xlink:href="#maa91df59a8" y="252"/>
      </g>
     </g>
     <g id="text_5">
      <!-- 8000 -->
      <defs>
       <path d="M 31.78125 34.625 
Q 24.75 34.625 20.71875 30.859375 
Q 16.703125 27.09375 16.703125 20.515625 
Q 16.703125 13.921875 20.71875 10.15625 
Q 24.75 6.390625 31.78125 6.390625 
Q 38.8125 6.390625 42.859375 10.171875 
Q 46.921875 13.96875 46.921875 20.515625 
Q 46.921875 27.09375 42.890625 30.859375 
Q 38.875 34.625 31.78125 34.625 
z
M 21.921875 38.8125 
Q 15.578125 40.375 12.03125 44.71875 
Q 8.5 49.078125 8.5 55.328125 
Q 8.5 64.0625 14.71875 69.140625 
Q 20.953125 74.21875 31.78125 74.21875 
Q 42.671875 74.21875 48.875 69.140625 
Q 55.078125 64.0625 55.078125 55.328125 
Q 55.078125 49.078125 51.53125 44.71875 
Q 48 40.375 41.703125 38.8125 
Q 48.828125 37.15625 52.796875 32.3125 
Q 56.78125 27.484375 56.78125 20.515625 
Q 56.78125 9.90625 50.3125 4.234375 
Q 43.84375 -1.421875 31.78125 -1.421875 
Q 19.734375 -1.421875 13.25 4.234375 
Q 6.78125 9.90625 6.78125 20.515625 
Q 6.78125 27.484375 10.78125 32.3125 
Q 14.796875 37.15625 21.921875 38.8125 
z
M 18.3125 54.390625 
Q 18.3125 48.734375 21.84375 45.5625 
Q 25.390625 42.390625 31.78125 42.390625 
Q 38.140625 42.390625 41.71875 45.5625 
Q 45.3125 48.734375 45.3125 54.390625 
Q 45.3125 60.0625 41.71875 63.234375 
Q 38.140625 66.40625 31.78125 66.40625 
Q 25.390625 66.40625 21.84375 63.234375 
Q 18.3125 60.0625 18.3125 54.390625 
z
" id="DejaVuSans-56"/>
      </defs>
      <g transform="translate(288.411373 266.598437)scale(0.1 -0.1)">
       <use xlink:href="#DejaVuSans-56"/>
       <use x="63.623047" xlink:href="#DejaVuSans-48"/>
       <use x="127.246094" xlink:href="#DejaVuSans-48"/>
       <use x="190.869141" xlink:href="#DejaVuSans-48"/>
      </g>
     </g>
    </g>
    <g id="xtick_6">
     <g id="line2d_6">
      <g>
       <use style="stroke:#000000;stroke-width:0.8;" x="359.115921" xlink:href="#maa91df59a8" y="252"/>
      </g>
     </g>
     <g id="text_6">
      <!-- 10000 -->
      <defs>
       <path d="M 12.40625 8.296875 
L 28.515625 8.296875 
L 28.515625 63.921875 
L 10.984375 60.40625 
L 10.984375 69.390625 
L 28.421875 72.90625 
L 38.28125 72.90625 
L 38.28125 8.296875 
L 54.390625 8.296875 
L 54.390625 0 
L 12.40625 0 
z
" id="DejaVuSans-49"/>
      </defs>
      <g transform="translate(343.209671 266.598437)scale(0.1 -0.1)">
       <use xlink:href="#DejaVuSans-49"/>
       <use x="63.623047" xlink:href="#DejaVuSans-48"/>
       <use x="127.246094" xlink:href="#DejaVuSans-48"/>
       <use x="190.869141" xlink:href="#DejaVuSans-48"/>
       <use x="254.492188" xlink:href="#DejaVuSans-48"/>
      </g>
     </g>
    </g>
    <g id="text_7">
     <!-- Simulation Time -->
     <defs>
      <path d="M 53.515625 70.515625 
L 53.515625 60.890625 
Q 47.90625 63.578125 42.921875 64.890625 
Q 37.9375 66.21875 33.296875 66.21875 
Q 25.25 66.21875 20.875 63.09375 
Q 16.5 59.96875 16.5 54.203125 
Q 16.5 49.359375 19.40625 46.890625 
Q 22.3125 44.4375 30.421875 42.921875 
L 36.375 41.703125 
Q 47.40625 39.59375 52.65625 34.296875 
Q 57.90625 29 57.90625 20.125 
Q 57.90625 9.515625 50.796875 4.046875 
Q 43.703125 -1.421875 29.984375 -1.421875 
Q 24.8125 -1.421875 18.96875 -0.25 
Q 13.140625 0.921875 6.890625 3.21875 
L 6.890625 13.375 
Q 12.890625 10.015625 18.65625 8.296875 
Q 24.421875 6.59375 29.984375 6.59375 
Q 38.421875 6.59375 43.015625 9.90625 
Q 47.609375 13.234375 47.609375 19.390625 
Q 47.609375 24.75 44.3125 27.78125 
Q 41.015625 30.8125 33.5 32.328125 
L 27.484375 33.5 
Q 16.453125 35.6875 11.515625 40.375 
Q 6.59375 45.0625 6.59375 53.421875 
Q 6.59375 63.09375 13.40625 68.65625 
Q 20.21875 74.21875 32.171875 74.21875 
Q 37.3125 74.21875 42.625 73.28125 
Q 47.953125 72.359375 53.515625 70.515625 
z
" id="DejaVuSans-83"/>
      <path d="M 9.421875 54.6875 
L 18.40625 54.6875 
L 18.40625 0 
L 9.421875 0 
z
M 9.421875 75.984375 
L 18.40625 75.984375 
L 18.40625 64.59375 
L 9.421875 64.59375 
z
" id="DejaVuSans-105"/>
      <path d="M 52 44.1875 
Q 55.375 50.25 60.0625 53.125 
Q 64.75 56 71.09375 56 
Q 79.640625 56 84.28125 50.015625 
Q 88.921875 44.046875 88.921875 33.015625 
L 88.921875 0 
L 79.890625 0 
L 79.890625 32.71875 
Q 79.890625 40.578125 77.09375 44.375 
Q 74.3125 48.1875 68.609375 48.1875 
Q 61.625 48.1875 57.5625 43.546875 
Q 53.515625 38.921875 53.515625 30.90625 
L 53.515625 0 
L 44.484375 0 
L 44.484375 32.71875 
Q 44.484375 40.625 41.703125 44.40625 
Q 38.921875 48.1875 33.109375 48.1875 
Q 26.21875 48.1875 22.15625 43.53125 
Q 18.109375 38.875 18.109375 30.90625 
L 18.109375 0 
L 9.078125 0 
L 9.078125 54.6875 
L 18.109375 54.6875 
L 18.109375 46.1875 
Q 21.1875 51.21875 25.484375 53.609375 
Q 29.78125 56 35.6875 56 
Q 41.65625 56 45.828125 52.96875 
Q 50 49.953125 52 44.1875 
z
" id="DejaVuSans-109"/>
      <path d="M 8.5 21.578125 
L 8.5 54.6875 
L 17.484375 54.6875 
L 17.484375 21.921875 
Q 17.484375 14.15625 20.5 10.265625 
Q 23.53125 6.390625 29.59375 6.390625 
Q 36.859375 6.390625 41.078125 11.03125 
Q 45.3125 15.671875 45.3125 23.6875 
L 45.3125 54.6875 
L 54.296875 54.6875 
L 54.296875 0 
L 45.3125 0 
L 45.3125 8.40625 
Q 42.046875 3.421875 37.71875 1 
Q 33.40625 -1.421875 27.6875 -1.421875 
Q 18.265625 -1.421875 13.375 4.4375 
Q 8.5 10.296875 8.5 21.578125 
z
M 31.109375 56 
z
" id="DejaVuSans-117"/>
      <path d="M 9.421875 75.984375 
L 18.40625 75.984375 
L 18.40625 0 
L 9.421875 0 
z
" id="DejaVuSans-108"/>
      <path d="M 34.28125 27.484375 
Q 23.390625 27.484375 19.1875 25 
Q 14.984375 22.515625 14.984375 16.5 
Q 14.984375 11.71875 18.140625 8.90625 
Q 21.296875 6.109375 26.703125 6.109375 
Q 34.1875 6.109375 38.703125 11.40625 
Q 43.21875 16.703125 43.21875 25.484375 
L 43.21875 27.484375 
z
M 52.203125 31.203125 
L 52.203125 0 
L 43.21875 0 
L 43.21875 8.296875 
Q 40.140625 3.328125 35.546875 0.953125 
Q 30.953125 -1.421875 24.3125 -1.421875 
Q 15.921875 -1.421875 10.953125 3.296875 
Q 6 8.015625 6 15.921875 
Q 6 25.140625 12.171875 29.828125 
Q 18.359375 34.515625 30.609375 34.515625 
L 43.21875 34.515625 
L 43.21875 35.40625 
Q 43.21875 41.609375 39.140625 45 
Q 35.0625 48.390625 27.6875 48.390625 
Q 23 48.390625 18.546875 47.265625 
Q 14.109375 46.140625 10.015625 43.890625 
L 10.015625 52.203125 
Q 14.9375 54.109375 19.578125 55.046875 
Q 24.21875 56 28.609375 56 
Q 40.484375 56 46.34375 49.84375 
Q 52.203125 43.703125 52.203125 31.203125 
z
" id="DejaVuSans-97"/>
      <path d="M 18.3125 70.21875 
L 18.3125 54.6875 
L 36.8125 54.6875 
L 36.8125 47.703125 
L 18.3125 47.703125 
L 18.3125 18.015625 
Q 18.3125 11.328125 20.140625 9.421875 
Q 21.96875 7.515625 27.59375 7.515625 
L 36.8125 7.515625 
L 36.8125 0 
L 27.59375 0 
Q 17.1875 0 13.234375 3.875 
Q 9.28125 7.765625 9.28125 18.015625 
L 9.28125 47.703125 
L 2.6875 47.703125 
L 2.6875 54.6875 
L 9.28125 54.6875 
L 9.28125 70.21875 
z
" id="DejaVuSans-116"/>
      <path d="M 30.609375 48.390625 
Q 23.390625 48.390625 19.1875 42.75 
Q 14.984375 37.109375 14.984375 27.296875 
Q 14.984375 17.484375 19.15625 11.84375 
Q 23.34375 6.203125 30.609375 6.203125 
Q 37.796875 6.203125 41.984375 11.859375 
Q 46.1875 17.53125 46.1875 27.296875 
Q 46.1875 37.015625 41.984375 42.703125 
Q 37.796875 48.390625 30.609375 48.390625 
z
M 30.609375 56 
Q 42.328125 56 49.015625 48.375 
Q 55.71875 40.765625 55.71875 27.296875 
Q 55.71875 13.875 49.015625 6.21875 
Q 42.328125 -1.421875 30.609375 -1.421875 
Q 18.84375 -1.421875 12.171875 6.21875 
Q 5.515625 13.875 5.515625 27.296875 
Q 5.515625 40.765625 12.171875 48.375 
Q 18.84375 56 30.609375 56 
z
" id="DejaVuSans-111"/>
      <path d="M 54.890625 33.015625 
L 54.890625 0 
L 45.90625 0 
L 45.90625 32.71875 
Q 45.90625 40.484375 42.875 44.328125 
Q 39.84375 48.1875 33.796875 48.1875 
Q 26.515625 48.1875 22.3125 43.546875 
Q 18.109375 38.921875 18.109375 30.90625 
L 18.109375 0 
L 9.078125 0 
L 9.078125 54.6875 
L 18.109375 54.6875 
L 18.109375 46.1875 
Q 21.34375 51.125 25.703125 53.5625 
Q 30.078125 56 35.796875 56 
Q 45.21875 56 50.046875 50.171875 
Q 54.890625 44.34375 54.890625 33.015625 
z
" id="DejaVuSans-110"/>
      <path id="DejaVuSans-32"/>
      <path d="M -0.296875 72.90625 
L 61.375 72.90625 
L 61.375 64.59375 
L 35.5 64.59375 
L 35.5 0 
L 25.59375 0 
L 25.59375 64.59375 
L -0.296875 64.59375 
z
" id="DejaVuSans-84"/>
      <path d="M 56.203125 29.59375 
L 56.203125 25.203125 
L 14.890625 25.203125 
Q 15.484375 15.921875 20.484375 11.0625 
Q 25.484375 6.203125 34.421875 6.203125 
Q 39.59375 6.203125 44.453125 7.46875 
Q 49.3125 8.734375 54.109375 11.28125 
L 54.109375 2.78125 
Q 49.265625 0.734375 44.1875 -0.34375 
Q 39.109375 -1.421875 33.890625 -1.421875 
Q 20.796875 -1.421875 13.15625 6.1875 
Q 5.515625 13.8125 5.515625 26.8125 
Q 5.515625 40.234375 12.765625 48.109375 
Q 20.015625 56 32.328125 56 
Q 43.359375 56 49.78125 48.890625 
Q 56.203125 41.796875 56.203125 29.59375 
z
M 47.21875 32.234375 
Q 47.125 39.59375 43.09375 43.984375 
Q 39.0625 48.390625 32.421875 48.390625 
Q 24.90625 48.390625 20.390625 44.140625 
Q 15.875 39.890625 15.1875 32.171875 
z
" id="DejaVuSans-101"/>
     </defs>
     <g transform="translate(180.944531 280.276563)scale(0.1 -0.1)">
      <use xlink:href="#DejaVuSans-83"/>
      <use x="63.476562" xlink:href="#DejaVuSans-105"/>
      <use x="91.259766" xlink:href="#DejaVuSans-109"/>
      <use x="188.671875" xlink:href="#DejaVuSans-117"/>
      <use x="252.050781" xlink:href="#DejaVuSans-108"/>
      <use x="279.833984" xlink:href="#DejaVuSans-97"/>
      <use x="341.113281" xlink:href="#DejaVuSans-116"/>
      <use x="380.322266" xlink:href="#DejaVuSans-105"/>
      <use x="408.105469" xlink:href="#DejaVuSans-111"/>
      <use x="469.287109" xlink:href="#DejaVuSans-110"/>
      <use x="532.666016" xlink:href="#DejaVuSans-32"/>
      <use x="564.453125" xlink:href="#DejaVuSans-84"/>
      <use x="622.412109" xlink:href="#DejaVuSans-105"/>
      <use x="650.195312" xlink:href="#DejaVuSans-109"/>
      <use x="747.607422" xlink:href="#DejaVuSans-101"/>
     </g>
    </g>
   </g>
   <g id="matplotlib.axis_2">
    <g id="ytick_1">
     <g id="line2d_7">
      <defs>
       <path d="M 0 0 
L -3.5 0 
" id="m098d9a9149" style="stroke:#000000;stroke-width:0.8;"/>
      </defs>
      <g>
       <use style="stroke:#000000;stroke-width:0.8;" x="54" xlink:href="#m098d9a9149" y="246.363082"/>
      </g>
     </g>
     <g id="text_8">
      <!-- 75% -->
      <defs>
       <path d="M 8.203125 72.90625 
L 55.078125 72.90625 
L 55.078125 68.703125 
L 28.609375 0 
L 18.3125 0 
L 43.21875 64.59375 
L 8.203125 64.59375 
z
" id="DejaVuSans-55"/>
       <path d="M 10.796875 72.90625 
L 49.515625 72.90625 
L 49.515625 64.59375 
L 19.828125 64.59375 
L 19.828125 46.734375 
Q 21.96875 47.46875 24.109375 47.828125 
Q 26.265625 48.1875 28.421875 48.1875 
Q 40.625 48.1875 47.75 41.5 
Q 54.890625 34.8125 54.890625 23.390625 
Q 54.890625 11.625 47.5625 5.09375 
Q 40.234375 -1.421875 26.90625 -1.421875 
Q 22.3125 -1.421875 17.546875 -0.640625 
Q 12.796875 0.140625 7.71875 1.703125 
L 7.71875 11.625 
Q 12.109375 9.234375 16.796875 8.0625 
Q 21.484375 6.890625 26.703125 6.890625 
Q 35.15625 6.890625 40.078125 11.328125 
Q 45.015625 15.765625 45.015625 23.390625 
Q 45.015625 31 40.078125 35.4375 
Q 35.15625 39.890625 26.703125 39.890625 
Q 22.75 39.890625 18.8125 39.015625 
Q 14.890625 38.140625 10.796875 36.28125 
z
" id="DejaVuSans-53"/>
       <path d="M 72.703125 32.078125 
Q 68.453125 32.078125 66.03125 28.46875 
Q 63.625 24.859375 63.625 18.40625 
Q 63.625 12.0625 66.03125 8.421875 
Q 68.453125 4.78125 72.703125 4.78125 
Q 76.859375 4.78125 79.265625 8.421875 
Q 81.6875 12.0625 81.6875 18.40625 
Q 81.6875 24.8125 79.265625 28.4375 
Q 76.859375 32.078125 72.703125 32.078125 
z
M 72.703125 38.28125 
Q 80.421875 38.28125 84.953125 32.90625 
Q 89.5 27.546875 89.5 18.40625 
Q 89.5 9.28125 84.9375 3.921875 
Q 80.375 -1.421875 72.703125 -1.421875 
Q 64.890625 -1.421875 60.34375 3.921875 
Q 55.8125 9.28125 55.8125 18.40625 
Q 55.8125 27.59375 60.375 32.9375 
Q 64.9375 38.28125 72.703125 38.28125 
z
M 22.3125 68.015625 
Q 18.109375 68.015625 15.6875 64.375 
Q 13.28125 60.75 13.28125 54.390625 
Q 13.28125 47.953125 15.671875 44.328125 
Q 18.0625 40.71875 22.3125 40.71875 
Q 26.5625 40.71875 28.96875 44.328125 
Q 31.390625 47.953125 31.390625 54.390625 
Q 31.390625 60.6875 28.953125 64.34375 
Q 26.515625 68.015625 22.3125 68.015625 
z
M 66.40625 74.21875 
L 74.21875 74.21875 
L 28.609375 -1.421875 
L 20.796875 -1.421875 
z
M 22.3125 74.21875 
Q 30.03125 74.21875 34.609375 68.875 
Q 39.203125 63.53125 39.203125 54.390625 
Q 39.203125 45.171875 34.640625 39.84375 
Q 30.078125 34.515625 22.3125 34.515625 
Q 14.546875 34.515625 10.03125 39.859375 
Q 5.515625 45.21875 5.515625 54.390625 
Q 5.515625 63.484375 10.046875 68.84375 
Q 14.59375 74.21875 22.3125 74.21875 
z
" id="DejaVuSans-37"/>
      </defs>
      <g transform="translate(24.773438 250.162301)scale(0.1 -0.1)">
       <use xlink:href="#DejaVuSans-55"/>
       <use x="63.623047" xlink:href="#DejaVuSans-53"/>
       <use x="127.246094" xlink:href="#DejaVuSans-37"/>
      </g>
     </g>
    </g>
    <g id="ytick_2">
     <g id="line2d_8">
      <g>
       <use style="stroke:#000000;stroke-width:0.8;" x="54" xlink:href="#m098d9a9149" y="204.296531"/>
      </g>
     </g>
     <g id="text_9">
      <!-- 80% -->
      <g transform="translate(24.773438 208.09575)scale(0.1 -0.1)">
       <use xlink:href="#DejaVuSans-56"/>
       <use x="63.623047" xlink:href="#DejaVuSans-48"/>
       <use x="127.246094" xlink:href="#DejaVuSans-37"/>
      </g>
     </g>
    </g>
    <g id="ytick_3">
     <g id="line2d_9">
      <g>
       <use style="stroke:#000000;stroke-width:0.8;" x="54" xlink:href="#m098d9a9149" y="162.22998"/>
      </g>
     </g>
     <g id="text_10">
      <!-- 85% -->
      <g transform="translate(24.773438 166.029198)scale(0.1 -0.1)">
       <use xlink:href="#DejaVuSans-56"/>
       <use x="63.623047" xlink:href="#DejaVuSans-53"/>
       <use x="127.246094" xlink:href="#DejaVuSans-37"/>
      </g>
     </g>
    </g>
    <g id="ytick_4">
     <g id="line2d_10">
      <g>
       <use style="stroke:#000000;stroke-width:0.8;" x="54" xlink:href="#m098d9a9149" y="120.163429"/>
      </g>
     </g>
     <g id="text_11">
      <!-- 90% -->
      <defs>
       <path d="M 10.984375 1.515625 
L 10.984375 10.5 
Q 14.703125 8.734375 18.5 7.8125 
Q 22.3125 6.890625 25.984375 6.890625 
Q 35.75 6.890625 40.890625 13.453125 
Q 46.046875 20.015625 46.78125 33.40625 
Q 43.953125 29.203125 39.59375 26.953125 
Q 35.25 24.703125 29.984375 24.703125 
Q 19.046875 24.703125 12.671875 31.3125 
Q 6.296875 37.9375 6.296875 49.421875 
Q 6.296875 60.640625 12.9375 67.421875 
Q 19.578125 74.21875 30.609375 74.21875 
Q 43.265625 74.21875 49.921875 64.515625 
Q 56.59375 54.828125 56.59375 36.375 
Q 56.59375 19.140625 48.40625 8.859375 
Q 40.234375 -1.421875 26.421875 -1.421875 
Q 22.703125 -1.421875 18.890625 -0.6875 
Q 15.09375 0.046875 10.984375 1.515625 
z
M 30.609375 32.421875 
Q 37.25 32.421875 41.125 36.953125 
Q 45.015625 41.5 45.015625 49.421875 
Q 45.015625 57.28125 41.125 61.84375 
Q 37.25 66.40625 30.609375 66.40625 
Q 23.96875 66.40625 20.09375 61.84375 
Q 16.21875 57.28125 16.21875 49.421875 
Q 16.21875 41.5 20.09375 36.953125 
Q 23.96875 32.421875 30.609375 32.421875 
z
" id="DejaVuSans-57"/>
      </defs>
      <g transform="translate(24.773438 123.962647)scale(0.1 -0.1)">
       <use xlink:href="#DejaVuSans-57"/>
       <use x="63.623047" xlink:href="#DejaVuSans-48"/>
       <use x="127.246094" xlink:href="#DejaVuSans-37"/>
      </g>
     </g>
    </g>
    <g id="ytick_5">
     <g id="line2d_11">
      <g>
       <use style="stroke:#000000;stroke-width:0.8;" x="54" xlink:href="#m098d9a9149" y="78.096877"/>
      </g>
     </g>
     <g id="text_12">
      <!-- 95% -->
      <g transform="translate(24.773438 81.896096)scale(0.1 -0.1)">
       <use xlink:href="#DejaVuSans-57"/>
       <use x="63.623047" xlink:href="#DejaVuSans-53"/>
       <use x="127.246094" xlink:href="#DejaVuSans-37"/>
      </g>
     </g>
    </g>
    <g id="ytick_6">
     <g id="line2d_12">
      <g>
       <use style="stroke:#000000;stroke-width:0.8;" x="54" xlink:href="#m098d9a9149" y="36.030326"/>
      </g>
     </g>
     <g id="text_13">
      <!-- 100% -->
      <g transform="translate(18.410937 39.829545)scale(0.1 -0.1)">
       <use xlink:href="#DejaVuSans-49"/>
       <use x="63.623047" xlink:href="#DejaVuSans-48"/>
       <use x="127.246094" xlink:href="#DejaVuSans-48"/>
       <use x="190.869141" xlink:href="#DejaVuSans-37"/>
      </g>
     </g>
    </g>
    <g id="text_14">
     <!-- Trust -->
     <defs>
      <path d="M 41.109375 46.296875 
Q 39.59375 47.171875 37.8125 47.578125 
Q 36.03125 48 33.890625 48 
Q 26.265625 48 22.1875 43.046875 
Q 18.109375 38.09375 18.109375 28.8125 
L 18.109375 0 
L 9.078125 0 
L 9.078125 54.6875 
L 18.109375 54.6875 
L 18.109375 46.1875 
Q 20.953125 51.171875 25.484375 53.578125 
Q 30.03125 56 36.53125 56 
Q 37.453125 56 38.578125 55.875 
Q 39.703125 55.765625 41.0625 55.515625 
z
" id="DejaVuSans-114"/>
      <path d="M 44.28125 53.078125 
L 44.28125 44.578125 
Q 40.484375 46.53125 36.375 47.5 
Q 32.28125 48.484375 27.875 48.484375 
Q 21.1875 48.484375 17.84375 46.4375 
Q 14.5 44.390625 14.5 40.28125 
Q 14.5 37.15625 16.890625 35.375 
Q 19.28125 33.59375 26.515625 31.984375 
L 29.59375 31.296875 
Q 39.15625 29.25 43.1875 25.515625 
Q 47.21875 21.78125 47.21875 15.09375 
Q 47.21875 7.46875 41.1875 3.015625 
Q 35.15625 -1.421875 24.609375 -1.421875 
Q 20.21875 -1.421875 15.453125 -0.5625 
Q 10.6875 0.296875 5.421875 2 
L 5.421875 11.28125 
Q 10.40625 8.6875 15.234375 7.390625 
Q 20.0625 6.109375 24.8125 6.109375 
Q 31.15625 6.109375 34.5625 8.28125 
Q 37.984375 10.453125 37.984375 14.40625 
Q 37.984375 18.0625 35.515625 20.015625 
Q 33.0625 21.96875 24.703125 23.78125 
L 21.578125 24.515625 
Q 13.234375 26.265625 9.515625 29.90625 
Q 5.8125 33.546875 5.8125 39.890625 
Q 5.8125 47.609375 11.28125 51.796875 
Q 16.75 56 26.8125 56 
Q 31.78125 56 36.171875 55.265625 
Q 40.578125 54.546875 44.28125 53.078125 
z
" id="DejaVuSans-115"/>
     </defs>
     <g transform="translate(12.33125 155.385469)rotate(-90)scale(0.1 -0.1)">
      <use xlink:href="#DejaVuSans-84"/>
      <use x="46.333984" xlink:href="#DejaVuSans-114"/>
      <use x="87.447266" xlink:href="#DejaVuSans-117"/>
      <use x="150.826172" xlink:href="#DejaVuSans-115"/>
      <use x="202.925781" xlink:href="#DejaVuSans-116"/>
     </g>
    </g>
   </g>
   <g id="line2d_13">
    <path clip-path="url(#pa67fbf2838)" d="M 54 204.296531 
L 388.8 204.296531 
" style="fill:none;stroke:#a9a9a9;stroke-linecap:square;stroke-width:1.5;"/>
   </g>
   <g id="line2d_14">
    <path clip-path="url(#pa67fbf2838)" d="M 69.218182 44.443636 
L 69.276161 61.270257 
L 69.363131 57.063602 
L 69.50808 57.063602 
L 69.711008 111.750118 
L 69.768988 107.543463 
L 69.826967 107.543463 
L 70.000906 132.783394 
L 70.087875 131.381176 
L 70.232824 137.691158 
L 70.348783 133.484503 
L 70.464742 133.484503 
L 70.551711 129.277848 
L 70.75464 156.90155 
L 71.247466 225.890694 
L 71.276456 224.488476 
L 71.363425 218.879602 
L 71.421405 227.292912 
L 71.479384 225.890694 
L 71.537364 219.580711 
L 71.624333 221.824261 
L 71.856251 237.669328 
L 71.885241 236.26711 
L 72.03019 227.012469 
L 72.088169 227.733609 
L 72.175139 227.533293 
L 72.204129 226.131074 
L 72.320088 242.116364 
L 72.378067 237.909709 
L 72.465036 235.666159 
L 72.580996 239.872814 
L 72.696955 230.057286 
L 72.725944 231.739948 
L 72.754934 235.946603 
L 72.841904 232.991928 
L 72.870893 232.991928 
L 72.899883 232.150597 
L 73.102812 216.866417 
L 73.160791 225.78052 
L 73.218771 224.658745 
L 73.363719 219.049871 
L 73.392709 218.629206 
L 73.479679 213.721442 
L 73.508668 216.806322 
L 73.595638 212.479477 
L 73.653617 212.900142 
L 73.682607 213.961822 
L 73.740587 212.138938 
L 73.769576 212.138938 
L 73.798566 211.718272 
L 73.856546 221.393579 
L 73.914525 219.710917 
L 73.972505 218.869586 
L 74.001495 220.271805 
L 74.059474 224.47846 
L 74.117454 221.974498 
L 74.233413 214.923343 
L 74.262402 216.606005 
L 74.320382 215.904896 
L 74.378362 210.296022 
L 74.436341 214.001885 
L 74.465331 213.58122 
L 74.494321 214.422551 
L 74.52331 214.422551 
L 74.755229 221.226648 
L 74.813208 218.702655 
L 74.871188 220.946205 
L 74.900178 220.946205 
L 74.987147 217.440659 
L 75.045126 218.04161 
L 75.074116 218.04161 
L 75.306034 228.615004 
L 75.393004 234.975066 
L 75.508963 234.013545 
L 75.537953 233.592879 
L 75.595932 234.200507 
L 75.624922 234.200507 
L 75.711891 237.065039 
L 75.682901 234.060285 
L 75.769871 234.701299 
L 75.79886 233.018637 
L 75.82785 234.721331 
L 75.85684 234.24057 
L 75.88583 235.292234 
L 75.943809 234.287311 
L 76.030779 231.342652 
L 76.059768 232.043762 
L 76.088758 233.089052 
L 76.117748 231.536596 
L 76.146738 229.853934 
L 76.175728 234.060589 
L 76.349666 230.034219 
L 76.378656 230.695265 
L 76.465625 234.381096 
L 76.523605 232.918782 
L 76.726533 229.072698 
L 77.074411 220.512488 
L 77.19037 227.223105 
L 77.219359 226.772392 
L 77.683196 237.811675 
L 77.741175 236.709932 
L 78.031073 231.171169 
L 78.060063 232.105981 
L 78.176022 227.686262 
L 78.234002 226.604551 
L 78.320971 223.896934 
L 78.349961 224.36434 
L 78.40794 232.670814 
L 78.46592 230.30502 
L 78.523899 229.520446 
L 78.581879 230.805812 
L 78.639858 230.61885 
L 78.697838 228.429022 
L 78.755817 229.222422 
L 78.842787 230.858343 
L 78.871777 230.557868 
L 78.929756 229.302548 
L 78.987736 230.38426 
L 79.045715 233.20539 
L 79.103695 232.604439 
L 79.219654 229.135314 
L 79.248644 230.710534 
L 79.364603 232.364362 
L 79.538541 229.868899 
L 79.567531 230.720246 
L 79.596521 231.676304 
L 79.68349 231.416195 
L 79.71248 231.716671 
L 79.74147 231.015562 
L 79.857429 229.331382 
L 79.973388 227.646759 
L 80.031367 227.824616 
L 80.089347 230.274903 
L 80.147327 230.020654 
L 80.379245 225.385326 
L 80.437224 226.128039 
L 80.466214 226.034558 
L 80.553183 222.663771 
L 80.611163 223.280504 
L 80.698132 224.053522 
L 80.669143 223.252254 
L 80.727122 223.399153 
L 80.872071 221.095812 
L 80.901061 221.438662 
L 81.04601 223.710228 
L 81.074999 223.858948 
L 81.103989 223.408539 
L 81.132979 224.133322 
L 81.161969 223.903868 
L 81.190958 224.55875 
L 81.248938 223.38895 
L 81.306918 222.68616 
L 81.335907 224.091717 
L 81.422877 223.899292 
L 81.625805 220.309043 
L 81.654795 221.148833 
L 81.712774 220.634686 
L 81.857723 214.788771 
L 81.886713 214.788771 
L 81.973682 213.680047 
L 82.002672 214.030602 
L 82.031662 214.565994 
L 82.060652 214.203755 
L 82.147621 212.537786 
L 82.205601 213.089941 
L 82.26358 214.26908 
L 82.32156 213.555223 
L 82.379539 212.79675 
L 82.408529 213.540351 
L 82.640447 215.884818 
L 82.698427 214.996699 
L 82.814386 217.8426 
L 82.843376 217.503036 
L 82.959335 218.426805 
L 82.988324 218.146361 
L 83.162263 216.500774 
L 83.191253 216.954826 
L 83.249232 216.136538 
L 83.278222 216.729784 
L 83.336202 216.417402 
L 83.365191 216.721216 
L 83.394181 217.034019 
L 83.423171 216.617602 
L 83.51014 216.115596 
L 83.655089 218.360359 
L 83.944987 214.43022 
L 83.973977 215.044829 
L 84.031956 216.145031 
L 84.060946 215.816347 
L 84.176905 214.185609 
L 84.205895 214.724923 
L 84.350844 213.512913 
L 84.379834 213.664201 
L 84.408823 214.459305 
L 84.466803 213.84179 
L 84.495793 213.467865 
L 84.524782 213.983552 
L 84.582762 213.544046 
L 84.669731 215.468909 
L 84.727711 214.585694 
L 84.90165 212.518974 
L 84.930639 213.336935 
L 84.988619 212.754312 
L 85.220537 209.633182 
L 85.278517 209.8552 
L 85.307506 210.509568 
L 85.394476 209.967028 
L 85.452455 209.420183 
L 85.481445 210.127969 
L 85.510435 209.633854 
L 85.539425 210.125541 
L 85.597404 209.768613 
L 85.626394 209.688486 
L 85.655384 209.944553 
L 85.684373 209.290184 
L 85.713363 209.290184 
L 85.800332 208.878339 
L 85.829322 209.374239 
L 85.887302 208.84332 
L 85.916292 209.335894 
L 85.974271 209.257436 
L 86.003261 209.00696 
L 86.11922 211.72639 
L 86.14821 211.372544 
L 86.1772 211.75931 
L 86.235179 211.210072 
L 86.322148 210.615811 
L 86.293159 211.267611 
L 86.351138 210.93996 
L 86.467097 211.751907 
L 86.496087 211.500708 
L 86.554067 211.695585 
L 86.641036 210.915152 
L 86.814975 210.09062 
L 86.872954 211.018128 
L 86.930934 210.251741 
L 87.046893 209.399011 
L 87.075883 209.936528 
L 87.162852 209.006587 
L 87.191842 208.783507 
L 87.307801 209.710878 
L 87.36578 209.227301 
L 87.42376 210.623355 
L 87.510729 210.276321 
L 87.539719 210.023263 
L 87.568709 210.647888 
L 87.597698 210.519351 
L 87.684668 211.756226 
L 87.713658 211.38641 
L 87.916586 209.847912 
L 87.945576 210.15535 
L 87.974566 209.880503 
L 88.206484 208.066575 
L 88.322443 207.085203 
L 88.351433 207.731225 
L 88.409412 208.68176 
L 88.496381 208.303988 
L 88.815269 207.178189 
L 88.844259 207.739076 
L 88.902238 207.054381 
L 88.931228 205.5443 
L 89.018197 206.779908 
L 89.105167 206.350292 
L 89.250116 207.458082 
L 89.424054 205.939853 
L 89.453044 205.348918 
L 89.511024 205.440843 
L 89.713952 207.506177 
L 89.800921 207.570089 
L 89.858901 207.016486 
L 89.94587 208.71446 
L 89.97486 208.430454 
L 90.00385 208.091372 
L 90.032839 208.351521 
L 90.061829 208.722107 
L 90.119809 208.143368 
L 90.148799 207.287602 
L 90.235768 207.905239 
L 90.264758 207.503812 
L 90.322737 208.209 
L 90.496676 207.182919 
L 90.525666 207.612689 
L 90.612635 207.400075 
L 90.786574 206.029271 
L 90.815563 205.891798 
L 90.844553 206.221732 
L 90.873543 206.443135 
L 90.902533 206.270134 
L 90.931522 205.958197 
L 90.989502 207.53537 
L 91.047482 207.065792 
L 91.25041 206.227815 
L 91.30839 206.961882 
L 91.395359 206.637981 
L 91.482328 206.253377 
L 91.511318 207.022137 
L 91.569298 206.568837 
L 91.714246 205.53485 
L 91.801216 206.860797 
L 91.830205 206.607858 
L 92.033134 205.561184 
L 92.062124 205.969523 
L 92.149093 205.749565 
L 92.52596 203.235225 
L 92.55495 203.762454 
L 92.612929 204.369056 
L 92.670909 204.048407 
L 92.815858 202.655669 
L 92.844848 202.76789 
L 93.105756 204.77926 
L 93.163735 204.87207 
L 93.366663 203.393597 
L 93.395653 203.689064 
L 93.453633 203.277164 
L 93.627571 202.088287 
L 93.714541 202.394508 
L 93.8305 202.922436 
L 93.85949 202.742348 
L 94.149387 200.687122 
L 94.236357 201.41879 
L 94.265346 201.290155 
L 94.294336 201.197012 
L 94.323326 202.038343 
L 94.410295 201.680792 
L 94.468275 202.070349 
L 94.497265 201.84262 
L 94.642214 201.101219 
L 94.671203 201.38481 
L 94.729183 200.983433 
L 94.787162 201.108886 
L 94.874132 200.527038 
L 95.04807 201.964811 
L 95.10605 201.567324 
L 95.164029 201.578598 
L 95.308978 202.68269 
L 95.337968 202.552682 
L 95.366958 203.066404 
L 95.453927 202.803007 
L 95.511907 202.878479 
L 95.714835 201.392349 
L 95.946753 202.669152 
L 96.033723 202.487407 
L 96.120692 203.290037 
L 96.149682 202.975824 
L 96.207661 202.588822 
L 96.236651 203.019216 
L 96.265641 202.869286 
L 96.294631 202.744186 
L 96.32362 203.061097 
L 96.35261 202.945914 
L 96.41059 203.910271 
L 96.526549 203.605031 
L 96.700487 202.36756 
L 96.729477 203.06656 
L 96.787457 202.625413 
L 96.961395 201.878769 
L 96.990385 202.387686 
L 97.048365 201.970504 
L 97.251293 201.01048 
L 97.454222 202.552275 
L 97.59917 201.938047 
L 97.62816 202.176369 
L 97.68614 201.84183 
L 97.802099 202.454046 
L 97.831089 203.099962 
L 97.918058 202.572051 
L 97.947048 202.771805 
L 98.005027 202.456856 
L 98.034017 202.412575 
L 98.149976 203.037949 
L 98.120986 202.32132 
L 98.178966 202.843095 
L 98.323915 202.100123 
L 98.410884 202.878849 
L 98.439874 202.662198 
L 98.671792 201.793663 
L 98.700782 201.651211 
L 98.729772 201.998669 
L 98.758761 202.254864 
L 98.816741 201.860705 
L 99.106639 201.01013 
L 99.193608 201.213485 
L 99.164618 200.950384 
L 99.222598 201.052688 
L 99.541485 199.326226 
L 99.570475 199.509479 
L 99.657444 199.338406 
L 99.686434 199.722779 
L 99.773404 199.242083 
L 99.802393 199.529811 
L 100.23724 202.79001 
L 100.26623 202.678454 
L 100.295219 202.468713 
L 100.324209 202.644886 
L 100.498148 205.525952 
L 100.585117 205.094437 
L 100.614107 205.348993 
L 100.643097 205.510087 
L 100.672087 205.379149 
L 100.759056 205.001404 
L 100.788046 205.227374 
L 100.817035 205.435799 
L 100.875015 205.115196 
L 100.961984 204.61752 
L 101.019964 204.956532 
L 101.077943 205.273038 
L 101.135923 205.023624 
L 101.164913 204.883402 
L 101.193902 205.266552 
L 101.222892 205.186868 
L 101.309862 205.133709 
L 101.367841 205.514441 
L 101.425821 205.234111 
L 101.45481 205.87599 
L 101.54178 205.660902 
L 101.599759 205.36022 
L 101.628749 205.486174 
L 101.686729 205.966821 
L 101.744708 205.704563 
L 101.773698 205.510572 
L 101.802688 205.803584 
L 101.860667 205.541573 
L 101.889657 205.762593 
L 101.947637 205.43431 
L 102.034606 204.913981 
L 102.121575 204.939661 
L 102.266524 205.813882 
L 102.469453 204.799864 
L 102.527432 204.956013 
L 102.556422 205.111336 
L 102.614401 204.828918 
L 102.672381 204.598223 
L 102.701371 204.928545 
L 102.73036 204.811188 
L 102.75935 204.672151 
L 102.78834 204.945113 
L 102.81733 204.855544 
L 102.875309 205.368569 
L 102.933289 205.10101 
L 102.962279 204.984401 
L 102.991268 205.272224 
L 103.020258 205.103223 
L 103.049248 205.433883 
L 103.107228 205.081702 
L 103.136217 205.235259 
L 103.484095 204.007801 
L 103.658033 205.082247 
L 103.716013 204.889673 
L 103.889951 206.293463 
L 103.976921 206.648505 
L 104.005911 206.484609 
L 104.06389 206.545451 
L 104.237829 205.738944 
L 104.556716 204.111683 
L 104.614696 204.476291 
L 104.643686 204.703882 
L 104.701665 204.446122 
L 104.730655 204.65754 
L 104.759645 204.453799 
L 104.788634 205.016769 
L 104.962573 204.230697 
L 104.991563 204.508378 
L 105.020553 204.595987 
L 105.049542 204.448059 
L 105.165501 204.09487 
L 105.223481 204.642337 
L 105.31045 204.398977 
L 105.426409 205.424797 
L 105.484389 205.044204 
L 105.716307 204.268589 
L 105.745297 204.512359 
L 105.803277 204.270359 
L 105.977215 203.57332 
L 106.006205 203.731143 
L 106.064184 203.479969 
L 106.122164 203.246044 
L 106.151154 203.447549 
L 106.180144 203.530637 
L 106.209133 203.401868 
L 106.441052 202.826883 
L 106.586 203.396693 
L 106.701959 203.071618 
L 106.730949 203.207519 
L 106.759939 203.380604 
L 106.817919 203.166017 
L 106.933878 202.516051 
L 106.962867 202.634339 
L 106.991857 202.904821 
L 107.049837 202.691118 
L 107.426704 201.555286 
L 107.484683 202.208861 
L 107.571653 201.864557 
L 107.629632 201.654211 
L 107.658622 201.855158 
L 107.832561 203.012495 
L 107.94852 203.254041 
L 108.006499 203.005018 
L 108.035489 203.237475 
L 108.209428 204.383739 
L 108.296397 204.054164 
L 108.325387 204.459511 
L 108.412356 204.23725 
L 108.644274 203.485717 
L 108.673264 203.685194 
L 108.702254 204.085025 
L 108.789223 203.827939 
L 108.876193 204.368217 
L 108.934172 204.156541 
L 109.369019 202.555643 
L 109.426998 202.643483 
L 109.455988 203.131435 
L 109.542957 203.082709 
L 109.803865 201.89678 
L 109.890835 201.942332 
L 110.064773 201.232305 
L 110.093763 201.482231 
L 110.151743 201.274478 
L 110.209722 201.02698 
L 110.238712 201.221007 
L 110.325681 201.498622 
L 110.354671 201.352374 
L 110.412651 201.411169 
L 110.47063 201.198094 
L 110.615579 202.171419 
L 110.673559 201.99901 
L 110.992446 200.864571 
L 111.079415 200.996433 
L 111.050426 200.842478 
L 111.108405 200.913543 
L 111.166385 200.686955 
L 111.195374 200.916696 
L 111.282344 201.424809 
L 111.398303 201.296147 
L 111.572242 200.689686 
L 111.71719 201.684444 
L 111.77517 201.516921 
L 111.80416 201.661909 
L 112.007088 202.533082 
L 112.036078 202.37412 
L 112.123047 202.617701 
L 112.152037 202.55427 
L 112.239006 202.236155 
L 112.267996 202.711921 
L 112.354965 202.679331 
L 112.586884 201.861121 
L 112.615873 202.051834 
L 112.644863 202.264832 
L 112.731832 202.239186 
L 112.818802 201.96086 
L 112.847792 202.119918 
L 112.905771 201.924883 
L 112.963751 201.951714 
L 112.99274 202.047252 
L 113.02173 201.851154 
L 113.05072 202.021675 
L 113.137689 201.599734 
L 113.166679 201.731748 
L 113.195669 201.898058 
L 113.253648 201.73031 
L 113.311628 201.829698 
L 113.456577 201.010384 
L 113.543546 201.846089 
L 113.630515 201.768626 
L 113.804454 201.504799 
L 113.978393 202.129806 
L 114.007383 201.96366 
L 114.036372 201.807272 
L 114.065362 202.08186 
L 114.123342 202.401135 
L 114.181321 202.153049 
L 114.26829 201.902296 
L 114.29728 202.119426 
L 114.35526 202.399442 
L 114.413239 202.18761 
L 114.442229 201.974867 
L 114.500209 202.241266 
L 114.529198 202.168472 
L 114.616168 202.806513 
L 114.645158 202.713761 
L 114.674147 202.623038 
L 114.703137 202.816254 
L 114.790106 203.075618 
L 114.819096 202.999972 
L 114.877076 202.702701 
L 114.935055 202.756656 
L 115.080004 203.045418 
L 115.137984 203.127919 
L 115.224953 202.863454 
L 115.253943 203.021161 
L 115.311922 202.837849 
L 115.717779 201.601832 
L 115.804749 202.28822 
L 115.833738 202.209542 
L 115.862728 202.0238 
L 115.920708 202.084723 
L 115.978687 202.370505 
L 116.036667 202.141715 
L 116.123636 201.761231 
L 116.152626 201.94288 
L 116.239595 202.068743 
L 116.268585 201.989821 
L 116.355554 201.67266 
L 116.413534 201.773226 
L 116.471513 202.149945 
L 116.558483 202.127401 
L 116.616462 202.319023 
L 116.674442 202.178305 
L 116.732421 202.012839 
L 116.761411 202.132646 
L 116.964339 203.166863 
L 117.051309 202.885161 
L 117.138278 202.606936 
L 117.196258 202.682828 
L 117.225247 203.054346 
L 117.312217 203.026833 
L 117.805043 201.316045 
L 117.834033 201.463203 
L 117.978982 201.059048 
L 118.007971 201.200376 
L 118.15292 201.549746 
L 118.18191 201.404974 
L 118.2109 201.578265 
L 118.23989 201.485163 
L 118.355849 202.11289 
L 118.384838 201.945039 
L 118.529787 201.70513 
L 118.558777 201.810509 
L 118.587767 201.662746 
L 118.616757 201.764257 
L 118.645746 201.652168 
L 118.674736 201.865166 
L 118.703726 202.015314 
L 118.761705 201.790897 
L 118.935644 201.168762 
L 118.964634 201.500468 
L 118.993624 201.567636 
L 119.022613 201.454987 
L 119.138573 201.104596 
L 119.167562 201.192831 
L 119.283521 201.865814 
L 119.370491 201.60054 
L 119.42847 201.687526 
L 119.48645 201.534607 
L 119.602409 201.911723 
L 119.544429 201.503602 
L 119.631399 201.82908 
L 119.834327 201.397385 
L 119.892307 201.742002 
L 119.950286 201.554264 
L 119.979276 201.395423 
L 120.008266 201.543892 
L 120.037255 201.70011 
L 120.095235 201.489053 
L 120.211194 201.290092 
L 120.240184 201.480553 
L 120.298163 201.311372 
L 120.472102 201.023143 
L 120.530082 201.274959 
L 120.588061 201.091349 
L 120.646041 201.16092 
L 120.79099 200.74448 
L 120.993918 200.433436 
L 121.080887 200.663293 
L 121.109877 200.594986 
L 121.138867 200.525608 
L 121.225836 200.86274 
L 121.283816 200.853236 
L 121.312806 201.069195 
L 121.399775 200.948676 
L 121.457754 200.785573 
L 121.515734 201.440656 
L 121.573714 201.266597 
L 121.689673 201.011605 
L 121.718662 201.157691 
L 121.805632 200.872278 
L 121.892601 201.662235 
L 121.950581 201.449294 
L 121.97957 201.374389 
L 122.00856 201.538687 
L 122.240478 202.132908 
L 122.298458 201.905672 
L 122.356437 202.013653 
L 122.443407 201.780505 
L 122.472397 201.90969 
L 122.559366 202.360925 
L 122.617345 202.109067 
L 122.675325 202.139109 
L 122.762294 201.807739 
L 122.820274 202.047112 
L 122.878253 201.987347 
L 123.023202 201.694135 
L 123.081182 201.752918 
L 123.25512 202.145209 
L 123.400069 201.559485 
L 123.429059 201.715698 
L 123.574008 202.007887 
L 123.805926 202.565616 
L 123.892895 202.33085 
L 123.979865 202.365985 
L 124.095824 202.056824 
L 124.182793 201.698874 
L 124.240773 201.816304 
L 124.269762 201.956842 
L 124.327742 201.765514 
L 124.356732 201.694319 
L 124.443701 202.355134 
L 124.501681 202.207714 
L 124.64663 202.98029 
L 124.675619 202.815323 
L 124.907538 202.191633 
L 124.994507 202.467027 
L 125.023497 202.394726 
L 125.052486 202.323799 
L 125.081476 202.459809 
L 125.313394 203.318583 
L 125.429353 203.009749 
L 125.487333 203.102879 
L 125.574302 203.059187 
L 125.632282 203.287735 
L 125.661272 203.212285 
L 125.690261 203.441279 
L 125.748241 203.25079 
L 125.777231 203.391012 
L 125.83521 203.153333 
L 125.8642 203.237466 
L 125.89319 203.037525 
L 125.951169 202.890136 
L 126.009149 202.989171 
L 126.154098 203.253232 
L 126.183088 203.166357 
L 126.212077 203.279396 
L 126.357026 203.526946 
L 126.472985 203.331299 
L 126.501975 203.53471 
L 126.559955 203.370448 
L 126.617934 203.228947 
L 126.675914 203.274777 
L 126.704903 203.420713 
L 126.762883 203.168192 
L 126.994801 203.76377 
L 127.16874 203.35346 
L 127.284699 203.811003 
L 127.400658 203.418342 
L 127.458638 203.957612 
L 127.516617 203.738139 
L 127.574597 203.561839 
L 127.719546 204.051955 
L 127.893484 203.409515 
L 127.922474 203.528801 
L 128.096413 204.06046 
L 128.183382 203.811343 
L 128.299341 204.297039 
L 128.328331 204.118746 
L 128.38631 204.147394 
L 128.531259 204.824987 
L 128.589239 204.654474 
L 128.647218 204.694838 
L 128.763177 204.438324 
L 128.821157 204.651026 
L 128.879137 204.463182 
L 129.053075 204.182355 
L 129.284993 204.772963 
L 129.313983 204.698601 
L 129.342973 204.592469 
L 129.371963 204.755424 
L 129.400952 204.630937 
L 129.429942 204.746194 
L 129.487922 204.590912 
L 129.516912 204.495567 
L 129.545901 204.629919 
L 129.574891 204.542611 
L 129.69085 204.798754 
L 129.66186 204.514321 
L 129.71984 204.729853 
L 130.009738 204.253545 
L 130.038727 204.389113 
L 130.096707 204.246825 
L 130.212666 204.085849 
L 130.241656 204.187767 
L 130.357615 204.776616 
L 130.386605 204.630427 
L 130.415595 204.561466 
L 130.444584 204.913811 
L 130.531554 204.675061 
L 130.792462 204.117097 
L 130.879431 204.25124 
L 130.908421 204.17597 
L 131.05337 203.802689 
L 131.082359 203.909888 
L 131.111349 204.050225 
L 131.169329 203.912496 
L 131.227308 203.977567 
L 131.285288 203.793578 
L 131.314278 203.916546 
L 131.372257 203.755926 
L 131.401247 203.674614 
L 131.430237 203.742089 
L 131.488216 204.002858 
L 131.546196 203.803341 
L 131.778114 203.305079 
L 131.807104 203.426617 
L 131.865083 203.241897 
L 131.894073 203.38334 
L 131.952053 203.652229 
L 132.010032 203.504361 
L 132.097001 203.290898 
L 132.212961 203.665195 
L 132.27094 203.505731 
L 132.415889 204.095084 
L 132.589828 203.564749 
L 132.618817 203.662643 
L 132.647807 203.736295 
L 132.705787 203.580864 
L 132.734776 203.673708 
L 132.908715 203.146102 
L 132.995684 203.202351 
L 133.024674 203.117715 
L 133.053664 203.226244 
L 133.401541 204.064143 
L 133.459521 204.139233 
L 133.5175 203.964846 
L 133.691439 204.46257 
L 133.807398 204.186291 
L 133.836388 204.272832 
L 133.894367 204.525024 
L 133.952347 204.395946 
L 134.039316 204.140913 
L 134.126286 204.241226 
L 134.155275 204.340198 
L 134.213255 204.186841 
L 134.271234 204.228879 
L 134.503153 203.634922 
L 134.590122 203.957739 
L 134.648102 203.785389 
L 134.735071 203.544653 
L 134.79305 203.580993 
L 134.82204 203.926536 
L 134.90901 203.857213 
L 134.937999 203.960627 
L 134.995979 203.837301 
L 135.372846 202.973257 
L 135.430825 202.824985 
L 135.575774 203.248524 
L 135.604764 203.347227 
L 135.662744 203.161232 
L 135.720723 203.189386 
L 135.778703 203.052879 
L 135.894662 203.328372 
L 135.923652 203.26038 
L 136.18456 202.839512 
L 136.329508 203.270684 
L 136.358498 203.219384 
L 136.387488 203.321377 
L 136.416478 203.258651 
L 136.590416 203.88648 
L 136.648396 203.764821 
L 136.706375 203.64944 
L 136.735365 203.911017 
L 136.822335 203.707757 
L 136.851324 203.619602 
L 136.880314 203.923721 
L 136.967283 203.708843 
L 137.083243 204.007131 
L 137.112232 203.950718 
L 137.286171 203.504163 
L 137.344151 203.530316 
L 137.46011 204.180773 
L 137.489099 204.090521 
L 137.778997 203.602062 
L 138.039905 204.073547 
L 138.126874 203.854402 
L 138.155864 203.959369 
L 138.387782 204.473176 
L 138.416772 204.423708 
L 138.561721 205.072671 
L 138.73566 204.763161 
L 138.764649 204.838223 
L 138.793639 204.725919 
L 138.822629 204.650661 
L 138.851619 204.753941 
L 138.880609 204.695673 
L 139.083537 205.057049 
L 139.199496 204.914917 
L 139.286465 205.011785 
L 139.315455 204.961324 
L 139.402424 204.74732 
L 139.431414 204.848888 
L 139.460404 204.957462 
L 139.518384 204.831945 
L 139.547373 204.758053 
L 139.576363 205.048668 
L 139.663332 204.856469 
L 139.692322 204.801441 
L 139.721312 204.880467 
L 139.92424 205.426755 
L 140.098179 205.086214 
L 140.214138 205.538781 
L 140.243128 205.473505 
L 140.272118 205.541771 
L 140.330097 205.41223 
L 140.504036 205.25963 
L 140.533026 205.376038 
L 140.591005 205.227257 
L 140.648985 205.107128 
L 140.677975 205.212896 
L 141.170801 206.653102 
L 141.19979 206.761579 
L 141.25777 206.612664 
L 141.28676 206.7075 
L 141.31575 206.628542 
L 141.344739 206.754193 
L 141.431709 207.08797 
L 141.460698 207.019466 
L 141.692617 206.611852 
L 141.808576 207.347201 
L 141.924535 207.216559 
L 142.156453 206.859002 
L 142.185443 207.009346 
L 142.243422 206.849993 
L 142.388371 206.639211 
L 142.417361 206.93107 
L 142.50433 206.903561 
L 142.649279 206.65236 
L 142.736248 206.591884 
L 142.794228 206.788522 
L 143.113116 206.131244 
L 143.258064 206.643164 
L 143.518972 205.978315 
L 143.576952 206.156986 
L 143.605942 206.273792 
L 143.663921 206.126896 
L 143.692911 206.185947 
L 143.895839 205.992677 
L 143.982809 206.284713 
L 144.040788 206.126002 
L 144.069778 206.076126 
L 144.098768 206.313344 
L 144.156747 206.186318 
L 144.243717 205.980106 
L 144.359676 206.448265 
L 144.388666 206.364945 
L 144.562604 206.728798 
L 144.591594 206.639894 
L 144.620584 206.933763 
L 144.707553 206.712947 
L 144.881492 206.43635 
L 144.968461 206.562203 
L 144.997451 206.47722 
L 145.287349 206.068671 
L 145.316338 206.151732 
L 145.374318 206.031073 
L 145.403308 205.96257 
L 145.432297 206.09486 
L 145.519267 206.211829 
L 145.548257 206.148193 
L 145.577246 206.084039 
L 145.606236 206.161899 
L 145.635226 206.288162 
L 145.693205 206.140668 
L 145.722195 206.06301 
L 145.751185 206.194306 
L 145.809165 206.537542 
L 145.896134 206.363853 
L 146.070072 206.139289 
L 146.157042 206.080137 
L 146.186032 206.203145 
L 146.244011 206.318025 
L 146.33098 206.147299 
L 146.44694 206.553218 
L 146.475929 206.495494 
L 146.678858 206.246674 
L 146.765827 206.346978 
L 146.794817 206.304076 
L 146.852796 206.164505 
L 146.881786 206.27565 
L 147.026735 206.555496 
L 147.084715 206.587622 
L 147.200674 206.375572 
L 147.374612 206.782243 
L 147.490571 206.686806 
L 147.577541 206.921351 
L 147.60653 206.858265 
L 147.66451 206.728708 
L 147.809459 207.200588 
L 147.867438 207.248491 
L 147.925418 207.078352 
L 147.954408 207.190801 
L 148.012387 207.076527 
L 148.099357 206.899902 
L 148.128346 206.971989 
L 148.186326 207.123516 
L 148.215316 207.040604 
L 148.244306 206.968458 
L 148.273295 207.064719 
L 148.389254 207.347111 
L 148.418244 207.270272 
L 148.563193 207.074991 
L 148.592183 207.126502 
L 148.708142 207.485382 
L 148.766121 207.348141 
L 148.824101 207.238274 
L 148.853091 207.325395 
L 148.99804 207.554468 
L 149.085009 207.361445 
L 149.142989 207.410999 
L 149.316927 207.723434 
L 149.461876 207.560298 
L 149.490866 207.651392 
L 149.577835 207.60296 
L 149.693794 207.364912 
L 149.751774 207.41488 
L 149.780764 207.508785 
L 149.838743 207.382041 
L 149.925712 207.178933 
L 149.954702 207.269284 
L 150.070661 207.513894 
L 150.099651 207.459062 
L 150.128641 207.408251 
L 150.157631 207.491473 
L 150.360559 207.989515 
L 150.418539 207.859627 
L 150.563487 207.548561 
L 150.592477 207.632269 
L 150.621467 207.575505 
L 150.650457 207.647816 
L 150.766416 207.726259 
L 150.853385 207.676492 
L 150.911365 207.842333 
L 150.969344 207.710015 
L 151.230252 207.327314 
L 151.259242 207.379466 
L 151.317222 207.25935 
L 151.404191 207.091717 
L 151.433181 207.184775 
L 151.49116 207.378251 
L 151.54914 207.268977 
L 151.607119 207.15295 
L 151.636109 207.238111 
L 151.781058 207.563434 
L 151.810048 207.500173 
L 151.839037 207.454832 
L 151.868027 207.524211 
L 151.897017 207.614847 
L 151.954997 207.494077 
L 151.983986 207.560571 
L 152.128935 207.338689 
L 152.157925 207.425214 
L 152.273884 207.606952 
L 152.302874 207.525063 
L 152.476813 207.279278 
L 152.505802 207.382985 
L 152.563782 207.255097 
L 152.650751 207.070473 
L 152.679741 207.158619 
L 152.76671 207.615207 
L 152.82469 207.5038 
L 152.998628 207.823963 
L 153.114588 207.678352 
L 153.230547 207.938495 
L 153.259536 207.869162 
L 153.317516 207.761581 
L 153.375496 207.79751 
L 153.578424 208.113267 
L 154.158219 207.084134 
L 154.187209 207.184239 
L 154.361148 207.452349 
L 154.419127 207.299281 
L 154.448117 207.541408 
L 154.535086 207.38603 
L 154.767005 207.041821 
L 154.795994 207.144697 
L 154.882964 207.119537 
L 154.998923 206.834903 
L 155.056902 206.880983 
L 155.172861 207.064057 
L 155.201851 207.020203 
L 155.37579 206.833993 
L 155.40478 206.917997 
L 155.462759 206.81687 
L 155.578718 206.725363 
L 155.810637 207.184945 
L 156.100534 206.614701 
L 156.158514 206.769133 
L 156.303463 206.849924 
L 156.390432 206.769292 
L 156.419422 206.948804 
L 156.477401 206.844673 
L 156.70932 206.554603 
L 156.738309 206.642425 
L 156.796289 206.545935 
L 156.854268 206.600206 
L 156.970227 206.369995 
L 157.115176 206.738968 
L 157.173156 206.644369 
L 157.202146 206.718462 
L 157.405074 207.297971 
L 157.463054 207.175092 
L 157.492043 207.11811 
L 157.521033 207.191472 
L 157.608002 207.322026 
L 157.636992 207.264108 
L 157.781941 206.985577 
L 157.810931 207.096958 
L 157.8979 207.556196 
L 157.98487 207.387621 
L 158.013859 207.321457 
L 158.071839 207.457958 
L 158.245778 207.804658 
L 158.274767 207.753715 
L 158.477696 207.352945 
L 158.535675 207.383343 
L 158.564665 207.617062 
L 158.651634 207.454414 
L 158.709614 207.347131 
L 158.738604 207.447869 
L 158.796583 207.586182 
L 158.854563 207.485747 
L 158.941532 207.318259 
L 158.999512 207.402387 
L 159.057491 207.561918 
L 159.115471 207.395131 
L 159.637287 206.649563 
L 159.782236 206.812368 
L 159.840215 206.678231 
L 159.927184 206.755272 
L 160.014154 206.998585 
L 160.101123 206.96311 
L 160.159103 206.847431 
L 160.188092 207.08434 
L 160.246072 206.927644 
L 160.449 206.65135 
L 160.593949 207.022496 
L 160.651929 206.895427 
L 160.883847 206.628109 
L 161.057786 206.846307 
L 161.318694 206.275489 
L 161.347683 206.477399 
L 161.434653 206.313206 
L 161.463642 206.391131 
L 161.521622 206.26357 
L 161.637581 206.065733 
L 161.666571 206.144467 
L 161.75354 206.260766 
L 161.78253 206.199743 
L 161.927479 206.090638 
L 161.956469 206.172087 
L 162.014448 206.059494 
L 162.043438 206.124412 
L 162.130407 205.952454 
L 162.159397 206.017518 
L 162.188387 206.107537 
L 162.246366 205.988954 
L 162.333336 205.843757 
L 162.391315 205.878542 
L 162.565254 206.330953 
L 162.594244 206.267617 
L 162.826162 206.004692 
L 162.855152 206.217349 
L 162.942121 206.055449 
L 163.405957 205.187162 
L 163.521916 205.270613 
L 163.550906 205.206792 
L 163.608886 205.242217 
L 163.637875 205.329092 
L 163.724845 205.276085 
L 164.159691 204.581717 
L 164.188681 204.797529 
L 164.27565 204.644289 
L 164.33363 204.532435 
L 164.36262 204.600946 
L 164.420599 204.807828 
L 164.478579 204.709863 
L 164.652518 204.528195 
L 165.087364 205.317813 
L 165.232313 205.136527 
L 165.261303 205.228182 
L 165.319282 205.141226 
L 165.377262 205.190177 
L 165.464231 205.054156 
L 165.493221 205.137711 
L 165.551201 205.026302 
L 165.870088 204.60403 
L 166.015037 204.856667 
L 166.044027 204.814144 
L 166.304935 204.454531 
L 166.449884 204.546195 
L 166.507863 204.461661 
L 166.594832 204.815046 
L 166.652812 204.721645 
L 166.681802 204.678004 
L 166.710792 204.775062 
L 166.739781 204.825402 
L 166.797761 204.71957 
L 167.087659 204.400641 
L 167.261597 204.827453 
L 167.348567 204.924876 
L 167.377556 204.889693 
L 167.551495 204.693218 
L 167.580485 204.770903 
L 167.638464 204.686881 
L 168.16028 203.97351 
L 168.276239 204.111612 
L 168.305229 204.046496 
L 168.537147 203.786124 
L 168.566137 203.977734 
L 168.653106 203.813692 
L 168.798055 203.614572 
L 168.827045 203.686192 
L 169.058963 203.392364 
L 169.087953 203.467809 
L 169.174922 203.714423 
L 169.232902 203.616392 
L 169.377851 203.390126 
L 169.40684 203.458975 
L 169.43583 203.520959 
L 169.5228 203.478249 
L 169.638759 203.291973 
L 169.667748 203.364046 
L 169.696738 203.456948 
L 169.754718 203.364503 
L 169.841687 203.339711 
L 169.870677 203.405116 
L 169.928656 203.302003 
L 170.189564 202.780405 
L 170.247544 202.93924 
L 170.305523 203.094148 
L 170.363503 202.992431 
L 170.392493 202.949699 
L 170.421483 203.034058 
L 170.450472 202.992211 
L 170.595421 203.365391 
L 170.682391 203.227786 
L 170.71138 203.172051 
L 170.76936 203.211101 
L 170.827339 203.344775 
L 170.885319 203.256662 
L 171.088247 202.887886 
L 171.117237 202.96931 
L 171.204206 203.217159 
L 171.262186 203.104259 
L 171.291176 203.183557 
L 171.349155 203.087151 
L 171.436125 202.929609 
L 171.465114 203.012541 
L 171.610063 203.414122 
L 171.697033 203.375282 
L 171.870971 203.094542 
L 171.957941 203.182801 
L 171.98693 203.145089 
L 172.01592 203.205374 
L 172.102889 203.427981 
L 172.160869 203.301872 
L 172.218849 203.217173 
L 172.276828 203.285422 
L 172.421777 203.544631 
L 172.450767 203.494442 
L 172.595716 203.380081 
L 172.653695 203.534056 
L 172.711675 203.45604 
L 172.740664 203.41022 
L 172.769654 203.493655 
L 172.798644 203.456424 
L 172.827634 203.652332 
L 172.914603 203.511181 
L 173.117532 203.296029 
L 173.204501 203.418909 
L 173.233491 203.382034 
L 173.581368 202.949929 
L 173.784296 203.212144 
L 173.813286 203.16688 
L 174.016215 202.961967 
L 174.190153 203.163748 
L 174.393082 202.93088 
L 174.422071 203.126659 
L 174.509041 203.096736 
L 174.56702 203.219471 
L 174.625 203.11567 
L 174.740959 203.039679 
L 174.769949 203.128792 
L 174.827928 203.056764 
L 174.885908 202.981421 
L 174.914898 203.040065 
L 174.972877 203.174382 
L 175.030857 203.067414 
L 175.233785 202.712927 
L 175.262775 202.780957 
L 175.465703 203.160604 
L 175.494693 203.112383 
L 175.668632 202.935172 
L 175.84257 203.142771 
L 175.958529 202.978751 
L 175.987519 203.038005 
L 176.074488 203.248014 
L 176.132468 203.143374 
L 176.161458 203.195726 
L 176.219437 203.089834 
L 176.248427 203.130539 
L 176.596304 202.641949 
L 176.683274 202.81798 
L 176.741253 202.734379 
L 176.973171 202.4998 
L 177.234079 203.032068 
L 177.292059 202.954409 
L 177.321049 202.90919 
L 177.465998 203.161192 
L 177.581957 203.224631 
L 177.784885 203.035756 
L 178.016803 203.457698 
L 178.248722 203.195993 
L 178.277711 203.259981 
L 178.306701 203.332072 
L 178.364681 203.230661 
L 178.567609 203.055803 
L 178.683568 203.116185 
L 178.799527 203.047153 
L 178.828517 203.114358 
L 178.886497 203.035256 
L 179.408312 202.44549 
L 179.553261 202.5245 
L 179.69821 202.370085 
L 179.7272 202.440077 
L 179.75619 202.519457 
L 179.814169 202.441658 
L 179.959118 202.351229 
L 180.075077 202.430957 
L 180.162047 202.410696 
L 180.249016 202.491159 
L 180.278006 202.449048 
L 180.451944 202.205349 
L 180.480934 202.279936 
L 180.625883 202.191401 
L 180.654873 202.276509 
L 180.712852 202.193203 
L 180.741842 202.151305 
L 180.886791 202.389113 
L 180.97376 202.466949 
L 181.00275 202.41997 
L 181.176689 202.161207 
L 181.205678 202.226613 
L 181.234668 202.283827 
L 181.292648 202.221774 
L 181.582546 201.867356 
L 181.611535 201.948456 
L 181.669515 201.870352 
L 181.756484 201.766607 
L 181.785474 201.839315 
L 181.872443 201.910726 
L 181.901433 201.848907 
L 181.988402 201.841601 
L 182.104361 201.885412 
L 182.162341 201.774814 
L 182.24931 201.974064 
L 182.2783 201.935774 
L 182.510218 201.708655 
L 182.539208 201.782367 
L 182.597188 201.915667 
L 182.655167 201.814108 
L 182.800116 201.733689 
L 182.916075 201.910208 
L 182.945065 201.876462 
L 182.974055 201.92363 
L 183.032034 202.135984 
L 183.090014 202.072682 
L 183.234963 201.9606 
L 183.263952 202.017856 
L 183.321932 201.931381 
L 183.55385 201.811034 
L 183.58284 201.889469 
L 183.640819 201.795637 
L 183.727789 201.695071 
L 183.756779 201.768138 
L 183.872738 201.825151 
L 183.901727 201.786206 
L 183.930717 201.830331 
L 184.191625 202.213732 
L 184.249605 202.136624 
L 184.307584 202.182007 
L 184.452533 202.374191 
L 184.481523 202.449258 
L 184.539502 202.379729 
L 184.597482 202.292085 
L 184.626472 202.339048 
L 184.655462 202.415715 
L 184.713441 202.329486 
L 185.032329 202.067017 
L 185.090308 202.202296 
L 185.148288 202.109579 
L 185.322226 202.067945 
L 185.438185 202.216191 
L 185.467175 202.173051 
L 185.525155 202.223485 
L 185.583134 202.148692 
L 185.699093 202.204771 
L 185.815053 202.027654 
L 185.844042 202.098885 
L 185.960001 202.246164 
L 185.988991 202.202249 
L 186.10495 202.154385 
L 186.19192 202.214692 
L 186.220909 202.169592 
L 186.249899 202.125568 
L 186.278889 202.192714 
L 186.336868 202.301619 
L 186.394848 202.218329 
L 186.597776 202.050441 
L 186.626766 202.13122 
L 186.829695 202.387837 
L 187.43848 201.845803 
L 187.525449 202.03936 
L 187.554439 201.998194 
L 187.786357 201.750534 
L 187.815347 201.824627 
L 187.844337 201.883792 
L 187.902316 201.805112 
L 188.105245 201.61888 
L 188.134234 201.689934 
L 188.221204 201.766574 
L 188.250194 201.728517 
L 188.627061 201.396037 
L 188.74302 201.504351 
L 188.772009 201.453756 
L 188.887969 201.311204 
L 188.916958 201.361956 
L 189.032917 201.401734 
L 189.409784 201.093945 
L 189.641703 201.387628 
L 189.670692 201.343303 
L 189.699682 201.411809 
L 189.728672 201.479246 
L 189.786652 201.387293 
L 189.902611 201.346392 
L 190.01857 201.494523 
L 190.221498 201.326002 
L 190.250488 201.488003 
L 190.337457 201.348694 
L 190.424427 201.316004 
L 190.453416 201.369957 
L 190.569375 201.515032 
L 190.598365 201.464266 
L 190.685335 201.434169 
L 191.26513 202.476931 
L 191.526038 202.239499 
L 191.670987 202.285485 
L 191.902905 202.17089 
L 192.018864 202.229872 
L 192.163813 202.129232 
L 192.279772 202.331347 
L 192.337752 202.256025 
L 192.424721 202.134863 
L 192.453711 202.198243 
L 192.656639 202.517011 
L 192.685629 202.480619 
L 192.772598 202.456445 
L 192.801588 202.600464 
L 192.859568 202.502966 
L 192.946537 202.449613 
L 193.091486 202.755545 
L 193.120476 202.717725 
L 193.149465 202.771872 
L 193.178455 202.833477 
L 193.236435 202.742353 
L 193.555322 202.383981 
L 193.729261 202.699102 
L 193.990169 202.319241 
L 194.019159 202.476774 
L 194.106128 202.36402 
L 194.135118 202.430081 
L 194.193097 202.362295 
L 194.454005 202.061243 
L 194.482995 202.120973 
L 194.540974 202.017516 
L 194.598954 201.940878 
L 194.627944 201.997695 
L 194.772893 202.098615 
L 194.830872 202.030768 
L 194.859862 202.090533 
L 194.888852 202.139075 
L 194.946831 202.062197 
L 195.178749 201.816517 
L 195.265719 201.892183 
L 195.294709 201.8414 
L 195.439657 201.64528 
L 195.468647 201.800669 
L 195.642586 201.955842 
L 196.077432 201.52495 
L 196.106422 201.590793 
L 196.164402 201.516368 
L 196.33834 201.362634 
L 196.36733 201.409976 
L 196.541269 201.249491 
L 196.570259 201.342653 
L 196.657228 201.303733 
L 196.773187 201.250432 
L 196.918136 201.558937 
L 196.976115 201.482496 
L 197.034095 201.397938 
L 197.063085 201.548679 
L 197.092075 201.625234 
L 197.150054 201.535051 
L 197.266013 201.389205 
L 197.295003 201.446234 
L 197.410962 201.480254 
L 197.439952 201.436615 
L 197.584901 201.6331 
L 197.64288 201.55998 
L 197.67187 201.615422 
L 197.70086 201.670379 
L 197.758839 201.592364 
L 197.845809 201.57654 
L 197.990758 201.672802 
L 198.077727 201.664566 
L 198.222676 201.866501 
L 198.251666 201.822183 
L 198.599543 201.555866 
L 198.657522 201.826811 
L 198.744492 201.723424 
L 198.831461 201.624117 
L 198.860451 201.686664 
L 199.063379 202.020072 
L 199.092369 201.984084 
L 199.382267 201.716586 
L 199.469236 202.007055 
L 199.527216 201.931952 
L 199.701154 202.187485 
L 199.730144 202.145658 
L 199.875093 202.070985 
L 200.020042 202.171953 
L 200.25196 201.959798 
L 200.28095 202.096002 
L 200.367919 201.982968 
L 200.454888 201.88378 
L 200.483878 201.938947 
L 200.512868 202.003816 
L 200.570847 201.933293 
L 200.831755 201.666754 
L 200.947715 201.918816 
L 200.976704 201.872728 
L 201.063674 201.751133 
L 201.150643 201.845578 
L 201.295592 201.918958 
L 201.440541 201.821307 
L 201.5565 201.952752 
L 201.58549 201.910308 
L 201.846397 201.723098 
L 201.933367 201.784575 
L 201.962357 201.749591 
L 202.252254 201.5735 
L 202.339224 201.831372 
L 202.368213 201.789254 
L 202.600132 201.593516 
L 202.716091 201.728178 
L 202.919019 201.613415 
L 202.948009 201.661385 
L 203.005988 201.588943 
L 203.179927 201.471341 
L 203.324876 201.53876 
L 203.353866 201.503743 
L 203.440835 201.41207 
L 203.469825 201.477595 
L 203.498815 201.538258 
L 203.556794 201.46441 
L 203.730733 201.417862 
L 203.962651 201.784806 
L 203.991641 201.742049 
L 204.07861 201.712787 
L 204.1076 201.766754 
L 204.13659 201.736363 
L 204.165579 201.800355 
L 204.310528 201.875587 
L 204.687395 201.588083 
L 204.861334 201.814347 
L 204.890324 201.777211 
L 205.035273 201.69476 
L 205.093252 201.907497 
L 205.180221 201.796229 
L 205.470119 201.610258 
L 205.499109 201.676617 
L 205.557089 201.605229 
L 205.702037 201.517948 
L 205.817997 201.676877 
L 205.846986 201.645535 
L 205.962945 201.582991 
L 205.991935 201.64266 
L 206.049915 201.587171 
L 206.484761 201.157708 
L 206.71668 201.469277 
L 206.745669 201.430649 
L 206.919608 201.387612 
L 206.977587 201.50663 
L 207.035567 201.430321 
L 207.093547 201.357009 
L 207.122536 201.420493 
L 207.180516 201.527232 
L 207.238495 201.466052 
L 207.296475 201.398653 
L 207.325465 201.45316 
L 207.441424 201.612343 
L 207.818291 201.33108 
L 207.847281 201.381916 
L 207.90526 201.313273 
L 207.96324 201.231077 
L 207.99223 201.373811 
L 208.050209 201.463442 
L 208.108189 201.373309 
L 208.224148 201.32059 
L 208.340107 201.369391 
L 208.803943 201.063232 
L 208.890913 201.200688 
L 208.948892 201.139588 
L 208.977882 201.107725 
L 209.122831 201.298291 
L 209.26778 201.248009 
L 209.557677 201.705104 
L 209.586667 201.669256 
L 209.760606 201.625596 
L 210.021514 201.927436 
L 210.050504 201.901043 
L 210.166463 201.8465 
L 210.282422 202.078318 
L 210.311411 202.042892 
L 210.398381 202.017022 
L 210.427371 202.048899 
L 210.45636 202.141038 
L 210.51434 202.076429 
L 210.659289 202.059687 
L 210.978176 202.381854 
L 211.094135 202.242633 
L 211.123125 202.288799 
L 211.152115 202.330008 
L 211.210094 202.263354 
L 211.471002 202.140548 
L 211.615951 202.371545 
L 211.876859 202.164521 
L 211.905849 202.214799 
L 212.079788 202.452781 
L 212.137767 202.379619 
L 212.166757 202.352799 
L 212.282716 202.471753 
L 212.398675 202.325194 
L 212.427665 202.384566 
L 212.485645 202.495679 
L 212.543624 202.422788 
L 213.00746 202.055899 
L 213.06544 202.176362 
L 213.152409 202.137326 
L 213.442307 201.912624 
L 213.529276 202.172219 
L 213.616246 202.076546 
L 213.848164 201.971313 
L 214.080082 202.138379 
L 214.167051 202.119161 
L 214.283011 202.196978 
L 214.312 202.157971 
L 214.34099 202.200547 
L 214.39897 202.143346 
L 214.659878 201.983525 
L 214.804826 201.908452 
L 215.036745 202.430678 
L 215.065734 202.394911 
L 215.239673 202.29927 
L 215.471591 202.92006 
L 215.58755 202.766014 
L 215.703509 202.629653 
L 215.732499 202.675727 
L 215.993407 203.039204 
L 216.022397 203.013783 
L 216.138356 203.041533 
L 216.167346 203.093002 
L 216.225325 203.023168 
L 216.283305 202.965979 
L 216.312295 203.032529 
L 216.631182 203.350266 
L 216.776131 203.275259 
L 216.834111 203.360041 
L 216.89209 203.302521 
L 217.181988 203.118 
L 217.210978 203.249504 
L 217.297947 203.145046 
L 217.384916 203.046471 
L 217.442896 203.142143 
L 217.587845 203.203695 
L 217.645824 203.143903 
L 217.674814 203.202103 
L 217.703804 203.246224 
L 217.761783 203.188934 
L 217.935722 203.083668 
L 217.993702 203.187145 
L 218.051681 203.118873 
L 218.22562 202.983436 
L 218.399558 203.184742 
L 218.486528 203.169111 
L 218.544507 203.372972 
L 218.602487 203.294365 
L 218.631477 203.258641 
L 218.660466 203.302296 
L 218.805415 203.469991 
L 218.921374 203.507735 
L 219.066323 203.48152 
L 219.356221 203.704016 
L 219.50117 203.707853 
L 219.704098 203.826737 
L 220.138945 203.53122 
L 220.370863 203.813693 
L 220.399853 203.77074 
L 220.515812 203.754884 
L 220.573791 203.759857 
L 220.602781 203.731411 
L 220.863689 203.518065 
L 220.921669 203.607343 
L 220.979648 203.549658 
L 221.240556 203.347298 
L 221.269546 203.39094 
L 221.356515 203.435345 
L 221.385505 203.390136 
L 221.617423 203.22844 
L 221.820352 203.500558 
L 221.849341 203.471968 
L 222.05227 203.322747 
L 222.168229 203.3678 
L 222.197219 203.324414 
L 222.226209 203.462316 
L 222.255198 203.426046 
L 222.284188 203.482668 
L 222.342168 203.425785 
L 222.661055 203.200482 
L 222.748024 203.329514 
L 222.777014 203.291524 
L 222.950953 203.18338 
L 222.979943 203.221702 
L 223.037922 203.156056 
L 223.124892 203.053423 
L 223.182871 203.14505 
L 223.414789 203.376607 
L 223.530748 203.343027 
L 223.559738 203.390923 
L 223.617718 203.324149 
L 223.762667 203.160037 
L 223.791656 203.238329 
L 223.849636 203.329472 
L 223.907615 203.26953 
L 223.936605 203.231072 
L 223.994585 203.309371 
L 224.081554 203.495312 
L 224.139534 203.438551 
L 224.168523 203.40667 
L 224.197513 203.535473 
L 224.226503 203.571354 
L 224.284483 203.498734 
L 224.371452 203.482188 
L 224.400442 203.530647 
L 224.63236 203.819797 
L 224.690339 203.748555 
L 224.835288 203.67282 
L 224.864278 203.712658 
L 224.980237 203.72365 
L 225.357104 203.462448 
L 225.415084 203.562027 
L 225.473063 203.507213 
L 225.502053 203.475698 
L 225.531043 203.602358 
L 225.589022 203.711225 
L 225.647002 203.644796 
L 226.023869 203.30291 
L 226.081848 203.391934 
L 226.313767 203.744344 
L 226.342756 203.713458 
L 226.574675 203.53756 
L 226.632654 203.633497 
L 226.690634 203.571753 
L 226.719624 203.541543 
L 226.748613 203.592459 
L 226.777603 203.647265 
L 226.835583 203.581199 
L 227.357399 203.186052 
L 227.444368 203.265474 
L 227.473358 203.229055 
L 228.053153 202.823042 
L 228.169112 203.105388 
L 228.198102 203.084092 
L 228.45901 202.873642 
L 228.488 202.928889 
L 228.545979 203.038525 
L 228.603959 202.971993 
L 228.661938 202.906623 
L 228.690928 202.97377 
L 228.835877 203.050003 
L 229.212744 202.794788 
L 229.386683 202.945546 
L 229.444662 202.885576 
L 229.502642 202.959397 
L 229.589611 203.015208 
L 229.618601 202.990201 
L 229.73456 202.862462 
L 229.76355 202.920291 
L 229.79254 202.969216 
L 229.850519 202.911013 
L 230.140417 202.759505 
L 230.169407 202.809038 
L 230.227386 202.734699 
L 230.401325 202.614989 
L 230.430315 202.644883 
L 230.488294 202.588228 
L 230.749202 202.467008 
L 230.865161 202.581166 
L 230.923141 202.521747 
L 231.0391 202.455792 
L 231.06809 202.508594 
L 231.271018 202.624011 
L 231.618895 202.328095 
L 231.647885 202.376738 
L 231.705865 202.488164 
L 231.763844 202.425716 
L 231.792834 202.400352 
L 231.850813 202.496659 
L 231.879803 202.535129 
L 231.937783 202.474388 
L 231.966773 202.446389 
L 232.024752 202.627805 
L 232.111721 202.5992 
L 232.140711 202.632915 
L 232.198691 202.566438 
L 232.488589 202.341129 
L 232.517578 202.38199 
L 232.633537 202.414715 
L 232.894445 202.312866 
L 233.039394 202.38044 
L 233.068384 202.350484 
L 233.242323 202.231945 
L 233.271312 202.272394 
L 233.300302 202.385382 
L 233.387272 202.298616 
L 233.56121 202.190846 
L 233.735149 202.392835 
L 233.764139 202.369738 
L 233.938077 202.257657 
L 233.996057 202.333797 
L 234.054036 202.271639 
L 234.314944 202.090971 
L 234.343934 202.155653 
L 234.401914 202.101824 
L 234.662822 201.962637 
L 234.80777 201.971511 
L 234.952719 202.125161 
L 235.010699 202.069016 
L 235.213627 201.926142 
L 235.242617 201.978896 
L 235.416556 202.166115 
L 235.445545 202.137109 
L 235.677464 201.90198 
L 235.706453 202.018717 
L 235.967361 201.905529 
L 236.054331 201.957905 
L 236.08332 201.928469 
L 236.344228 201.733821 
L 236.373218 201.782286 
L 236.489177 201.821032 
L 236.837055 201.572558 
L 236.953014 201.597486 
L 237.41685 201.215711 
L 237.532809 201.310315 
L 237.851697 200.994479 
L 237.996646 201.136507 
L 238.228564 200.974023 
L 238.344523 200.985398 
L 238.489472 200.984154 
L 238.576441 201.266038 
L 238.634421 201.209942 
L 238.924318 201.043896 
L 239.040277 201.084213 
L 239.156237 201.040734 
L 239.272196 201.212245 
L 239.301185 201.18111 
L 239.417144 201.228954 
L 239.851991 200.977939 
L 239.880981 201.018419 
L 239.93896 200.960532 
L 240.05492 200.852854 
L 240.083909 200.895123 
L 240.141889 201.059291 
L 240.199868 200.998303 
L 240.286838 200.92058 
L 240.315827 201.032575 
L 240.344817 201.084695 
L 240.402797 201.026936 
L 240.518756 200.910126 
L 240.576735 201.001486 
L 240.663705 201.125999 
L 240.721684 201.062809 
L 240.866633 201.067761 
L 240.924613 201.081556 
L 240.953603 201.056314 
L 241.011582 201.127936 
L 241.069562 201.065906 
L 241.2435 201.194254 
L 241.27249 201.165651 
L 241.388449 201.198265 
L 241.417439 201.242071 
L 241.475418 201.194486 
L 241.794306 201.04276 
L 241.823296 201.082817 
L 241.881275 201.022052 
L 242.026224 200.952207 
L 242.055214 200.99229 
L 242.171173 201.018023 
L 242.374101 200.887216 
L 242.57703 201.042002 
L 242.663999 201.038362 
L 242.837938 201.242112 
L 242.866928 201.217904 
L 242.982887 201.175357 
L 243.040866 201.284505 
L 243.098846 201.229259 
L 243.185815 201.225295 
L 243.214805 201.276056 
L 243.272784 201.219432 
L 243.504703 201.121289 
L 243.765611 201.344213 
L 243.968539 201.280928 
L 243.997529 201.320161 
L 244.055508 201.273386 
L 244.113488 201.356365 
L 244.200457 201.267928 
L 244.316416 201.293985 
L 244.403386 201.223412 
L 244.461365 201.315092 
L 244.548334 201.387892 
L 244.577324 201.352647 
L 244.635304 201.291798 
L 244.664294 201.345565 
L 244.867222 201.691827 
L 245.09914 201.540765 
L 245.12813 201.589968 
L 245.273079 201.657692 
L 245.302069 201.627349 
L 245.389038 201.548845 
L 245.418028 201.59757 
L 245.620956 201.743667 
L 245.910854 201.513137 
L 246.113782 201.650514 
L 246.258731 201.724452 
L 246.43267 201.623847 
L 246.490649 201.794217 
L 246.548629 201.74887 
L 246.606608 201.696483 
L 246.635598 201.753606 
L 246.867516 201.901259 
L 247.099435 201.753131 
L 247.215394 201.840712 
L 247.244383 201.812326 
L 247.418322 201.726671 
L 247.447312 201.773902 
L 247.563271 201.805216 
L 247.73721 201.719807 
L 247.766199 201.77173 
L 247.824179 201.867715 
L 247.911148 201.793201 
L 248.085087 201.751527 
L 248.230036 201.755649 
L 248.288015 201.771659 
L 248.317005 201.743118 
L 248.896801 201.328643 
L 248.92579 201.371351 
L 248.98377 201.320073 
L 249.244678 201.155886 
L 249.331647 201.217899 
L 249.360637 201.185202 
L 249.534576 201.120221 
L 249.621545 201.249535 
L 249.679524 201.187877 
L 249.853463 201.077054 
L 249.882453 201.133674 
L 249.911443 201.177522 
L 249.969422 201.124528 
L 250.114371 200.986131 
L 250.172351 201.077809 
L 250.346289 201.324375 
L 250.636187 201.181826 
L 251.071034 200.926987 
L 251.158003 201.128153 
L 251.215982 201.083274 
L 251.302952 201.136616 
L 251.331942 201.102264 
L 251.59285 200.923802 
L 251.621839 200.962326 
L 251.795778 200.925684 
L 251.940727 201.058611 
L 251.969717 201.033195 
L 252.230625 200.931829 
L 252.346584 201.022195 
L 252.375573 201.003476 
L 252.404563 200.981195 
L 252.491533 201.194131 
L 252.549512 201.137789 
L 252.83941 200.992679 
L 252.897389 201.076707 
L 252.955369 201.029059 
L 253.071328 200.989216 
L 253.100318 201.029129 
L 253.129308 201.145899 
L 253.216277 201.064709 
L 253.274256 201.133615 
L 253.390216 201.032301 
L 253.593144 201.129608 
L 253.738093 201.136955 
L 253.767083 201.185339 
L 253.825062 201.136423 
L 253.999001 201.09146 
L 254.08597 201.132006 
L 254.11496 201.11043 
L 254.375868 201.017955 
L 254.404858 200.993026 
L 254.433847 201.041724 
L 254.462837 201.153901 
L 254.549806 201.074757 
L 254.636776 200.996426 
L 254.694755 201.07467 
L 254.839704 201.251894 
L 254.926674 201.175933 
L 255.187582 200.992515 
L 255.303541 201.037112 
L 255.564449 200.847334 
L 255.738387 200.877739 
L 255.999295 200.719035 
L 256.115254 200.73893 
L 256.289193 200.688691 
L 256.376162 200.755687 
L 256.405152 200.729649 
L 256.897978 200.419373 
L 256.926968 200.471667 
L 256.984947 200.417415 
L 257.274845 200.291056 
L 257.361815 200.287571 
L 257.390804 200.261845 
L 257.593733 200.150783 
L 257.622723 200.195033 
L 257.651712 200.233661 
L 257.709692 200.182304 
L 257.854641 200.05233 
L 257.88363 200.091803 
L 258.057569 200.219735 
L 258.231508 200.198237 
L 258.260498 200.240185 
L 258.318477 200.190388 
L 258.347467 200.168414 
L 258.405446 200.252206 
L 258.463426 200.265419 
L 258.492416 200.240607 
L 258.579385 200.16691 
L 258.608375 200.271282 
L 258.637365 200.313063 
L 258.695344 200.268507 
L 258.753324 200.215521 
L 258.782313 200.267661 
L 258.927262 200.448163 
L 259.27514 200.274176 
L 259.362109 200.308282 
L 259.391099 200.278226 
L 259.594027 200.215131 
L 259.825945 200.352737 
L 260.028874 200.300862 
L 260.260792 200.425028 
L 260.434731 200.387014 
L 260.5217 200.36715 
L 260.666649 200.242732 
L 260.724628 200.322152 
L 260.753618 200.359025 
L 260.811598 200.303903 
L 261.072506 200.161587 
L 261.275434 200.297678 
L 261.333414 200.307704 
L 261.362403 200.351293 
L 261.449373 200.415035 
L 261.478362 200.388529 
L 261.536342 200.386895 
L 261.565332 200.427606 
L 261.623311 200.511496 
L 261.681291 200.46128 
L 261.971189 200.264049 
L 262.116137 200.310425 
L 262.435025 200.106679 
L 262.493005 200.200664 
L 262.550984 200.144833 
L 262.724923 199.998123 
L 262.782902 200.075523 
L 262.869872 200.112146 
L 262.898861 200.080028 
L 263.10179 200.066363 
L 263.275728 200.108608 
L 263.304718 200.083998 
L 263.333708 200.183938 
L 263.420677 200.17205 
L 263.623606 200.060367 
L 263.652595 200.102947 
L 263.884514 200.231525 
L 264.058452 200.15148 
L 264.174411 200.288141 
L 264.203401 200.259691 
L 264.638248 199.963724 
L 264.812186 200.02231 
L 265.015115 199.974746 
L 265.044105 200.007725 
L 265.102084 199.950893 
L 265.131074 199.929269 
L 265.160064 199.976963 
L 265.189054 200.09136 
L 265.276023 200.019393 
L 265.6239 199.84231 
L 265.797839 199.856673 
L 265.971777 199.823945 
L 266.116726 199.894852 
L 266.464604 199.714715 
L 266.725512 199.596954 
L 266.87046 199.747309 
L 267.276317 199.521007 
L 267.305307 199.559431 
L 267.363287 199.509392 
L 267.508235 199.430926 
L 267.537225 199.473461 
L 267.740154 199.607017 
L 267.972072 199.521048 
L 268.088031 199.61313 
L 268.117021 199.591536 
L 268.348939 199.458302 
L 268.493888 199.600925 
L 268.522878 199.576016 
L 268.696816 199.537881 
L 268.870755 199.613675 
L 269.131663 199.520148 
L 269.50853 199.781384 
L 269.798428 199.647797 
L 270.088325 199.538288 
L 270.233274 199.608877 
L 270.262264 199.578585 
L 270.610141 199.412577 
L 270.639131 199.455017 
L 270.7261 199.388368 
L 270.75509 199.362589 
L 270.78408 199.464734 
L 270.81307 199.439628 
L 270.842059 199.477182 
L 270.900039 199.42162 
L 271.131957 199.358325 
L 271.160947 199.397097 
L 271.218926 199.34667 
L 271.421855 199.296954 
L 271.508824 199.282423 
L 271.653773 199.165161 
L 271.682763 199.263793 
L 271.856702 199.307674 
L 271.943671 199.28686 
L 271.972661 199.339042 
L 272.175589 199.475643 
L 272.668415 199.229294 
L 272.755384 199.277076 
L 272.784374 199.247511 
L 273.045282 199.162622 
L 273.219221 199.267899 
L 273.248211 199.244686 
L 273.480129 199.174735 
L 273.683057 199.312405 
L 273.712047 199.286836 
L 273.943965 199.201601 
L 274.088914 199.253056 
L 274.320832 199.182514 
L 274.436791 199.206633 
L 274.55275 199.171828 
L 274.726689 199.346931 
L 274.755679 199.325148 
L 274.958607 199.279136 
L 275.074566 199.353558 
L 275.103556 199.329869 
L 275.248505 199.336207 
L 275.393454 199.334062 
L 275.712341 199.200948 
L 275.741331 199.29871 
L 275.828301 199.229183 
L 275.85729 199.264216 
L 275.91527 199.214973 
L 276.118198 199.169325 
L 276.147188 199.20607 
L 276.205168 199.158297 
L 276.379106 199.094935 
L 276.697994 199.377981 
L 276.929912 199.299115 
L 276.958902 199.329333 
L 277.016881 199.272081 
L 277.277789 199.11943 
L 277.364759 199.229479 
L 277.393748 199.210179 
L 277.480718 199.201231 
L 277.654656 199.417752 
L 278.089503 199.232476 
L 278.118493 199.323353 
L 278.205462 199.254376 
L 278.52435 199.12449 
L 278.727278 199.194452 
L 278.901217 199.17988 
L 279.017176 199.190855 
L 279.133135 199.233119 
L 279.336063 199.386483 
L 279.654951 199.26432 
L 279.74192 199.316578 
L 279.77091 199.291336 
L 279.886869 199.254061 
L 279.915859 199.296191 
L 279.944848 199.337215 
L 280.031818 199.271198 
L 280.263736 199.152293 
L 280.350705 199.317748 
L 280.408685 199.267485 
L 280.727572 199.484952 
L 280.756562 199.453486 
L 280.901511 199.455428 
L 281.07545 199.564728 
L 281.365347 199.399674 
L 281.510296 199.532144 
L 281.539286 199.502229 
L 281.771204 199.432809 
L 281.829184 199.50993 
L 281.887163 199.460098 
L 282.003122 199.467491 
L 282.177061 199.568884 
L 282.206051 199.542795 
L 282.32201 199.557445 
L 282.408979 199.612009 
L 282.437969 199.591879 
L 283.075744 199.258789 
L 283.162713 199.318624 
L 283.191703 199.299527 
L 283.452611 199.205228 
L 283.62655 199.227994 
L 283.800488 199.133869 
L 283.858468 199.265294 
L 283.916447 199.215741 
L 284.090386 199.174534 
L 284.206345 199.15073 
L 284.293315 199.079006 
L 284.351294 199.144792 
L 284.583212 199.243448 
L 284.786141 199.208474 
L 284.9021 199.229326 
L 284.960079 199.194108 
L 284.989069 199.310283 
L 285.076038 199.243087 
L 285.163008 199.300783 
L 285.249977 199.358794 
L 285.278967 199.334134 
L 285.539875 199.243214 
L 285.713813 199.318038 
L 285.858762 199.276123 
L 285.974721 199.427332 
L 286.003711 199.407255 
L 286.20664 199.356582 
L 286.322599 199.402268 
L 286.351588 199.378306 
L 286.699466 199.214752 
L 286.815425 199.426487 
L 286.844415 199.409294 
L 286.960374 199.422656 
L 286.989363 199.509404 
L 287.076333 199.449038 
L 287.134312 199.519455 
L 287.221282 199.453744 
L 287.42421 199.53641 
L 287.511179 199.469302 
L 287.540169 199.575807 
L 287.714108 199.605941 
L 287.888046 199.568033 
L 288.004006 199.604698 
L 288.032995 199.58325 
L 288.351883 199.471266 
L 288.438852 199.525053 
L 288.583801 199.777768 
L 288.612791 199.758114 
L 288.72875 199.784668 
L 288.931678 199.959945 
L 288.960668 199.929438 
L 289.076627 199.954989 
L 289.163597 200.062546 
L 289.192586 200.03938 
L 289.308545 200.010303 
L 289.337535 200.050118 
L 289.453494 200.01513 
L 289.627433 199.995959 
L 289.743392 199.965627 
L 289.801372 199.975511 
L 289.830361 200.06182 
L 289.917331 199.993472 
L 290.323187 199.807355 
L 290.555106 199.978882 
L 290.902983 199.814605 
L 291.047932 199.929384 
L 291.076922 199.905057 
L 291.192881 199.888723 
L 291.33783 200.011042 
L 291.366819 199.981127 
L 291.830656 199.799245 
L 292.120553 200.009036 
L 292.294492 199.998118 
L 292.497421 200.082231 
L 292.61338 200.111584 
L 292.845298 200.232086 
L 293.309134 199.996108 
L 293.541052 200.246744 
L 293.570042 200.220274 
L 293.686001 200.229909 
L 293.772971 200.210797 
L 294.033879 200.05903 
L 294.062868 200.150801 
L 294.149838 200.08275 
L 294.294787 200.090223 
L 294.700643 199.905119 
L 294.845592 199.909657 
L 295.019531 199.897576 
L 295.19347 199.935019 
L 295.425388 199.878754 
L 295.686296 199.994463 
L 296.034173 199.838422 
L 296.266091 199.967823 
L 296.758917 199.756181 
L 296.845887 199.752579 
L 296.874876 199.727174 
L 297.019825 199.722569 
L 297.222754 199.797178 
L 297.773559 199.502477 
L 297.860529 199.50083 
L 297.889518 199.47823 
L 298.092447 199.536536 
L 298.266386 199.518582 
L 298.440324 199.717746 
L 298.614263 199.693308 
L 298.730222 199.665188 
L 299.049109 199.530076 
L 299.223048 199.544884 
L 299.396987 199.529534 
L 299.541936 199.533083 
L 299.831833 199.429307 
L 300.121731 199.593525 
L 300.411629 199.486624 
L 300.614557 199.560674 
L 300.875465 199.486356 
L 301.165363 199.652356 
L 301.252332 199.688217 
L 301.745158 199.982515 
L 301.890107 199.980948 
L 302.151015 200.051604 
L 302.295964 200.051189 
L 302.440913 200.049332 
L 302.556872 200.075446 
L 302.81778 200.225218 
L 302.933739 200.243405 
L 303.107678 200.276634 
L 303.252627 200.268971 
L 303.281616 200.362202 
L 303.368586 200.303922 
L 303.484545 200.329751 
L 303.629494 200.329715 
L 303.832422 200.287465 
L 303.977371 200.301997 
L 304.267269 200.090708 
L 304.296259 200.185731 
L 304.673126 200.035681 
L 304.847064 200.12234 
L 305.107972 200.087581 
L 305.310901 200.166629 
L 305.658778 200.036206 
L 305.803727 200.040096 
L 306.006655 199.991224 
L 306.122614 199.963389 
L 306.441502 199.898068 
L 306.557461 199.864629 
L 306.934328 199.699475 
L 307.108267 199.720314 
L 307.137256 199.700283 
L 307.166246 199.780664 
L 307.311195 199.770993 
L 307.456144 199.76225 
L 307.630083 199.795381 
L 307.862001 199.894 
L 308.209878 199.707787 
L 308.325837 199.69359 
L 308.412806 199.739265 
L 308.528766 199.764839 
L 308.789673 199.689594 
L 308.934622 199.784862 
L 309.050581 199.757107 
L 309.2825 199.841022 
L 309.543408 199.76571 
L 309.659367 199.731823 
L 309.746336 199.713271 
L 309.862295 199.834678 
L 309.891285 199.8141 
L 310.065224 199.830116 
L 310.239162 199.815844 
L 310.355121 199.834596 
L 310.52906 199.820041 
L 310.674009 199.822043 
L 311.021886 199.728179 
L 311.137845 199.812188 
L 311.166835 199.788899 
L 311.311784 199.798039 
L 311.340774 199.887485 
L 311.427743 199.828232 
L 311.77562 199.989963 
L 311.86259 199.934714 
L 311.891579 200.012994 
L 312.123497 200.113683 
L 312.181477 200.120046 
L 312.210467 200.20956 
L 312.297436 200.152211 
L 312.500365 200.121113 
L 312.645313 200.155769 
L 312.819252 200.141602 
L 313.02218 200.204402 
L 313.254099 200.145631 
L 313.283088 200.185681 
L 313.341068 200.135374 
L 313.457027 200.153568 
L 313.630966 200.191276 
L 313.833894 200.157219 
L 314.152782 200.356701 
L 314.529649 200.191826 
L 314.906516 200.392713 
L 315.109444 200.353594 
L 315.254393 200.356578 
L 315.66025 200.18189 
L 315.834189 200.211831 
L 315.892168 200.216749 
L 316.037117 200.326101 
L 316.240045 200.290277 
L 316.413984 200.319975 
L 316.819841 200.155564 
L 316.9358 200.134095 
L 317.138728 200.094632 
L 317.225698 200.093459 
L 317.254687 200.068821 
L 317.428626 200.051584 
L 317.631555 200.113995 
L 317.863473 200.201053 
L 318.18236 200.135221 
L 318.356299 200.168376 
L 318.530238 200.141395 
L 318.646197 200.104658 
L 318.762156 200.069915 
L 318.907105 200.215767 
L 319.110033 200.188729 
L 319.254982 200.197436 
L 319.399931 200.20516 
L 319.4869 200.243734 
L 319.689828 200.311711 
L 319.921747 200.243155 
L 320.095685 200.281277 
L 320.327603 200.232976 
L 320.501542 200.257349 
L 320.82043 200.204992 
L 320.994368 200.221473 
L 321.284266 200.125837 
L 321.400225 200.09596 
L 321.516184 200.118198 
L 321.632143 200.084396 
L 321.893051 200.008303 
L 322.00901 199.978129 
L 322.385877 199.810908 
L 322.501837 199.989266 
L 322.530826 199.972595 
L 322.704765 199.957004 
L 322.936683 200.044446 
L 323.139612 199.962832 
L 323.168601 200.043672 
L 323.255571 199.98205 
L 323.429509 200.023811 
L 323.690417 199.960865 
L 323.922335 200.048512 
L 324.241223 199.984987 
L 324.386172 200.077539 
L 324.61809 200.024261 
L 324.763039 200.029305 
L 324.907988 200.048204 
L 325.139906 200.150265 
L 325.342834 200.11609 
L 325.516773 200.153693 
L 325.690712 200.142991 
L 325.89364 200.340503 
L 326.212528 200.473276 
L 326.415456 200.435109 
L 326.618384 200.504327 
L 326.821313 200.472475 
L 327.024241 200.544834 
L 327.256159 200.490623 
L 327.459088 200.588264 
L 327.633027 200.560546 
L 327.893934 200.688343 
L 328.154842 200.612947 
L 328.299791 200.617632 
L 328.618679 200.521344 
L 328.821607 200.542451 
L 328.937566 200.558015 
L 329.082515 200.554691 
L 329.285444 200.463271 
L 329.372413 200.563908 
L 329.401403 200.546247 
L 329.604331 200.508057 
L 329.74928 200.508627 
L 329.865239 200.528187 
L 330.068168 200.5958 
L 330.271096 200.56533 
L 330.474024 200.611164 
L 330.503014 200.590922 
L 330.532004 200.672505 
L 330.792912 200.801482 
L 330.937861 200.793598 
L 331.169779 200.883122 
L 331.372707 200.901986 
L 331.517656 200.898324 
L 331.575636 200.9119 
L 331.691595 201.011887 
L 331.720585 200.993662 
L 331.894523 200.935047 
L 331.981493 201.017679 
L 332.010482 201.002124 
L 332.184421 200.987175 
L 332.35836 201.179304 
L 332.532298 201.158853 
L 332.648257 201.21784 
L 332.735227 201.212392 
L 332.764217 201.286708 
L 332.851186 201.2399 
L 333.141084 201.154851 
L 333.344012 201.265011 
L 333.517951 201.246323 
L 333.807848 201.395991 
L 333.923807 201.411659 
L 334.242695 201.582495 
L 334.532593 201.441437 
L 334.619562 201.535985 
L 334.648552 201.521066 
L 334.90946 201.454504 
L 335.083398 201.477659 
L 335.286327 201.527228 
L 335.547235 201.419367 
L 335.576225 201.495717 
L 335.663194 201.44362 
L 335.779153 201.459648 
L 336.18501 201.686948 
L 336.387938 201.645376 
L 336.474908 201.735229 
L 336.503897 201.717235 
L 336.764805 201.642276 
L 336.851775 201.643874 
L 336.880764 201.620548 
L 337.257631 201.479161 
L 337.46056 201.547804 
L 337.634499 201.486293 
L 337.779447 201.577379 
L 338.011366 201.515505 
L 338.127325 201.478912 
L 338.359243 201.429736 
L 338.533182 201.454923 
L 338.73611 201.422777 
L 338.852069 201.396288 
L 339.199946 201.306488 
L 339.344895 201.307965 
L 339.431865 201.298588 
L 339.547824 201.366472 
L 339.692772 201.324272 
L 339.721762 201.396771 
L 339.808732 201.342967 
L 339.924691 201.36412 
L 340.06964 201.363068 
L 340.359537 201.283705 
L 340.504486 201.281239 
L 340.620445 201.310185 
L 340.794384 201.339787 
L 340.968323 201.327141 
L 341.084282 201.303917 
L 341.34519 201.221707 
L 341.490138 201.235158 
L 341.606098 201.252489 
L 341.722057 201.227024 
L 342.098924 201.136281 
L 342.301852 201.184884 
L 342.417811 201.206491 
L 342.475791 201.342349 
L 342.56276 201.287588 
L 343.055586 201.128957 
L 343.229525 201.152883 
L 343.548412 201.044364 
L 343.89629 200.962942 
L 344.070228 201.00149 
L 344.331136 200.934312 
L 344.505075 200.957526 
L 344.910932 200.847571 
L 345.345778 201.065399 
L 345.432748 201.017276 
L 345.461737 201.091849 
L 345.838605 201.297047 
L 346.070523 201.246544 
L 346.186482 201.220964 
L 346.331431 201.217632 
L 346.534359 201.280317 
L 346.679308 201.280157 
L 346.795267 201.26046 
L 347.259103 201.109808 
L 347.433042 201.12837 
L 347.577991 201.130067 
L 347.72294 201.131593 
L 347.925868 201.141854 
L 348.215766 201.249899 
L 348.331725 201.219871 
L 348.447684 201.336634 
L 348.476674 201.318954 
L 348.9695 201.138958 
L 349.230408 201.18716 
L 349.491316 201.13401 
L 349.665255 201.163088 
L 350.100101 201.041163 
L 350.389999 201.18358 
L 350.998784 200.948092 
L 351.346662 201.081784 
L 351.462621 201.104505 
L 351.60757 201.097545 
L 351.926457 201.04605 
L 352.100396 201.081692 
L 352.187365 201.076515 
L 352.361304 201.242012 
L 352.506253 201.238699 
L 352.622212 201.220265 
L 352.767161 201.213874 
L 352.88312 201.189741 
L 353.144028 201.165303 
L 353.173017 201.236057 
L 353.259987 201.179015 
L 353.549884 201.136617 
L 353.665844 201.123541 
L 353.781803 201.14172 
L 353.926751 201.236497 
L 354.10069 201.254135 
L 354.303619 201.250871 
L 354.477557 201.274938 
L 354.854424 201.185106 
L 355.086342 201.31463 
L 355.40523 201.258194 
L 355.666138 201.360618 
L 355.782097 201.423899 
L 355.898056 201.40192 
L 356.158964 201.333329 
L 356.303913 201.332911 
L 356.477852 201.317108 
L 356.912698 201.534217 
L 357.173606 201.469284 
L 357.376535 201.520864 
L 357.695422 201.466703 
L 357.89835 201.521453 
L 358.043299 201.560977 
L 358.275218 201.595917 
L 358.449156 201.582365 
L 358.710064 201.735507 
L 358.855013 201.73898 
L 359.028952 201.768539 
L 359.753696 201.51028 
L 359.869655 201.486194 
L 360.159553 201.442127 
L 360.333492 201.461657 
L 360.681369 201.357948 
L 360.797328 201.337274 
L 360.971267 201.363681 
L 361.261164 201.49553 
L 361.493082 201.444681 
L 361.522072 201.505115 
L 361.609042 201.455419 
L 361.78298 201.479478 
L 361.898939 201.488594 
L 361.927929 201.561171 
L 362.014898 201.511121 
L 362.304796 201.477974 
L 362.478735 201.500235 
L 362.623684 201.505734 
L 362.884592 201.613853 
L 363.319438 201.48591 
L 363.464387 201.488781 
L 363.812264 201.429388 
L 364.044183 201.429209 
L 364.160142 201.403187 
L 364.247111 201.440828 
L 364.42105 201.474634 
L 364.623978 201.48481 
L 364.797917 201.502251 
L 364.942866 201.507887 
L 365.087814 201.604178 
L 365.232763 201.607286 
L 365.60963 201.853549 
L 365.870538 201.829312 
L 366.276395 201.729176 
L 366.450334 201.754619 
L 366.595283 201.752474 
L 366.769221 201.778329 
L 367.233058 201.639374 
L 367.378007 201.638232 
L 367.812853 201.521621 
L 368.073761 201.584658 
L 368.421638 201.463253 
L 368.537598 201.444922 
L 368.653557 201.464473 
L 368.885475 201.533876 
L 369.233352 201.463341 
L 369.407291 201.484874 
L 369.52325 201.506327 
L 369.755168 201.580175 
L 370.190015 201.409469 
L 370.392943 201.45405 
L 370.653851 201.397143 
L 370.682841 201.463326 
L 370.76981 201.412818 
L 371.001728 201.368714 
L 371.117687 201.34752 
L 371.407585 201.28729 
L 371.697483 201.421729 
L 371.871422 201.409519 
L 372.04536 201.441077 
L 372.335258 201.525565 
L 372.596166 201.461735 
L 372.857074 201.519337 
L 373.117982 201.485467 
L 373.3499 201.554091 
L 373.581818 201.507562 
L 373.581818 201.507562 
" style="fill:none;stroke:#006400;stroke-linecap:square;stroke-width:1.5;"/>
   </g>
   <g id="patch_3">
    <path d="M 54 252 
L 54 34.56 
" style="fill:none;stroke:#000000;stroke-linecap:square;stroke-linejoin:miter;stroke-width:0.8;"/>
   </g>
   <g id="patch_4">
    <path d="M 388.8 252 
L 388.8 34.56 
" style="fill:none;stroke:#000000;stroke-linecap:square;stroke-linejoin:miter;stroke-width:0.8;"/>
   </g>
   <g id="patch_5">
    <path d="M 54 252 
L 388.8 252 
" style="fill:none;stroke:#000000;stroke-linecap:square;stroke-linejoin:miter;stroke-width:0.8;"/>
   </g>
   <g id="patch_6">
    <path d="M 54 34.56 
L 388.8 34.56 
" style="fill:none;stroke:#000000;stroke-linecap:square;stroke-linejoin:miter;stroke-width:0.8;"/>
   </g>
   <g id="text_15">
    <!-- Average trust for groups with 20% sinners -->
    <defs>
     <path d="M 34.1875 63.1875 
L 20.796875 26.90625 
L 47.609375 26.90625 
z
M 28.609375 72.90625 
L 39.796875 72.90625 
L 67.578125 0 
L 57.328125 0 
L 50.6875 18.703125 
L 17.828125 18.703125 
L 11.1875 0 
L 0.78125 0 
z
" id="DejaVuSans-65"/>
     <path d="M 2.984375 54.6875 
L 12.5 54.6875 
L 29.59375 8.796875 
L 46.6875 54.6875 
L 56.203125 54.6875 
L 35.6875 0 
L 23.484375 0 
z
" id="DejaVuSans-118"/>
     <path d="M 45.40625 27.984375 
Q 45.40625 37.75 41.375 43.109375 
Q 37.359375 48.484375 30.078125 48.484375 
Q 22.859375 48.484375 18.828125 43.109375 
Q 14.796875 37.75 14.796875 27.984375 
Q 14.796875 18.265625 18.828125 12.890625 
Q 22.859375 7.515625 30.078125 7.515625 
Q 37.359375 7.515625 41.375 12.890625 
Q 45.40625 18.265625 45.40625 27.984375 
z
M 54.390625 6.78125 
Q 54.390625 -7.171875 48.1875 -13.984375 
Q 42 -20.796875 29.203125 -20.796875 
Q 24.46875 -20.796875 20.265625 -20.09375 
Q 16.0625 -19.390625 12.109375 -17.921875 
L 12.109375 -9.1875 
Q 16.0625 -11.328125 19.921875 -12.34375 
Q 23.78125 -13.375 27.78125 -13.375 
Q 36.625 -13.375 41.015625 -8.765625 
Q 45.40625 -4.15625 45.40625 5.171875 
L 45.40625 9.625 
Q 42.625 4.78125 38.28125 2.390625 
Q 33.9375 0 27.875 0 
Q 17.828125 0 11.671875 7.65625 
Q 5.515625 15.328125 5.515625 27.984375 
Q 5.515625 40.671875 11.671875 48.328125 
Q 17.828125 56 27.875 56 
Q 33.9375 56 38.28125 53.609375 
Q 42.625 51.21875 45.40625 46.390625 
L 45.40625 54.6875 
L 54.390625 54.6875 
z
" id="DejaVuSans-103"/>
     <path d="M 37.109375 75.984375 
L 37.109375 68.5 
L 28.515625 68.5 
Q 23.6875 68.5 21.796875 66.546875 
Q 19.921875 64.59375 19.921875 59.515625 
L 19.921875 54.6875 
L 34.71875 54.6875 
L 34.71875 47.703125 
L 19.921875 47.703125 
L 19.921875 0 
L 10.890625 0 
L 10.890625 47.703125 
L 2.296875 47.703125 
L 2.296875 54.6875 
L 10.890625 54.6875 
L 10.890625 58.5 
Q 10.890625 67.625 15.140625 71.796875 
Q 19.390625 75.984375 28.609375 75.984375 
z
" id="DejaVuSans-102"/>
     <path d="M 18.109375 8.203125 
L 18.109375 -20.796875 
L 9.078125 -20.796875 
L 9.078125 54.6875 
L 18.109375 54.6875 
L 18.109375 46.390625 
Q 20.953125 51.265625 25.265625 53.625 
Q 29.59375 56 35.59375 56 
Q 45.5625 56 51.78125 48.09375 
Q 58.015625 40.1875 58.015625 27.296875 
Q 58.015625 14.40625 51.78125 6.484375 
Q 45.5625 -1.421875 35.59375 -1.421875 
Q 29.59375 -1.421875 25.265625 0.953125 
Q 20.953125 3.328125 18.109375 8.203125 
z
M 48.6875 27.296875 
Q 48.6875 37.203125 44.609375 42.84375 
Q 40.53125 48.484375 33.40625 48.484375 
Q 26.265625 48.484375 22.1875 42.84375 
Q 18.109375 37.203125 18.109375 27.296875 
Q 18.109375 17.390625 22.1875 11.75 
Q 26.265625 6.109375 33.40625 6.109375 
Q 40.53125 6.109375 44.609375 11.75 
Q 48.6875 17.390625 48.6875 27.296875 
z
" id="DejaVuSans-112"/>
     <path d="M 4.203125 54.6875 
L 13.1875 54.6875 
L 24.421875 12.015625 
L 35.59375 54.6875 
L 46.1875 54.6875 
L 57.421875 12.015625 
L 68.609375 54.6875 
L 77.59375 54.6875 
L 63.28125 0 
L 52.6875 0 
L 40.921875 44.828125 
L 29.109375 0 
L 18.5 0 
z
" id="DejaVuSans-119"/>
     <path d="M 54.890625 33.015625 
L 54.890625 0 
L 45.90625 0 
L 45.90625 32.71875 
Q 45.90625 40.484375 42.875 44.328125 
Q 39.84375 48.1875 33.796875 48.1875 
Q 26.515625 48.1875 22.3125 43.546875 
Q 18.109375 38.921875 18.109375 30.90625 
L 18.109375 0 
L 9.078125 0 
L 9.078125 75.984375 
L 18.109375 75.984375 
L 18.109375 46.1875 
Q 21.34375 51.125 25.703125 53.5625 
Q 30.078125 56 35.796875 56 
Q 45.21875 56 50.046875 50.171875 
Q 54.890625 44.34375 54.890625 33.015625 
z
" id="DejaVuSans-104"/>
    </defs>
    <g transform="translate(161.985458 187.46991)scale(0.1 -0.1)">
     <use xlink:href="#DejaVuSans-65"/>
     <use x="62.533203" xlink:href="#DejaVuSans-118"/>
     <use x="121.712891" xlink:href="#DejaVuSans-101"/>
     <use x="183.236328" xlink:href="#DejaVuSans-114"/>
     <use x="224.349609" xlink:href="#DejaVuSans-97"/>
     <use x="285.628906" xlink:href="#DejaVuSans-103"/>
     <use x="349.105469" xlink:href="#DejaVuSans-101"/>
     <use x="410.628906" xlink:href="#DejaVuSans-32"/>
     <use x="442.416016" xlink:href="#DejaVuSans-116"/>
     <use x="481.625" xlink:href="#DejaVuSans-114"/>
     <use x="522.738281" xlink:href="#DejaVuSans-117"/>
     <use x="586.117188" xlink:href="#DejaVuSans-115"/>
     <use x="638.216797" xlink:href="#DejaVuSans-116"/>
     <use x="677.425781" xlink:href="#DejaVuSans-32"/>
     <use x="709.212891" xlink:href="#DejaVuSans-102"/>
     <use x="744.417969" xlink:href="#DejaVuSans-111"/>
     <use x="805.599609" xlink:href="#DejaVuSans-114"/>
     <use x="846.712891" xlink:href="#DejaVuSans-32"/>
     <use x="878.5" xlink:href="#DejaVuSans-103"/>
     <use x="941.976562" xlink:href="#DejaVuSans-114"/>
     <use x="980.839844" xlink:href="#DejaVuSans-111"/>
     <use x="1042.021484" xlink:href="#DejaVuSans-117"/>
     <use x="1105.400391" xlink:href="#DejaVuSans-112"/>
     <use x="1168.876953" xlink:href="#DejaVuSans-115"/>
     <use x="1220.976562" xlink:href="#DejaVuSans-32"/>
     <use x="1252.763672" xlink:href="#DejaVuSans-119"/>
     <use x="1334.550781" xlink:href="#DejaVuSans-105"/>
     <use x="1362.333984" xlink:href="#DejaVuSans-116"/>
     <use x="1401.542969" xlink:href="#DejaVuSans-104"/>
     <use x="1464.921875" xlink:href="#DejaVuSans-32"/>
     <use x="1496.708984" xlink:href="#DejaVuSans-50"/>
     <use x="1560.332031" xlink:href="#DejaVuSans-48"/>
     <use x="1623.955078" xlink:href="#DejaVuSans-37"/>
     <use x="1718.974609" xlink:href="#DejaVuSans-32"/>
     <use x="1750.761719" xlink:href="#DejaVuSans-115"/>
     <use x="1802.861328" xlink:href="#DejaVuSans-105"/>
     <use x="1830.644531" xlink:href="#DejaVuSans-110"/>
     <use x="1894.023438" xlink:href="#DejaVuSans-110"/>
     <use x="1957.402344" xlink:href="#DejaVuSans-101"/>
     <use x="2018.925781" xlink:href="#DejaVuSans-114"/>
     <use x="2060.039062" xlink:href="#DejaVuSans-115"/>
    </g>
   </g>
  </g>
 </g>
 <defs>
  <clipPath id="pa67fbf2838">
   <rect height="217.44" width="334.8" x="54" y="34.56"/>
  </clipPath>
 </defs>
</svg>
