<?xml version="1.0" encoding="utf-8" standalone="no"?>
<!DOCTYPE svg PUBLIC "-//W3C//DTD SVG 1.1//EN"
  "http://www.w3.org/Graphics/SVG/1.1/DTD/svg11.dtd">
<!-- Created with matplotlib (https://matplotlib.org/) -->
<svg height="576pt" version="1.1" viewBox="0 0 864 576" width="864pt" xmlns="http://www.w3.org/2000/svg" xmlns:xlink="http://www.w3.org/1999/xlink">
 <defs>
  <style type="text/css">
*{stroke-linecap:butt;stroke-linejoin:round;}
  </style>
 </defs>
 <g id="figure_1">
  <g id="patch_1">
   <path d="M 0 576 
L 864 576 
L 864 0 
L 0 0 
z
" style="fill:#ffffff;"/>
  </g>
  <g id="patch_2">
   <path d="M 10.8 565.2 
L 853.2 565.2 
L 853.2 10.8 
L 10.8 10.8 
z
" style="fill:#ffffff;"/>
  </g>
  <g id="pane3d_1">
   <g id="patch_3">
    <path d="M 122.473137 442.697138 
L 363.572425 306.77082 
L 359.558377 47.037935 
L 105.016225 169.164937 
" style="fill:#f2f2f2;opacity:0.5;stroke:#f2f2f2;stroke-linejoin:miter;"/>
   </g>
  </g>
  <g id="pane3d_2">
   <g id="patch_4">
    <path d="M 363.572425 306.77082 
L 754.130603 382.762403 
L 770.471089 115.197379 
L 359.558377 47.037935 
" style="fill:#e6e6e6;opacity:0.5;stroke:#e6e6e6;stroke-linejoin:miter;"/>
   </g>
  </g>
  <g id="pane3d_3">
   <g id="patch_5">
    <path d="M 122.473137 442.697138 
L 533.393114 531.201719 
L 754.130603 382.762403 
L 363.572425 306.77082 
" style="fill:#ececec;opacity:0.5;stroke:#ececec;stroke-linejoin:miter;"/>
   </g>
  </g>
  <g id="axis3d_1">
   <g id="line2d_1">
    <path d="M 122.473137 442.697138 
L 533.393114 531.201719 
" style="fill:none;stroke:#000000;stroke-linecap:square;stroke-width:0.8;"/>
   </g>
   <g id="text_1">
    <!-- Wealth -->
    <defs>
     <path d="M 3.328125 72.90625 
L 13.28125 72.90625 
L 28.609375 11.28125 
L 43.890625 72.90625 
L 54.984375 72.90625 
L 70.3125 11.28125 
L 85.59375 72.90625 
L 95.609375 72.90625 
L 77.296875 0 
L 64.890625 0 
L 49.515625 63.28125 
L 33.984375 0 
L 21.578125 0 
z
" id="DejaVuSans-87"/>
     <path d="M 56.203125 29.59375 
L 56.203125 25.203125 
L 14.890625 25.203125 
Q 15.484375 15.921875 20.484375 11.0625 
Q 25.484375 6.203125 34.421875 6.203125 
Q 39.59375 6.203125 44.453125 7.46875 
Q 49.3125 8.734375 54.109375 11.28125 
L 54.109375 2.78125 
Q 49.265625 0.734375 44.1875 -0.34375 
Q 39.109375 -1.421875 33.890625 -1.421875 
Q 20.796875 -1.421875 13.15625 6.1875 
Q 5.515625 13.8125 5.515625 26.8125 
Q 5.515625 40.234375 12.765625 48.109375 
Q 20.015625 56 32.328125 56 
Q 43.359375 56 49.78125 48.890625 
Q 56.203125 41.796875 56.203125 29.59375 
z
M 47.21875 32.234375 
Q 47.125 39.59375 43.09375 43.984375 
Q 39.0625 48.390625 32.421875 48.390625 
Q 24.90625 48.390625 20.390625 44.140625 
Q 15.875 39.890625 15.1875 32.171875 
z
" id="DejaVuSans-101"/>
     <path d="M 34.28125 27.484375 
Q 23.390625 27.484375 19.1875 25 
Q 14.984375 22.515625 14.984375 16.5 
Q 14.984375 11.71875 18.140625 8.90625 
Q 21.296875 6.109375 26.703125 6.109375 
Q 34.1875 6.109375 38.703125 11.40625 
Q 43.21875 16.703125 43.21875 25.484375 
L 43.21875 27.484375 
z
M 52.203125 31.203125 
L 52.203125 0 
L 43.21875 0 
L 43.21875 8.296875 
Q 40.140625 3.328125 35.546875 0.953125 
Q 30.953125 -1.421875 24.3125 -1.421875 
Q 15.921875 -1.421875 10.953125 3.296875 
Q 6 8.015625 6 15.921875 
Q 6 25.140625 12.171875 29.828125 
Q 18.359375 34.515625 30.609375 34.515625 
L 43.21875 34.515625 
L 43.21875 35.40625 
Q 43.21875 41.609375 39.140625 45 
Q 35.0625 48.390625 27.6875 48.390625 
Q 23 48.390625 18.546875 47.265625 
Q 14.109375 46.140625 10.015625 43.890625 
L 10.015625 52.203125 
Q 14.9375 54.109375 19.578125 55.046875 
Q 24.21875 56 28.609375 56 
Q 40.484375 56 46.34375 49.84375 
Q 52.203125 43.703125 52.203125 31.203125 
z
" id="DejaVuSans-97"/>
     <path d="M 9.421875 75.984375 
L 18.40625 75.984375 
L 18.40625 0 
L 9.421875 0 
z
" id="DejaVuSans-108"/>
     <path d="M 18.3125 70.21875 
L 18.3125 54.6875 
L 36.8125 54.6875 
L 36.8125 47.703125 
L 18.3125 47.703125 
L 18.3125 18.015625 
Q 18.3125 11.328125 20.140625 9.421875 
Q 21.96875 7.515625 27.59375 7.515625 
L 36.8125 7.515625 
L 36.8125 0 
L 27.59375 0 
Q 17.1875 0 13.234375 3.875 
Q 9.28125 7.765625 9.28125 18.015625 
L 9.28125 47.703125 
L 2.6875 47.703125 
L 2.6875 54.6875 
L 9.28125 54.6875 
L 9.28125 70.21875 
z
" id="DejaVuSans-116"/>
     <path d="M 54.890625 33.015625 
L 54.890625 0 
L 45.90625 0 
L 45.90625 32.71875 
Q 45.90625 40.484375 42.875 44.328125 
Q 39.84375 48.1875 33.796875 48.1875 
Q 26.515625 48.1875 22.3125 43.546875 
Q 18.109375 38.921875 18.109375 30.90625 
L 18.109375 0 
L 9.078125 0 
L 9.078125 75.984375 
L 18.109375 75.984375 
L 18.109375 46.1875 
Q 21.34375 51.125 25.703125 53.5625 
Q 30.078125 56 35.796875 56 
Q 45.21875 56 50.046875 50.171875 
Q 54.890625 44.34375 54.890625 33.015625 
z
" id="DejaVuSans-104"/>
    </defs>
    <g transform="translate(288.973622 513.653716)rotate(-347.845226)scale(0.1 -0.1)">
     <use xlink:href="#DejaVuSans-87"/>
     <use x="93.001953" xlink:href="#DejaVuSans-101"/>
     <use x="154.525391" xlink:href="#DejaVuSans-97"/>
     <use x="215.804688" xlink:href="#DejaVuSans-108"/>
     <use x="243.587891" xlink:href="#DejaVuSans-116"/>
     <use x="282.796875" xlink:href="#DejaVuSans-104"/>
    </g>
   </g>
   <g id="Line3DCollection_1">
    <path d="M 147.525473 448.092949 
L 387.458472 311.41837 
L 384.637936 51.197964 
" style="fill:none;stroke:#b0b0b0;stroke-width:0.8;"/>
    <path d="M 223.070841 464.364027 
L 459.427705 325.421549 
L 460.243625 63.738929 
" style="fill:none;stroke:#b0b0b0;stroke-width:0.8;"/>
    <path d="M 299.922836 480.916529 
L 532.550628 339.649203 
L 537.123453 76.491239 
" style="fill:none;stroke:#b0b0b0;stroke-width:0.8;"/>
    <path d="M 378.115654 497.757819 
L 606.855208 354.106774 
L 615.309904 89.460283 
" style="fill:none;stroke:#b0b0b0;stroke-width:0.8;"/>
    <path d="M 457.684692 514.895522 
L 682.37032 368.79988 
L 694.836571 102.651633 
" style="fill:none;stroke:#b0b0b0;stroke-width:0.8;"/>
   </g>
   <g id="xtick_1">
    <g id="line2d_2">
     <path d="M 149.592619 446.915427 
L 143.38347 450.452385 
" style="fill:none;stroke:#000000;stroke-linecap:square;stroke-width:0.8;"/>
    </g>
    <g id="text_2">
     <!-- 0 -->
     <defs>
      <path d="M 31.78125 66.40625 
Q 24.171875 66.40625 20.328125 58.90625 
Q 16.5 51.421875 16.5 36.375 
Q 16.5 21.390625 20.328125 13.890625 
Q 24.171875 6.390625 31.78125 6.390625 
Q 39.453125 6.390625 43.28125 13.890625 
Q 47.125 21.390625 47.125 36.375 
Q 47.125 51.421875 43.28125 58.90625 
Q 39.453125 66.40625 31.78125 66.40625 
z
M 31.78125 74.21875 
Q 44.046875 74.21875 50.515625 64.515625 
Q 56.984375 54.828125 56.984375 36.375 
Q 56.984375 17.96875 50.515625 8.265625 
Q 44.046875 -1.421875 31.78125 -1.421875 
Q 19.53125 -1.421875 13.0625 8.265625 
Q 6.59375 17.96875 6.59375 36.375 
Q 6.59375 54.828125 13.0625 64.515625 
Q 19.53125 74.21875 31.78125 74.21875 
z
" id="DejaVuSans-48"/>
     </defs>
     <g transform="translate(136.647664 468.574411)scale(0.1 -0.1)">
      <use xlink:href="#DejaVuSans-48"/>
     </g>
    </g>
   </g>
   <g id="xtick_2">
    <g id="line2d_3">
     <path d="M 225.108424 463.166234 
L 218.988011 466.764121 
" style="fill:none;stroke:#000000;stroke-linecap:square;stroke-width:0.8;"/>
    </g>
    <g id="text_3">
     <!-- 5 -->
     <defs>
      <path d="M 10.796875 72.90625 
L 49.515625 72.90625 
L 49.515625 64.59375 
L 19.828125 64.59375 
L 19.828125 46.734375 
Q 21.96875 47.46875 24.109375 47.828125 
Q 26.265625 48.1875 28.421875 48.1875 
Q 40.625 48.1875 47.75 41.5 
Q 54.890625 34.8125 54.890625 23.390625 
Q 54.890625 11.625 47.5625 5.09375 
Q 40.234375 -1.421875 26.90625 -1.421875 
Q 22.3125 -1.421875 17.546875 -0.640625 
Q 12.796875 0.140625 7.71875 1.703125 
L 7.71875 11.625 
Q 12.109375 9.234375 16.796875 8.0625 
Q 21.484375 6.890625 26.703125 6.890625 
Q 35.15625 6.890625 40.078125 11.328125 
Q 45.015625 15.765625 45.015625 23.390625 
Q 45.015625 31 40.078125 35.4375 
Q 35.15625 39.890625 26.703125 39.890625 
Q 22.75 39.890625 18.8125 39.015625 
Q 14.890625 38.140625 10.796875 36.28125 
z
" id="DejaVuSans-53"/>
     </defs>
     <g transform="translate(212.189355 484.96947)scale(0.1 -0.1)">
      <use xlink:href="#DejaVuSans-53"/>
     </g>
    </g>
   </g>
   <g id="xtick_3">
    <g id="line2d_4">
     <path d="M 301.92952 479.697935 
L 295.901856 483.358341 
" style="fill:none;stroke:#000000;stroke-linecap:square;stroke-width:0.8;"/>
    </g>
    <g id="text_4">
     <!-- 10 -->
     <defs>
      <path d="M 12.40625 8.296875 
L 28.515625 8.296875 
L 28.515625 63.921875 
L 10.984375 60.40625 
L 10.984375 69.390625 
L 28.421875 72.90625 
L 38.28125 72.90625 
L 38.28125 8.296875 
L 54.390625 8.296875 
L 54.390625 0 
L 12.40625 0 
z
" id="DejaVuSans-49"/>
     </defs>
     <g transform="translate(285.857449 501.648333)scale(0.1 -0.1)">
      <use xlink:href="#DejaVuSans-49"/>
      <use x="63.623047" xlink:href="#DejaVuSans-48"/>
     </g>
    </g>
   </g>
   <g id="xtick_4">
    <g id="line2d_5">
     <path d="M 380.090045 496.517879 
L 374.159314 500.242446 
" style="fill:none;stroke:#000000;stroke-linecap:square;stroke-width:0.8;"/>
    </g>
    <g id="text_5">
     <!-- 15 -->
     <g transform="translate(364.048694 518.618433)scale(0.1 -0.1)">
      <use xlink:href="#DejaVuSans-49"/>
      <use x="63.623047" xlink:href="#DejaVuSans-53"/>
     </g>
    </g>
   </g>
   <g id="xtick_5">
    <g id="line2d_6">
     <path d="M 459.62534 513.633669 
L 453.795904 517.424099 
" style="fill:none;stroke:#000000;stroke-linecap:square;stroke-width:0.8;"/>
    </g>
    <g id="text_6">
     <!-- 20 -->
     <defs>
      <path d="M 19.1875 8.296875 
L 53.609375 8.296875 
L 53.609375 0 
L 7.328125 0 
L 7.328125 8.296875 
Q 12.9375 14.109375 22.625 23.890625 
Q 32.328125 33.6875 34.8125 36.53125 
Q 39.546875 41.84375 41.421875 45.53125 
Q 43.3125 49.21875 43.3125 52.78125 
Q 43.3125 58.59375 39.234375 62.25 
Q 35.15625 65.921875 28.609375 65.921875 
Q 23.96875 65.921875 18.8125 64.3125 
Q 13.671875 62.703125 7.8125 59.421875 
L 7.8125 69.390625 
Q 13.765625 71.78125 18.9375 73 
Q 24.125 74.21875 28.421875 74.21875 
Q 39.75 74.21875 46.484375 68.546875 
Q 53.21875 62.890625 53.21875 53.421875 
Q 53.21875 48.921875 51.53125 44.890625 
Q 49.859375 40.875 45.40625 35.40625 
Q 44.1875 33.984375 37.640625 27.21875 
Q 31.109375 20.453125 19.1875 8.296875 
z
" id="DejaVuSans-50"/>
     </defs>
     <g transform="translate(443.617299 535.887466)scale(0.1 -0.1)">
      <use xlink:href="#DejaVuSans-50"/>
      <use x="63.623047" xlink:href="#DejaVuSans-48"/>
     </g>
    </g>
   </g>
  </g>
  <g id="axis3d_2">
   <g id="line2d_7">
    <path d="M 754.130603 382.762403 
L 533.393114 531.201719 
" style="fill:none;stroke:#000000;stroke-linecap:square;stroke-width:0.8;"/>
   </g>
   <g id="text_7">
    <!-- Sacrifices in % -->
    <defs>
     <path d="M 53.515625 70.515625 
L 53.515625 60.890625 
Q 47.90625 63.578125 42.921875 64.890625 
Q 37.9375 66.21875 33.296875 66.21875 
Q 25.25 66.21875 20.875 63.09375 
Q 16.5 59.96875 16.5 54.203125 
Q 16.5 49.359375 19.40625 46.890625 
Q 22.3125 44.4375 30.421875 42.921875 
L 36.375 41.703125 
Q 47.40625 39.59375 52.65625 34.296875 
Q 57.90625 29 57.90625 20.125 
Q 57.90625 9.515625 50.796875 4.046875 
Q 43.703125 -1.421875 29.984375 -1.421875 
Q 24.8125 -1.421875 18.96875 -0.25 
Q 13.140625 0.921875 6.890625 3.21875 
L 6.890625 13.375 
Q 12.890625 10.015625 18.65625 8.296875 
Q 24.421875 6.59375 29.984375 6.59375 
Q 38.421875 6.59375 43.015625 9.90625 
Q 47.609375 13.234375 47.609375 19.390625 
Q 47.609375 24.75 44.3125 27.78125 
Q 41.015625 30.8125 33.5 32.328125 
L 27.484375 33.5 
Q 16.453125 35.6875 11.515625 40.375 
Q 6.59375 45.0625 6.59375 53.421875 
Q 6.59375 63.09375 13.40625 68.65625 
Q 20.21875 74.21875 32.171875 74.21875 
Q 37.3125 74.21875 42.625 73.28125 
Q 47.953125 72.359375 53.515625 70.515625 
z
" id="DejaVuSans-83"/>
     <path d="M 48.78125 52.59375 
L 48.78125 44.1875 
Q 44.96875 46.296875 41.140625 47.34375 
Q 37.3125 48.390625 33.40625 48.390625 
Q 24.65625 48.390625 19.8125 42.84375 
Q 14.984375 37.3125 14.984375 27.296875 
Q 14.984375 17.28125 19.8125 11.734375 
Q 24.65625 6.203125 33.40625 6.203125 
Q 37.3125 6.203125 41.140625 7.25 
Q 44.96875 8.296875 48.78125 10.40625 
L 48.78125 2.09375 
Q 45.015625 0.34375 40.984375 -0.53125 
Q 36.96875 -1.421875 32.421875 -1.421875 
Q 20.0625 -1.421875 12.78125 6.34375 
Q 5.515625 14.109375 5.515625 27.296875 
Q 5.515625 40.671875 12.859375 48.328125 
Q 20.21875 56 33.015625 56 
Q 37.15625 56 41.109375 55.140625 
Q 45.0625 54.296875 48.78125 52.59375 
z
" id="DejaVuSans-99"/>
     <path d="M 41.109375 46.296875 
Q 39.59375 47.171875 37.8125 47.578125 
Q 36.03125 48 33.890625 48 
Q 26.265625 48 22.1875 43.046875 
Q 18.109375 38.09375 18.109375 28.8125 
L 18.109375 0 
L 9.078125 0 
L 9.078125 54.6875 
L 18.109375 54.6875 
L 18.109375 46.1875 
Q 20.953125 51.171875 25.484375 53.578125 
Q 30.03125 56 36.53125 56 
Q 37.453125 56 38.578125 55.875 
Q 39.703125 55.765625 41.0625 55.515625 
z
" id="DejaVuSans-114"/>
     <path d="M 9.421875 54.6875 
L 18.40625 54.6875 
L 18.40625 0 
L 9.421875 0 
z
M 9.421875 75.984375 
L 18.40625 75.984375 
L 18.40625 64.59375 
L 9.421875 64.59375 
z
" id="DejaVuSans-105"/>
     <path d="M 37.109375 75.984375 
L 37.109375 68.5 
L 28.515625 68.5 
Q 23.6875 68.5 21.796875 66.546875 
Q 19.921875 64.59375 19.921875 59.515625 
L 19.921875 54.6875 
L 34.71875 54.6875 
L 34.71875 47.703125 
L 19.921875 47.703125 
L 19.921875 0 
L 10.890625 0 
L 10.890625 47.703125 
L 2.296875 47.703125 
L 2.296875 54.6875 
L 10.890625 54.6875 
L 10.890625 58.5 
Q 10.890625 67.625 15.140625 71.796875 
Q 19.390625 75.984375 28.609375 75.984375 
z
" id="DejaVuSans-102"/>
     <path d="M 44.28125 53.078125 
L 44.28125 44.578125 
Q 40.484375 46.53125 36.375 47.5 
Q 32.28125 48.484375 27.875 48.484375 
Q 21.1875 48.484375 17.84375 46.4375 
Q 14.5 44.390625 14.5 40.28125 
Q 14.5 37.15625 16.890625 35.375 
Q 19.28125 33.59375 26.515625 31.984375 
L 29.59375 31.296875 
Q 39.15625 29.25 43.1875 25.515625 
Q 47.21875 21.78125 47.21875 15.09375 
Q 47.21875 7.46875 41.1875 3.015625 
Q 35.15625 -1.421875 24.609375 -1.421875 
Q 20.21875 -1.421875 15.453125 -0.5625 
Q 10.6875 0.296875 5.421875 2 
L 5.421875 11.28125 
Q 10.40625 8.6875 15.234375 7.390625 
Q 20.0625 6.109375 24.8125 6.109375 
Q 31.15625 6.109375 34.5625 8.28125 
Q 37.984375 10.453125 37.984375 14.40625 
Q 37.984375 18.0625 35.515625 20.015625 
Q 33.0625 21.96875 24.703125 23.78125 
L 21.578125 24.515625 
Q 13.234375 26.265625 9.515625 29.90625 
Q 5.8125 33.546875 5.8125 39.890625 
Q 5.8125 47.609375 11.28125 51.796875 
Q 16.75 56 26.8125 56 
Q 31.78125 56 36.171875 55.265625 
Q 40.578125 54.546875 44.28125 53.078125 
z
" id="DejaVuSans-115"/>
     <path id="DejaVuSans-32"/>
     <path d="M 54.890625 33.015625 
L 54.890625 0 
L 45.90625 0 
L 45.90625 32.71875 
Q 45.90625 40.484375 42.875 44.328125 
Q 39.84375 48.1875 33.796875 48.1875 
Q 26.515625 48.1875 22.3125 43.546875 
Q 18.109375 38.921875 18.109375 30.90625 
L 18.109375 0 
L 9.078125 0 
L 9.078125 54.6875 
L 18.109375 54.6875 
L 18.109375 46.1875 
Q 21.34375 51.125 25.703125 53.5625 
Q 30.078125 56 35.796875 56 
Q 45.21875 56 50.046875 50.171875 
Q 54.890625 44.34375 54.890625 33.015625 
z
" id="DejaVuSans-110"/>
     <path d="M 72.703125 32.078125 
Q 68.453125 32.078125 66.03125 28.46875 
Q 63.625 24.859375 63.625 18.40625 
Q 63.625 12.0625 66.03125 8.421875 
Q 68.453125 4.78125 72.703125 4.78125 
Q 76.859375 4.78125 79.265625 8.421875 
Q 81.6875 12.0625 81.6875 18.40625 
Q 81.6875 24.8125 79.265625 28.4375 
Q 76.859375 32.078125 72.703125 32.078125 
z
M 72.703125 38.28125 
Q 80.421875 38.28125 84.953125 32.90625 
Q 89.5 27.546875 89.5 18.40625 
Q 89.5 9.28125 84.9375 3.921875 
Q 80.375 -1.421875 72.703125 -1.421875 
Q 64.890625 -1.421875 60.34375 3.921875 
Q 55.8125 9.28125 55.8125 18.40625 
Q 55.8125 27.59375 60.375 32.9375 
Q 64.9375 38.28125 72.703125 38.28125 
z
M 22.3125 68.015625 
Q 18.109375 68.015625 15.6875 64.375 
Q 13.28125 60.75 13.28125 54.390625 
Q 13.28125 47.953125 15.671875 44.328125 
Q 18.0625 40.71875 22.3125 40.71875 
Q 26.5625 40.71875 28.96875 44.328125 
Q 31.390625 47.953125 31.390625 54.390625 
Q 31.390625 60.6875 28.953125 64.34375 
Q 26.515625 68.015625 22.3125 68.015625 
z
M 66.40625 74.21875 
L 74.21875 74.21875 
L 28.609375 -1.421875 
L 20.796875 -1.421875 
z
M 22.3125 74.21875 
Q 30.03125 74.21875 34.609375 68.875 
Q 39.203125 63.53125 39.203125 54.390625 
Q 39.203125 45.171875 34.640625 39.84375 
Q 30.078125 34.515625 22.3125 34.515625 
Q 14.546875 34.515625 10.03125 39.859375 
Q 5.515625 45.21875 5.515625 54.390625 
Q 5.515625 63.484375 10.046875 68.84375 
Q 14.59375 74.21875 22.3125 74.21875 
z
" id="DejaVuSans-37"/>
    </defs>
    <g transform="translate(647.333516 500.516075)rotate(-33.919644)scale(0.1 -0.1)">
     <use xlink:href="#DejaVuSans-83"/>
     <use x="63.476562" xlink:href="#DejaVuSans-97"/>
     <use x="124.755859" xlink:href="#DejaVuSans-99"/>
     <use x="179.736328" xlink:href="#DejaVuSans-114"/>
     <use x="220.849609" xlink:href="#DejaVuSans-105"/>
     <use x="248.632812" xlink:href="#DejaVuSans-102"/>
     <use x="283.837891" xlink:href="#DejaVuSans-105"/>
     <use x="311.621094" xlink:href="#DejaVuSans-99"/>
     <use x="366.601562" xlink:href="#DejaVuSans-101"/>
     <use x="428.125" xlink:href="#DejaVuSans-115"/>
     <use x="480.224609" xlink:href="#DejaVuSans-32"/>
     <use x="512.011719" xlink:href="#DejaVuSans-105"/>
     <use x="539.794922" xlink:href="#DejaVuSans-110"/>
     <use x="603.173828" xlink:href="#DejaVuSans-32"/>
     <use x="634.960938" xlink:href="#DejaVuSans-37"/>
    </g>
   </g>
   <g id="Line3DCollection_2">
    <path d="M 122.44558 160.802492 
L 138.922143 433.423561 
L 548.500065 521.04275 
" style="fill:none;stroke:#b0b0b0;stroke-width:0.8;"/>
    <path d="M 156.076131 144.66686 
L 170.685876 415.515888 
L 577.652648 501.438515 
" style="fill:none;stroke:#b0b0b0;stroke-width:0.8;"/>
    <path d="M 189.039465 128.851353 
L 201.851172 397.9456 
L 606.230936 482.220477 
" style="fill:none;stroke:#b0b0b0;stroke-width:0.8;"/>
    <path d="M 221.355244 113.346537 
L 232.434785 380.703252 
L 634.251735 463.377333 
" style="fill:none;stroke:#b0b0b0;stroke-width:0.8;"/>
    <path d="M 253.042362 98.143347 
L 262.452851 363.779746 
L 661.731199 444.898221 
" style="fill:none;stroke:#b0b0b0;stroke-width:0.8;"/>
    <path d="M 284.118989 83.233065 
L 291.920912 347.166321 
L 688.684865 426.772692 
" style="fill:none;stroke:#b0b0b0;stroke-width:0.8;"/>
    <path d="M 314.602598 68.607308 
L 320.853947 330.854531 
L 715.127681 408.990694 
" style="fill:none;stroke:#b0b0b0;stroke-width:0.8;"/>
    <path d="M 344.510004 54.258007 
L 349.266396 314.836235 
L 741.074035 391.542552 
" style="fill:none;stroke:#b0b0b0;stroke-width:0.8;"/>
   </g>
   <g id="xtick_6">
    <g id="line2d_8">
     <path d="M 545.072258 520.309454 
L 555.363339 522.510979 
" style="fill:none;stroke:#000000;stroke-linecap:square;stroke-width:0.8;"/>
    </g>
    <g id="text_8">
     <!-- 1 -->
     <g transform="translate(558.688579 539.945674)scale(0.1 -0.1)">
      <use xlink:href="#DejaVuSans-49"/>
     </g>
    </g>
   </g>
   <g id="xtick_7">
    <g id="line2d_9">
     <path d="M 574.248188 500.719734 
L 584.469101 502.877668 
" style="fill:none;stroke:#000000;stroke-linecap:square;stroke-width:0.8;"/>
    </g>
    <g id="text_9">
     <!-- 2 -->
     <g transform="translate(587.701625 520.233426)scale(0.1 -0.1)">
      <use xlink:href="#DejaVuSans-50"/>
     </g>
    </g>
   </g>
   <g id="xtick_8">
    <g id="line2d_10">
     <path d="M 602.849573 481.515783 
L 613.001071 483.631409 
" style="fill:none;stroke:#000000;stroke-linecap:square;stroke-width:0.8;"/>
    </g>
    <g id="text_10">
     <!-- 3 -->
     <defs>
      <path d="M 40.578125 39.3125 
Q 47.65625 37.796875 51.625 33 
Q 55.609375 28.21875 55.609375 21.1875 
Q 55.609375 10.40625 48.1875 4.484375 
Q 40.765625 -1.421875 27.09375 -1.421875 
Q 22.515625 -1.421875 17.65625 -0.515625 
Q 12.796875 0.390625 7.625 2.203125 
L 7.625 11.71875 
Q 11.71875 9.328125 16.59375 8.109375 
Q 21.484375 6.890625 26.8125 6.890625 
Q 36.078125 6.890625 40.9375 10.546875 
Q 45.796875 14.203125 45.796875 21.1875 
Q 45.796875 27.640625 41.28125 31.265625 
Q 36.765625 34.90625 28.71875 34.90625 
L 20.21875 34.90625 
L 20.21875 43.015625 
L 29.109375 43.015625 
Q 36.375 43.015625 40.234375 45.921875 
Q 44.09375 48.828125 44.09375 54.296875 
Q 44.09375 59.90625 40.109375 62.90625 
Q 36.140625 65.921875 28.71875 65.921875 
Q 24.65625 65.921875 20.015625 65.03125 
Q 15.375 64.15625 9.8125 62.3125 
L 9.8125 71.09375 
Q 15.4375 72.65625 20.34375 73.4375 
Q 25.25 74.21875 29.59375 74.21875 
Q 40.828125 74.21875 47.359375 69.109375 
Q 53.90625 64.015625 53.90625 55.328125 
Q 53.90625 49.265625 50.4375 45.09375 
Q 46.96875 40.921875 40.578125 39.3125 
z
" id="DejaVuSans-51"/>
     </defs>
     <g transform="translate(616.143254 500.909415)scale(0.1 -0.1)">
      <use xlink:href="#DejaVuSans-51"/>
     </g>
    </g>
   </g>
   <g id="xtick_9">
    <g id="line2d_11">
     <path d="M 630.893219 462.686317 
L 640.976053 464.760866 
" style="fill:none;stroke:#000000;stroke-linecap:square;stroke-width:0.8;"/>
    </g>
    <g id="text_11">
     <!-- 4 -->
     <defs>
      <path d="M 37.796875 64.3125 
L 12.890625 25.390625 
L 37.796875 25.390625 
z
M 35.203125 72.90625 
L 47.609375 72.90625 
L 47.609375 25.390625 
L 58.015625 25.390625 
L 58.015625 17.1875 
L 47.609375 17.1875 
L 47.609375 0 
L 37.796875 0 
L 37.796875 17.1875 
L 4.890625 17.1875 
L 4.890625 26.703125 
z
" id="DejaVuSans-52"/>
     </defs>
     <g transform="translate(644.030181 481.962284)scale(0.1 -0.1)">
      <use xlink:href="#DejaVuSans-52"/>
     </g>
    </g>
   </g>
   <g id="xtick_10">
    <g id="line2d_12">
     <path d="M 658.395283 444.220487 
L 668.410198 446.255145 
" style="fill:none;stroke:#000000;stroke-linecap:square;stroke-width:0.8;"/>
    </g>
    <g id="text_12">
     <!-- 5 -->
     <g transform="translate(671.378477 463.381113)scale(0.1 -0.1)">
      <use xlink:href="#DejaVuSans-53"/>
     </g>
    </g>
   </g>
   <g id="xtick_11">
    <g id="line2d_13">
     <path d="M 685.371303 426.107862 
L 695.31904 428.103767 
" style="fill:none;stroke:#000000;stroke-linecap:square;stroke-width:0.8;"/>
    </g>
    <g id="text_13">
     <!-- 6 -->
     <defs>
      <path d="M 33.015625 40.375 
Q 26.375 40.375 22.484375 35.828125 
Q 18.609375 31.296875 18.609375 23.390625 
Q 18.609375 15.53125 22.484375 10.953125 
Q 26.375 6.390625 33.015625 6.390625 
Q 39.65625 6.390625 43.53125 10.953125 
Q 47.40625 15.53125 47.40625 23.390625 
Q 47.40625 31.296875 43.53125 35.828125 
Q 39.65625 40.375 33.015625 40.375 
z
M 52.59375 71.296875 
L 52.59375 62.3125 
Q 48.875 64.0625 45.09375 64.984375 
Q 41.3125 65.921875 37.59375 65.921875 
Q 27.828125 65.921875 22.671875 59.328125 
Q 17.53125 52.734375 16.796875 39.40625 
Q 19.671875 43.65625 24.015625 45.921875 
Q 28.375 48.1875 33.59375 48.1875 
Q 44.578125 48.1875 50.953125 41.515625 
Q 57.328125 34.859375 57.328125 23.390625 
Q 57.328125 12.15625 50.6875 5.359375 
Q 44.046875 -1.421875 33.015625 -1.421875 
Q 20.359375 -1.421875 13.671875 8.265625 
Q 6.984375 17.96875 6.984375 36.375 
Q 6.984375 53.65625 15.1875 63.9375 
Q 23.390625 74.21875 37.203125 74.21875 
Q 40.921875 74.21875 44.703125 73.484375 
Q 48.484375 72.75 52.59375 71.296875 
z
" id="DejaVuSans-54"/>
     </defs>
     <g transform="translate(698.203599 445.1554)scale(0.1 -0.1)">
      <use xlink:href="#DejaVuSans-54"/>
     </g>
    </g>
   </g>
   <g id="xtick_12">
    <g id="line2d_14">
     <path d="M 711.836229 408.338402 
L 721.717524 410.296652 
" style="fill:none;stroke:#000000;stroke-linecap:square;stroke-width:0.8;"/>
    </g>
    <g id="text_14">
     <!-- 7 -->
     <defs>
      <path d="M 8.203125 72.90625 
L 55.078125 72.90625 
L 55.078125 68.703125 
L 28.609375 0 
L 18.3125 0 
L 43.21875 64.59375 
L 8.203125 64.59375 
z
" id="DejaVuSans-55"/>
     </defs>
     <g transform="translate(724.520417 427.275043)scale(0.1 -0.1)">
      <use xlink:href="#DejaVuSans-55"/>
     </g>
    </g>
   </g>
   <g id="xtick_13">
    <g id="line2d_15">
     <path d="M 737.80445 390.902448 
L 747.620032 392.824098 
" style="fill:none;stroke:#000000;stroke-linecap:square;stroke-width:0.8;"/>
    </g>
    <g id="text_15">
     <!-- 8 -->
     <defs>
      <path d="M 31.78125 34.625 
Q 24.75 34.625 20.71875 30.859375 
Q 16.703125 27.09375 16.703125 20.515625 
Q 16.703125 13.921875 20.71875 10.15625 
Q 24.75 6.390625 31.78125 6.390625 
Q 38.8125 6.390625 42.859375 10.171875 
Q 46.921875 13.96875 46.921875 20.515625 
Q 46.921875 27.09375 42.890625 30.859375 
Q 38.875 34.625 31.78125 34.625 
z
M 21.921875 38.8125 
Q 15.578125 40.375 12.03125 44.71875 
Q 8.5 49.078125 8.5 55.328125 
Q 8.5 64.0625 14.71875 69.140625 
Q 20.953125 74.21875 31.78125 74.21875 
Q 42.671875 74.21875 48.875 69.140625 
Q 55.078125 64.0625 55.078125 55.328125 
Q 55.078125 49.078125 51.53125 44.71875 
Q 48 40.375 41.703125 38.8125 
Q 48.828125 37.15625 52.796875 32.3125 
Q 56.78125 27.484375 56.78125 20.515625 
Q 56.78125 9.90625 50.3125 4.234375 
Q 43.84375 -1.421875 31.78125 -1.421875 
Q 19.734375 -1.421875 13.25 4.234375 
Q 6.78125 9.90625 6.78125 20.515625 
Q 6.78125 27.484375 10.78125 32.3125 
Q 14.796875 37.15625 21.921875 38.8125 
z
M 18.3125 54.390625 
Q 18.3125 48.734375 21.84375 45.5625 
Q 25.390625 42.390625 31.78125 42.390625 
Q 38.140625 42.390625 41.71875 45.5625 
Q 45.3125 48.734375 45.3125 54.390625 
Q 45.3125 60.0625 41.71875 63.234375 
Q 38.140625 66.40625 31.78125 66.40625 
Q 25.390625 66.40625 21.84375 63.234375 
Q 18.3125 60.0625 18.3125 54.390625 
z
" id="DejaVuSans-56"/>
     </defs>
     <g transform="translate(750.343242 409.730318)scale(0.1 -0.1)">
      <use xlink:href="#DejaVuSans-56"/>
     </g>
    </g>
   </g>
  </g>
  <g id="axis3d_3">
   <g id="line2d_16">
    <path d="M 754.130603 382.762403 
L 770.471089 115.197379 
" style="fill:none;stroke:#000000;stroke-linecap:square;stroke-width:0.8;"/>
   </g>
   <g id="text_16">
    <!-- Probability -->
    <defs>
     <path d="M 19.671875 64.796875 
L 19.671875 37.40625 
L 32.078125 37.40625 
Q 38.96875 37.40625 42.71875 40.96875 
Q 46.484375 44.53125 46.484375 51.125 
Q 46.484375 57.671875 42.71875 61.234375 
Q 38.96875 64.796875 32.078125 64.796875 
z
M 9.8125 72.90625 
L 32.078125 72.90625 
Q 44.34375 72.90625 50.609375 67.359375 
Q 56.890625 61.8125 56.890625 51.125 
Q 56.890625 40.328125 50.609375 34.8125 
Q 44.34375 29.296875 32.078125 29.296875 
L 19.671875 29.296875 
L 19.671875 0 
L 9.8125 0 
z
" id="DejaVuSans-80"/>
     <path d="M 30.609375 48.390625 
Q 23.390625 48.390625 19.1875 42.75 
Q 14.984375 37.109375 14.984375 27.296875 
Q 14.984375 17.484375 19.15625 11.84375 
Q 23.34375 6.203125 30.609375 6.203125 
Q 37.796875 6.203125 41.984375 11.859375 
Q 46.1875 17.53125 46.1875 27.296875 
Q 46.1875 37.015625 41.984375 42.703125 
Q 37.796875 48.390625 30.609375 48.390625 
z
M 30.609375 56 
Q 42.328125 56 49.015625 48.375 
Q 55.71875 40.765625 55.71875 27.296875 
Q 55.71875 13.875 49.015625 6.21875 
Q 42.328125 -1.421875 30.609375 -1.421875 
Q 18.84375 -1.421875 12.171875 6.21875 
Q 5.515625 13.875 5.515625 27.296875 
Q 5.515625 40.765625 12.171875 48.375 
Q 18.84375 56 30.609375 56 
z
" id="DejaVuSans-111"/>
     <path d="M 48.6875 27.296875 
Q 48.6875 37.203125 44.609375 42.84375 
Q 40.53125 48.484375 33.40625 48.484375 
Q 26.265625 48.484375 22.1875 42.84375 
Q 18.109375 37.203125 18.109375 27.296875 
Q 18.109375 17.390625 22.1875 11.75 
Q 26.265625 6.109375 33.40625 6.109375 
Q 40.53125 6.109375 44.609375 11.75 
Q 48.6875 17.390625 48.6875 27.296875 
z
M 18.109375 46.390625 
Q 20.953125 51.265625 25.265625 53.625 
Q 29.59375 56 35.59375 56 
Q 45.5625 56 51.78125 48.09375 
Q 58.015625 40.1875 58.015625 27.296875 
Q 58.015625 14.40625 51.78125 6.484375 
Q 45.5625 -1.421875 35.59375 -1.421875 
Q 29.59375 -1.421875 25.265625 0.953125 
Q 20.953125 3.328125 18.109375 8.203125 
L 18.109375 0 
L 9.078125 0 
L 9.078125 75.984375 
L 18.109375 75.984375 
z
" id="DejaVuSans-98"/>
     <path d="M 32.171875 -5.078125 
Q 28.375 -14.84375 24.75 -17.8125 
Q 21.140625 -20.796875 15.09375 -20.796875 
L 7.90625 -20.796875 
L 7.90625 -13.28125 
L 13.1875 -13.28125 
Q 16.890625 -13.28125 18.9375 -11.515625 
Q 21 -9.765625 23.484375 -3.21875 
L 25.09375 0.875 
L 2.984375 54.6875 
L 12.5 54.6875 
L 29.59375 11.921875 
L 46.6875 54.6875 
L 56.203125 54.6875 
z
" id="DejaVuSans-121"/>
    </defs>
    <g transform="translate(806.23584 275.163725)rotate(-86.505225)scale(0.1 -0.1)">
     <use xlink:href="#DejaVuSans-80"/>
     <use x="58.552734" xlink:href="#DejaVuSans-114"/>
     <use x="97.416016" xlink:href="#DejaVuSans-111"/>
     <use x="158.597656" xlink:href="#DejaVuSans-98"/>
     <use x="222.074219" xlink:href="#DejaVuSans-97"/>
     <use x="283.353516" xlink:href="#DejaVuSans-98"/>
     <use x="346.830078" xlink:href="#DejaVuSans-105"/>
     <use x="374.613281" xlink:href="#DejaVuSans-108"/>
     <use x="402.396484" xlink:href="#DejaVuSans-105"/>
     <use x="430.179688" xlink:href="#DejaVuSans-116"/>
     <use x="469.388672" xlink:href="#DejaVuSans-121"/>
    </g>
   </g>
   <g id="Line3DCollection_3">
    <path d="M 754.441397 377.673356 
L 363.495915 301.820172 
L 122.14167 437.503374 
" style="fill:none;stroke:#b0b0b0;stroke-width:0.8;"/>
    <path d="M 756.577128 342.702127 
L 362.970321 267.811103 
L 119.863283 401.803353 
" style="fill:none;stroke:#b0b0b0;stroke-width:0.8;"/>
    <path d="M 758.742389 307.247351 
L 362.437765 233.351569 
L 117.552347 365.593315 
" style="fill:none;stroke:#b0b0b0;stroke-width:0.8;"/>
    <path d="M 760.937798 271.29893 
L 361.898109 198.432561 
L 115.208158 328.862252 
" style="fill:none;stroke:#b0b0b0;stroke-width:0.8;"/>
    <path d="M 763.163989 234.84648 
L 361.351208 163.044827 
L 112.829995 291.598837 
" style="fill:none;stroke:#b0b0b0;stroke-width:0.8;"/>
    <path d="M 765.421613 197.879327 
L 360.796917 127.178866 
L 110.417114 253.791413 
" style="fill:none;stroke:#b0b0b0;stroke-width:0.8;"/>
    <path d="M 767.711341 160.386492 
L 360.235084 90.824917 
L 107.968747 215.427978 
" style="fill:none;stroke:#b0b0b0;stroke-width:0.8;"/>
    <path d="M 770.033863 122.356683 
L 359.665555 53.972954 
L 105.484107 176.496177 
" style="fill:none;stroke:#b0b0b0;stroke-width:0.8;"/>
   </g>
   <g id="xtick_14">
    <g id="line2d_17">
     <path d="M 751.179515 377.04047 
L 760.971945 378.940446 
" style="fill:none;stroke:#000000;stroke-linecap:square;stroke-width:0.8;"/>
    </g>
    <g id="text_17">
     <!-- 0 -->
     <g transform="translate(770.597237 383.442063)scale(0.1 -0.1)">
      <use xlink:href="#DejaVuSans-48"/>
     </g>
    </g>
   </g>
   <g id="xtick_15">
    <g id="line2d_18">
     <path d="M 753.292113 342.077092 
L 763.154038 343.953507 
" style="fill:none;stroke:#000000;stroke-linecap:square;stroke-width:0.8;"/>
    </g>
    <g id="text_18">
     <!-- 5 -->
     <g transform="translate(772.863449 348.493541)scale(0.1 -0.1)">
      <use xlink:href="#DejaVuSans-53"/>
     </g>
    </g>
   </g>
   <g id="xtick_16">
    <g id="line2d_19">
     <path d="M 755.433911 306.630446 
L 765.366323 308.482464 
" style="fill:none;stroke:#000000;stroke-linecap:square;stroke-width:0.8;"/>
    </g>
    <g id="text_19">
     <!-- 10 -->
     <g transform="translate(771.979715 313.062276)scale(0.1 -0.1)">
      <use xlink:href="#DejaVuSans-49"/>
      <use x="63.623047" xlink:href="#DejaVuSans-48"/>
     </g>
    </g>
   </g>
   <g id="xtick_17">
    <g id="line2d_20">
     <path d="M 757.60552 270.690441 
L 767.609432 272.517199 
" style="fill:none;stroke:#000000;stroke-linecap:square;stroke-width:0.8;"/>
    </g>
    <g id="text_20">
     <!-- 15 -->
     <g transform="translate(774.309188 277.138197)scale(0.1 -0.1)">
      <use xlink:href="#DejaVuSans-49"/>
      <use x="63.623047" xlink:href="#DejaVuSans-53"/>
     </g>
    </g>
   </g>
   <g id="xtick_18">
    <g id="line2d_21">
     <path d="M 759.807565 234.246706 
L 769.884014 236.04731 
" style="fill:none;stroke:#000000;stroke-linecap:square;stroke-width:0.8;"/>
    </g>
    <g id="text_21">
     <!-- 20 -->
     <g transform="translate(776.671287 240.71095)scale(0.1 -0.1)">
      <use xlink:href="#DejaVuSans-50"/>
      <use x="63.623047" xlink:href="#DejaVuSans-48"/>
     </g>
    </g>
   </g>
   <g id="xtick_19">
    <g id="line2d_22">
     <path d="M 762.040693 197.288576 
L 772.190736 199.062102 
" style="fill:none;stroke:#000000;stroke-linecap:square;stroke-width:0.8;"/>
    </g>
    <g id="text_22">
     <!-- 25 -->
     <g transform="translate(779.066705 203.769889)scale(0.1 -0.1)">
      <use xlink:href="#DejaVuSans-50"/>
      <use x="63.623047" xlink:href="#DejaVuSans-53"/>
     </g>
    </g>
   </g>
   <g id="xtick_20">
    <g id="line2d_23">
     <path d="M 764.305564 159.805081 
L 774.530284 161.550576 
" style="fill:none;stroke:#000000;stroke-linecap:square;stroke-width:0.8;"/>
    </g>
    <g id="text_23">
     <!-- 30 -->
     <g transform="translate(781.496151 166.304066)scale(0.1 -0.1)">
      <use xlink:href="#DejaVuSans-51"/>
      <use x="63.623047" xlink:href="#DejaVuSans-48"/>
     </g>
    </g>
   </g>
   <g id="xtick_21">
    <g id="line2d_24">
     <path d="M 766.602861 121.784941 
L 776.903363 123.501415 
" style="fill:none;stroke:#000000;stroke-linecap:square;stroke-width:0.8;"/>
    </g>
    <g id="text_24">
     <!-- 35 -->
     <g transform="translate(783.960354 128.302218)scale(0.1 -0.1)">
      <use xlink:href="#DejaVuSans-51"/>
      <use x="63.623047" xlink:href="#DejaVuSans-53"/>
     </g>
    </g>
   </g>
  </g>
  <g id="axes_1">
   <g id="Poly3DCollection_1">
    <path clip-path="url(#p8fe49ede16)" d="M 344.857892 330.626628 
L 359.303552 333.481439 
L 387.516634 317.355753 
L 373.156643 314.552303 
z
" style="fill:#3b4cc0;"/>
    <path clip-path="url(#p8fe49ede16)" d="M 359.303552 333.481439 
L 373.758491 333.606145 
L 401.911379 318.806986 
L 387.516634 317.355753 
z
" style="fill:#3c4ec2;"/>
    <path clip-path="url(#p8fe49ede16)" d="M 373.758491 333.606145 
L 388.127736 319.961839 
L 416.273536 303.847699 
L 401.911379 318.806986 
z
" style="fill:#4961d2;"/>
    <path clip-path="url(#p8fe49ede16)" d="M 316.038723 346.996563 
L 330.570788 349.904158 
L 359.303552 333.481439 
L 344.857892 330.626628 
z
" style="fill:#3b4cc0;"/>
    <path clip-path="url(#p8fe49ede16)" d="M 330.570788 349.904158 
L 345.149964 352.821179 
L 373.758491 333.606145 
L 359.303552 333.481439 
z
" style="fill:#3b4cc0;"/>
    <path clip-path="url(#p8fe49ede16)" d="M 388.127736 319.961839 
L 402.326873 266.939464 
L 430.686664 249.710813 
L 416.273536 303.847699 
z
" style="fill:#82a6fb;"/>
    <path clip-path="url(#p8fe49ede16)" d="M 345.149964 352.821179 
L 359.163664 318.254028 
L 388.127736 319.961839 
L 373.758491 333.606145 
z
" style="fill:#4f69d9;"/>
    <path clip-path="url(#p8fe49ede16)" d="M 286.684648 363.670337 
L 301.30385 366.632194 
L 330.570788 349.904158 
L 316.038723 346.996563 
z
" style="fill:#3b4cc0;"/>
    <path clip-path="url(#p8fe49ede16)" d="M 301.30385 366.632194 
L 315.936278 368.217999 
L 345.149964 352.821179 
L 330.570788 349.904158 
z
" style="fill:#3b4cc0;"/>
    <path clip-path="url(#p8fe49ede16)" d="M 359.163664 318.254028 
L 373.354175 277.370727 
L 402.326873 266.939464 
L 388.127736 319.961839 
z
" style="fill:#8badfd;"/>
    <path clip-path="url(#p8fe49ede16)" d="M 315.936278 368.217999 
L 329.665225 326.405263 
L 359.163664 318.254028 
L 345.149964 352.821179 
z
" style="fill:#5977e3;"/>
    <path clip-path="url(#p8fe49ede16)" d="M 256.780635 380.656487 
L 271.487703 383.67414 
L 301.30385 366.632194 
L 286.684648 363.670337 
z
" style="fill:#3b4cc0;"/>
    <path clip-path="url(#p8fe49ede16)" d="M 402.326873 266.939464 
L 416.819491 199.537857 
L 445.490263 140.462454 
L 430.686664 249.710813 
z
" style="fill:#ead5c9;"/>
    <path clip-path="url(#p8fe49ede16)" d="M 271.487703 383.67414 
L 285.941243 376.927107 
L 315.936278 368.217999 
L 301.30385 366.632194 
z
" style="fill:#3e51c5;"/>
    <path clip-path="url(#p8fe49ede16)" d="M 567.295041 342.313312 
L 582.557955 345.276271 
L 609.198804 339.705055 
L 594.394457 325.635552 
z
" style="fill:#6485ec;"/>
    <path clip-path="url(#p8fe49ede16)" d="M 582.557955 345.276271 
L 597.744121 352.470455 
L 624.281604 345.420313 
L 609.198804 339.705055 
z
" style="fill:#5e7de7;"/>
    <path clip-path="url(#p8fe49ede16)" d="M 597.744121 352.470455 
L 612.444301 375.086822 
L 639.344132 352.539794 
L 624.281604 345.420313 
z
" style="fill:#536edd;"/>
    <path clip-path="url(#p8fe49ede16)" d="M 612.444301 375.086822 
L 627.786388 378.10486 
L 654.259342 363.839211 
L 639.344132 352.539794 
z
" style="fill:#465ecf;"/>
    <path clip-path="url(#p8fe49ede16)" d="M 552.47036 321.046028 
L 567.295041 342.313312 
L 594.394457 325.635552 
L 580.019541 294.680396 
z
" style="fill:#7b9ff9;"/>
    <path clip-path="url(#p8fe49ede16)" d="M 627.786388 378.10486 
L 643.069485 383.9307 
L 669.605204 365.423813 
L 654.259342 363.839211 
z
" style="fill:#4358cb;"/>
    <path clip-path="url(#p8fe49ede16)" d="M 643.069485 383.9307 
L 658.268182 392.564052 
L 684.878103 369.798429 
L 669.605204 365.423813 
z
" style="fill:#4055c8;"/>
    <path clip-path="url(#p8fe49ede16)" d="M 537.692553 294.001315 
L 552.47036 321.046028 
L 580.019541 294.680396 
L 565.367895 270.600853 
z
" style="fill:#a1c0ff;"/>
    <path clip-path="url(#p8fe49ede16)" d="M 658.268182 392.564052 
L 673.927842 391.423624 
L 700.263069 372.792749 
L 684.878103 369.798429 
z
" style="fill:#3f53c6;"/>
    <path clip-path="url(#p8fe49ede16)" d="M 285.941243 376.927107 
L 299.905356 348.954692 
L 329.665225 326.405263 
L 315.936278 368.217999 
z
" style="fill:#5d7ce6;"/>
    <path clip-path="url(#p8fe49ede16)" d="M 673.927842 391.423624 
L 689.325767 397.288493 
L 715.475408 379.975978 
L 700.263069 372.792749 
z
" style="fill:#3e51c5;"/>
    <path clip-path="url(#p8fe49ede16)" d="M 329.665225 326.405263 
L 343.406459 269.282561 
L 373.354175 277.370727 
L 359.163664 318.254028 
z
" style="fill:#a2c1ff;"/>
    <path clip-path="url(#p8fe49ede16)" d="M 226.311083 397.963877 
L 241.10674 401.038916 
L 271.487703 383.67414 
L 256.780635 380.656487 
z
" style="fill:#3b4cc0;"/>
    <path clip-path="url(#p8fe49ede16)" d="M 522.781295 269.665773 
L 537.692553 294.001315 
L 565.367895 270.600853 
L 550.968281 230.618485 
z
" style="fill:#c7d7f0;"/>
    <path clip-path="url(#p8fe49ede16)" d="M 373.354175 277.370727 
L 387.307597 185.865748 
L 416.819491 199.537857 
L 402.326873 266.939464 
z
" style="fill:#e7d7ce;"/>
    <path clip-path="url(#p8fe49ede16)" d="M 570.06988 380.895445 
L 585.486892 383.951838 
L 612.444301 375.086822 
L 597.744121 352.470455 
z
" style="fill:#536edd;"/>
    <path clip-path="url(#p8fe49ede16)" d="M 241.10674 401.038916 
L 255.013475 378.760054 
L 285.941243 376.927107 
L 271.487703 383.67414 
z
" style="fill:#465ecf;"/>
    <path clip-path="url(#p8fe49ede16)" d="M 585.486892 383.951838 
L 600.693454 395.472467 
L 627.786388 378.10486 
L 612.444301 375.086822 
z
" style="fill:#4961d2;"/>
    <path clip-path="url(#p8fe49ede16)" d="M 539.895196 347.971104 
L 555.229373 353.820179 
L 582.557955 345.276271 
L 567.295041 342.313312 
z
" style="fill:#7093f3;"/>
    <path clip-path="url(#p8fe49ede16)" d="M 555.229373 353.820179 
L 570.06988 380.895445 
L 597.744121 352.470455 
L 582.557955 345.276271 
z
" style="fill:#6485ec;"/>
    <path clip-path="url(#p8fe49ede16)" d="M 524.888592 323.605605 
L 539.895196 347.971104 
L 567.295041 342.313312 
L 552.47036 321.046028 
z
" style="fill:#81a4fb;"/>
    <path clip-path="url(#p8fe49ede16)" d="M 600.693454 395.472467 
L 616.187572 398.558371 
L 643.069485 383.9307 
L 627.786388 378.10486 
z
" style="fill:#455cce;"/>
    <path clip-path="url(#p8fe49ede16)" d="M 508.40775 195.574731 
L 522.781295 269.665773 
L 550.968281 230.618485 
L 535.771934 226.40474 
z
" style="fill:#edd2c3;"/>
    <path clip-path="url(#p8fe49ede16)" d="M 616.187572 398.558371 
L 631.472093 408.693095 
L 658.268182 392.564052 
L 643.069485 383.9307 
z
" style="fill:#3f53c6;"/>
    <path clip-path="url(#p8fe49ede16)" d="M 631.472093 408.693095 
L 647.104832 410.399582 
L 673.927842 391.423624 
L 658.268182 392.564052 
z
" style="fill:#3d50c3;"/>
    <path clip-path="url(#p8fe49ede16)" d="M 509.862501 294.791961 
L 524.888592 323.605605 
L 552.47036 321.046028 
L 537.692553 294.001315 
z
" style="fill:#a5c3fe;"/>
    <path clip-path="url(#p8fe49ede16)" d="M 416.819491 199.537857 
L 431.813275 155.339879 
L 460.750019 101.66489 
L 445.490263 140.462454 
z
" style="fill:#e36b54;"/>
    <path clip-path="url(#p8fe49ede16)" d="M 647.104832 410.399582 
L 662.676531 414.931768 
L 689.325767 397.288493 
L 673.927842 391.423624 
z
" style="fill:#3d50c3;"/>
    <path clip-path="url(#p8fe49ede16)" d="M 494.535379 286.09326 
L 509.862501 294.791961 
L 537.692553 294.001315 
L 522.781295 269.665773 
z
" style="fill:#c1d4f4;"/>
    <path clip-path="url(#p8fe49ede16)" d="M 493.122361 179.529155 
L 508.40775 195.574731 
L 535.771934 226.40474 
L 521.235787 180.177516 
z
" style="fill:#f7a889;"/>
    <path clip-path="url(#p8fe49ede16)" d="M 195.259796 415.601705 
L 209.753806 410.26715 
L 241.10674 401.038916 
L 226.311083 397.963877 
z
" style="fill:#3d50c3;"/>
    <path clip-path="url(#p8fe49ede16)" d="M 255.013475 378.760054 
L 268.027198 324.481788 
L 299.905356 348.954692 
L 285.941243 376.927107 
z
" style="fill:#7597f6;"/>
    <path clip-path="url(#p8fe49ede16)" d="M 299.905356 348.954692 
L 312.591997 260.960309 
L 343.406459 269.282561 
L 329.665225 326.405263 
z
" style="fill:#b6cefa;"/>
    <path clip-path="url(#p8fe49ede16)" d="M 477.744217 173.832573 
L 493.122361 179.529155 
L 521.235787 180.177516 
L 506.418324 140.741413 
z
" style="fill:#ea7b60;"/>
    <path clip-path="url(#p8fe49ede16)" d="M 343.406459 269.282561 
L 357.688864 220.973292 
L 387.307597 185.865748 
L 373.354175 277.370727 
z
" style="fill:#f0cdbb;"/>
    <path clip-path="url(#p8fe49ede16)" d="M 542.404119 388.488828 
L 557.824515 397.283114 
L 585.486892 383.951838 
L 570.06988 380.895445 
z
" style="fill:#5673e0;"/>
    <path clip-path="url(#p8fe49ede16)" d="M 527.094851 374.00157 
L 542.404119 388.488828 
L 570.06988 380.895445 
L 555.229373 353.820179 
z
" style="fill:#6687ed;"/>
    <path clip-path="url(#p8fe49ede16)" d="M 387.307597 185.865748 
L 402.526093 181.216494 
L 431.813275 155.339879 
L 416.819491 199.537857 
z
" style="fill:#f08b6e;"/>
    <path clip-path="url(#p8fe49ede16)" d="M 479.446511 245.384768 
L 494.535379 286.09326 
L 522.781295 269.665773 
L 508.40775 195.574731 
z
" style="fill:#ead4c8;"/>
    <path clip-path="url(#p8fe49ede16)" d="M 557.824515 397.283114 
L 573.189663 408.924126 
L 600.693454 395.472467 
L 585.486892 383.951838 
z
" style="fill:#4f69d9;"/>
    <path clip-path="url(#p8fe49ede16)" d="M 511.711201 363.791217 
L 527.094851 374.00157 
L 555.229373 353.820179 
L 539.895196 347.971104 
z
" style="fill:#779af7;"/>
    <path clip-path="url(#p8fe49ede16)" d="M 462.51803 135.403843 
L 477.744217 173.832573 
L 506.418324 140.741413 
L 491.137514 135.12966 
z
" style="fill:#d65244;"/>
    <path clip-path="url(#p8fe49ede16)" d="M 431.813275 155.339879 
L 447.137421 96.585376 
L 475.845817 136.91613 
L 460.750019 101.66489 
z
" style="fill:#ba162b;"/>
    <path clip-path="url(#p8fe49ede16)" d="M 573.189663 408.924126 
L 588.799355 412.065039 
L 616.187572 398.558371 
L 600.693454 395.472467 
z
" style="fill:#4961d2;"/>
    <path clip-path="url(#p8fe49ede16)" d="M 496.499896 337.783594 
L 511.711201 363.791217 
L 539.895196 347.971104 
L 524.888592 323.605605 
z
" style="fill:#8db0fe;"/>
    <path clip-path="url(#p8fe49ede16)" d="M 209.753806 410.26715 
L 222.924206 372.022955 
L 255.013475 378.760054 
L 241.10674 401.038916 
z
" style="fill:#5875e1;"/>
    <path clip-path="url(#p8fe49ede16)" d="M 588.799355 412.065039 
L 604.190789 423.725905 
L 631.472093 408.693095 
L 616.187572 398.558371 
z
" style="fill:#4358cb;"/>
    <path clip-path="url(#p8fe49ede16)" d="M 447.137421 96.585376 
L 462.51803 135.403843 
L 491.137514 135.12966 
L 475.845817 136.91613 
z
" style="fill:#bb1b2c;"/>
    <path clip-path="url(#p8fe49ede16)" d="M 604.190789 423.725905 
L 619.780361 429.730298 
L 647.104832 410.399582 
L 631.472093 408.693095 
z
" style="fill:#3d50c3;"/>
    <path clip-path="url(#p8fe49ede16)" d="M 481.17124 315.983701 
L 496.499896 337.783594 
L 524.888592 323.605605 
L 509.862501 294.791961 
z
" style="fill:#afcafc;"/>
    <path clip-path="url(#p8fe49ede16)" d="M 619.780361 429.730298 
L 635.459213 434.332224 
L 662.676531 414.931768 
L 647.104832 410.399582 
z
" style="fill:#3c4ec2;"/>
    <path clip-path="url(#p8fe49ede16)" d="M 465.750794 301.38314 
L 481.17124 315.983701 
L 509.862501 294.791961 
L 494.535379 286.09326 
z
" style="fill:#c6d6f1;"/>
    <path clip-path="url(#p8fe49ede16)" d="M 464.158491 211.628783 
L 479.446511 245.384768 
L 508.40775 195.574731 
L 493.122361 179.529155 
z
" style="fill:#f6a385;"/>
    <path clip-path="url(#p8fe49ede16)" d="M 448.731999 186.54767 
L 464.158491 211.628783 
L 493.122361 179.529155 
L 477.744217 173.832573 
z
" style="fill:#ed8366;"/>
    <path clip-path="url(#p8fe49ede16)" d="M 163.609953 433.579526 
L 176.101212 389.554718 
L 209.753806 410.26715 
L 195.259796 415.601705 
z
" style="fill:#4e68d8;"/>
    <path clip-path="url(#p8fe49ede16)" d="M 402.526093 181.216494 
L 417.759698 160.098333 
L 447.137421 96.585376 
L 431.813275 155.339879 
z
" style="fill:#cb3e38;"/>
    <path clip-path="url(#p8fe49ede16)" d="M 450.348494 260.354536 
L 465.750794 301.38314 
L 494.535379 286.09326 
L 479.446511 245.384768 
z
" style="fill:#e2dad5;"/>
    <path clip-path="url(#p8fe49ede16)" d="M 482.931289 384.241782 
L 498.493678 390.243923 
L 527.094851 374.00157 
L 511.711201 363.791217 
z
" style="fill:#779af7;"/>
    <path clip-path="url(#p8fe49ede16)" d="M 433.209916 152.312978 
L 448.731999 186.54767 
L 477.744217 173.832573 
L 462.51803 135.403843 
z
" style="fill:#d65244;"/>
    <path clip-path="url(#p8fe49ede16)" d="M 498.493678 390.243923 
L 514.07152 397.696251 
L 542.404119 388.488828 
L 527.094851 374.00157 
z
" style="fill:#6c8ff1;"/>
    <path clip-path="url(#p8fe49ede16)" d="M 312.591997 260.960309 
L 327.253055 235.758428 
L 357.688864 220.973292 
L 343.406459 269.282561 
z
" style="fill:#f4c5ad;"/>
    <path clip-path="url(#p8fe49ede16)" d="M 514.07152 397.696251 
L 529.578379 410.89572 
L 557.824515 397.283114 
L 542.404119 388.488828 
z
" style="fill:#6180e9;"/>
    <path clip-path="url(#p8fe49ede16)" d="M 529.578379 410.89572 
L 545.163063 419.800738 
L 573.189663 408.924126 
L 557.824515 397.283114 
z
" style="fill:#5673e0;"/>
    <path clip-path="url(#p8fe49ede16)" d="M 268.027198 324.481788 
L 281.290287 265.806315 
L 312.591997 260.960309 
L 299.905356 348.954692 
z
" style="fill:#cedaeb;"/>
    <path clip-path="url(#p8fe49ede16)" d="M 357.688864 220.973292 
L 372.244074 167.006674 
L 402.526093 181.216494 
L 387.307597 185.865748 
z
" style="fill:#ea7b60;"/>
    <path clip-path="url(#p8fe49ede16)" d="M 467.520031 353.704808 
L 482.931289 384.241782 
L 511.711201 363.791217 
L 496.499896 337.783594 
z
" style="fill:#8fb1fe;"/>
    <path clip-path="url(#p8fe49ede16)" d="M 545.163063 419.800738 
L 560.8988 422.995235 
L 588.799355 412.065039 
L 573.189663 408.924126 
z
" style="fill:#506bda;"/>
    <path clip-path="url(#p8fe49ede16)" d="M 560.8988 422.995235 
L 576.42381 436.214181 
L 604.190789 423.725905 
L 588.799355 412.065039 
z
" style="fill:#4a63d3;"/>
    <path clip-path="url(#p8fe49ede16)" d="M 222.924206 372.022955 
L 235.349768 308.005642 
L 268.027198 324.481788 
L 255.013475 378.760054 
z
" style="fill:#a1c0ff;"/>
    <path clip-path="url(#p8fe49ede16)" d="M 417.759698 160.098333 
L 433.209916 152.312978 
L 462.51803 135.403843 
L 447.137421 96.585376 
z
" style="fill:#b40426;"/>
    <path clip-path="url(#p8fe49ede16)" d="M 576.42381 436.214181 
L 592.024507 446.577156 
L 619.780361 429.730298 
L 604.190789 423.725905 
z
" style="fill:#4055c8;"/>
    <path clip-path="url(#p8fe49ede16)" d="M 451.953494 347.7291 
L 467.520031 353.704808 
L 496.499896 337.783594 
L 481.17124 315.983701 
z
" style="fill:#aac7fd;"/>
    <path clip-path="url(#p8fe49ede16)" d="M 434.753847 208.373512 
L 450.348494 260.354536 
L 479.446511 245.384768 
L 464.158491 211.628783 
z
" style="fill:#f7af91;"/>
    <path clip-path="url(#p8fe49ede16)" d="M 436.392737 319.908324 
L 451.953494 347.7291 
L 481.17124 315.983701 
L 465.750794 301.38314 
z
" style="fill:#c0d4f5;"/>
    <path clip-path="url(#p8fe49ede16)" d="M 592.024507 446.577156 
L 608.007933 445.539382 
L 635.459213 434.332224 
L 619.780361 429.730298 
z
" style="fill:#3e51c5;"/>
    <path clip-path="url(#p8fe49ede16)" d="M 419.32536 244.222343 
L 434.753847 208.373512 
L 464.158491 211.628783 
L 448.731999 186.54767 
z
" style="fill:#f39475;"/>
    <path clip-path="url(#p8fe49ede16)" d="M 372.244074 167.006674 
L 388.015608 192.381448 
L 417.759698 160.098333 
L 402.526093 181.216494 
z
" style="fill:#d95847;"/>
    <path clip-path="url(#p8fe49ede16)" d="M 403.594124 202.695129 
L 419.32536 244.222343 
L 448.731999 186.54767 
L 433.209916 152.312978 
z
" style="fill:#ea7b60;"/>
    <path clip-path="url(#p8fe49ede16)" d="M 420.747536 294.863847 
L 436.392737 319.908324 
L 465.750794 301.38314 
L 450.348494 260.354536 
z
" style="fill:#dedcdb;"/>
    <path clip-path="url(#p8fe49ede16)" d="M 388.015608 192.381448 
L 403.594124 202.695129 
L 433.209916 152.312978 
L 417.759698 160.098333 
z
" style="fill:#d85646;"/>
    <path clip-path="url(#p8fe49ede16)" d="M 437.977641 391.769075 
L 453.609887 410.839582 
L 482.931289 384.241782 
L 467.520031 353.704808 
z
" style="fill:#82a6fb;"/>
    <path clip-path="url(#p8fe49ede16)" d="M 453.609887 410.839582 
L 469.352982 399.569725 
L 498.493678 390.243923 
L 482.931289 384.241782 
z
" style="fill:#7699f6;"/>
    <path clip-path="url(#p8fe49ede16)" d="M 176.101212 389.554718 
L 185.987436 286.426032 
L 222.924206 372.022955 
L 209.753806 410.26715 
z
" style="fill:#9abbff;"/>
    <path clip-path="url(#p8fe49ede16)" d="M 469.352982 399.569725 
L 484.989974 418.689339 
L 514.07152 397.696251 
L 498.493678 390.243923 
z
" style="fill:#7396f5;"/>
    <path clip-path="url(#p8fe49ede16)" d="M 484.989974 418.689339 
L 500.779057 420.465146 
L 529.578379 410.89572 
L 514.07152 397.696251 
z
" style="fill:#6788ee;"/>
    <path clip-path="url(#p8fe49ede16)" d="M 422.258739 362.431627 
L 437.977641 391.769075 
L 467.520031 353.704808 
L 451.953494 347.7291 
z
" style="fill:#9fbfff;"/>
    <path clip-path="url(#p8fe49ede16)" d="M 405.076832 277.106885 
L 420.747536 294.863847 
L 450.348494 260.354536 
L 434.753847 208.373512 
z
" style="fill:#f5c0a7;"/>
    <path clip-path="url(#p8fe49ede16)" d="M 327.253055 235.758428 
L 341.482499 176.860607 
L 372.244074 167.006674 
L 357.688864 220.973292 
z
" style="fill:#e67259;"/>
    <path clip-path="url(#p8fe49ede16)" d="M 389.370558 259.309619 
L 405.076832 277.106885 
L 434.753847 208.373512 
L 419.32536 244.222343 
z
" style="fill:#f7b194;"/>
    <path clip-path="url(#p8fe49ede16)" d="M 500.779057 420.465146 
L 516.443165 435.247856 
L 545.163063 419.800738 
L 529.578379 410.89572 
z
" style="fill:#5e7de7;"/>
    <path clip-path="url(#p8fe49ede16)" d="M 516.443165 435.247856 
L 532.140332 447.1409 
L 560.8988 422.995235 
L 545.163063 419.800738 
z
" style="fill:#5572df;"/>
    <path clip-path="url(#p8fe49ede16)" d="M 281.290287 265.806315 
L 295.946766 241.836855 
L 327.253055 235.758428 
L 312.591997 260.960309 
z
" style="fill:#f7b599;"/>
    <path clip-path="url(#p8fe49ede16)" d="M 373.22758 211.407772 
L 389.370558 259.309619 
L 419.32536 244.222343 
L 403.594124 202.695129 
z
" style="fill:#f49a7b;"/>
    <path clip-path="url(#p8fe49ede16)" d="M 532.140332 447.1409 
L 548.017332 450.415843 
L 576.42381 436.214181 
L 560.8988 422.995235 
z
" style="fill:#4e68d8;"/>
    <path clip-path="url(#p8fe49ede16)" d="M 548.017332 450.415843 
L 563.914648 455.142094 
L 592.024507 446.577156 
L 576.42381 436.214181 
z
" style="fill:#485fd1;"/>
    <path clip-path="url(#p8fe49ede16)" d="M 406.410498 329.939928 
L 422.258739 362.431627 
L 451.953494 347.7291 
L 436.392737 319.908324 
z
" style="fill:#bed2f6;"/>
    <path clip-path="url(#p8fe49ede16)" d="M 563.914648 455.142094 
L 579.818667 461.321865 
L 608.007933 445.539382 
L 592.024507 446.577156 
z
" style="fill:#455cce;"/>
    <path clip-path="url(#p8fe49ede16)" d="M 357.654582 211.554623 
L 373.22758 211.407772 
L 403.594124 202.695129 
L 388.015608 192.381448 
z
" style="fill:#e57058;"/>
    <path clip-path="url(#p8fe49ede16)" d="M 235.349768 308.005642 
L 248.716927 257.206707 
L 281.290287 265.806315 
L 268.027198 324.481788 
z
" style="fill:#edd1c2;"/>
    <path clip-path="url(#p8fe49ede16)" d="M 390.647452 317.997126 
L 406.410498 329.939928 
L 436.392737 319.908324 
L 420.747536 294.863847 
z
" style="fill:#d9dce1;"/>
    <path clip-path="url(#p8fe49ede16)" d="M 341.482499 176.860607 
L 357.654582 211.554623 
L 388.015608 192.381448 
L 372.244074 167.006674 
z
" style="fill:#d55042;"/>
    <path clip-path="url(#p8fe49ede16)" d="M 374.963258 311.983409 
L 390.647452 317.997126 
L 420.747536 294.863847 
L 405.076832 277.106885 
z
" style="fill:#e7d7ce;"/>
    <path clip-path="url(#p8fe49ede16)" d="M 359.073581 291.135608 
L 374.963258 311.983409 
L 405.076832 277.106885 
L 389.370558 259.309619 
z
" style="fill:#f1ccb8;"/>
    <path clip-path="url(#p8fe49ede16)" d="M 295.946766 241.836855 
L 311.722075 253.788917 
L 341.482499 176.860607 
L 327.253055 235.758428 
z
" style="fill:#ef886b;"/>
    <path clip-path="url(#p8fe49ede16)" d="M 407.836536 393.867479 
L 423.716281 413.184129 
L 453.609887 410.839582 
L 437.977641 391.769075 
z
" style="fill:#84a7fc;"/>
    <path clip-path="url(#p8fe49ede16)" d="M 423.716281 413.184129 
L 439.548294 429.540622 
L 469.352982 399.569725 
L 453.609887 410.839582 
z
" style="fill:#779af7;"/>
    <path clip-path="url(#p8fe49ede16)" d="M 439.548294 429.540622 
L 455.377352 435.717657 
L 484.989974 418.689339 
L 469.352982 399.569725 
z
" style="fill:#7093f3;"/>
    <path clip-path="url(#p8fe49ede16)" d="M 391.95571 378.915146 
L 407.836536 393.867479 
L 437.977641 391.769075 
L 422.258739 362.431627 
z
" style="fill:#9fbfff;"/>
    <path clip-path="url(#p8fe49ede16)" d="M 455.377352 435.717657 
L 471.283525 434.633376 
L 500.779057 420.465146 
L 484.989974 418.689339 
z
" style="fill:#6c8ff1;"/>
    <path clip-path="url(#p8fe49ede16)" d="M 376.386174 388.935311 
L 391.95571 378.915146 
L 422.258739 362.431627 
L 406.410498 329.939928 
z
" style="fill:#b3cdfb;"/>
    <path clip-path="url(#p8fe49ede16)" d="M 487.120727 451.019052 
L 503.034084 458.689836 
L 532.140332 447.1409 
L 516.443165 435.247856 
z
" style="fill:#5875e1;"/>
    <path clip-path="url(#p8fe49ede16)" d="M 471.283525 434.633376 
L 487.120727 451.019052 
L 516.443165 435.247856 
L 500.779057 420.465146 
z
" style="fill:#6485ec;"/>
    <path clip-path="url(#p8fe49ede16)" d="M 342.167379 220.319436 
L 359.073581 291.135608 
L 389.370558 259.309619 
L 373.22758 211.407772 
z
" style="fill:#f49a7b;"/>
    <path clip-path="url(#p8fe49ede16)" d="M 311.722075 253.788917 
L 326.995599 243.192288 
L 357.654582 211.554623 
L 341.482499 176.860607 
z
" style="fill:#e8765c;"/>
    <path clip-path="url(#p8fe49ede16)" d="M 503.034084 458.689836 
L 519.019126 463.473685 
L 548.017332 450.415843 
L 532.140332 447.1409 
z
" style="fill:#536edd;"/>
    <path clip-path="url(#p8fe49ede16)" d="M 360.115482 347.476373 
L 376.386174 388.935311 
L 406.410498 329.939928 
L 390.647452 317.997126 
z
" style="fill:#cad8ef;"/>
    <path clip-path="url(#p8fe49ede16)" d="M 344.633153 356.172675 
L 360.115482 347.476373 
L 390.647452 317.997126 
L 374.963258 311.983409 
z
" style="fill:#d5dbe5;"/>
    <path clip-path="url(#p8fe49ede16)" d="M 248.716927 257.206707 
L 264.668332 270.760443 
L 295.946766 241.836855 
L 281.290287 265.806315 
z
" style="fill:#f7a889;"/>
    <path clip-path="url(#p8fe49ede16)" d="M 327.983117 306.964644 
L 344.633153 356.172675 
L 374.963258 311.983409 
L 359.073581 291.135608 
z
" style="fill:#e5d8d1;"/>
    <path clip-path="url(#p8fe49ede16)" d="M 519.019126 463.473685 
L 534.971049 472.622946 
L 563.914648 455.142094 
L 548.017332 450.415843 
z
" style="fill:#4f69d9;"/>
    <path clip-path="url(#p8fe49ede16)" d="M 185.987436 286.426032 
L 199.021631 236.119485 
L 235.349768 308.005642 
L 222.924206 372.022955 
z
" style="fill:#efcfbf;"/>
    <path clip-path="url(#p8fe49ede16)" d="M 326.995599 243.192288 
L 342.167379 220.319436 
L 373.22758 211.407772 
L 357.654582 211.554623 
z
" style="fill:#e67259;"/>
    <path clip-path="url(#p8fe49ede16)" d="M 264.668332 270.760443 
L 280.516374 281.300083 
L 311.722075 253.788917 
L 295.946766 241.836855 
z
" style="fill:#f7a889;"/>
    <path clip-path="url(#p8fe49ede16)" d="M 534.971049 472.622946 
L 551.191917 470.176662 
L 579.818667 461.321865 
L 563.914648 455.142094 
z
" style="fill:#4e68d8;"/>
    <path clip-path="url(#p8fe49ede16)" d="M 280.516374 281.300083 
L 295.903521 275.276872 
L 326.995599 243.192288 
L 311.722075 253.788917 
z
" style="fill:#f6a586;"/>
    <path clip-path="url(#p8fe49ede16)" d="M 329.942589 414.285912 
L 345.462409 407.260348 
L 376.386174 388.935311 
L 360.115482 347.476373 
z
" style="fill:#a5c3fe;"/>
    <path clip-path="url(#p8fe49ede16)" d="M 313.754009 390.476572 
L 329.942589 414.285912 
L 360.115482 347.476373 
L 344.633153 356.172675 
z
" style="fill:#b3cdfb;"/>
    <path clip-path="url(#p8fe49ede16)" d="M 345.462409 407.260348 
L 361.363471 416.405954 
L 391.95571 378.915146 
L 376.386174 388.935311 
z
" style="fill:#9ebeff;"/>
    <path clip-path="url(#p8fe49ede16)" d="M 393.221842 434.729516 
L 409.219038 449.760011 
L 439.548294 429.540622 
L 423.716281 413.184129 
z
" style="fill:#779af7;"/>
    <path clip-path="url(#p8fe49ede16)" d="M 377.398497 434.357637 
L 393.221842 434.729516 
L 423.716281 413.184129 
L 407.836536 393.867479 
z
" style="fill:#86a9fc;"/>
    <path clip-path="url(#p8fe49ede16)" d="M 297.829088 378.410195 
L 313.754009 390.476572 
L 344.633153 356.172675 
L 327.983117 306.964644 
z
" style="fill:#c9d7f0;"/>
    <path clip-path="url(#p8fe49ede16)" d="M 311.897539 288.873062 
L 327.983117 306.964644 
L 359.073581 291.135608 
L 342.167379 220.319436 
z
" style="fill:#f7b093;"/>
    <path clip-path="url(#p8fe49ede16)" d="M 361.363471 416.405954 
L 377.398497 434.357637 
L 407.836536 393.867479 
L 391.95571 378.915146 
z
" style="fill:#96b7ff;"/>
    <path clip-path="url(#p8fe49ede16)" d="M 409.219038 449.760011 
L 425.150116 451.632899 
L 455.377352 435.717657 
L 439.548294 429.540622 
z
" style="fill:#6e90f2;"/>
    <path clip-path="url(#p8fe49ede16)" d="M 295.903521 275.276872 
L 311.897539 288.873062 
L 342.167379 220.319436 
L 326.995599 243.192288 
z
" style="fill:#f39577;"/>
    <path clip-path="url(#p8fe49ede16)" d="M 199.021631 236.119485 
L 217.354991 298.563137 
L 248.716927 257.206707 
L 235.349768 308.005642 
z
" style="fill:#f7aa8c;"/>
    <path clip-path="url(#p8fe49ede16)" d="M 281.904394 366.34399 
L 297.829088 378.410195 
L 327.983117 306.964644 
L 311.897539 288.873062 
z
" style="fill:#e0dbd8;"/>
    <path clip-path="url(#p8fe49ede16)" d="M 425.150116 451.632899 
L 441.144639 449.110642 
L 471.283525 434.633376 
L 455.377352 435.717657 
z
" style="fill:#7093f3;"/>
    <path clip-path="url(#p8fe49ede16)" d="M 457.156468 474.423622 
L 473.188732 482.185148 
L 503.034084 458.689836 
L 487.120727 451.019052 
z
" style="fill:#5875e1;"/>
    <path clip-path="url(#p8fe49ede16)" d="M 441.144639 449.110642 
L 457.156468 474.423622 
L 487.120727 451.019052 
L 471.283525 434.633376 
z
" style="fill:#6788ee;"/>
    <path clip-path="url(#p8fe49ede16)" d="M 249.88719 337.742052 
L 264.996107 325.902182 
L 295.903521 275.276872 
L 280.516374 281.300083 
z
" style="fill:#f3c7b1;"/>
    <path clip-path="url(#p8fe49ede16)" d="M 232.169833 281.948043 
L 249.88719 337.742052 
L 280.516374 281.300083 
L 264.668332 270.760443 
z
" style="fill:#f7bca1;"/>
    <path clip-path="url(#p8fe49ede16)" d="M 264.996107 325.902182 
L 281.904394 366.34399 
L 311.897539 288.873062 
L 295.903521 275.276872 
z
" style="fill:#f1cdba;"/>
    <path clip-path="url(#p8fe49ede16)" d="M 473.188732 482.185148 
L 489.329905 481.210824 
L 519.019126 463.473685 
L 503.034084 458.689836 
z
" style="fill:#5673e0;"/>
    <path clip-path="url(#p8fe49ede16)" d="M 217.354991 298.563137 
L 232.169833 281.948043 
L 264.668332 270.760443 
L 248.716927 257.206707 
z
" style="fill:#f7a98b;"/>
    <path clip-path="url(#p8fe49ede16)" d="M 489.329905 481.210824 
L 505.465477 487.545506 
L 534.971049 472.622946 
L 519.019126 463.473685 
z
" style="fill:#5470de;"/>
    <path clip-path="url(#p8fe49ede16)" d="M 505.465477 487.545506 
L 521.708116 489.509636 
L 551.191917 470.176662 
L 534.971049 472.622946 
z
" style="fill:#536edd;"/>
   </g>
   <g id="text_25">
    <!-- Distribution of Wealth -->
    <defs>
     <path d="M 19.671875 64.796875 
L 19.671875 8.109375 
L 31.59375 8.109375 
Q 46.6875 8.109375 53.6875 14.9375 
Q 60.6875 21.78125 60.6875 36.53125 
Q 60.6875 51.171875 53.6875 57.984375 
Q 46.6875 64.796875 31.59375 64.796875 
z
M 9.8125 72.90625 
L 30.078125 72.90625 
Q 51.265625 72.90625 61.171875 64.09375 
Q 71.09375 55.28125 71.09375 36.53125 
Q 71.09375 17.671875 61.125 8.828125 
Q 51.171875 0 30.078125 0 
L 9.8125 0 
z
" id="DejaVuSans-68"/>
     <path d="M 8.5 21.578125 
L 8.5 54.6875 
L 17.484375 54.6875 
L 17.484375 21.921875 
Q 17.484375 14.15625 20.5 10.265625 
Q 23.53125 6.390625 29.59375 6.390625 
Q 36.859375 6.390625 41.078125 11.03125 
Q 45.3125 15.671875 45.3125 23.6875 
L 45.3125 54.6875 
L 54.296875 54.6875 
L 54.296875 0 
L 45.3125 0 
L 45.3125 8.40625 
Q 42.046875 3.421875 37.71875 1 
Q 33.40625 -1.421875 27.6875 -1.421875 
Q 18.265625 -1.421875 13.375 4.4375 
Q 8.5 10.296875 8.5 21.578125 
z
M 31.109375 56 
z
" id="DejaVuSans-117"/>
    </defs>
    <g transform="translate(366.63 49.152)scale(0.12 -0.12)">
     <use xlink:href="#DejaVuSans-68"/>
     <use x="77.001953" xlink:href="#DejaVuSans-105"/>
     <use x="104.785156" xlink:href="#DejaVuSans-115"/>
     <use x="156.884766" xlink:href="#DejaVuSans-116"/>
     <use x="196.09375" xlink:href="#DejaVuSans-114"/>
     <use x="237.207031" xlink:href="#DejaVuSans-105"/>
     <use x="264.990234" xlink:href="#DejaVuSans-98"/>
     <use x="328.466797" xlink:href="#DejaVuSans-117"/>
     <use x="391.845703" xlink:href="#DejaVuSans-116"/>
     <use x="431.054688" xlink:href="#DejaVuSans-105"/>
     <use x="458.837891" xlink:href="#DejaVuSans-111"/>
     <use x="520.019531" xlink:href="#DejaVuSans-110"/>
     <use x="583.398438" xlink:href="#DejaVuSans-32"/>
     <use x="615.185547" xlink:href="#DejaVuSans-111"/>
     <use x="676.367188" xlink:href="#DejaVuSans-102"/>
     <use x="711.572266" xlink:href="#DejaVuSans-32"/>
     <use x="743.359375" xlink:href="#DejaVuSans-87"/>
     <use x="836.361328" xlink:href="#DejaVuSans-101"/>
     <use x="897.884766" xlink:href="#DejaVuSans-97"/>
     <use x="959.164062" xlink:href="#DejaVuSans-108"/>
     <use x="986.947266" xlink:href="#DejaVuSans-116"/>
     <use x="1026.15625" xlink:href="#DejaVuSans-104"/>
    </g>
   </g>
  </g>
 </g>
 <defs>
  <clipPath id="p8fe49ede16">
   <rect height="554.4" width="842.4" x="10.8" y="10.8"/>
  </clipPath>
 </defs>
</svg>
