<?xml version="1.0" encoding="utf-8" standalone="no"?>
<!DOCTYPE svg PUBLIC "-//W3C//DTD SVG 1.1//EN"
  "http://www.w3.org/Graphics/SVG/1.1/DTD/svg11.dtd">
<!-- Created with matplotlib (https://matplotlib.org/) -->
<svg height="576pt" version="1.1" viewBox="0 0 864 576" width="864pt" xmlns="http://www.w3.org/2000/svg" xmlns:xlink="http://www.w3.org/1999/xlink">
 <defs>
  <style type="text/css">
*{stroke-linecap:butt;stroke-linejoin:round;}
  </style>
 </defs>
 <g id="figure_1">
  <g id="patch_1">
   <path d="M 0 576 
L 864 576 
L 864 0 
L 0 0 
z
" style="fill:#ffffff;"/>
  </g>
  <g id="patch_2">
   <path d="M 10.8 565.2 
L 853.2 565.2 
L 853.2 10.8 
L 10.8 10.8 
z
" style="fill:#ffffff;"/>
  </g>
  <g id="pane3d_1">
   <g id="patch_3">
    <path d="M 122.473137 442.697138 
L 363.572425 306.77082 
L 359.558377 47.037935 
L 105.016225 169.164937 
" style="fill:#f2f2f2;opacity:0.5;stroke:#f2f2f2;stroke-linejoin:miter;"/>
   </g>
  </g>
  <g id="pane3d_2">
   <g id="patch_4">
    <path d="M 363.572425 306.77082 
L 754.130603 382.762403 
L 770.471089 115.197379 
L 359.558377 47.037935 
" style="fill:#e6e6e6;opacity:0.5;stroke:#e6e6e6;stroke-linejoin:miter;"/>
   </g>
  </g>
  <g id="pane3d_3">
   <g id="patch_5">
    <path d="M 122.473137 442.697138 
L 533.393114 531.201719 
L 754.130603 382.762403 
L 363.572425 306.77082 
" style="fill:#ececec;opacity:0.5;stroke:#ececec;stroke-linejoin:miter;"/>
   </g>
  </g>
  <g id="axis3d_1">
   <g id="line2d_1">
    <path d="M 122.473137 442.697138 
L 533.393114 531.201719 
" style="fill:none;stroke:#000000;stroke-linecap:square;stroke-width:0.8;"/>
   </g>
   <g id="text_1">
    <!-- Wealth -->
    <defs>
     <path d="M 3.328125 72.90625 
L 13.28125 72.90625 
L 28.609375 11.28125 
L 43.890625 72.90625 
L 54.984375 72.90625 
L 70.3125 11.28125 
L 85.59375 72.90625 
L 95.609375 72.90625 
L 77.296875 0 
L 64.890625 0 
L 49.515625 63.28125 
L 33.984375 0 
L 21.578125 0 
z
" id="DejaVuSans-87"/>
     <path d="M 56.203125 29.59375 
L 56.203125 25.203125 
L 14.890625 25.203125 
Q 15.484375 15.921875 20.484375 11.0625 
Q 25.484375 6.203125 34.421875 6.203125 
Q 39.59375 6.203125 44.453125 7.46875 
Q 49.3125 8.734375 54.109375 11.28125 
L 54.109375 2.78125 
Q 49.265625 0.734375 44.1875 -0.34375 
Q 39.109375 -1.421875 33.890625 -1.421875 
Q 20.796875 -1.421875 13.15625 6.1875 
Q 5.515625 13.8125 5.515625 26.8125 
Q 5.515625 40.234375 12.765625 48.109375 
Q 20.015625 56 32.328125 56 
Q 43.359375 56 49.78125 48.890625 
Q 56.203125 41.796875 56.203125 29.59375 
z
M 47.21875 32.234375 
Q 47.125 39.59375 43.09375 43.984375 
Q 39.0625 48.390625 32.421875 48.390625 
Q 24.90625 48.390625 20.390625 44.140625 
Q 15.875 39.890625 15.1875 32.171875 
z
" id="DejaVuSans-101"/>
     <path d="M 34.28125 27.484375 
Q 23.390625 27.484375 19.1875 25 
Q 14.984375 22.515625 14.984375 16.5 
Q 14.984375 11.71875 18.140625 8.90625 
Q 21.296875 6.109375 26.703125 6.109375 
Q 34.1875 6.109375 38.703125 11.40625 
Q 43.21875 16.703125 43.21875 25.484375 
L 43.21875 27.484375 
z
M 52.203125 31.203125 
L 52.203125 0 
L 43.21875 0 
L 43.21875 8.296875 
Q 40.140625 3.328125 35.546875 0.953125 
Q 30.953125 -1.421875 24.3125 -1.421875 
Q 15.921875 -1.421875 10.953125 3.296875 
Q 6 8.015625 6 15.921875 
Q 6 25.140625 12.171875 29.828125 
Q 18.359375 34.515625 30.609375 34.515625 
L 43.21875 34.515625 
L 43.21875 35.40625 
Q 43.21875 41.609375 39.140625 45 
Q 35.0625 48.390625 27.6875 48.390625 
Q 23 48.390625 18.546875 47.265625 
Q 14.109375 46.140625 10.015625 43.890625 
L 10.015625 52.203125 
Q 14.9375 54.109375 19.578125 55.046875 
Q 24.21875 56 28.609375 56 
Q 40.484375 56 46.34375 49.84375 
Q 52.203125 43.703125 52.203125 31.203125 
z
" id="DejaVuSans-97"/>
     <path d="M 9.421875 75.984375 
L 18.40625 75.984375 
L 18.40625 0 
L 9.421875 0 
z
" id="DejaVuSans-108"/>
     <path d="M 18.3125 70.21875 
L 18.3125 54.6875 
L 36.8125 54.6875 
L 36.8125 47.703125 
L 18.3125 47.703125 
L 18.3125 18.015625 
Q 18.3125 11.328125 20.140625 9.421875 
Q 21.96875 7.515625 27.59375 7.515625 
L 36.8125 7.515625 
L 36.8125 0 
L 27.59375 0 
Q 17.1875 0 13.234375 3.875 
Q 9.28125 7.765625 9.28125 18.015625 
L 9.28125 47.703125 
L 2.6875 47.703125 
L 2.6875 54.6875 
L 9.28125 54.6875 
L 9.28125 70.21875 
z
" id="DejaVuSans-116"/>
     <path d="M 54.890625 33.015625 
L 54.890625 0 
L 45.90625 0 
L 45.90625 32.71875 
Q 45.90625 40.484375 42.875 44.328125 
Q 39.84375 48.1875 33.796875 48.1875 
Q 26.515625 48.1875 22.3125 43.546875 
Q 18.109375 38.921875 18.109375 30.90625 
L 18.109375 0 
L 9.078125 0 
L 9.078125 75.984375 
L 18.109375 75.984375 
L 18.109375 46.1875 
Q 21.34375 51.125 25.703125 53.5625 
Q 30.078125 56 35.796875 56 
Q 45.21875 56 50.046875 50.171875 
Q 54.890625 44.34375 54.890625 33.015625 
z
" id="DejaVuSans-104"/>
    </defs>
    <g transform="translate(288.973622 513.653716)rotate(-347.845226)scale(0.1 -0.1)">
     <use xlink:href="#DejaVuSans-87"/>
     <use x="93.001953" xlink:href="#DejaVuSans-101"/>
     <use x="154.525391" xlink:href="#DejaVuSans-97"/>
     <use x="215.804688" xlink:href="#DejaVuSans-108"/>
     <use x="243.587891" xlink:href="#DejaVuSans-116"/>
     <use x="282.796875" xlink:href="#DejaVuSans-104"/>
    </g>
   </g>
   <g id="Line3DCollection_1">
    <path d="M 147.525473 448.092949 
L 387.458472 311.41837 
L 384.637936 51.197964 
" style="fill:none;stroke:#b0b0b0;stroke-width:0.8;"/>
    <path d="M 223.070841 464.364027 
L 459.427705 325.421549 
L 460.243625 63.738929 
" style="fill:none;stroke:#b0b0b0;stroke-width:0.8;"/>
    <path d="M 299.922836 480.916529 
L 532.550628 339.649203 
L 537.123453 76.491239 
" style="fill:none;stroke:#b0b0b0;stroke-width:0.8;"/>
    <path d="M 378.115654 497.757819 
L 606.855208 354.106774 
L 615.309904 89.460283 
" style="fill:none;stroke:#b0b0b0;stroke-width:0.8;"/>
    <path d="M 457.684692 514.895522 
L 682.37032 368.79988 
L 694.836571 102.651633 
" style="fill:none;stroke:#b0b0b0;stroke-width:0.8;"/>
   </g>
   <g id="xtick_1">
    <g id="line2d_2">
     <path d="M 149.592619 446.915427 
L 143.38347 450.452385 
" style="fill:none;stroke:#000000;stroke-linecap:square;stroke-width:0.8;"/>
    </g>
    <g id="text_2">
     <!-- 0 -->
     <defs>
      <path d="M 31.78125 66.40625 
Q 24.171875 66.40625 20.328125 58.90625 
Q 16.5 51.421875 16.5 36.375 
Q 16.5 21.390625 20.328125 13.890625 
Q 24.171875 6.390625 31.78125 6.390625 
Q 39.453125 6.390625 43.28125 13.890625 
Q 47.125 21.390625 47.125 36.375 
Q 47.125 51.421875 43.28125 58.90625 
Q 39.453125 66.40625 31.78125 66.40625 
z
M 31.78125 74.21875 
Q 44.046875 74.21875 50.515625 64.515625 
Q 56.984375 54.828125 56.984375 36.375 
Q 56.984375 17.96875 50.515625 8.265625 
Q 44.046875 -1.421875 31.78125 -1.421875 
Q 19.53125 -1.421875 13.0625 8.265625 
Q 6.59375 17.96875 6.59375 36.375 
Q 6.59375 54.828125 13.0625 64.515625 
Q 19.53125 74.21875 31.78125 74.21875 
z
" id="DejaVuSans-48"/>
     </defs>
     <g transform="translate(136.647664 468.574411)scale(0.1 -0.1)">
      <use xlink:href="#DejaVuSans-48"/>
     </g>
    </g>
   </g>
   <g id="xtick_2">
    <g id="line2d_3">
     <path d="M 225.108424 463.166234 
L 218.988011 466.764121 
" style="fill:none;stroke:#000000;stroke-linecap:square;stroke-width:0.8;"/>
    </g>
    <g id="text_3">
     <!-- 5 -->
     <defs>
      <path d="M 10.796875 72.90625 
L 49.515625 72.90625 
L 49.515625 64.59375 
L 19.828125 64.59375 
L 19.828125 46.734375 
Q 21.96875 47.46875 24.109375 47.828125 
Q 26.265625 48.1875 28.421875 48.1875 
Q 40.625 48.1875 47.75 41.5 
Q 54.890625 34.8125 54.890625 23.390625 
Q 54.890625 11.625 47.5625 5.09375 
Q 40.234375 -1.421875 26.90625 -1.421875 
Q 22.3125 -1.421875 17.546875 -0.640625 
Q 12.796875 0.140625 7.71875 1.703125 
L 7.71875 11.625 
Q 12.109375 9.234375 16.796875 8.0625 
Q 21.484375 6.890625 26.703125 6.890625 
Q 35.15625 6.890625 40.078125 11.328125 
Q 45.015625 15.765625 45.015625 23.390625 
Q 45.015625 31 40.078125 35.4375 
Q 35.15625 39.890625 26.703125 39.890625 
Q 22.75 39.890625 18.8125 39.015625 
Q 14.890625 38.140625 10.796875 36.28125 
z
" id="DejaVuSans-53"/>
     </defs>
     <g transform="translate(212.189355 484.96947)scale(0.1 -0.1)">
      <use xlink:href="#DejaVuSans-53"/>
     </g>
    </g>
   </g>
   <g id="xtick_3">
    <g id="line2d_4">
     <path d="M 301.92952 479.697935 
L 295.901856 483.358341 
" style="fill:none;stroke:#000000;stroke-linecap:square;stroke-width:0.8;"/>
    </g>
    <g id="text_4">
     <!-- 10 -->
     <defs>
      <path d="M 12.40625 8.296875 
L 28.515625 8.296875 
L 28.515625 63.921875 
L 10.984375 60.40625 
L 10.984375 69.390625 
L 28.421875 72.90625 
L 38.28125 72.90625 
L 38.28125 8.296875 
L 54.390625 8.296875 
L 54.390625 0 
L 12.40625 0 
z
" id="DejaVuSans-49"/>
     </defs>
     <g transform="translate(285.857449 501.648333)scale(0.1 -0.1)">
      <use xlink:href="#DejaVuSans-49"/>
      <use x="63.623047" xlink:href="#DejaVuSans-48"/>
     </g>
    </g>
   </g>
   <g id="xtick_4">
    <g id="line2d_5">
     <path d="M 380.090045 496.517879 
L 374.159314 500.242446 
" style="fill:none;stroke:#000000;stroke-linecap:square;stroke-width:0.8;"/>
    </g>
    <g id="text_5">
     <!-- 15 -->
     <g transform="translate(364.048694 518.618433)scale(0.1 -0.1)">
      <use xlink:href="#DejaVuSans-49"/>
      <use x="63.623047" xlink:href="#DejaVuSans-53"/>
     </g>
    </g>
   </g>
   <g id="xtick_5">
    <g id="line2d_6">
     <path d="M 459.62534 513.633669 
L 453.795904 517.424099 
" style="fill:none;stroke:#000000;stroke-linecap:square;stroke-width:0.8;"/>
    </g>
    <g id="text_6">
     <!-- 20 -->
     <defs>
      <path d="M 19.1875 8.296875 
L 53.609375 8.296875 
L 53.609375 0 
L 7.328125 0 
L 7.328125 8.296875 
Q 12.9375 14.109375 22.625 23.890625 
Q 32.328125 33.6875 34.8125 36.53125 
Q 39.546875 41.84375 41.421875 45.53125 
Q 43.3125 49.21875 43.3125 52.78125 
Q 43.3125 58.59375 39.234375 62.25 
Q 35.15625 65.921875 28.609375 65.921875 
Q 23.96875 65.921875 18.8125 64.3125 
Q 13.671875 62.703125 7.8125 59.421875 
L 7.8125 69.390625 
Q 13.765625 71.78125 18.9375 73 
Q 24.125 74.21875 28.421875 74.21875 
Q 39.75 74.21875 46.484375 68.546875 
Q 53.21875 62.890625 53.21875 53.421875 
Q 53.21875 48.921875 51.53125 44.890625 
Q 49.859375 40.875 45.40625 35.40625 
Q 44.1875 33.984375 37.640625 27.21875 
Q 31.109375 20.453125 19.1875 8.296875 
z
" id="DejaVuSans-50"/>
     </defs>
     <g transform="translate(443.617299 535.887466)scale(0.1 -0.1)">
      <use xlink:href="#DejaVuSans-50"/>
      <use x="63.623047" xlink:href="#DejaVuSans-48"/>
     </g>
    </g>
   </g>
  </g>
  <g id="axis3d_2">
   <g id="line2d_7">
    <path d="M 754.130603 382.762403 
L 533.393114 531.201719 
" style="fill:none;stroke:#000000;stroke-linecap:square;stroke-width:0.8;"/>
   </g>
   <g id="text_7">
    <!-- Sacrifices in % -->
    <defs>
     <path d="M 53.515625 70.515625 
L 53.515625 60.890625 
Q 47.90625 63.578125 42.921875 64.890625 
Q 37.9375 66.21875 33.296875 66.21875 
Q 25.25 66.21875 20.875 63.09375 
Q 16.5 59.96875 16.5 54.203125 
Q 16.5 49.359375 19.40625 46.890625 
Q 22.3125 44.4375 30.421875 42.921875 
L 36.375 41.703125 
Q 47.40625 39.59375 52.65625 34.296875 
Q 57.90625 29 57.90625 20.125 
Q 57.90625 9.515625 50.796875 4.046875 
Q 43.703125 -1.421875 29.984375 -1.421875 
Q 24.8125 -1.421875 18.96875 -0.25 
Q 13.140625 0.921875 6.890625 3.21875 
L 6.890625 13.375 
Q 12.890625 10.015625 18.65625 8.296875 
Q 24.421875 6.59375 29.984375 6.59375 
Q 38.421875 6.59375 43.015625 9.90625 
Q 47.609375 13.234375 47.609375 19.390625 
Q 47.609375 24.75 44.3125 27.78125 
Q 41.015625 30.8125 33.5 32.328125 
L 27.484375 33.5 
Q 16.453125 35.6875 11.515625 40.375 
Q 6.59375 45.0625 6.59375 53.421875 
Q 6.59375 63.09375 13.40625 68.65625 
Q 20.21875 74.21875 32.171875 74.21875 
Q 37.3125 74.21875 42.625 73.28125 
Q 47.953125 72.359375 53.515625 70.515625 
z
" id="DejaVuSans-83"/>
     <path d="M 48.78125 52.59375 
L 48.78125 44.1875 
Q 44.96875 46.296875 41.140625 47.34375 
Q 37.3125 48.390625 33.40625 48.390625 
Q 24.65625 48.390625 19.8125 42.84375 
Q 14.984375 37.3125 14.984375 27.296875 
Q 14.984375 17.28125 19.8125 11.734375 
Q 24.65625 6.203125 33.40625 6.203125 
Q 37.3125 6.203125 41.140625 7.25 
Q 44.96875 8.296875 48.78125 10.40625 
L 48.78125 2.09375 
Q 45.015625 0.34375 40.984375 -0.53125 
Q 36.96875 -1.421875 32.421875 -1.421875 
Q 20.0625 -1.421875 12.78125 6.34375 
Q 5.515625 14.109375 5.515625 27.296875 
Q 5.515625 40.671875 12.859375 48.328125 
Q 20.21875 56 33.015625 56 
Q 37.15625 56 41.109375 55.140625 
Q 45.0625 54.296875 48.78125 52.59375 
z
" id="DejaVuSans-99"/>
     <path d="M 41.109375 46.296875 
Q 39.59375 47.171875 37.8125 47.578125 
Q 36.03125 48 33.890625 48 
Q 26.265625 48 22.1875 43.046875 
Q 18.109375 38.09375 18.109375 28.8125 
L 18.109375 0 
L 9.078125 0 
L 9.078125 54.6875 
L 18.109375 54.6875 
L 18.109375 46.1875 
Q 20.953125 51.171875 25.484375 53.578125 
Q 30.03125 56 36.53125 56 
Q 37.453125 56 38.578125 55.875 
Q 39.703125 55.765625 41.0625 55.515625 
z
" id="DejaVuSans-114"/>
     <path d="M 9.421875 54.6875 
L 18.40625 54.6875 
L 18.40625 0 
L 9.421875 0 
z
M 9.421875 75.984375 
L 18.40625 75.984375 
L 18.40625 64.59375 
L 9.421875 64.59375 
z
" id="DejaVuSans-105"/>
     <path d="M 37.109375 75.984375 
L 37.109375 68.5 
L 28.515625 68.5 
Q 23.6875 68.5 21.796875 66.546875 
Q 19.921875 64.59375 19.921875 59.515625 
L 19.921875 54.6875 
L 34.71875 54.6875 
L 34.71875 47.703125 
L 19.921875 47.703125 
L 19.921875 0 
L 10.890625 0 
L 10.890625 47.703125 
L 2.296875 47.703125 
L 2.296875 54.6875 
L 10.890625 54.6875 
L 10.890625 58.5 
Q 10.890625 67.625 15.140625 71.796875 
Q 19.390625 75.984375 28.609375 75.984375 
z
" id="DejaVuSans-102"/>
     <path d="M 44.28125 53.078125 
L 44.28125 44.578125 
Q 40.484375 46.53125 36.375 47.5 
Q 32.28125 48.484375 27.875 48.484375 
Q 21.1875 48.484375 17.84375 46.4375 
Q 14.5 44.390625 14.5 40.28125 
Q 14.5 37.15625 16.890625 35.375 
Q 19.28125 33.59375 26.515625 31.984375 
L 29.59375 31.296875 
Q 39.15625 29.25 43.1875 25.515625 
Q 47.21875 21.78125 47.21875 15.09375 
Q 47.21875 7.46875 41.1875 3.015625 
Q 35.15625 -1.421875 24.609375 -1.421875 
Q 20.21875 -1.421875 15.453125 -0.5625 
Q 10.6875 0.296875 5.421875 2 
L 5.421875 11.28125 
Q 10.40625 8.6875 15.234375 7.390625 
Q 20.0625 6.109375 24.8125 6.109375 
Q 31.15625 6.109375 34.5625 8.28125 
Q 37.984375 10.453125 37.984375 14.40625 
Q 37.984375 18.0625 35.515625 20.015625 
Q 33.0625 21.96875 24.703125 23.78125 
L 21.578125 24.515625 
Q 13.234375 26.265625 9.515625 29.90625 
Q 5.8125 33.546875 5.8125 39.890625 
Q 5.8125 47.609375 11.28125 51.796875 
Q 16.75 56 26.8125 56 
Q 31.78125 56 36.171875 55.265625 
Q 40.578125 54.546875 44.28125 53.078125 
z
" id="DejaVuSans-115"/>
     <path id="DejaVuSans-32"/>
     <path d="M 54.890625 33.015625 
L 54.890625 0 
L 45.90625 0 
L 45.90625 32.71875 
Q 45.90625 40.484375 42.875 44.328125 
Q 39.84375 48.1875 33.796875 48.1875 
Q 26.515625 48.1875 22.3125 43.546875 
Q 18.109375 38.921875 18.109375 30.90625 
L 18.109375 0 
L 9.078125 0 
L 9.078125 54.6875 
L 18.109375 54.6875 
L 18.109375 46.1875 
Q 21.34375 51.125 25.703125 53.5625 
Q 30.078125 56 35.796875 56 
Q 45.21875 56 50.046875 50.171875 
Q 54.890625 44.34375 54.890625 33.015625 
z
" id="DejaVuSans-110"/>
     <path d="M 72.703125 32.078125 
Q 68.453125 32.078125 66.03125 28.46875 
Q 63.625 24.859375 63.625 18.40625 
Q 63.625 12.0625 66.03125 8.421875 
Q 68.453125 4.78125 72.703125 4.78125 
Q 76.859375 4.78125 79.265625 8.421875 
Q 81.6875 12.0625 81.6875 18.40625 
Q 81.6875 24.8125 79.265625 28.4375 
Q 76.859375 32.078125 72.703125 32.078125 
z
M 72.703125 38.28125 
Q 80.421875 38.28125 84.953125 32.90625 
Q 89.5 27.546875 89.5 18.40625 
Q 89.5 9.28125 84.9375 3.921875 
Q 80.375 -1.421875 72.703125 -1.421875 
Q 64.890625 -1.421875 60.34375 3.921875 
Q 55.8125 9.28125 55.8125 18.40625 
Q 55.8125 27.59375 60.375 32.9375 
Q 64.9375 38.28125 72.703125 38.28125 
z
M 22.3125 68.015625 
Q 18.109375 68.015625 15.6875 64.375 
Q 13.28125 60.75 13.28125 54.390625 
Q 13.28125 47.953125 15.671875 44.328125 
Q 18.0625 40.71875 22.3125 40.71875 
Q 26.5625 40.71875 28.96875 44.328125 
Q 31.390625 47.953125 31.390625 54.390625 
Q 31.390625 60.6875 28.953125 64.34375 
Q 26.515625 68.015625 22.3125 68.015625 
z
M 66.40625 74.21875 
L 74.21875 74.21875 
L 28.609375 -1.421875 
L 20.796875 -1.421875 
z
M 22.3125 74.21875 
Q 30.03125 74.21875 34.609375 68.875 
Q 39.203125 63.53125 39.203125 54.390625 
Q 39.203125 45.171875 34.640625 39.84375 
Q 30.078125 34.515625 22.3125 34.515625 
Q 14.546875 34.515625 10.03125 39.859375 
Q 5.515625 45.21875 5.515625 54.390625 
Q 5.515625 63.484375 10.046875 68.84375 
Q 14.59375 74.21875 22.3125 74.21875 
z
" id="DejaVuSans-37"/>
    </defs>
    <g transform="translate(647.333516 500.516075)rotate(-33.919644)scale(0.1 -0.1)">
     <use xlink:href="#DejaVuSans-83"/>
     <use x="63.476562" xlink:href="#DejaVuSans-97"/>
     <use x="124.755859" xlink:href="#DejaVuSans-99"/>
     <use x="179.736328" xlink:href="#DejaVuSans-114"/>
     <use x="220.849609" xlink:href="#DejaVuSans-105"/>
     <use x="248.632812" xlink:href="#DejaVuSans-102"/>
     <use x="283.837891" xlink:href="#DejaVuSans-105"/>
     <use x="311.621094" xlink:href="#DejaVuSans-99"/>
     <use x="366.601562" xlink:href="#DejaVuSans-101"/>
     <use x="428.125" xlink:href="#DejaVuSans-115"/>
     <use x="480.224609" xlink:href="#DejaVuSans-32"/>
     <use x="512.011719" xlink:href="#DejaVuSans-105"/>
     <use x="539.794922" xlink:href="#DejaVuSans-110"/>
     <use x="603.173828" xlink:href="#DejaVuSans-32"/>
     <use x="634.960938" xlink:href="#DejaVuSans-37"/>
    </g>
   </g>
   <g id="Line3DCollection_2">
    <path d="M 122.44558 160.802492 
L 138.922143 433.423561 
L 548.500065 521.04275 
" style="fill:none;stroke:#b0b0b0;stroke-width:0.8;"/>
    <path d="M 156.076131 144.66686 
L 170.685876 415.515888 
L 577.652648 501.438515 
" style="fill:none;stroke:#b0b0b0;stroke-width:0.8;"/>
    <path d="M 189.039465 128.851353 
L 201.851172 397.9456 
L 606.230936 482.220477 
" style="fill:none;stroke:#b0b0b0;stroke-width:0.8;"/>
    <path d="M 221.355244 113.346537 
L 232.434785 380.703252 
L 634.251735 463.377333 
" style="fill:none;stroke:#b0b0b0;stroke-width:0.8;"/>
    <path d="M 253.042362 98.143347 
L 262.452851 363.779746 
L 661.731199 444.898221 
" style="fill:none;stroke:#b0b0b0;stroke-width:0.8;"/>
    <path d="M 284.118989 83.233065 
L 291.920912 347.166321 
L 688.684865 426.772692 
" style="fill:none;stroke:#b0b0b0;stroke-width:0.8;"/>
    <path d="M 314.602598 68.607308 
L 320.853947 330.854531 
L 715.127681 408.990694 
" style="fill:none;stroke:#b0b0b0;stroke-width:0.8;"/>
    <path d="M 344.510004 54.258007 
L 349.266396 314.836235 
L 741.074035 391.542552 
" style="fill:none;stroke:#b0b0b0;stroke-width:0.8;"/>
   </g>
   <g id="xtick_6">
    <g id="line2d_8">
     <path d="M 545.072258 520.309454 
L 555.363339 522.510979 
" style="fill:none;stroke:#000000;stroke-linecap:square;stroke-width:0.8;"/>
    </g>
    <g id="text_8">
     <!-- 1 -->
     <g transform="translate(558.688579 539.945674)scale(0.1 -0.1)">
      <use xlink:href="#DejaVuSans-49"/>
     </g>
    </g>
   </g>
   <g id="xtick_7">
    <g id="line2d_9">
     <path d="M 574.248188 500.719734 
L 584.469101 502.877668 
" style="fill:none;stroke:#000000;stroke-linecap:square;stroke-width:0.8;"/>
    </g>
    <g id="text_9">
     <!-- 2 -->
     <g transform="translate(587.701625 520.233426)scale(0.1 -0.1)">
      <use xlink:href="#DejaVuSans-50"/>
     </g>
    </g>
   </g>
   <g id="xtick_8">
    <g id="line2d_10">
     <path d="M 602.849573 481.515783 
L 613.001071 483.631409 
" style="fill:none;stroke:#000000;stroke-linecap:square;stroke-width:0.8;"/>
    </g>
    <g id="text_10">
     <!-- 3 -->
     <defs>
      <path d="M 40.578125 39.3125 
Q 47.65625 37.796875 51.625 33 
Q 55.609375 28.21875 55.609375 21.1875 
Q 55.609375 10.40625 48.1875 4.484375 
Q 40.765625 -1.421875 27.09375 -1.421875 
Q 22.515625 -1.421875 17.65625 -0.515625 
Q 12.796875 0.390625 7.625 2.203125 
L 7.625 11.71875 
Q 11.71875 9.328125 16.59375 8.109375 
Q 21.484375 6.890625 26.8125 6.890625 
Q 36.078125 6.890625 40.9375 10.546875 
Q 45.796875 14.203125 45.796875 21.1875 
Q 45.796875 27.640625 41.28125 31.265625 
Q 36.765625 34.90625 28.71875 34.90625 
L 20.21875 34.90625 
L 20.21875 43.015625 
L 29.109375 43.015625 
Q 36.375 43.015625 40.234375 45.921875 
Q 44.09375 48.828125 44.09375 54.296875 
Q 44.09375 59.90625 40.109375 62.90625 
Q 36.140625 65.921875 28.71875 65.921875 
Q 24.65625 65.921875 20.015625 65.03125 
Q 15.375 64.15625 9.8125 62.3125 
L 9.8125 71.09375 
Q 15.4375 72.65625 20.34375 73.4375 
Q 25.25 74.21875 29.59375 74.21875 
Q 40.828125 74.21875 47.359375 69.109375 
Q 53.90625 64.015625 53.90625 55.328125 
Q 53.90625 49.265625 50.4375 45.09375 
Q 46.96875 40.921875 40.578125 39.3125 
z
" id="DejaVuSans-51"/>
     </defs>
     <g transform="translate(616.143254 500.909415)scale(0.1 -0.1)">
      <use xlink:href="#DejaVuSans-51"/>
     </g>
    </g>
   </g>
   <g id="xtick_9">
    <g id="line2d_11">
     <path d="M 630.893219 462.686317 
L 640.976053 464.760866 
" style="fill:none;stroke:#000000;stroke-linecap:square;stroke-width:0.8;"/>
    </g>
    <g id="text_11">
     <!-- 4 -->
     <defs>
      <path d="M 37.796875 64.3125 
L 12.890625 25.390625 
L 37.796875 25.390625 
z
M 35.203125 72.90625 
L 47.609375 72.90625 
L 47.609375 25.390625 
L 58.015625 25.390625 
L 58.015625 17.1875 
L 47.609375 17.1875 
L 47.609375 0 
L 37.796875 0 
L 37.796875 17.1875 
L 4.890625 17.1875 
L 4.890625 26.703125 
z
" id="DejaVuSans-52"/>
     </defs>
     <g transform="translate(644.030181 481.962284)scale(0.1 -0.1)">
      <use xlink:href="#DejaVuSans-52"/>
     </g>
    </g>
   </g>
   <g id="xtick_10">
    <g id="line2d_12">
     <path d="M 658.395283 444.220487 
L 668.410198 446.255145 
" style="fill:none;stroke:#000000;stroke-linecap:square;stroke-width:0.8;"/>
    </g>
    <g id="text_12">
     <!-- 5 -->
     <g transform="translate(671.378477 463.381113)scale(0.1 -0.1)">
      <use xlink:href="#DejaVuSans-53"/>
     </g>
    </g>
   </g>
   <g id="xtick_11">
    <g id="line2d_13">
     <path d="M 685.371303 426.107862 
L 695.31904 428.103767 
" style="fill:none;stroke:#000000;stroke-linecap:square;stroke-width:0.8;"/>
    </g>
    <g id="text_13">
     <!-- 6 -->
     <defs>
      <path d="M 33.015625 40.375 
Q 26.375 40.375 22.484375 35.828125 
Q 18.609375 31.296875 18.609375 23.390625 
Q 18.609375 15.53125 22.484375 10.953125 
Q 26.375 6.390625 33.015625 6.390625 
Q 39.65625 6.390625 43.53125 10.953125 
Q 47.40625 15.53125 47.40625 23.390625 
Q 47.40625 31.296875 43.53125 35.828125 
Q 39.65625 40.375 33.015625 40.375 
z
M 52.59375 71.296875 
L 52.59375 62.3125 
Q 48.875 64.0625 45.09375 64.984375 
Q 41.3125 65.921875 37.59375 65.921875 
Q 27.828125 65.921875 22.671875 59.328125 
Q 17.53125 52.734375 16.796875 39.40625 
Q 19.671875 43.65625 24.015625 45.921875 
Q 28.375 48.1875 33.59375 48.1875 
Q 44.578125 48.1875 50.953125 41.515625 
Q 57.328125 34.859375 57.328125 23.390625 
Q 57.328125 12.15625 50.6875 5.359375 
Q 44.046875 -1.421875 33.015625 -1.421875 
Q 20.359375 -1.421875 13.671875 8.265625 
Q 6.984375 17.96875 6.984375 36.375 
Q 6.984375 53.65625 15.1875 63.9375 
Q 23.390625 74.21875 37.203125 74.21875 
Q 40.921875 74.21875 44.703125 73.484375 
Q 48.484375 72.75 52.59375 71.296875 
z
" id="DejaVuSans-54"/>
     </defs>
     <g transform="translate(698.203599 445.1554)scale(0.1 -0.1)">
      <use xlink:href="#DejaVuSans-54"/>
     </g>
    </g>
   </g>
   <g id="xtick_12">
    <g id="line2d_14">
     <path d="M 711.836229 408.338402 
L 721.717524 410.296652 
" style="fill:none;stroke:#000000;stroke-linecap:square;stroke-width:0.8;"/>
    </g>
    <g id="text_14">
     <!-- 7 -->
     <defs>
      <path d="M 8.203125 72.90625 
L 55.078125 72.90625 
L 55.078125 68.703125 
L 28.609375 0 
L 18.3125 0 
L 43.21875 64.59375 
L 8.203125 64.59375 
z
" id="DejaVuSans-55"/>
     </defs>
     <g transform="translate(724.520417 427.275043)scale(0.1 -0.1)">
      <use xlink:href="#DejaVuSans-55"/>
     </g>
    </g>
   </g>
   <g id="xtick_13">
    <g id="line2d_15">
     <path d="M 737.80445 390.902448 
L 747.620032 392.824098 
" style="fill:none;stroke:#000000;stroke-linecap:square;stroke-width:0.8;"/>
    </g>
    <g id="text_15">
     <!-- 8 -->
     <defs>
      <path d="M 31.78125 34.625 
Q 24.75 34.625 20.71875 30.859375 
Q 16.703125 27.09375 16.703125 20.515625 
Q 16.703125 13.921875 20.71875 10.15625 
Q 24.75 6.390625 31.78125 6.390625 
Q 38.8125 6.390625 42.859375 10.171875 
Q 46.921875 13.96875 46.921875 20.515625 
Q 46.921875 27.09375 42.890625 30.859375 
Q 38.875 34.625 31.78125 34.625 
z
M 21.921875 38.8125 
Q 15.578125 40.375 12.03125 44.71875 
Q 8.5 49.078125 8.5 55.328125 
Q 8.5 64.0625 14.71875 69.140625 
Q 20.953125 74.21875 31.78125 74.21875 
Q 42.671875 74.21875 48.875 69.140625 
Q 55.078125 64.0625 55.078125 55.328125 
Q 55.078125 49.078125 51.53125 44.71875 
Q 48 40.375 41.703125 38.8125 
Q 48.828125 37.15625 52.796875 32.3125 
Q 56.78125 27.484375 56.78125 20.515625 
Q 56.78125 9.90625 50.3125 4.234375 
Q 43.84375 -1.421875 31.78125 -1.421875 
Q 19.734375 -1.421875 13.25 4.234375 
Q 6.78125 9.90625 6.78125 20.515625 
Q 6.78125 27.484375 10.78125 32.3125 
Q 14.796875 37.15625 21.921875 38.8125 
z
M 18.3125 54.390625 
Q 18.3125 48.734375 21.84375 45.5625 
Q 25.390625 42.390625 31.78125 42.390625 
Q 38.140625 42.390625 41.71875 45.5625 
Q 45.3125 48.734375 45.3125 54.390625 
Q 45.3125 60.0625 41.71875 63.234375 
Q 38.140625 66.40625 31.78125 66.40625 
Q 25.390625 66.40625 21.84375 63.234375 
Q 18.3125 60.0625 18.3125 54.390625 
z
" id="DejaVuSans-56"/>
     </defs>
     <g transform="translate(750.343242 409.730318)scale(0.1 -0.1)">
      <use xlink:href="#DejaVuSans-56"/>
     </g>
    </g>
   </g>
  </g>
  <g id="axis3d_3">
   <g id="line2d_16">
    <path d="M 754.130603 382.762403 
L 770.471089 115.197379 
" style="fill:none;stroke:#000000;stroke-linecap:square;stroke-width:0.8;"/>
   </g>
   <g id="text_16">
    <!-- Probability -->
    <defs>
     <path d="M 19.671875 64.796875 
L 19.671875 37.40625 
L 32.078125 37.40625 
Q 38.96875 37.40625 42.71875 40.96875 
Q 46.484375 44.53125 46.484375 51.125 
Q 46.484375 57.671875 42.71875 61.234375 
Q 38.96875 64.796875 32.078125 64.796875 
z
M 9.8125 72.90625 
L 32.078125 72.90625 
Q 44.34375 72.90625 50.609375 67.359375 
Q 56.890625 61.8125 56.890625 51.125 
Q 56.890625 40.328125 50.609375 34.8125 
Q 44.34375 29.296875 32.078125 29.296875 
L 19.671875 29.296875 
L 19.671875 0 
L 9.8125 0 
z
" id="DejaVuSans-80"/>
     <path d="M 30.609375 48.390625 
Q 23.390625 48.390625 19.1875 42.75 
Q 14.984375 37.109375 14.984375 27.296875 
Q 14.984375 17.484375 19.15625 11.84375 
Q 23.34375 6.203125 30.609375 6.203125 
Q 37.796875 6.203125 41.984375 11.859375 
Q 46.1875 17.53125 46.1875 27.296875 
Q 46.1875 37.015625 41.984375 42.703125 
Q 37.796875 48.390625 30.609375 48.390625 
z
M 30.609375 56 
Q 42.328125 56 49.015625 48.375 
Q 55.71875 40.765625 55.71875 27.296875 
Q 55.71875 13.875 49.015625 6.21875 
Q 42.328125 -1.421875 30.609375 -1.421875 
Q 18.84375 -1.421875 12.171875 6.21875 
Q 5.515625 13.875 5.515625 27.296875 
Q 5.515625 40.765625 12.171875 48.375 
Q 18.84375 56 30.609375 56 
z
" id="DejaVuSans-111"/>
     <path d="M 48.6875 27.296875 
Q 48.6875 37.203125 44.609375 42.84375 
Q 40.53125 48.484375 33.40625 48.484375 
Q 26.265625 48.484375 22.1875 42.84375 
Q 18.109375 37.203125 18.109375 27.296875 
Q 18.109375 17.390625 22.1875 11.75 
Q 26.265625 6.109375 33.40625 6.109375 
Q 40.53125 6.109375 44.609375 11.75 
Q 48.6875 17.390625 48.6875 27.296875 
z
M 18.109375 46.390625 
Q 20.953125 51.265625 25.265625 53.625 
Q 29.59375 56 35.59375 56 
Q 45.5625 56 51.78125 48.09375 
Q 58.015625 40.1875 58.015625 27.296875 
Q 58.015625 14.40625 51.78125 6.484375 
Q 45.5625 -1.421875 35.59375 -1.421875 
Q 29.59375 -1.421875 25.265625 0.953125 
Q 20.953125 3.328125 18.109375 8.203125 
L 18.109375 0 
L 9.078125 0 
L 9.078125 75.984375 
L 18.109375 75.984375 
z
" id="DejaVuSans-98"/>
     <path d="M 32.171875 -5.078125 
Q 28.375 -14.84375 24.75 -17.8125 
Q 21.140625 -20.796875 15.09375 -20.796875 
L 7.90625 -20.796875 
L 7.90625 -13.28125 
L 13.1875 -13.28125 
Q 16.890625 -13.28125 18.9375 -11.515625 
Q 21 -9.765625 23.484375 -3.21875 
L 25.09375 0.875 
L 2.984375 54.6875 
L 12.5 54.6875 
L 29.59375 11.921875 
L 46.6875 54.6875 
L 56.203125 54.6875 
z
" id="DejaVuSans-121"/>
    </defs>
    <g transform="translate(806.23584 275.163725)rotate(-86.505225)scale(0.1 -0.1)">
     <use xlink:href="#DejaVuSans-80"/>
     <use x="58.552734" xlink:href="#DejaVuSans-114"/>
     <use x="97.416016" xlink:href="#DejaVuSans-111"/>
     <use x="158.597656" xlink:href="#DejaVuSans-98"/>
     <use x="222.074219" xlink:href="#DejaVuSans-97"/>
     <use x="283.353516" xlink:href="#DejaVuSans-98"/>
     <use x="346.830078" xlink:href="#DejaVuSans-105"/>
     <use x="374.613281" xlink:href="#DejaVuSans-108"/>
     <use x="402.396484" xlink:href="#DejaVuSans-105"/>
     <use x="430.179688" xlink:href="#DejaVuSans-116"/>
     <use x="469.388672" xlink:href="#DejaVuSans-121"/>
    </g>
   </g>
   <g id="Line3DCollection_3">
    <path d="M 754.441397 377.673356 
L 363.495915 301.820172 
L 122.14167 437.503374 
" style="fill:none;stroke:#b0b0b0;stroke-width:0.8;"/>
    <path d="M 756.763075 339.657365 
L 362.924574 264.851028 
L 119.664867 398.694379 
" style="fill:none;stroke:#b0b0b0;stroke-width:0.8;"/>
    <path d="M 759.11967 301.069618 
L 362.345003 227.349285 
L 117.149575 359.282293 
" style="fill:none;stroke:#b0b0b0;stroke-width:0.8;"/>
    <path d="M 761.511977 261.897117 
L 361.757021 189.30335 
L 114.59489 319.252948 
" style="fill:none;stroke:#b0b0b0;stroke-width:0.8;"/>
    <path d="M 763.940814 222.126471 
L 361.160445 150.701291 
L 111.999878 278.591729 
" style="fill:none;stroke:#b0b0b0;stroke-width:0.8;"/>
    <path d="M 766.407023 181.743872 
L 360.555084 111.530824 
L 109.363577 237.283555 
" style="fill:none;stroke:#b0b0b0;stroke-width:0.8;"/>
    <path d="M 768.911474 140.735088 
L 359.940743 71.779303 
L 106.684994 195.312862 
" style="fill:none;stroke:#b0b0b0;stroke-width:0.8;"/>
   </g>
   <g id="xtick_14">
    <g id="line2d_17">
     <path d="M 751.179515 377.04047 
L 760.971945 378.940446 
" style="fill:none;stroke:#000000;stroke-linecap:square;stroke-width:0.8;"/>
    </g>
    <g id="text_17">
     <!-- 0 -->
     <g transform="translate(770.597237 383.442063)scale(0.1 -0.1)">
      <use xlink:href="#DejaVuSans-48"/>
     </g>
    </g>
   </g>
   <g id="xtick_15">
    <g id="line2d_18">
     <path d="M 753.476045 339.033021 
L 763.344022 340.907361 
" style="fill:none;stroke:#000000;stroke-linecap:square;stroke-width:0.8;"/>
    </g>
    <g id="text_18">
     <!-- 5 -->
     <g transform="translate(773.060755 345.450778)scale(0.1 -0.1)">
      <use xlink:href="#DejaVuSans-53"/>
     </g>
    </g>
   </g>
   <g id="xtick_16">
    <g id="line2d_19">
     <path d="M 755.807103 300.454146 
L 765.751799 302.301861 
" style="fill:none;stroke:#000000;stroke-linecap:square;stroke-width:0.8;"/>
    </g>
    <g id="text_19">
     <!-- 10 -->
     <g transform="translate(772.380037 306.888689)scale(0.1 -0.1)">
      <use xlink:href="#DejaVuSans-49"/>
      <use x="63.623047" xlink:href="#DejaVuSans-48"/>
     </g>
    </g>
   </g>
   <g id="xtick_17">
    <g id="line2d_20">
     <path d="M 758.173472 261.290859 
L 768.19609 263.110923 
" style="fill:none;stroke:#000000;stroke-linecap:square;stroke-width:0.8;"/>
    </g>
    <g id="text_20">
     <!-- 15 -->
     <g transform="translate(774.918423 267.742835)scale(0.1 -0.1)">
      <use xlink:href="#DejaVuSans-49"/>
      <use x="63.623047" xlink:href="#DejaVuSans-53"/>
     </g>
    </g>
   </g>
   <g id="xtick_18">
    <g id="line2d_21">
     <path d="M 760.575962 221.52978 
L 770.67773 223.32113 
" style="fill:none;stroke:#000000;stroke-linecap:square;stroke-width:0.8;"/>
    </g>
    <g id="text_21">
     <!-- 20 -->
     <g transform="translate(777.495529 227.999858)scale(0.1 -0.1)">
      <use xlink:href="#DejaVuSans-50"/>
      <use x="63.623047" xlink:href="#DejaVuSans-48"/>
     </g>
    </g>
   </g>
   <g id="xtick_19">
    <g id="line2d_22">
     <path d="M 763.015406 181.157117 
L 773.197583 182.91865 
" style="fill:none;stroke:#000000;stroke-linecap:square;stroke-width:0.8;"/>
    </g>
    <g id="text_22">
     <!-- 25 -->
     <g transform="translate(780.112248 187.645991)scale(0.1 -0.1)">
      <use xlink:href="#DejaVuSans-50"/>
      <use x="63.623047" xlink:href="#DejaVuSans-53"/>
     </g>
    </g>
   </g>
   <g id="xtick_20">
    <g id="line2d_23">
     <path d="M 765.492663 140.158649 
L 775.756538 141.889221 
" style="fill:none;stroke:#000000;stroke-linecap:square;stroke-width:0.8;"/>
    </g>
    <g id="text_23">
     <!-- 30 -->
     <g transform="translate(782.7695 146.667039)scale(0.1 -0.1)">
      <use xlink:href="#DejaVuSans-51"/>
      <use x="63.623047" xlink:href="#DejaVuSans-48"/>
     </g>
    </g>
   </g>
  </g>
  <g id="axes_1">
   <g id="Poly3DCollection_1">
    <path clip-path="url(#pe76348a6cf)" d="M 344.857892 330.626628 
L 359.303552 333.481439 
L 387.516634 317.355753 
L 373.156643 314.552303 
z
" style="fill:#3b4cc0;"/>
    <path clip-path="url(#pe76348a6cf)" d="M 359.303552 333.481439 
L 373.735096 331.879917 
L 401.910431 318.689323 
L 387.516634 317.355753 
z
" style="fill:#3c4ec2;"/>
    <path clip-path="url(#pe76348a6cf)" d="M 373.735096 331.879917 
L 388.093706 316.789516 
L 416.233475 296.212249 
L 401.910431 318.689323 
z
" style="fill:#4c66d6;"/>
    <path clip-path="url(#pe76348a6cf)" d="M 316.038723 346.996563 
L 330.570788 349.904158 
L 359.303552 333.481439 
L 344.857892 330.626628 
z
" style="fill:#3b4cc0;"/>
    <path clip-path="url(#pe76348a6cf)" d="M 330.570788 349.904158 
L 345.063744 348.328907 
L 373.735096 331.879917 
L 359.303552 333.481439 
z
" style="fill:#3d50c3;"/>
    <path clip-path="url(#pe76348a6cf)" d="M 345.063744 348.328907 
L 359.407677 333.18333 
L 388.093706 316.789516 
L 373.735096 331.879917 
z
" style="fill:#4c66d6;"/>
    <path clip-path="url(#pe76348a6cf)" d="M 388.093706 316.789516 
L 402.3354 268.020243 
L 430.629365 226.148459 
L 416.233475 296.212249 
z
" style="fill:#8badfd;"/>
    <path clip-path="url(#pe76348a6cf)" d="M 286.684648 363.670337 
L 301.30385 366.632194 
L 330.570788 349.904158 
L 316.038723 346.996563 
z
" style="fill:#3b4cc0;"/>
    <path clip-path="url(#pe76348a6cf)" d="M 301.30385 366.632194 
L 315.858015 365.084474 
L 345.063744 348.328907 
L 330.570788 349.904158 
z
" style="fill:#3d50c3;"/>
    <path clip-path="url(#pe76348a6cf)" d="M 359.407677 333.18333 
L 373.026896 253.098391 
L 402.3354 268.020243 
L 388.093706 316.789516 
z
" style="fill:#8badfd;"/>
    <path clip-path="url(#pe76348a6cf)" d="M 315.858015 365.084474 
L 329.644027 325.446276 
L 359.407677 333.18333 
L 345.063744 348.328907 
z
" style="fill:#5470de;"/>
    <path clip-path="url(#pe76348a6cf)" d="M 256.780635 380.656487 
L 271.487703 383.67414 
L 301.30385 366.632194 
L 286.684648 363.670337 
z
" style="fill:#3b4cc0;"/>
    <path clip-path="url(#pe76348a6cf)" d="M 271.487703 383.67414 
L 286.055934 380.637965 
L 315.858015 365.084474 
L 301.30385 366.632194 
z
" style="fill:#3d50c3;"/>
    <path clip-path="url(#pe76348a6cf)" d="M 582.426513 350.117287 
L 597.633228 356.147654 
L 624.711468 333.240407 
L 609.306064 336.385793 
z
" style="fill:#5e7de7;"/>
    <path clip-path="url(#pe76348a6cf)" d="M 567.69579 325.726178 
L 582.426513 350.117287 
L 609.306064 336.385793 
L 594.788702 312.202379 
z
" style="fill:#6c8ff1;"/>
    <path clip-path="url(#pe76348a6cf)" d="M 597.633228 356.147654 
L 612.771001 365.239162 
L 639.274449 354.359907 
L 624.711468 333.240407 
z
" style="fill:#5673e0;"/>
    <path clip-path="url(#pe76348a6cf)" d="M 612.771001 365.239162 
L 627.867673 375.859867 
L 654.528601 357.318006 
L 639.274449 354.359907 
z
" style="fill:#4b64d5;"/>
    <path clip-path="url(#pe76348a6cf)" d="M 402.3354 268.020243 
L 416.609591 157.884774 
L 445.484347 155.432347 
L 430.629365 226.148459 
z
" style="fill:#edd1c2;"/>
    <path clip-path="url(#pe76348a6cf)" d="M 627.867673 375.859867 
L 643.028841 384.966143 
L 669.6988 363.311443 
L 654.528601 357.318006 
z
" style="fill:#465ecf;"/>
    <path clip-path="url(#pe76348a6cf)" d="M 552.531027 318.181919 
L 567.69579 325.726178 
L 594.788702 312.202379 
L 579.95568 297.099713 
z
" style="fill:#82a6fb;"/>
    <path clip-path="url(#pe76348a6cf)" d="M 643.028841 384.966143 
L 658.332399 391.046374 
L 684.829328 370.828748 
L 669.6988 363.311443 
z
" style="fill:#4055c8;"/>
    <path clip-path="url(#pe76348a6cf)" d="M 537.698644 293.666912 
L 552.531027 318.181919 
L 579.95568 297.099713 
L 565.209316 277.361406 
z
" style="fill:#97b8ff;"/>
    <path clip-path="url(#pe76348a6cf)" d="M 658.332399 391.046374 
L 673.875283 392.581654 
L 700.058781 376.847213 
L 684.829328 370.828748 
z
" style="fill:#3d50c3;"/>
    <path clip-path="url(#pe76348a6cf)" d="M 673.875283 392.581654 
L 689.331632 397.16748 
L 715.40104 381.367467 
L 700.058781 376.847213 
z
" style="fill:#3c4ec2;"/>
    <path clip-path="url(#pe76348a6cf)" d="M 329.644027 325.446276 
L 343.678642 283.44409 
L 373.026896 253.098391 
L 359.407677 333.18333 
z
" style="fill:#9abbff;"/>
    <path clip-path="url(#pe76348a6cf)" d="M 286.055934 380.637965 
L 299.241923 325.270569 
L 329.644027 325.446276 
L 315.858015 365.084474 
z
" style="fill:#6384eb;"/>
    <path clip-path="url(#pe76348a6cf)" d="M 226.311083 397.963877 
L 241.046012 399.516798 
L 271.487703 383.67414 
L 256.780635 380.656487 
z
" style="fill:#3b4cc0;"/>
    <path clip-path="url(#pe76348a6cf)" d="M 523.101864 248.665126 
L 537.698644 293.666912 
L 565.209316 277.361406 
L 550.925982 232.678875 
z
" style="fill:#c3d5f4;"/>
    <path clip-path="url(#pe76348a6cf)" d="M 241.046012 399.516798 
L 255.216333 384.244 
L 286.055934 380.637965 
L 271.487703 383.67414 
z
" style="fill:#4358cb;"/>
    <path clip-path="url(#pe76348a6cf)" d="M 570.144354 377.903142 
L 585.484948 384.021459 
L 612.771001 365.239162 
L 597.633228 356.147654 
z
" style="fill:#5470de;"/>
    <path clip-path="url(#pe76348a6cf)" d="M 555.273459 351.803134 
L 570.144354 377.903142 
L 597.633228 356.147654 
L 582.426513 350.117287 
z
" style="fill:#6180e9;"/>
    <path clip-path="url(#pe76348a6cf)" d="M 539.850626 350.336976 
L 555.273459 351.803134 
L 582.426513 350.117287 
L 567.69579 325.726178 
z
" style="fill:#7295f4;"/>
    <path clip-path="url(#pe76348a6cf)" d="M 585.484948 384.021459 
L 600.953313 387.088149 
L 627.867673 375.859867 
L 612.771001 365.239162 
z
" style="fill:#4f69d9;"/>
    <path clip-path="url(#pe76348a6cf)" d="M 600.953313 387.088149 
L 616.316777 394.765688 
L 643.028841 384.966143 
L 627.867673 375.859867 
z
" style="fill:#4961d2;"/>
    <path clip-path="url(#pe76348a6cf)" d="M 373.026896 253.098391 
L 387.15753 171.721911 
L 416.609591 157.884774 
L 402.3354 268.020243 
z
" style="fill:#f1cdba;"/>
    <path clip-path="url(#pe76348a6cf)" d="M 616.316777 394.765688 
L 631.533369 407.043849 
L 658.332399 391.046374 
L 643.028841 384.966143 
z
" style="fill:#4055c8;"/>
    <path clip-path="url(#pe76348a6cf)" d="M 525.201301 303.856436 
L 539.850626 350.336976 
L 567.69579 325.726178 
L 552.531027 318.181919 
z
" style="fill:#8badfd;"/>
    <path clip-path="url(#pe76348a6cf)" d="M 631.533369 407.043849 
L 646.991533 413.214044 
L 673.875283 392.581654 
L 658.332399 391.046374 
z
" style="fill:#3d50c3;"/>
    <path clip-path="url(#pe76348a6cf)" d="M 508.354645 199.883168 
L 523.101864 248.665126 
L 550.925982 232.678875 
L 536.402818 190.591063 
z
" style="fill:#f0cdbb;"/>
    <path clip-path="url(#pe76348a6cf)" d="M 509.884477 293.080814 
L 525.201301 303.856436 
L 552.531027 318.181919 
L 537.698644 293.666912 
z
" style="fill:#a7c5fe;"/>
    <path clip-path="url(#pe76348a6cf)" d="M 646.991533 413.214044 
L 662.748213 413.279022 
L 689.331632 397.16748 
L 673.875283 392.581654 
z
" style="fill:#3d50c3;"/>
    <path clip-path="url(#pe76348a6cf)" d="M 416.609591 157.884774 
L 431.761463 131.536534 
L 460.749006 101.977889 
L 445.484347 155.432347 
z
" style="fill:#e36b54;"/>
    <path clip-path="url(#pe76348a6cf)" d="M 195.259796 415.601705 
L 209.932552 414.139058 
L 241.046012 399.516798 
L 226.311083 397.963877 
z
" style="fill:#3c4ec2;"/>
    <path clip-path="url(#pe76348a6cf)" d="M 494.55721 283.88035 
L 509.884477 293.080814 
L 537.698644 293.666912 
L 523.101864 248.665126 
z
" style="fill:#c3d5f4;"/>
    <path clip-path="url(#pe76348a6cf)" d="M 493.047279 187.516901 
L 508.354645 199.883168 
L 536.402818 190.591063 
L 521.285972 176.766918 
z
" style="fill:#f7ad90;"/>
    <path clip-path="url(#pe76348a6cf)" d="M 255.216333 384.244 
L 268.422718 336.089948 
L 299.241923 325.270569 
L 286.055934 380.637965 
z
" style="fill:#7295f4;"/>
    <path clip-path="url(#pe76348a6cf)" d="M 299.241923 325.270569 
L 312.418635 254.054418 
L 343.678642 283.44409 
L 329.644027 325.446276 
z
" style="fill:#b5cdfa;"/>
    <path clip-path="url(#pe76348a6cf)" d="M 542.299193 393.874513 
L 557.622696 406.230814 
L 585.484948 384.021459 
L 570.144354 377.903142 
z
" style="fill:#516ddb;"/>
    <path clip-path="url(#pe76348a6cf)" d="M 557.622696 406.230814 
L 573.178445 409.361613 
L 600.953313 387.088149 
L 585.484948 384.021459 
z
" style="fill:#4c66d6;"/>
    <path clip-path="url(#pe76348a6cf)" d="M 527.354088 358.216967 
L 542.299193 393.874513 
L 570.144354 377.903142 
L 555.273459 351.803134 
z
" style="fill:#688aef;"/>
    <path clip-path="url(#pe76348a6cf)" d="M 478.146931 111.747838 
L 493.047279 187.516901 
L 521.285972 176.766918 
L 506.401913 142.129113 
z
" style="fill:#e9785d;"/>
    <path clip-path="url(#pe76348a6cf)" d="M 479.528794 233.461559 
L 494.55721 283.88035 
L 523.101864 248.665126 
L 508.354645 199.883168 
z
" style="fill:#ead4c8;"/>
    <path clip-path="url(#pe76348a6cf)" d="M 511.868367 352.043601 
L 527.354088 358.216967 
L 555.273459 351.803134 
L 539.850626 350.336976 
z
" style="fill:#7ea1fa;"/>
    <path clip-path="url(#pe76348a6cf)" d="M 209.932552 414.139058 
L 222.261082 356.685548 
L 255.216333 384.244 
L 241.046012 399.516798 
z
" style="fill:#5875e1;"/>
    <path clip-path="url(#pe76348a6cf)" d="M 573.178445 409.361613 
L 589.008644 404.783906 
L 616.316777 394.765688 
L 600.953313 387.088149 
z
" style="fill:#4e68d8;"/>
    <path clip-path="url(#pe76348a6cf)" d="M 343.678642 283.44409 
L 357.035626 180.952879 
L 387.15753 171.721911 
L 373.026896 253.098391 
z
" style="fill:#f4c6af;"/>
    <path clip-path="url(#pe76348a6cf)" d="M 431.761463 131.536534 
L 447.117966 124.442071 
L 476.181402 81.773182 
L 460.749006 101.977889 
z
" style="fill:#bd1f2d;"/>
    <path clip-path="url(#pe76348a6cf)" d="M 589.008644 404.783906 
L 604.447927 415.655007 
L 631.533369 407.043849 
L 616.316777 394.765688 
z
" style="fill:#4a63d3;"/>
    <path clip-path="url(#pe76348a6cf)" d="M 496.578067 330.22904 
L 511.868367 352.043601 
L 539.850626 350.336976 
L 525.201301 303.856436 
z
" style="fill:#96b7ff;"/>
    <path clip-path="url(#pe76348a6cf)" d="M 604.447927 415.655007 
L 619.946253 424.989209 
L 646.991533 413.214044 
L 631.533369 407.043849 
z
" style="fill:#4055c8;"/>
    <path clip-path="url(#pe76348a6cf)" d="M 619.946253 424.989209 
L 635.694239 428.169241 
L 662.748213 413.279022 
L 646.991533 413.214044 
z
" style="fill:#3f53c6;"/>
    <path clip-path="url(#pe76348a6cf)" d="M 481.100382 325.650401 
L 496.578067 330.22904 
L 525.201301 303.856436 
L 509.884477 293.080814 
z
" style="fill:#afcafc;"/>
    <path clip-path="url(#pe76348a6cf)" d="M 465.788394 292.692688 
L 481.100382 325.650401 
L 509.884477 293.080814 
L 494.55721 283.88035 
z
" style="fill:#bfd3f6;"/>
    <path clip-path="url(#pe76348a6cf)" d="M 387.15753 171.721911 
L 402.197435 138.665274 
L 431.761463 131.536534 
L 416.609591 157.884774 
z
" style="fill:#e16751;"/>
    <path clip-path="url(#pe76348a6cf)" d="M 462.600601 112.378731 
L 478.146931 111.747838 
L 506.401913 142.129113 
L 491.402115 105.563636 
z
" style="fill:#c12b30;"/>
    <path clip-path="url(#pe76348a6cf)" d="M 447.117966 124.442071 
L 462.600601 112.378731 
L 491.402115 105.563636 
L 476.181402 81.773182 
z
" style="fill:#b40426;"/>
    <path clip-path="url(#pe76348a6cf)" d="M 464.197612 201.724692 
L 479.528794 233.461559 
L 508.354645 199.883168 
L 493.047279 187.516901 
z
" style="fill:#f7af91;"/>
    <path clip-path="url(#pe76348a6cf)" d="M 163.609953 433.579526 
L 177.036767 407.34118 
L 209.932552 414.139058 
L 195.259796 415.601705 
z
" style="fill:#455cce;"/>
    <path clip-path="url(#pe76348a6cf)" d="M 450.321947 280.215622 
L 465.788394 292.692688 
L 494.55721 283.88035 
L 479.528794 233.461559 
z
" style="fill:#dbdcde;"/>
    <path clip-path="url(#pe76348a6cf)" d="M 514.136549 393.029065 
L 529.457492 417.992564 
L 557.622696 406.230814 
L 542.299193 393.874513 
z
" style="fill:#5977e3;"/>
    <path clip-path="url(#pe76348a6cf)" d="M 529.457492 417.992564 
L 545.104036 422.730207 
L 573.178445 409.361613 
L 557.622696 406.230814 
z
" style="fill:#4e68d8;"/>
    <path clip-path="url(#pe76348a6cf)" d="M 402.197435 138.665274 
L 417.763983 160.986595 
L 447.117966 124.442071 
L 431.761463 131.536534 
z
" style="fill:#d0473d;"/>
    <path clip-path="url(#pe76348a6cf)" d="M 498.497527 389.889088 
L 514.136549 393.029065 
L 542.299193 393.874513 
L 527.354088 358.216967 
z
" style="fill:#6f92f3;"/>
    <path clip-path="url(#pe76348a6cf)" d="M 545.104036 422.730207 
L 560.577886 436.780609 
L 589.008644 404.783906 
L 573.178445 409.361613 
z
" style="fill:#4c66d6;"/>
    <path clip-path="url(#pe76348a6cf)" d="M 448.758921 159.946279 
L 464.197612 201.724692 
L 493.047279 187.516901 
L 478.146931 111.747838 
z
" style="fill:#e46e56;"/>
    <path clip-path="url(#pe76348a6cf)" d="M 268.422718 336.089948 
L 281.09117 259.412176 
L 312.418635 254.054418 
L 299.241923 325.270569 
z
" style="fill:#cedaeb;"/>
    <path clip-path="url(#pe76348a6cf)" d="M 483.045548 369.54516 
L 498.497527 389.889088 
L 527.354088 358.216967 
L 511.868367 352.043601 
z
" style="fill:#82a6fb;"/>
    <path clip-path="url(#pe76348a6cf)" d="M 222.261082 356.685548 
L 235.321084 307.293759 
L 268.422718 336.089948 
L 255.216333 384.244 
z
" style="fill:#9abbff;"/>
    <path clip-path="url(#pe76348a6cf)" d="M 417.763983 160.986595 
L 433.200476 147.378325 
L 462.600601 112.378731 
L 447.117966 124.442071 
z
" style="fill:#ca3b37;"/>
    <path clip-path="url(#pe76348a6cf)" d="M 467.50441 357.016649 
L 483.045548 369.54516 
L 511.868367 352.043601 
L 496.578067 330.22904 
z
" style="fill:#94b6ff;"/>
    <path clip-path="url(#pe76348a6cf)" d="M 560.577886 436.780609 
L 576.528683 432.245326 
L 604.447927 415.655007 
L 589.008644 404.783906 
z
" style="fill:#4b64d5;"/>
    <path clip-path="url(#pe76348a6cf)" d="M 312.418635 254.054418 
L 326.646517 208.415098 
L 357.035626 180.952879 
L 343.678642 283.44409 
z
" style="fill:#f6bea4;"/>
    <path clip-path="url(#pe76348a6cf)" d="M 434.772041 219.468367 
L 450.321947 280.215622 
L 479.528794 233.461559 
L 464.197612 201.724692 
z
" style="fill:#f6bfa6;"/>
    <path clip-path="url(#pe76348a6cf)" d="M 576.528683 432.245326 
L 592.123467 443.232014 
L 619.946253 424.989209 
L 604.447927 415.655007 
z
" style="fill:#465ecf;"/>
    <path clip-path="url(#pe76348a6cf)" d="M 452.00671 315.914713 
L 467.50441 357.016649 
L 496.578067 330.22904 
L 481.100382 325.650401 
z
" style="fill:#adc9fd;"/>
    <path clip-path="url(#pe76348a6cf)" d="M 592.123467 443.232014 
L 607.926483 448.025827 
L 635.694239 428.169241 
L 619.946253 424.989209 
z
" style="fill:#4257c9;"/>
    <path clip-path="url(#pe76348a6cf)" d="M 433.200476 147.378325 
L 448.758921 159.946279 
L 478.146931 111.747838 
L 462.600601 112.378731 
z
" style="fill:#c12b30;"/>
    <path clip-path="url(#pe76348a6cf)" d="M 357.035626 180.952879 
L 372.050395 152.566313 
L 402.197435 138.665274 
L 387.15753 171.721911 
z
" style="fill:#dc5d4a;"/>
    <path clip-path="url(#pe76348a6cf)" d="M 436.357149 293.686268 
L 452.00671 315.914713 
L 481.100382 325.650401 
L 465.788394 292.692688 
z
" style="fill:#cbd8ee;"/>
    <path clip-path="url(#pe76348a6cf)" d="M 419.168371 210.115611 
L 434.772041 219.468367 
L 464.197612 201.724692 
L 448.758921 159.946279 
z
" style="fill:#f18f71;"/>
    <path clip-path="url(#pe76348a6cf)" d="M 420.708226 285.874874 
L 436.357149 293.686268 
L 465.788394 292.692688 
L 450.321947 280.215622 
z
" style="fill:#dddcdc;"/>
    <path clip-path="url(#pe76348a6cf)" d="M 405.119534 282.896689 
L 420.708226 285.874874 
L 450.321947 280.215622 
L 434.772041 219.468367 
z
" style="fill:#edd1c2;"/>
    <path clip-path="url(#pe76348a6cf)" d="M 177.036767 407.34118 
L 185.224981 271.068261 
L 222.261082 356.685548 
L 209.932552 414.139058 
z
" style="fill:#97b8ff;"/>
    <path clip-path="url(#pe76348a6cf)" d="M 403.406707 177.880224 
L 419.168371 210.115611 
L 448.758921 159.946279 
L 433.200476 147.378325 
z
" style="fill:#e16751;"/>
    <path clip-path="url(#pe76348a6cf)" d="M 469.302268 409.473607 
L 484.961966 422.090502 
L 514.136549 393.029065 
L 498.497527 389.889088 
z
" style="fill:#6c8ff1;"/>
    <path clip-path="url(#pe76348a6cf)" d="M 372.050395 152.566313 
L 387.540155 147.052934 
L 417.763983 160.986595 
L 402.197435 138.665274 
z
" style="fill:#cb3e38;"/>
    <path clip-path="url(#pe76348a6cf)" d="M 484.961966 422.090502 
L 500.777435 420.607931 
L 529.457492 417.992564 
L 514.136549 393.029065 
z
" style="fill:#6384eb;"/>
    <path clip-path="url(#pe76348a6cf)" d="M 387.540155 147.052934 
L 403.406707 177.880224 
L 433.200476 147.378325 
L 417.763983 160.986595 
z
" style="fill:#d24b40;"/>
    <path clip-path="url(#pe76348a6cf)" d="M 453.670065 381.061714 
L 469.302268 409.473607 
L 498.497527 389.889088 
L 483.045548 369.54516 
z
" style="fill:#80a3fa;"/>
    <path clip-path="url(#pe76348a6cf)" d="M 500.777435 420.607931 
L 516.631506 422.265987 
L 545.104036 422.730207 
L 529.457492 417.992564 
z
" style="fill:#5d7ce6;"/>
    <path clip-path="url(#pe76348a6cf)" d="M 516.631506 422.265987 
L 532.189892 444.335703 
L 560.577886 436.780609 
L 545.104036 422.730207 
z
" style="fill:#536edd;"/>
    <path clip-path="url(#pe76348a6cf)" d="M 532.189892 444.335703 
L 548.010668 450.735567 
L 576.528683 432.245326 
L 560.577886 436.780609 
z
" style="fill:#4a63d3;"/>
    <path clip-path="url(#pe76348a6cf)" d="M 437.952764 368.39617 
L 453.670065 381.061714 
L 483.045548 369.54516 
L 467.50441 357.016649 
z
" style="fill:#96b7ff;"/>
    <path clip-path="url(#pe76348a6cf)" d="M 389.09792 233.002781 
L 405.119534 282.896689 
L 434.772041 219.468367 
L 419.168371 210.115611 
z
" style="fill:#f7b194;"/>
    <path clip-path="url(#pe76348a6cf)" d="M 548.010668 450.735567 
L 563.97917 452.457022 
L 592.123467 443.232014 
L 576.528683 432.245326 
z
" style="fill:#4a63d3;"/>
    <path clip-path="url(#pe76348a6cf)" d="M 422.204642 349.349526 
L 437.952764 368.39617 
L 467.50441 357.016649 
L 452.00671 315.914713 
z
" style="fill:#afcafc;"/>
    <path clip-path="url(#pe76348a6cf)" d="M 326.646517 208.415098 
L 341.765784 191.578384 
L 372.050395 152.566313 
L 357.035626 180.952879 
z
" style="fill:#e36b54;"/>
    <path clip-path="url(#pe76348a6cf)" d="M 563.97917 452.457022 
L 579.799794 462.01484 
L 607.926483 448.025827 
L 592.123467 443.232014 
z
" style="fill:#455cce;"/>
    <path clip-path="url(#pe76348a6cf)" d="M 235.321084 307.293759 
L 249.12631 268.171367 
L 281.09117 259.412176 
L 268.422718 336.089948 
z
" style="fill:#e2dad5;"/>
    <path clip-path="url(#pe76348a6cf)" d="M 406.493327 341.457262 
L 422.204642 349.349526 
L 452.00671 315.914713 
L 436.357149 293.686268 
z
" style="fill:#cad8ef;"/>
    <path clip-path="url(#pe76348a6cf)" d="M 281.09117 259.412176 
L 294.533808 191.72293 
L 326.646517 208.415098 
L 312.418635 254.054418 
z
" style="fill:#f6a385;"/>
    <path clip-path="url(#pe76348a6cf)" d="M 373.017075 195.626135 
L 389.09792 233.002781 
L 419.168371 210.115611 
L 403.406707 177.880224 
z
" style="fill:#ec8165;"/>
    <path clip-path="url(#pe76348a6cf)" d="M 390.37803 291.671046 
L 406.493327 341.457262 
L 436.357149 293.686268 
L 420.708226 285.874874 
z
" style="fill:#dfdbd9;"/>
    <path clip-path="url(#pe76348a6cf)" d="M 374.825536 301.598853 
L 390.37803 291.671046 
L 420.708226 285.874874 
L 405.119534 282.896689 
z
" style="fill:#e9d5cb;"/>
    <path clip-path="url(#pe76348a6cf)" d="M 359.142046 295.342013 
L 374.825536 301.598853 
L 405.119534 282.896689 
L 389.09792 233.002781 
z
" style="fill:#efcebd;"/>
    <path clip-path="url(#pe76348a6cf)" d="M 341.765784 191.578384 
L 357.429078 197.719925 
L 387.540155 147.052934 
L 372.050395 152.566313 
z
" style="fill:#d44e41;"/>
    <path clip-path="url(#pe76348a6cf)" d="M 357.429078 197.719925 
L 373.017075 195.626135 
L 403.406707 177.880224 
L 387.540155 147.052934 
z
" style="fill:#d85646;"/>
    <path clip-path="url(#pe76348a6cf)" d="M 439.543401 423.10952 
L 455.414729 420.025298 
L 484.961966 422.090502 
L 469.302268 409.473607 
z
" style="fill:#7093f3;"/>
    <path clip-path="url(#pe76348a6cf)" d="M 455.414729 420.025298 
L 471.179964 453.327955 
L 500.777435 420.607931 
L 484.961966 422.090502 
z
" style="fill:#6788ee;"/>
    <path clip-path="url(#pe76348a6cf)" d="M 423.674372 402.40641 
L 439.543401 423.10952 
L 469.302268 409.473607 
L 453.670065 381.061714 
z
" style="fill:#81a4fb;"/>
    <path clip-path="url(#pe76348a6cf)" d="M 471.179964 453.327955 
L 487.154157 447.181953 
L 516.631506 422.265987 
L 500.777435 420.607931 
z
" style="fill:#6282ea;"/>
    <path clip-path="url(#pe76348a6cf)" d="M 342.708674 248.399752 
L 359.142046 295.342013 
L 389.09792 233.002781 
L 373.017075 195.626135 
z
" style="fill:#f7a889;"/>
    <path clip-path="url(#pe76348a6cf)" d="M 487.154157 447.181953 
L 503.018959 459.960765 
L 532.189892 444.335703 
L 516.631506 422.265987 
z
" style="fill:#5b7ae5;"/>
    <path clip-path="url(#pe76348a6cf)" d="M 375.952231 356.018546 
L 392.063771 389.614831 
L 422.204642 349.349526 
L 406.493327 341.457262 
z
" style="fill:#b5cdfa;"/>
    <path clip-path="url(#pe76348a6cf)" d="M 503.018959 459.960765 
L 519.045651 461.717506 
L 548.010668 450.735567 
L 532.189892 444.335703 
z
" style="fill:#516ddb;"/>
    <path clip-path="url(#pe76348a6cf)" d="M 392.063771 389.614831 
L 407.672218 370.398185 
L 437.952764 368.39617 
L 422.204642 349.349526 
z
" style="fill:#aac7fd;"/>
    <path clip-path="url(#pe76348a6cf)" d="M 407.672218 370.398185 
L 423.674372 402.40641 
L 453.670065 381.061714 
L 437.952764 368.39617 
z
" style="fill:#9fbfff;"/>
    <path clip-path="url(#pe76348a6cf)" d="M 294.533808 191.72293 
L 310.480296 204.581922 
L 341.765784 191.578384 
L 326.646517 208.415098 
z
" style="fill:#e26952;"/>
    <path clip-path="url(#pe76348a6cf)" d="M 519.045651 461.717506 
L 535.022876 469.794462 
L 563.97917 452.457022 
L 548.010668 450.735567 
z
" style="fill:#506bda;"/>
    <path clip-path="url(#pe76348a6cf)" d="M 328.111239 312.697965 
L 344.415795 344.914444 
L 374.825536 301.598853 
L 359.142046 295.342013 
z
" style="fill:#dfdbd9;"/>
    <path clip-path="url(#pe76348a6cf)" d="M 185.224981 271.068261 
L 199.789565 252.570787 
L 235.321084 307.293759 
L 222.261082 356.685548 
z
" style="fill:#ebd3c6;"/>
    <path clip-path="url(#pe76348a6cf)" d="M 360.229308 354.48015 
L 375.952231 356.018546 
L 406.493327 341.457262 
L 390.37803 291.671046 
z
" style="fill:#cedaeb;"/>
    <path clip-path="url(#pe76348a6cf)" d="M 344.415795 344.914444 
L 360.229308 354.48015 
L 390.37803 291.671046 
L 374.825536 301.598853 
z
" style="fill:#d9dce1;"/>
    <path clip-path="url(#pe76348a6cf)" d="M 310.480296 204.581922 
L 326.643059 227.357127 
L 357.429078 197.719925 
L 341.765784 191.578384 
z
" style="fill:#e57058;"/>
    <path clip-path="url(#pe76348a6cf)" d="M 326.643059 227.357127 
L 342.708674 248.399752 
L 373.017075 195.626135 
L 357.429078 197.719925 
z
" style="fill:#ec8165;"/>
    <path clip-path="url(#pe76348a6cf)" d="M 535.022876 469.794462 
L 551.161738 471.576574 
L 579.799794 462.01484 
L 563.97917 452.457022 
z
" style="fill:#4e68d8;"/>
    <path clip-path="url(#pe76348a6cf)" d="M 249.12631 268.171367 
L 263.03624 223.26963 
L 294.533808 191.72293 
L 281.09117 259.412176 
z
" style="fill:#f39475;"/>
    <path clip-path="url(#pe76348a6cf)" d="M 311.511278 273.649662 
L 328.111239 312.697965 
L 359.142046 295.342013 
L 342.708674 248.399752 
z
" style="fill:#f4c5ad;"/>
    <path clip-path="url(#pe76348a6cf)" d="M 345.351584 401.529289 
L 361.434392 420.776594 
L 392.063771 389.614831 
L 375.952231 356.018546 
z
" style="fill:#9fbfff;"/>
    <path clip-path="url(#pe76348a6cf)" d="M 361.434392 420.776594 
L 377.367951 432.026073 
L 407.672218 370.398185 
L 392.063771 389.614831 
z
" style="fill:#94b6ff;"/>
    <path clip-path="url(#pe76348a6cf)" d="M 393.227792 435.326965 
L 409.154221 440.233711 
L 439.543401 423.10952 
L 423.674372 402.40641 
z
" style="fill:#7da0f9;"/>
    <path clip-path="url(#pe76348a6cf)" d="M 313.461618 379.016921 
L 329.114868 377.389365 
L 360.229308 354.48015 
L 344.415795 344.914444 
z
" style="fill:#bed2f6;"/>
    <path clip-path="url(#pe76348a6cf)" d="M 297.570957 369.378758 
L 313.461618 379.016921 
L 344.415795 344.914444 
L 328.111239 312.697965 
z
" style="fill:#c9d7f0;"/>
    <path clip-path="url(#pe76348a6cf)" d="M 409.154221 440.233711 
L 425.184321 461.049026 
L 455.414729 420.025298 
L 439.543401 423.10952 
z
" style="fill:#7295f4;"/>
    <path clip-path="url(#pe76348a6cf)" d="M 296.051113 280.476569 
L 311.511278 273.649662 
L 342.708674 248.399752 
L 326.643059 227.357127 
z
" style="fill:#f7a889;"/>
    <path clip-path="url(#pe76348a6cf)" d="M 425.184321 461.049026 
L 441.145786 451.68443 
L 471.179964 453.327955 
L 455.414729 420.025298 
z
" style="fill:#688aef;"/>
    <path clip-path="url(#pe76348a6cf)" d="M 377.367951 432.026073 
L 393.227792 435.326965 
L 423.674372 402.40641 
L 407.672218 370.398185 
z
" style="fill:#8fb1fe;"/>
    <path clip-path="url(#pe76348a6cf)" d="M 329.114868 377.389365 
L 345.351584 401.529289 
L 375.952231 356.018546 
L 360.229308 354.48015 
z
" style="fill:#b6cefa;"/>
    <path clip-path="url(#pe76348a6cf)" d="M 441.145786 451.68443 
L 457.187939 463.006183 
L 487.154157 447.181953 
L 471.179964 453.327955 
z
" style="fill:#6384eb;"/>
    <path clip-path="url(#pe76348a6cf)" d="M 279.361994 244.515951 
L 296.051113 280.476569 
L 326.643059 227.357127 
L 310.480296 204.581922 
z
" style="fill:#f18f71;"/>
    <path clip-path="url(#pe76348a6cf)" d="M 281.746842 361.363438 
L 297.570957 369.378758 
L 328.111239 312.697965 
L 311.511278 273.649662 
z
" style="fill:#dedcdb;"/>
    <path clip-path="url(#pe76348a6cf)" d="M 457.187939 463.006183 
L 473.19776 480.674049 
L 503.018959 459.960765 
L 487.154157 447.181953 
z
" style="fill:#5b7ae5;"/>
    <path clip-path="url(#pe76348a6cf)" d="M 199.789565 252.570787 
L 215.039573 245.57672 
L 249.12631 268.171367 
L 235.321084 307.293759 
z
" style="fill:#f7b093;"/>
    <path clip-path="url(#pe76348a6cf)" d="M 473.19776 480.674049 
L 489.376616 476.137877 
L 519.045651 461.717506 
L 503.018959 459.960765 
z
" style="fill:#5673e0;"/>
    <path clip-path="url(#pe76348a6cf)" d="M 264.93502 324.140274 
L 281.746842 361.363438 
L 311.511278 273.649662 
L 296.051113 280.476569 
z
" style="fill:#edd1c2;"/>
    <path clip-path="url(#pe76348a6cf)" d="M 263.03624 223.26963 
L 279.361994 244.515951 
L 310.480296 204.581922 
L 294.533808 191.72293 
z
" style="fill:#e36b54;"/>
    <path clip-path="url(#pe76348a6cf)" d="M 489.376616 476.137877 
L 505.466151 487.491406 
L 535.022876 469.794462 
L 519.045651 461.717506 
z
" style="fill:#5572df;"/>
    <path clip-path="url(#pe76348a6cf)" d="M 248.578534 303.024512 
L 264.93502 324.140274 
L 296.051113 280.476569 
L 279.361994 244.515951 
z
" style="fill:#f6bea4;"/>
    <path clip-path="url(#pe76348a6cf)" d="M 505.466151 487.491406 
L 521.685969 490.918174 
L 551.161738 471.576574 
L 535.022876 469.794462 
z
" style="fill:#516ddb;"/>
    <path clip-path="url(#pe76348a6cf)" d="M 215.039573 245.57672 
L 231.895975 275.219891 
L 263.03624 223.26963 
L 249.12631 268.171367 
z
" style="fill:#f39475;"/>
    <path clip-path="url(#pe76348a6cf)" d="M 231.895975 275.219891 
L 248.578534 303.024512 
L 279.361994 244.515951 
L 263.03624 223.26963 
z
" style="fill:#f59d7e;"/>
   </g>
   <g id="text_24">
    <!-- Distribution of Wealth -->
    <defs>
     <path d="M 19.671875 64.796875 
L 19.671875 8.109375 
L 31.59375 8.109375 
Q 46.6875 8.109375 53.6875 14.9375 
Q 60.6875 21.78125 60.6875 36.53125 
Q 60.6875 51.171875 53.6875 57.984375 
Q 46.6875 64.796875 31.59375 64.796875 
z
M 9.8125 72.90625 
L 30.078125 72.90625 
Q 51.265625 72.90625 61.171875 64.09375 
Q 71.09375 55.28125 71.09375 36.53125 
Q 71.09375 17.671875 61.125 8.828125 
Q 51.171875 0 30.078125 0 
L 9.8125 0 
z
" id="DejaVuSans-68"/>
     <path d="M 8.5 21.578125 
L 8.5 54.6875 
L 17.484375 54.6875 
L 17.484375 21.921875 
Q 17.484375 14.15625 20.5 10.265625 
Q 23.53125 6.390625 29.59375 6.390625 
Q 36.859375 6.390625 41.078125 11.03125 
Q 45.3125 15.671875 45.3125 23.6875 
L 45.3125 54.6875 
L 54.296875 54.6875 
L 54.296875 0 
L 45.3125 0 
L 45.3125 8.40625 
Q 42.046875 3.421875 37.71875 1 
Q 33.40625 -1.421875 27.6875 -1.421875 
Q 18.265625 -1.421875 13.375 4.4375 
Q 8.5 10.296875 8.5 21.578125 
z
M 31.109375 56 
z
" id="DejaVuSans-117"/>
    </defs>
    <g transform="translate(366.63 49.152)scale(0.12 -0.12)">
     <use xlink:href="#DejaVuSans-68"/>
     <use x="77.001953" xlink:href="#DejaVuSans-105"/>
     <use x="104.785156" xlink:href="#DejaVuSans-115"/>
     <use x="156.884766" xlink:href="#DejaVuSans-116"/>
     <use x="196.09375" xlink:href="#DejaVuSans-114"/>
     <use x="237.207031" xlink:href="#DejaVuSans-105"/>
     <use x="264.990234" xlink:href="#DejaVuSans-98"/>
     <use x="328.466797" xlink:href="#DejaVuSans-117"/>
     <use x="391.845703" xlink:href="#DejaVuSans-116"/>
     <use x="431.054688" xlink:href="#DejaVuSans-105"/>
     <use x="458.837891" xlink:href="#DejaVuSans-111"/>
     <use x="520.019531" xlink:href="#DejaVuSans-110"/>
     <use x="583.398438" xlink:href="#DejaVuSans-32"/>
     <use x="615.185547" xlink:href="#DejaVuSans-111"/>
     <use x="676.367188" xlink:href="#DejaVuSans-102"/>
     <use x="711.572266" xlink:href="#DejaVuSans-32"/>
     <use x="743.359375" xlink:href="#DejaVuSans-87"/>
     <use x="836.361328" xlink:href="#DejaVuSans-101"/>
     <use x="897.884766" xlink:href="#DejaVuSans-97"/>
     <use x="959.164062" xlink:href="#DejaVuSans-108"/>
     <use x="986.947266" xlink:href="#DejaVuSans-116"/>
     <use x="1026.15625" xlink:href="#DejaVuSans-104"/>
    </g>
   </g>
  </g>
 </g>
 <defs>
  <clipPath id="pe76348a6cf">
   <rect height="554.4" width="842.4" x="10.8" y="10.8"/>
  </clipPath>
 </defs>
</svg>
